%
M48
M72
T01C0.01200
T02C0.01378
T03C0.03622
T04C0.03800
T05C0.03937
T06C0.04000
T07C0.04921
T08C0.05118
T09C0.05315
T10C0.06298
T11C0.06299
T12C0.10000
T13C0.11811
T14C0.12598
%
T01
X54742Y59733
X56342Y68333
X44142Y67733
X64142Y83833
X66942Y80033
X71681Y75472
X73402Y78794
X71342Y91833
X71342Y95233
X74742Y102133
X71342Y103833
X71342Y107433
X72242Y117133
X69242Y118933
X55942Y118833
X56142Y115233
X55942Y111933
X55742Y108733
X86542Y89733
X87142Y94533
X89342Y96933
X91542Y94333
X93742Y97133
X116742Y91933
X125742Y95733
X116542Y110133
X129142Y114733
X141542Y110333
X145442Y105133
X149942Y100533
X146342Y91733
X146742Y87733
X147742Y83733
X116342Y64733
X110142Y67733
X106342Y67933
X102542Y67733
X98542Y67533
X96442Y70533
X92342Y69133
X85342Y56533
X145142Y118933
X126542Y146333
X124142Y155333
X121742Y158533
X117342Y160933
X126142Y171933
X122742Y180533
X114942Y187333
X111942Y183533
X100142Y186733
X91942Y185133
X92542Y181733
X88342Y184533
X88142Y187733
X88305Y190970
X86742Y193933
X75342Y201733
X75068Y206133
X75742Y209333
X74942Y212733
X69142Y208533
X67042Y205133
X44142Y204133
X43896Y200933
X44142Y196333
X43942Y193133
X44142Y207533
X44342Y210733
X56142Y234133
X44750Y236051
X45342Y241333
X58313Y245458
X60742Y247602
X68579Y253296
X70942Y251133
X70942Y247933
X67542Y256496
X65116Y258596
X61557Y258918
X54567Y260307
X53342Y257107
X51742Y262407
X54701Y264533
X47542Y262133
X47542Y258733
X62342Y272333
X66742Y281133
X75342Y275533
X86542Y286533
X89542Y285133
X89142Y278180
X92742Y277933
X87942Y274133
X87342Y270833
X98542Y269933
X104142Y266933
X103342Y261333
X111142Y268733
X125742Y269933
X131142Y267733
X148342Y252333
X146342Y249533
X151542Y250933
X158742Y240133
X157942Y230933
X163342Y259333
X124142Y233233
X116542Y228933
X116342Y221733
X101742Y212533
X115142Y199533
X120942Y198933
X140342Y183033
X141342Y179833
X139542Y168333
X135942Y165533
X152742Y164533
X153942Y185333
X100342Y140533
X94942Y140933
X93342Y135933
X105930Y130246
X73960Y158145
X72142Y162933
X69142Y161333
X67042Y164933
X64742Y169733
X61542Y172133
X59742Y169333
X56342Y169333
X43942Y157333
X42942Y178133
X87742Y172333
X88142Y175533
X91942Y173133
X90542Y169933
X97342Y175333
X91942Y227933
X96342Y229033
X95342Y233533
X99342Y234333
X88357Y233118
X102542Y293733
X102142Y300733
X88542Y306133
X74942Y296133
X64742Y302933
X59342Y302533
X57742Y305333
X56142Y300733
X60542Y297133
X55542Y315733
X86942Y329733
X91942Y329733
X96742Y329733
X102742Y329933
X132742Y297733
X210942Y218733
X219942Y221733
X220742Y217333
X225342Y218533
X219542Y208133
X221142Y204333
X221061Y193733
X220961Y190333
X227542Y180133
X236142Y186933
X238842Y194133
X239281Y197472
X242802Y198994
X246003Y199627
X248142Y194933
X252742Y199533
X258081Y203672
X262602Y204194
X259542Y198533
X255342Y191333
X258706Y179769
X259024Y171533
X263542Y171333
X258402Y160379
X247142Y160533
X239342Y163733
X234142Y163533
X233203Y152533
X225542Y150133
X218905Y147970
X216742Y150333
X217342Y160333
X210942Y159933
X216742Y168333
X241142Y150333
X239242Y145933
X246481Y141794
X247402Y137872
X256542Y130733
X230342Y117933
X229142Y138333
X210942Y133533
X261342Y95533
X243942Y70533
X224542Y70533
X214142Y75533
X213542Y60733
X216542Y53533
X212542Y45733
X342742Y170133
X354342Y175333
X356942Y178733
X363542Y176133
X366542Y178933
X382342Y178733
X394142Y145733
X405942Y138333
X409236Y138133
X408542Y134933
X409142Y131733
X409142Y123333
X409142Y113933
X421498Y137533
X353342Y106733
X345742Y115133
X284342Y195733
X269142Y207533
X257442Y220733
X253842Y222933
X264142Y223533
X272342Y231733
X284742Y224933
X288742Y228033
X240202Y208472
X236881Y209394
X233142Y194333
T02
X237103Y214772
X175942Y247533
X159142Y268533
X145342Y244733
X150942Y235733
X139942Y229644
X139894Y222581
X143342Y222933
X137942Y218933
X126942Y213333
X123342Y213133
X117142Y210933
X114942Y207733
X115142Y204333
X126490Y203282
X137942Y206533
X144742Y196333
X144331Y191733
X148142Y190722
X154342Y192333
X158542Y198533
X164742Y198733
X155942Y206333
X154142Y212333
X153542Y216333
X165542Y218933
X134942Y239333
X127142Y244533
X127342Y273733
X127424Y277155
X127142Y280533
X129742Y282933
X139342Y293897
X111542Y274333
X101342Y284533
X101142Y287933
X97542Y285133
X97742Y281755
X92542Y288977
X92424Y292355
X92142Y295733
X88342Y297533
X88279Y290144
X74342Y287333
X74342Y283733
X68142Y286333
X63831Y296733
X70001Y306333
X73226Y308527
X74794Y304081
X74342Y300533
X69542Y313933
X81942Y329533
X87542Y310933
X99942Y317933
X69342Y269933
X73342Y269133
X64742Y269533
X76548Y253950
X79342Y256133
X81326Y252733
X88342Y256133
X90593Y260882
X93142Y244733
X74142Y243133
X70931Y232533
X74879Y227796
X73942Y223133
X86542Y217133
X86215Y213755
X97194Y213985
X98742Y209522
X102020Y207100
X99142Y204911
X99942Y201533
X99542Y197933
X92942Y177444
X95593Y158133
X101742Y155933
X109342Y149533
X109342Y143733
X115542Y141133
X124942Y151933
X127342Y163733
X118237Y174237
X112142Y165733
X112942Y159533
X134142Y182733
X138142Y190733
X128181Y190384
X145142Y167733
X149742Y166722
X162542Y172333
X162542Y176333
X169742Y163533
X181542Y134933
X183342Y128533
X183542Y124333
X151542Y128733
X149142Y135333
X141342Y136533
X127942Y131383
X149766Y118333
X131342Y102422
X134742Y96333
X124742Y108133
X102542Y130933
X43842Y189833
X55542Y205533
X100694Y219485
X43942Y256133
X44142Y71133
X44342Y64133
X49942Y61733
X80542Y57733
X136942Y68133
X136542Y72333
X368742Y273933
X316342Y312733
X301742Y311333
X280142Y325533
T03
X229835Y261383
X229835Y253509
X229835Y245635
X229835Y237761
T04
X65442Y56068
T05
X264080Y210343
X269080Y220343
X274080Y210343
X284080Y210343
X294080Y210343
X299080Y220343
X289080Y220343
X279080Y220343
X296481Y258650
X306481Y264635
X266678Y264635
X256678Y258650
X343880Y195523
X353880Y195523
X363880Y195523
X368880Y185523
X358880Y185523
X348880Y185523
X373880Y195523
X378880Y185523
X376281Y147216
X386281Y141231
X346478Y141231
X336478Y147216
T06
X155142Y148333
X145142Y148333
X131142Y199733
X131142Y209733
X131142Y219733
T07
X297832Y80333
X315942Y62223
X341926Y69703
X341926Y80333
X341926Y90963
X326572Y106317
X315942Y106317
X305312Y106317
X368642Y250523
X386752Y268633
X379272Y294617
X368642Y294617
X358012Y294617
X342658Y279263
X342658Y268633
X342658Y258003
T08
X359390Y268633
X377894Y268633
X315942Y89585
X315942Y71081
T09
X240543Y236698
X219126Y236698
X219126Y264257
X240543Y264257
T10
X65442Y319060
T11
X251737Y233513
X311580Y233513
X331537Y172354
X391380Y172354
T12
X184942Y46033
X183742Y329233
X45842Y329233
T13
X263169Y139317
X306942Y122333
X308969Y195635
X343442Y238633
X383442Y238633
X377442Y310633
X340942Y50333
X300942Y50333
T14
X338880Y160523
X383880Y160523
X304080Y245343
X259080Y245343
M30
