G75*
%MOIN*%
%OFA0B0*%
%FSLAX25Y25*%
%IPPOS*%
%LPD*%
%AMOC8*
5,1,8,0,0,1.08239X$1,22.5*
%
%ADD10C,0.00000*%
%ADD11C,0.10000*%
%ADD12C,0.11811*%
%ADD13C,0.00600*%
%ADD14C,0.00500*%
%ADD15R,0.05700X0.03800*%
%ADD16R,0.07874X0.01378*%
%ADD17R,0.18110X0.18110*%
%ADD18C,0.06298*%
%ADD19C,0.03800*%
%ADD20R,0.03959X0.04724*%
%ADD21R,0.04724X0.03959*%
%ADD22R,0.03600X0.03200*%
%ADD23R,0.03800X0.05700*%
%ADD24R,0.00866X0.01378*%
%ADD25R,0.01772X0.00866*%
%ADD26R,0.01378X0.00866*%
%ADD27C,0.06500*%
%ADD28R,0.03800X0.03600*%
%ADD29R,0.01181X0.04724*%
%ADD30R,0.04724X0.01181*%
%ADD31R,0.03200X0.03600*%
%ADD32C,0.07000*%
%ADD33R,0.03200X0.04200*%
%ADD34R,0.03600X0.03800*%
%ADD35C,0.00787*%
%ADD36C,0.07400*%
%ADD37C,0.09449*%
%ADD38C,0.06693*%
%ADD39C,0.12598*%
%ADD40C,0.05906*%
%ADD41C,0.07972*%
%ADD42C,0.02756*%
%ADD43R,0.06496X0.02362*%
%ADD44R,0.06000X0.02300*%
%ADD45R,0.03600X0.04100*%
%ADD46R,0.02200X0.02400*%
%ADD47R,0.04400X0.05900*%
%ADD48R,0.03400X0.02400*%
%ADD49R,0.02800X0.04900*%
%ADD50R,0.02800X0.02800*%
%ADD51C,0.07874*%
%ADD52R,0.11811X0.02362*%
%ADD53R,0.08661X0.02362*%
%ADD54R,0.10236X0.02362*%
D10*
X0063542Y0056068D02*
X0063544Y0056155D01*
X0063550Y0056242D01*
X0063560Y0056329D01*
X0063574Y0056415D01*
X0063592Y0056500D01*
X0063613Y0056584D01*
X0063639Y0056668D01*
X0063668Y0056750D01*
X0063702Y0056830D01*
X0063738Y0056909D01*
X0063779Y0056986D01*
X0063823Y0057062D01*
X0063870Y0057135D01*
X0063920Y0057206D01*
X0063974Y0057274D01*
X0064031Y0057340D01*
X0064091Y0057404D01*
X0064153Y0057464D01*
X0064219Y0057522D01*
X0064287Y0057576D01*
X0064357Y0057628D01*
X0064430Y0057676D01*
X0064505Y0057721D01*
X0064581Y0057762D01*
X0064660Y0057800D01*
X0064740Y0057834D01*
X0064822Y0057864D01*
X0064905Y0057890D01*
X0064989Y0057913D01*
X0065074Y0057932D01*
X0065160Y0057947D01*
X0065246Y0057958D01*
X0065333Y0057965D01*
X0065420Y0057968D01*
X0065507Y0057967D01*
X0065594Y0057962D01*
X0065681Y0057953D01*
X0065767Y0057940D01*
X0065853Y0057923D01*
X0065937Y0057902D01*
X0066021Y0057878D01*
X0066103Y0057849D01*
X0066184Y0057817D01*
X0066264Y0057781D01*
X0066341Y0057742D01*
X0066417Y0057699D01*
X0066491Y0057652D01*
X0066562Y0057603D01*
X0066631Y0057550D01*
X0066698Y0057493D01*
X0066762Y0057434D01*
X0066823Y0057372D01*
X0066882Y0057308D01*
X0066937Y0057240D01*
X0066989Y0057171D01*
X0067038Y0057099D01*
X0067084Y0057024D01*
X0067126Y0056948D01*
X0067164Y0056870D01*
X0067199Y0056790D01*
X0067231Y0056709D01*
X0067258Y0056626D01*
X0067282Y0056542D01*
X0067302Y0056457D01*
X0067318Y0056372D01*
X0067330Y0056285D01*
X0067338Y0056199D01*
X0067342Y0056112D01*
X0067342Y0056024D01*
X0067338Y0055937D01*
X0067330Y0055851D01*
X0067318Y0055764D01*
X0067302Y0055679D01*
X0067282Y0055594D01*
X0067258Y0055510D01*
X0067231Y0055427D01*
X0067199Y0055346D01*
X0067164Y0055266D01*
X0067126Y0055188D01*
X0067084Y0055112D01*
X0067038Y0055037D01*
X0066989Y0054965D01*
X0066937Y0054896D01*
X0066882Y0054828D01*
X0066823Y0054764D01*
X0066762Y0054702D01*
X0066698Y0054643D01*
X0066631Y0054586D01*
X0066562Y0054533D01*
X0066491Y0054484D01*
X0066417Y0054437D01*
X0066341Y0054394D01*
X0066264Y0054355D01*
X0066184Y0054319D01*
X0066103Y0054287D01*
X0066021Y0054258D01*
X0065937Y0054234D01*
X0065853Y0054213D01*
X0065767Y0054196D01*
X0065681Y0054183D01*
X0065594Y0054174D01*
X0065507Y0054169D01*
X0065420Y0054168D01*
X0065333Y0054171D01*
X0065246Y0054178D01*
X0065160Y0054189D01*
X0065074Y0054204D01*
X0064989Y0054223D01*
X0064905Y0054246D01*
X0064822Y0054272D01*
X0064740Y0054302D01*
X0064660Y0054336D01*
X0064581Y0054374D01*
X0064505Y0054415D01*
X0064430Y0054460D01*
X0064357Y0054508D01*
X0064287Y0054560D01*
X0064219Y0054614D01*
X0064153Y0054672D01*
X0064091Y0054732D01*
X0064031Y0054796D01*
X0063974Y0054862D01*
X0063920Y0054930D01*
X0063870Y0055001D01*
X0063823Y0055074D01*
X0063779Y0055150D01*
X0063738Y0055227D01*
X0063702Y0055306D01*
X0063668Y0055386D01*
X0063639Y0055468D01*
X0063613Y0055552D01*
X0063592Y0055636D01*
X0063574Y0055721D01*
X0063560Y0055807D01*
X0063550Y0055894D01*
X0063544Y0055981D01*
X0063542Y0056068D01*
X0179942Y0046033D02*
X0179944Y0046174D01*
X0179950Y0046315D01*
X0179960Y0046455D01*
X0179974Y0046595D01*
X0179992Y0046735D01*
X0180013Y0046874D01*
X0180039Y0047013D01*
X0180068Y0047151D01*
X0180102Y0047287D01*
X0180139Y0047423D01*
X0180180Y0047558D01*
X0180225Y0047692D01*
X0180274Y0047824D01*
X0180326Y0047955D01*
X0180382Y0048084D01*
X0180442Y0048211D01*
X0180505Y0048337D01*
X0180571Y0048461D01*
X0180642Y0048584D01*
X0180715Y0048704D01*
X0180792Y0048822D01*
X0180872Y0048938D01*
X0180956Y0049051D01*
X0181042Y0049162D01*
X0181132Y0049271D01*
X0181225Y0049377D01*
X0181320Y0049480D01*
X0181419Y0049581D01*
X0181520Y0049679D01*
X0181624Y0049774D01*
X0181731Y0049866D01*
X0181840Y0049955D01*
X0181952Y0050040D01*
X0182066Y0050123D01*
X0182182Y0050203D01*
X0182301Y0050279D01*
X0182422Y0050351D01*
X0182544Y0050421D01*
X0182669Y0050486D01*
X0182795Y0050549D01*
X0182923Y0050607D01*
X0183053Y0050662D01*
X0183184Y0050714D01*
X0183317Y0050761D01*
X0183451Y0050805D01*
X0183586Y0050846D01*
X0183722Y0050882D01*
X0183859Y0050914D01*
X0183997Y0050943D01*
X0184135Y0050968D01*
X0184275Y0050988D01*
X0184415Y0051005D01*
X0184555Y0051018D01*
X0184696Y0051027D01*
X0184836Y0051032D01*
X0184977Y0051033D01*
X0185118Y0051030D01*
X0185259Y0051023D01*
X0185399Y0051012D01*
X0185539Y0050997D01*
X0185679Y0050978D01*
X0185818Y0050956D01*
X0185956Y0050929D01*
X0186094Y0050899D01*
X0186230Y0050864D01*
X0186366Y0050826D01*
X0186500Y0050784D01*
X0186634Y0050738D01*
X0186766Y0050689D01*
X0186896Y0050635D01*
X0187025Y0050578D01*
X0187152Y0050518D01*
X0187278Y0050454D01*
X0187401Y0050386D01*
X0187523Y0050315D01*
X0187643Y0050241D01*
X0187760Y0050163D01*
X0187875Y0050082D01*
X0187988Y0049998D01*
X0188099Y0049911D01*
X0188207Y0049820D01*
X0188312Y0049727D01*
X0188415Y0049630D01*
X0188515Y0049531D01*
X0188612Y0049429D01*
X0188706Y0049324D01*
X0188797Y0049217D01*
X0188885Y0049107D01*
X0188970Y0048995D01*
X0189052Y0048880D01*
X0189131Y0048763D01*
X0189206Y0048644D01*
X0189278Y0048523D01*
X0189346Y0048400D01*
X0189411Y0048275D01*
X0189473Y0048148D01*
X0189530Y0048019D01*
X0189585Y0047889D01*
X0189635Y0047758D01*
X0189682Y0047625D01*
X0189725Y0047491D01*
X0189764Y0047355D01*
X0189799Y0047219D01*
X0189831Y0047082D01*
X0189858Y0046944D01*
X0189882Y0046805D01*
X0189902Y0046665D01*
X0189918Y0046525D01*
X0189930Y0046385D01*
X0189938Y0046244D01*
X0189942Y0046103D01*
X0189942Y0045963D01*
X0189938Y0045822D01*
X0189930Y0045681D01*
X0189918Y0045541D01*
X0189902Y0045401D01*
X0189882Y0045261D01*
X0189858Y0045122D01*
X0189831Y0044984D01*
X0189799Y0044847D01*
X0189764Y0044711D01*
X0189725Y0044575D01*
X0189682Y0044441D01*
X0189635Y0044308D01*
X0189585Y0044177D01*
X0189530Y0044047D01*
X0189473Y0043918D01*
X0189411Y0043791D01*
X0189346Y0043666D01*
X0189278Y0043543D01*
X0189206Y0043422D01*
X0189131Y0043303D01*
X0189052Y0043186D01*
X0188970Y0043071D01*
X0188885Y0042959D01*
X0188797Y0042849D01*
X0188706Y0042742D01*
X0188612Y0042637D01*
X0188515Y0042535D01*
X0188415Y0042436D01*
X0188312Y0042339D01*
X0188207Y0042246D01*
X0188099Y0042155D01*
X0187988Y0042068D01*
X0187875Y0041984D01*
X0187760Y0041903D01*
X0187643Y0041825D01*
X0187523Y0041751D01*
X0187401Y0041680D01*
X0187278Y0041612D01*
X0187152Y0041548D01*
X0187025Y0041488D01*
X0186896Y0041431D01*
X0186766Y0041377D01*
X0186634Y0041328D01*
X0186500Y0041282D01*
X0186366Y0041240D01*
X0186230Y0041202D01*
X0186094Y0041167D01*
X0185956Y0041137D01*
X0185818Y0041110D01*
X0185679Y0041088D01*
X0185539Y0041069D01*
X0185399Y0041054D01*
X0185259Y0041043D01*
X0185118Y0041036D01*
X0184977Y0041033D01*
X0184836Y0041034D01*
X0184696Y0041039D01*
X0184555Y0041048D01*
X0184415Y0041061D01*
X0184275Y0041078D01*
X0184135Y0041098D01*
X0183997Y0041123D01*
X0183859Y0041152D01*
X0183722Y0041184D01*
X0183586Y0041220D01*
X0183451Y0041261D01*
X0183317Y0041305D01*
X0183184Y0041352D01*
X0183053Y0041404D01*
X0182923Y0041459D01*
X0182795Y0041517D01*
X0182669Y0041580D01*
X0182544Y0041645D01*
X0182422Y0041715D01*
X0182301Y0041787D01*
X0182182Y0041863D01*
X0182066Y0041943D01*
X0181952Y0042026D01*
X0181840Y0042111D01*
X0181731Y0042200D01*
X0181624Y0042292D01*
X0181520Y0042387D01*
X0181419Y0042485D01*
X0181320Y0042586D01*
X0181225Y0042689D01*
X0181132Y0042795D01*
X0181042Y0042904D01*
X0180956Y0043015D01*
X0180872Y0043128D01*
X0180792Y0043244D01*
X0180715Y0043362D01*
X0180642Y0043482D01*
X0180571Y0043605D01*
X0180505Y0043729D01*
X0180442Y0043855D01*
X0180382Y0043982D01*
X0180326Y0044111D01*
X0180274Y0044242D01*
X0180225Y0044374D01*
X0180180Y0044508D01*
X0180139Y0044643D01*
X0180102Y0044779D01*
X0180068Y0044915D01*
X0180039Y0045053D01*
X0180013Y0045192D01*
X0179992Y0045331D01*
X0179974Y0045471D01*
X0179960Y0045611D01*
X0179950Y0045751D01*
X0179944Y0045892D01*
X0179942Y0046033D01*
X0257263Y0139317D02*
X0257265Y0139470D01*
X0257271Y0139624D01*
X0257281Y0139777D01*
X0257295Y0139929D01*
X0257313Y0140082D01*
X0257335Y0140233D01*
X0257360Y0140384D01*
X0257390Y0140535D01*
X0257424Y0140685D01*
X0257461Y0140833D01*
X0257502Y0140981D01*
X0257547Y0141127D01*
X0257596Y0141273D01*
X0257649Y0141417D01*
X0257705Y0141559D01*
X0257765Y0141700D01*
X0257829Y0141840D01*
X0257896Y0141978D01*
X0257967Y0142114D01*
X0258042Y0142248D01*
X0258119Y0142380D01*
X0258201Y0142510D01*
X0258285Y0142638D01*
X0258373Y0142764D01*
X0258464Y0142887D01*
X0258558Y0143008D01*
X0258656Y0143126D01*
X0258756Y0143242D01*
X0258860Y0143355D01*
X0258966Y0143466D01*
X0259075Y0143574D01*
X0259187Y0143679D01*
X0259301Y0143780D01*
X0259419Y0143879D01*
X0259538Y0143975D01*
X0259660Y0144068D01*
X0259785Y0144157D01*
X0259912Y0144244D01*
X0260041Y0144326D01*
X0260172Y0144406D01*
X0260305Y0144482D01*
X0260440Y0144555D01*
X0260577Y0144624D01*
X0260716Y0144689D01*
X0260856Y0144751D01*
X0260998Y0144809D01*
X0261141Y0144864D01*
X0261286Y0144915D01*
X0261432Y0144962D01*
X0261579Y0145005D01*
X0261727Y0145044D01*
X0261876Y0145080D01*
X0262026Y0145111D01*
X0262177Y0145139D01*
X0262328Y0145163D01*
X0262481Y0145183D01*
X0262633Y0145199D01*
X0262786Y0145211D01*
X0262939Y0145219D01*
X0263092Y0145223D01*
X0263246Y0145223D01*
X0263399Y0145219D01*
X0263552Y0145211D01*
X0263705Y0145199D01*
X0263857Y0145183D01*
X0264010Y0145163D01*
X0264161Y0145139D01*
X0264312Y0145111D01*
X0264462Y0145080D01*
X0264611Y0145044D01*
X0264759Y0145005D01*
X0264906Y0144962D01*
X0265052Y0144915D01*
X0265197Y0144864D01*
X0265340Y0144809D01*
X0265482Y0144751D01*
X0265622Y0144689D01*
X0265761Y0144624D01*
X0265898Y0144555D01*
X0266033Y0144482D01*
X0266166Y0144406D01*
X0266297Y0144326D01*
X0266426Y0144244D01*
X0266553Y0144157D01*
X0266678Y0144068D01*
X0266800Y0143975D01*
X0266919Y0143879D01*
X0267037Y0143780D01*
X0267151Y0143679D01*
X0267263Y0143574D01*
X0267372Y0143466D01*
X0267478Y0143355D01*
X0267582Y0143242D01*
X0267682Y0143126D01*
X0267780Y0143008D01*
X0267874Y0142887D01*
X0267965Y0142764D01*
X0268053Y0142638D01*
X0268137Y0142510D01*
X0268219Y0142380D01*
X0268296Y0142248D01*
X0268371Y0142114D01*
X0268442Y0141978D01*
X0268509Y0141840D01*
X0268573Y0141700D01*
X0268633Y0141559D01*
X0268689Y0141417D01*
X0268742Y0141273D01*
X0268791Y0141127D01*
X0268836Y0140981D01*
X0268877Y0140833D01*
X0268914Y0140685D01*
X0268948Y0140535D01*
X0268978Y0140384D01*
X0269003Y0140233D01*
X0269025Y0140082D01*
X0269043Y0139929D01*
X0269057Y0139777D01*
X0269067Y0139624D01*
X0269073Y0139470D01*
X0269075Y0139317D01*
X0269073Y0139164D01*
X0269067Y0139010D01*
X0269057Y0138857D01*
X0269043Y0138705D01*
X0269025Y0138552D01*
X0269003Y0138401D01*
X0268978Y0138250D01*
X0268948Y0138099D01*
X0268914Y0137949D01*
X0268877Y0137801D01*
X0268836Y0137653D01*
X0268791Y0137507D01*
X0268742Y0137361D01*
X0268689Y0137217D01*
X0268633Y0137075D01*
X0268573Y0136934D01*
X0268509Y0136794D01*
X0268442Y0136656D01*
X0268371Y0136520D01*
X0268296Y0136386D01*
X0268219Y0136254D01*
X0268137Y0136124D01*
X0268053Y0135996D01*
X0267965Y0135870D01*
X0267874Y0135747D01*
X0267780Y0135626D01*
X0267682Y0135508D01*
X0267582Y0135392D01*
X0267478Y0135279D01*
X0267372Y0135168D01*
X0267263Y0135060D01*
X0267151Y0134955D01*
X0267037Y0134854D01*
X0266919Y0134755D01*
X0266800Y0134659D01*
X0266678Y0134566D01*
X0266553Y0134477D01*
X0266426Y0134390D01*
X0266297Y0134308D01*
X0266166Y0134228D01*
X0266033Y0134152D01*
X0265898Y0134079D01*
X0265761Y0134010D01*
X0265622Y0133945D01*
X0265482Y0133883D01*
X0265340Y0133825D01*
X0265197Y0133770D01*
X0265052Y0133719D01*
X0264906Y0133672D01*
X0264759Y0133629D01*
X0264611Y0133590D01*
X0264462Y0133554D01*
X0264312Y0133523D01*
X0264161Y0133495D01*
X0264010Y0133471D01*
X0263857Y0133451D01*
X0263705Y0133435D01*
X0263552Y0133423D01*
X0263399Y0133415D01*
X0263246Y0133411D01*
X0263092Y0133411D01*
X0262939Y0133415D01*
X0262786Y0133423D01*
X0262633Y0133435D01*
X0262481Y0133451D01*
X0262328Y0133471D01*
X0262177Y0133495D01*
X0262026Y0133523D01*
X0261876Y0133554D01*
X0261727Y0133590D01*
X0261579Y0133629D01*
X0261432Y0133672D01*
X0261286Y0133719D01*
X0261141Y0133770D01*
X0260998Y0133825D01*
X0260856Y0133883D01*
X0260716Y0133945D01*
X0260577Y0134010D01*
X0260440Y0134079D01*
X0260305Y0134152D01*
X0260172Y0134228D01*
X0260041Y0134308D01*
X0259912Y0134390D01*
X0259785Y0134477D01*
X0259660Y0134566D01*
X0259538Y0134659D01*
X0259419Y0134755D01*
X0259301Y0134854D01*
X0259187Y0134955D01*
X0259075Y0135060D01*
X0258966Y0135168D01*
X0258860Y0135279D01*
X0258756Y0135392D01*
X0258656Y0135508D01*
X0258558Y0135626D01*
X0258464Y0135747D01*
X0258373Y0135870D01*
X0258285Y0135996D01*
X0258201Y0136124D01*
X0258119Y0136254D01*
X0258042Y0136386D01*
X0257967Y0136520D01*
X0257896Y0136656D01*
X0257829Y0136794D01*
X0257765Y0136934D01*
X0257705Y0137075D01*
X0257649Y0137217D01*
X0257596Y0137361D01*
X0257547Y0137507D01*
X0257502Y0137653D01*
X0257461Y0137801D01*
X0257424Y0137949D01*
X0257390Y0138099D01*
X0257360Y0138250D01*
X0257335Y0138401D01*
X0257313Y0138552D01*
X0257295Y0138705D01*
X0257281Y0138857D01*
X0257271Y0139010D01*
X0257265Y0139164D01*
X0257263Y0139317D01*
X0301036Y0122333D02*
X0301038Y0122486D01*
X0301044Y0122640D01*
X0301054Y0122793D01*
X0301068Y0122945D01*
X0301086Y0123098D01*
X0301108Y0123249D01*
X0301133Y0123400D01*
X0301163Y0123551D01*
X0301197Y0123701D01*
X0301234Y0123849D01*
X0301275Y0123997D01*
X0301320Y0124143D01*
X0301369Y0124289D01*
X0301422Y0124433D01*
X0301478Y0124575D01*
X0301538Y0124716D01*
X0301602Y0124856D01*
X0301669Y0124994D01*
X0301740Y0125130D01*
X0301815Y0125264D01*
X0301892Y0125396D01*
X0301974Y0125526D01*
X0302058Y0125654D01*
X0302146Y0125780D01*
X0302237Y0125903D01*
X0302331Y0126024D01*
X0302429Y0126142D01*
X0302529Y0126258D01*
X0302633Y0126371D01*
X0302739Y0126482D01*
X0302848Y0126590D01*
X0302960Y0126695D01*
X0303074Y0126796D01*
X0303192Y0126895D01*
X0303311Y0126991D01*
X0303433Y0127084D01*
X0303558Y0127173D01*
X0303685Y0127260D01*
X0303814Y0127342D01*
X0303945Y0127422D01*
X0304078Y0127498D01*
X0304213Y0127571D01*
X0304350Y0127640D01*
X0304489Y0127705D01*
X0304629Y0127767D01*
X0304771Y0127825D01*
X0304914Y0127880D01*
X0305059Y0127931D01*
X0305205Y0127978D01*
X0305352Y0128021D01*
X0305500Y0128060D01*
X0305649Y0128096D01*
X0305799Y0128127D01*
X0305950Y0128155D01*
X0306101Y0128179D01*
X0306254Y0128199D01*
X0306406Y0128215D01*
X0306559Y0128227D01*
X0306712Y0128235D01*
X0306865Y0128239D01*
X0307019Y0128239D01*
X0307172Y0128235D01*
X0307325Y0128227D01*
X0307478Y0128215D01*
X0307630Y0128199D01*
X0307783Y0128179D01*
X0307934Y0128155D01*
X0308085Y0128127D01*
X0308235Y0128096D01*
X0308384Y0128060D01*
X0308532Y0128021D01*
X0308679Y0127978D01*
X0308825Y0127931D01*
X0308970Y0127880D01*
X0309113Y0127825D01*
X0309255Y0127767D01*
X0309395Y0127705D01*
X0309534Y0127640D01*
X0309671Y0127571D01*
X0309806Y0127498D01*
X0309939Y0127422D01*
X0310070Y0127342D01*
X0310199Y0127260D01*
X0310326Y0127173D01*
X0310451Y0127084D01*
X0310573Y0126991D01*
X0310692Y0126895D01*
X0310810Y0126796D01*
X0310924Y0126695D01*
X0311036Y0126590D01*
X0311145Y0126482D01*
X0311251Y0126371D01*
X0311355Y0126258D01*
X0311455Y0126142D01*
X0311553Y0126024D01*
X0311647Y0125903D01*
X0311738Y0125780D01*
X0311826Y0125654D01*
X0311910Y0125526D01*
X0311992Y0125396D01*
X0312069Y0125264D01*
X0312144Y0125130D01*
X0312215Y0124994D01*
X0312282Y0124856D01*
X0312346Y0124716D01*
X0312406Y0124575D01*
X0312462Y0124433D01*
X0312515Y0124289D01*
X0312564Y0124143D01*
X0312609Y0123997D01*
X0312650Y0123849D01*
X0312687Y0123701D01*
X0312721Y0123551D01*
X0312751Y0123400D01*
X0312776Y0123249D01*
X0312798Y0123098D01*
X0312816Y0122945D01*
X0312830Y0122793D01*
X0312840Y0122640D01*
X0312846Y0122486D01*
X0312848Y0122333D01*
X0312846Y0122180D01*
X0312840Y0122026D01*
X0312830Y0121873D01*
X0312816Y0121721D01*
X0312798Y0121568D01*
X0312776Y0121417D01*
X0312751Y0121266D01*
X0312721Y0121115D01*
X0312687Y0120965D01*
X0312650Y0120817D01*
X0312609Y0120669D01*
X0312564Y0120523D01*
X0312515Y0120377D01*
X0312462Y0120233D01*
X0312406Y0120091D01*
X0312346Y0119950D01*
X0312282Y0119810D01*
X0312215Y0119672D01*
X0312144Y0119536D01*
X0312069Y0119402D01*
X0311992Y0119270D01*
X0311910Y0119140D01*
X0311826Y0119012D01*
X0311738Y0118886D01*
X0311647Y0118763D01*
X0311553Y0118642D01*
X0311455Y0118524D01*
X0311355Y0118408D01*
X0311251Y0118295D01*
X0311145Y0118184D01*
X0311036Y0118076D01*
X0310924Y0117971D01*
X0310810Y0117870D01*
X0310692Y0117771D01*
X0310573Y0117675D01*
X0310451Y0117582D01*
X0310326Y0117493D01*
X0310199Y0117406D01*
X0310070Y0117324D01*
X0309939Y0117244D01*
X0309806Y0117168D01*
X0309671Y0117095D01*
X0309534Y0117026D01*
X0309395Y0116961D01*
X0309255Y0116899D01*
X0309113Y0116841D01*
X0308970Y0116786D01*
X0308825Y0116735D01*
X0308679Y0116688D01*
X0308532Y0116645D01*
X0308384Y0116606D01*
X0308235Y0116570D01*
X0308085Y0116539D01*
X0307934Y0116511D01*
X0307783Y0116487D01*
X0307630Y0116467D01*
X0307478Y0116451D01*
X0307325Y0116439D01*
X0307172Y0116431D01*
X0307019Y0116427D01*
X0306865Y0116427D01*
X0306712Y0116431D01*
X0306559Y0116439D01*
X0306406Y0116451D01*
X0306254Y0116467D01*
X0306101Y0116487D01*
X0305950Y0116511D01*
X0305799Y0116539D01*
X0305649Y0116570D01*
X0305500Y0116606D01*
X0305352Y0116645D01*
X0305205Y0116688D01*
X0305059Y0116735D01*
X0304914Y0116786D01*
X0304771Y0116841D01*
X0304629Y0116899D01*
X0304489Y0116961D01*
X0304350Y0117026D01*
X0304213Y0117095D01*
X0304078Y0117168D01*
X0303945Y0117244D01*
X0303814Y0117324D01*
X0303685Y0117406D01*
X0303558Y0117493D01*
X0303433Y0117582D01*
X0303311Y0117675D01*
X0303192Y0117771D01*
X0303074Y0117870D01*
X0302960Y0117971D01*
X0302848Y0118076D01*
X0302739Y0118184D01*
X0302633Y0118295D01*
X0302529Y0118408D01*
X0302429Y0118524D01*
X0302331Y0118642D01*
X0302237Y0118763D01*
X0302146Y0118886D01*
X0302058Y0119012D01*
X0301974Y0119140D01*
X0301892Y0119270D01*
X0301815Y0119402D01*
X0301740Y0119536D01*
X0301669Y0119672D01*
X0301602Y0119810D01*
X0301538Y0119950D01*
X0301478Y0120091D01*
X0301422Y0120233D01*
X0301369Y0120377D01*
X0301320Y0120523D01*
X0301275Y0120669D01*
X0301234Y0120817D01*
X0301197Y0120965D01*
X0301163Y0121115D01*
X0301133Y0121266D01*
X0301108Y0121417D01*
X0301086Y0121568D01*
X0301068Y0121721D01*
X0301054Y0121873D01*
X0301044Y0122026D01*
X0301038Y0122180D01*
X0301036Y0122333D01*
X0332581Y0160523D02*
X0332583Y0160681D01*
X0332589Y0160839D01*
X0332599Y0160997D01*
X0332613Y0161155D01*
X0332631Y0161312D01*
X0332652Y0161469D01*
X0332678Y0161625D01*
X0332708Y0161781D01*
X0332741Y0161936D01*
X0332779Y0162089D01*
X0332820Y0162242D01*
X0332865Y0162394D01*
X0332914Y0162545D01*
X0332967Y0162694D01*
X0333023Y0162842D01*
X0333083Y0162988D01*
X0333147Y0163133D01*
X0333215Y0163276D01*
X0333286Y0163418D01*
X0333360Y0163558D01*
X0333438Y0163695D01*
X0333520Y0163831D01*
X0333604Y0163965D01*
X0333693Y0164096D01*
X0333784Y0164225D01*
X0333879Y0164352D01*
X0333976Y0164477D01*
X0334077Y0164599D01*
X0334181Y0164718D01*
X0334288Y0164835D01*
X0334398Y0164949D01*
X0334511Y0165060D01*
X0334626Y0165169D01*
X0334744Y0165274D01*
X0334865Y0165376D01*
X0334988Y0165476D01*
X0335114Y0165572D01*
X0335242Y0165665D01*
X0335372Y0165755D01*
X0335505Y0165841D01*
X0335640Y0165925D01*
X0335776Y0166004D01*
X0335915Y0166081D01*
X0336056Y0166153D01*
X0336198Y0166223D01*
X0336342Y0166288D01*
X0336488Y0166350D01*
X0336635Y0166408D01*
X0336784Y0166463D01*
X0336934Y0166514D01*
X0337085Y0166561D01*
X0337237Y0166604D01*
X0337390Y0166643D01*
X0337545Y0166679D01*
X0337700Y0166710D01*
X0337856Y0166738D01*
X0338012Y0166762D01*
X0338169Y0166782D01*
X0338327Y0166798D01*
X0338484Y0166810D01*
X0338643Y0166818D01*
X0338801Y0166822D01*
X0338959Y0166822D01*
X0339117Y0166818D01*
X0339276Y0166810D01*
X0339433Y0166798D01*
X0339591Y0166782D01*
X0339748Y0166762D01*
X0339904Y0166738D01*
X0340060Y0166710D01*
X0340215Y0166679D01*
X0340370Y0166643D01*
X0340523Y0166604D01*
X0340675Y0166561D01*
X0340826Y0166514D01*
X0340976Y0166463D01*
X0341125Y0166408D01*
X0341272Y0166350D01*
X0341418Y0166288D01*
X0341562Y0166223D01*
X0341704Y0166153D01*
X0341845Y0166081D01*
X0341984Y0166004D01*
X0342120Y0165925D01*
X0342255Y0165841D01*
X0342388Y0165755D01*
X0342518Y0165665D01*
X0342646Y0165572D01*
X0342772Y0165476D01*
X0342895Y0165376D01*
X0343016Y0165274D01*
X0343134Y0165169D01*
X0343249Y0165060D01*
X0343362Y0164949D01*
X0343472Y0164835D01*
X0343579Y0164718D01*
X0343683Y0164599D01*
X0343784Y0164477D01*
X0343881Y0164352D01*
X0343976Y0164225D01*
X0344067Y0164096D01*
X0344156Y0163965D01*
X0344240Y0163831D01*
X0344322Y0163695D01*
X0344400Y0163558D01*
X0344474Y0163418D01*
X0344545Y0163276D01*
X0344613Y0163133D01*
X0344677Y0162988D01*
X0344737Y0162842D01*
X0344793Y0162694D01*
X0344846Y0162545D01*
X0344895Y0162394D01*
X0344940Y0162242D01*
X0344981Y0162089D01*
X0345019Y0161936D01*
X0345052Y0161781D01*
X0345082Y0161625D01*
X0345108Y0161469D01*
X0345129Y0161312D01*
X0345147Y0161155D01*
X0345161Y0160997D01*
X0345171Y0160839D01*
X0345177Y0160681D01*
X0345179Y0160523D01*
X0345177Y0160365D01*
X0345171Y0160207D01*
X0345161Y0160049D01*
X0345147Y0159891D01*
X0345129Y0159734D01*
X0345108Y0159577D01*
X0345082Y0159421D01*
X0345052Y0159265D01*
X0345019Y0159110D01*
X0344981Y0158957D01*
X0344940Y0158804D01*
X0344895Y0158652D01*
X0344846Y0158501D01*
X0344793Y0158352D01*
X0344737Y0158204D01*
X0344677Y0158058D01*
X0344613Y0157913D01*
X0344545Y0157770D01*
X0344474Y0157628D01*
X0344400Y0157488D01*
X0344322Y0157351D01*
X0344240Y0157215D01*
X0344156Y0157081D01*
X0344067Y0156950D01*
X0343976Y0156821D01*
X0343881Y0156694D01*
X0343784Y0156569D01*
X0343683Y0156447D01*
X0343579Y0156328D01*
X0343472Y0156211D01*
X0343362Y0156097D01*
X0343249Y0155986D01*
X0343134Y0155877D01*
X0343016Y0155772D01*
X0342895Y0155670D01*
X0342772Y0155570D01*
X0342646Y0155474D01*
X0342518Y0155381D01*
X0342388Y0155291D01*
X0342255Y0155205D01*
X0342120Y0155121D01*
X0341984Y0155042D01*
X0341845Y0154965D01*
X0341704Y0154893D01*
X0341562Y0154823D01*
X0341418Y0154758D01*
X0341272Y0154696D01*
X0341125Y0154638D01*
X0340976Y0154583D01*
X0340826Y0154532D01*
X0340675Y0154485D01*
X0340523Y0154442D01*
X0340370Y0154403D01*
X0340215Y0154367D01*
X0340060Y0154336D01*
X0339904Y0154308D01*
X0339748Y0154284D01*
X0339591Y0154264D01*
X0339433Y0154248D01*
X0339276Y0154236D01*
X0339117Y0154228D01*
X0338959Y0154224D01*
X0338801Y0154224D01*
X0338643Y0154228D01*
X0338484Y0154236D01*
X0338327Y0154248D01*
X0338169Y0154264D01*
X0338012Y0154284D01*
X0337856Y0154308D01*
X0337700Y0154336D01*
X0337545Y0154367D01*
X0337390Y0154403D01*
X0337237Y0154442D01*
X0337085Y0154485D01*
X0336934Y0154532D01*
X0336784Y0154583D01*
X0336635Y0154638D01*
X0336488Y0154696D01*
X0336342Y0154758D01*
X0336198Y0154823D01*
X0336056Y0154893D01*
X0335915Y0154965D01*
X0335776Y0155042D01*
X0335640Y0155121D01*
X0335505Y0155205D01*
X0335372Y0155291D01*
X0335242Y0155381D01*
X0335114Y0155474D01*
X0334988Y0155570D01*
X0334865Y0155670D01*
X0334744Y0155772D01*
X0334626Y0155877D01*
X0334511Y0155986D01*
X0334398Y0156097D01*
X0334288Y0156211D01*
X0334181Y0156328D01*
X0334077Y0156447D01*
X0333976Y0156569D01*
X0333879Y0156694D01*
X0333784Y0156821D01*
X0333693Y0156950D01*
X0333604Y0157081D01*
X0333520Y0157215D01*
X0333438Y0157351D01*
X0333360Y0157488D01*
X0333286Y0157628D01*
X0333215Y0157770D01*
X0333147Y0157913D01*
X0333083Y0158058D01*
X0333023Y0158204D01*
X0332967Y0158352D01*
X0332914Y0158501D01*
X0332865Y0158652D01*
X0332820Y0158804D01*
X0332779Y0158957D01*
X0332741Y0159110D01*
X0332708Y0159265D01*
X0332678Y0159421D01*
X0332652Y0159577D01*
X0332631Y0159734D01*
X0332613Y0159891D01*
X0332599Y0160049D01*
X0332589Y0160207D01*
X0332583Y0160365D01*
X0332581Y0160523D01*
X0303063Y0195635D02*
X0303065Y0195788D01*
X0303071Y0195942D01*
X0303081Y0196095D01*
X0303095Y0196247D01*
X0303113Y0196400D01*
X0303135Y0196551D01*
X0303160Y0196702D01*
X0303190Y0196853D01*
X0303224Y0197003D01*
X0303261Y0197151D01*
X0303302Y0197299D01*
X0303347Y0197445D01*
X0303396Y0197591D01*
X0303449Y0197735D01*
X0303505Y0197877D01*
X0303565Y0198018D01*
X0303629Y0198158D01*
X0303696Y0198296D01*
X0303767Y0198432D01*
X0303842Y0198566D01*
X0303919Y0198698D01*
X0304001Y0198828D01*
X0304085Y0198956D01*
X0304173Y0199082D01*
X0304264Y0199205D01*
X0304358Y0199326D01*
X0304456Y0199444D01*
X0304556Y0199560D01*
X0304660Y0199673D01*
X0304766Y0199784D01*
X0304875Y0199892D01*
X0304987Y0199997D01*
X0305101Y0200098D01*
X0305219Y0200197D01*
X0305338Y0200293D01*
X0305460Y0200386D01*
X0305585Y0200475D01*
X0305712Y0200562D01*
X0305841Y0200644D01*
X0305972Y0200724D01*
X0306105Y0200800D01*
X0306240Y0200873D01*
X0306377Y0200942D01*
X0306516Y0201007D01*
X0306656Y0201069D01*
X0306798Y0201127D01*
X0306941Y0201182D01*
X0307086Y0201233D01*
X0307232Y0201280D01*
X0307379Y0201323D01*
X0307527Y0201362D01*
X0307676Y0201398D01*
X0307826Y0201429D01*
X0307977Y0201457D01*
X0308128Y0201481D01*
X0308281Y0201501D01*
X0308433Y0201517D01*
X0308586Y0201529D01*
X0308739Y0201537D01*
X0308892Y0201541D01*
X0309046Y0201541D01*
X0309199Y0201537D01*
X0309352Y0201529D01*
X0309505Y0201517D01*
X0309657Y0201501D01*
X0309810Y0201481D01*
X0309961Y0201457D01*
X0310112Y0201429D01*
X0310262Y0201398D01*
X0310411Y0201362D01*
X0310559Y0201323D01*
X0310706Y0201280D01*
X0310852Y0201233D01*
X0310997Y0201182D01*
X0311140Y0201127D01*
X0311282Y0201069D01*
X0311422Y0201007D01*
X0311561Y0200942D01*
X0311698Y0200873D01*
X0311833Y0200800D01*
X0311966Y0200724D01*
X0312097Y0200644D01*
X0312226Y0200562D01*
X0312353Y0200475D01*
X0312478Y0200386D01*
X0312600Y0200293D01*
X0312719Y0200197D01*
X0312837Y0200098D01*
X0312951Y0199997D01*
X0313063Y0199892D01*
X0313172Y0199784D01*
X0313278Y0199673D01*
X0313382Y0199560D01*
X0313482Y0199444D01*
X0313580Y0199326D01*
X0313674Y0199205D01*
X0313765Y0199082D01*
X0313853Y0198956D01*
X0313937Y0198828D01*
X0314019Y0198698D01*
X0314096Y0198566D01*
X0314171Y0198432D01*
X0314242Y0198296D01*
X0314309Y0198158D01*
X0314373Y0198018D01*
X0314433Y0197877D01*
X0314489Y0197735D01*
X0314542Y0197591D01*
X0314591Y0197445D01*
X0314636Y0197299D01*
X0314677Y0197151D01*
X0314714Y0197003D01*
X0314748Y0196853D01*
X0314778Y0196702D01*
X0314803Y0196551D01*
X0314825Y0196400D01*
X0314843Y0196247D01*
X0314857Y0196095D01*
X0314867Y0195942D01*
X0314873Y0195788D01*
X0314875Y0195635D01*
X0314873Y0195482D01*
X0314867Y0195328D01*
X0314857Y0195175D01*
X0314843Y0195023D01*
X0314825Y0194870D01*
X0314803Y0194719D01*
X0314778Y0194568D01*
X0314748Y0194417D01*
X0314714Y0194267D01*
X0314677Y0194119D01*
X0314636Y0193971D01*
X0314591Y0193825D01*
X0314542Y0193679D01*
X0314489Y0193535D01*
X0314433Y0193393D01*
X0314373Y0193252D01*
X0314309Y0193112D01*
X0314242Y0192974D01*
X0314171Y0192838D01*
X0314096Y0192704D01*
X0314019Y0192572D01*
X0313937Y0192442D01*
X0313853Y0192314D01*
X0313765Y0192188D01*
X0313674Y0192065D01*
X0313580Y0191944D01*
X0313482Y0191826D01*
X0313382Y0191710D01*
X0313278Y0191597D01*
X0313172Y0191486D01*
X0313063Y0191378D01*
X0312951Y0191273D01*
X0312837Y0191172D01*
X0312719Y0191073D01*
X0312600Y0190977D01*
X0312478Y0190884D01*
X0312353Y0190795D01*
X0312226Y0190708D01*
X0312097Y0190626D01*
X0311966Y0190546D01*
X0311833Y0190470D01*
X0311698Y0190397D01*
X0311561Y0190328D01*
X0311422Y0190263D01*
X0311282Y0190201D01*
X0311140Y0190143D01*
X0310997Y0190088D01*
X0310852Y0190037D01*
X0310706Y0189990D01*
X0310559Y0189947D01*
X0310411Y0189908D01*
X0310262Y0189872D01*
X0310112Y0189841D01*
X0309961Y0189813D01*
X0309810Y0189789D01*
X0309657Y0189769D01*
X0309505Y0189753D01*
X0309352Y0189741D01*
X0309199Y0189733D01*
X0309046Y0189729D01*
X0308892Y0189729D01*
X0308739Y0189733D01*
X0308586Y0189741D01*
X0308433Y0189753D01*
X0308281Y0189769D01*
X0308128Y0189789D01*
X0307977Y0189813D01*
X0307826Y0189841D01*
X0307676Y0189872D01*
X0307527Y0189908D01*
X0307379Y0189947D01*
X0307232Y0189990D01*
X0307086Y0190037D01*
X0306941Y0190088D01*
X0306798Y0190143D01*
X0306656Y0190201D01*
X0306516Y0190263D01*
X0306377Y0190328D01*
X0306240Y0190397D01*
X0306105Y0190470D01*
X0305972Y0190546D01*
X0305841Y0190626D01*
X0305712Y0190708D01*
X0305585Y0190795D01*
X0305460Y0190884D01*
X0305338Y0190977D01*
X0305219Y0191073D01*
X0305101Y0191172D01*
X0304987Y0191273D01*
X0304875Y0191378D01*
X0304766Y0191486D01*
X0304660Y0191597D01*
X0304556Y0191710D01*
X0304456Y0191826D01*
X0304358Y0191944D01*
X0304264Y0192065D01*
X0304173Y0192188D01*
X0304085Y0192314D01*
X0304001Y0192442D01*
X0303919Y0192572D01*
X0303842Y0192704D01*
X0303767Y0192838D01*
X0303696Y0192974D01*
X0303629Y0193112D01*
X0303565Y0193252D01*
X0303505Y0193393D01*
X0303449Y0193535D01*
X0303396Y0193679D01*
X0303347Y0193825D01*
X0303302Y0193971D01*
X0303261Y0194119D01*
X0303224Y0194267D01*
X0303190Y0194417D01*
X0303160Y0194568D01*
X0303135Y0194719D01*
X0303113Y0194870D01*
X0303095Y0195023D01*
X0303081Y0195175D01*
X0303071Y0195328D01*
X0303065Y0195482D01*
X0303063Y0195635D01*
X0337536Y0238633D02*
X0337538Y0238786D01*
X0337544Y0238940D01*
X0337554Y0239093D01*
X0337568Y0239245D01*
X0337586Y0239398D01*
X0337608Y0239549D01*
X0337633Y0239700D01*
X0337663Y0239851D01*
X0337697Y0240001D01*
X0337734Y0240149D01*
X0337775Y0240297D01*
X0337820Y0240443D01*
X0337869Y0240589D01*
X0337922Y0240733D01*
X0337978Y0240875D01*
X0338038Y0241016D01*
X0338102Y0241156D01*
X0338169Y0241294D01*
X0338240Y0241430D01*
X0338315Y0241564D01*
X0338392Y0241696D01*
X0338474Y0241826D01*
X0338558Y0241954D01*
X0338646Y0242080D01*
X0338737Y0242203D01*
X0338831Y0242324D01*
X0338929Y0242442D01*
X0339029Y0242558D01*
X0339133Y0242671D01*
X0339239Y0242782D01*
X0339348Y0242890D01*
X0339460Y0242995D01*
X0339574Y0243096D01*
X0339692Y0243195D01*
X0339811Y0243291D01*
X0339933Y0243384D01*
X0340058Y0243473D01*
X0340185Y0243560D01*
X0340314Y0243642D01*
X0340445Y0243722D01*
X0340578Y0243798D01*
X0340713Y0243871D01*
X0340850Y0243940D01*
X0340989Y0244005D01*
X0341129Y0244067D01*
X0341271Y0244125D01*
X0341414Y0244180D01*
X0341559Y0244231D01*
X0341705Y0244278D01*
X0341852Y0244321D01*
X0342000Y0244360D01*
X0342149Y0244396D01*
X0342299Y0244427D01*
X0342450Y0244455D01*
X0342601Y0244479D01*
X0342754Y0244499D01*
X0342906Y0244515D01*
X0343059Y0244527D01*
X0343212Y0244535D01*
X0343365Y0244539D01*
X0343519Y0244539D01*
X0343672Y0244535D01*
X0343825Y0244527D01*
X0343978Y0244515D01*
X0344130Y0244499D01*
X0344283Y0244479D01*
X0344434Y0244455D01*
X0344585Y0244427D01*
X0344735Y0244396D01*
X0344884Y0244360D01*
X0345032Y0244321D01*
X0345179Y0244278D01*
X0345325Y0244231D01*
X0345470Y0244180D01*
X0345613Y0244125D01*
X0345755Y0244067D01*
X0345895Y0244005D01*
X0346034Y0243940D01*
X0346171Y0243871D01*
X0346306Y0243798D01*
X0346439Y0243722D01*
X0346570Y0243642D01*
X0346699Y0243560D01*
X0346826Y0243473D01*
X0346951Y0243384D01*
X0347073Y0243291D01*
X0347192Y0243195D01*
X0347310Y0243096D01*
X0347424Y0242995D01*
X0347536Y0242890D01*
X0347645Y0242782D01*
X0347751Y0242671D01*
X0347855Y0242558D01*
X0347955Y0242442D01*
X0348053Y0242324D01*
X0348147Y0242203D01*
X0348238Y0242080D01*
X0348326Y0241954D01*
X0348410Y0241826D01*
X0348492Y0241696D01*
X0348569Y0241564D01*
X0348644Y0241430D01*
X0348715Y0241294D01*
X0348782Y0241156D01*
X0348846Y0241016D01*
X0348906Y0240875D01*
X0348962Y0240733D01*
X0349015Y0240589D01*
X0349064Y0240443D01*
X0349109Y0240297D01*
X0349150Y0240149D01*
X0349187Y0240001D01*
X0349221Y0239851D01*
X0349251Y0239700D01*
X0349276Y0239549D01*
X0349298Y0239398D01*
X0349316Y0239245D01*
X0349330Y0239093D01*
X0349340Y0238940D01*
X0349346Y0238786D01*
X0349348Y0238633D01*
X0349346Y0238480D01*
X0349340Y0238326D01*
X0349330Y0238173D01*
X0349316Y0238021D01*
X0349298Y0237868D01*
X0349276Y0237717D01*
X0349251Y0237566D01*
X0349221Y0237415D01*
X0349187Y0237265D01*
X0349150Y0237117D01*
X0349109Y0236969D01*
X0349064Y0236823D01*
X0349015Y0236677D01*
X0348962Y0236533D01*
X0348906Y0236391D01*
X0348846Y0236250D01*
X0348782Y0236110D01*
X0348715Y0235972D01*
X0348644Y0235836D01*
X0348569Y0235702D01*
X0348492Y0235570D01*
X0348410Y0235440D01*
X0348326Y0235312D01*
X0348238Y0235186D01*
X0348147Y0235063D01*
X0348053Y0234942D01*
X0347955Y0234824D01*
X0347855Y0234708D01*
X0347751Y0234595D01*
X0347645Y0234484D01*
X0347536Y0234376D01*
X0347424Y0234271D01*
X0347310Y0234170D01*
X0347192Y0234071D01*
X0347073Y0233975D01*
X0346951Y0233882D01*
X0346826Y0233793D01*
X0346699Y0233706D01*
X0346570Y0233624D01*
X0346439Y0233544D01*
X0346306Y0233468D01*
X0346171Y0233395D01*
X0346034Y0233326D01*
X0345895Y0233261D01*
X0345755Y0233199D01*
X0345613Y0233141D01*
X0345470Y0233086D01*
X0345325Y0233035D01*
X0345179Y0232988D01*
X0345032Y0232945D01*
X0344884Y0232906D01*
X0344735Y0232870D01*
X0344585Y0232839D01*
X0344434Y0232811D01*
X0344283Y0232787D01*
X0344130Y0232767D01*
X0343978Y0232751D01*
X0343825Y0232739D01*
X0343672Y0232731D01*
X0343519Y0232727D01*
X0343365Y0232727D01*
X0343212Y0232731D01*
X0343059Y0232739D01*
X0342906Y0232751D01*
X0342754Y0232767D01*
X0342601Y0232787D01*
X0342450Y0232811D01*
X0342299Y0232839D01*
X0342149Y0232870D01*
X0342000Y0232906D01*
X0341852Y0232945D01*
X0341705Y0232988D01*
X0341559Y0233035D01*
X0341414Y0233086D01*
X0341271Y0233141D01*
X0341129Y0233199D01*
X0340989Y0233261D01*
X0340850Y0233326D01*
X0340713Y0233395D01*
X0340578Y0233468D01*
X0340445Y0233544D01*
X0340314Y0233624D01*
X0340185Y0233706D01*
X0340058Y0233793D01*
X0339933Y0233882D01*
X0339811Y0233975D01*
X0339692Y0234071D01*
X0339574Y0234170D01*
X0339460Y0234271D01*
X0339348Y0234376D01*
X0339239Y0234484D01*
X0339133Y0234595D01*
X0339029Y0234708D01*
X0338929Y0234824D01*
X0338831Y0234942D01*
X0338737Y0235063D01*
X0338646Y0235186D01*
X0338558Y0235312D01*
X0338474Y0235440D01*
X0338392Y0235570D01*
X0338315Y0235702D01*
X0338240Y0235836D01*
X0338169Y0235972D01*
X0338102Y0236110D01*
X0338038Y0236250D01*
X0337978Y0236391D01*
X0337922Y0236533D01*
X0337869Y0236677D01*
X0337820Y0236823D01*
X0337775Y0236969D01*
X0337734Y0237117D01*
X0337697Y0237265D01*
X0337663Y0237415D01*
X0337633Y0237566D01*
X0337608Y0237717D01*
X0337586Y0237868D01*
X0337568Y0238021D01*
X0337554Y0238173D01*
X0337544Y0238326D01*
X0337538Y0238480D01*
X0337536Y0238633D01*
X0297781Y0245343D02*
X0297783Y0245501D01*
X0297789Y0245659D01*
X0297799Y0245817D01*
X0297813Y0245975D01*
X0297831Y0246132D01*
X0297852Y0246289D01*
X0297878Y0246445D01*
X0297908Y0246601D01*
X0297941Y0246756D01*
X0297979Y0246909D01*
X0298020Y0247062D01*
X0298065Y0247214D01*
X0298114Y0247365D01*
X0298167Y0247514D01*
X0298223Y0247662D01*
X0298283Y0247808D01*
X0298347Y0247953D01*
X0298415Y0248096D01*
X0298486Y0248238D01*
X0298560Y0248378D01*
X0298638Y0248515D01*
X0298720Y0248651D01*
X0298804Y0248785D01*
X0298893Y0248916D01*
X0298984Y0249045D01*
X0299079Y0249172D01*
X0299176Y0249297D01*
X0299277Y0249419D01*
X0299381Y0249538D01*
X0299488Y0249655D01*
X0299598Y0249769D01*
X0299711Y0249880D01*
X0299826Y0249989D01*
X0299944Y0250094D01*
X0300065Y0250196D01*
X0300188Y0250296D01*
X0300314Y0250392D01*
X0300442Y0250485D01*
X0300572Y0250575D01*
X0300705Y0250661D01*
X0300840Y0250745D01*
X0300976Y0250824D01*
X0301115Y0250901D01*
X0301256Y0250973D01*
X0301398Y0251043D01*
X0301542Y0251108D01*
X0301688Y0251170D01*
X0301835Y0251228D01*
X0301984Y0251283D01*
X0302134Y0251334D01*
X0302285Y0251381D01*
X0302437Y0251424D01*
X0302590Y0251463D01*
X0302745Y0251499D01*
X0302900Y0251530D01*
X0303056Y0251558D01*
X0303212Y0251582D01*
X0303369Y0251602D01*
X0303527Y0251618D01*
X0303684Y0251630D01*
X0303843Y0251638D01*
X0304001Y0251642D01*
X0304159Y0251642D01*
X0304317Y0251638D01*
X0304476Y0251630D01*
X0304633Y0251618D01*
X0304791Y0251602D01*
X0304948Y0251582D01*
X0305104Y0251558D01*
X0305260Y0251530D01*
X0305415Y0251499D01*
X0305570Y0251463D01*
X0305723Y0251424D01*
X0305875Y0251381D01*
X0306026Y0251334D01*
X0306176Y0251283D01*
X0306325Y0251228D01*
X0306472Y0251170D01*
X0306618Y0251108D01*
X0306762Y0251043D01*
X0306904Y0250973D01*
X0307045Y0250901D01*
X0307184Y0250824D01*
X0307320Y0250745D01*
X0307455Y0250661D01*
X0307588Y0250575D01*
X0307718Y0250485D01*
X0307846Y0250392D01*
X0307972Y0250296D01*
X0308095Y0250196D01*
X0308216Y0250094D01*
X0308334Y0249989D01*
X0308449Y0249880D01*
X0308562Y0249769D01*
X0308672Y0249655D01*
X0308779Y0249538D01*
X0308883Y0249419D01*
X0308984Y0249297D01*
X0309081Y0249172D01*
X0309176Y0249045D01*
X0309267Y0248916D01*
X0309356Y0248785D01*
X0309440Y0248651D01*
X0309522Y0248515D01*
X0309600Y0248378D01*
X0309674Y0248238D01*
X0309745Y0248096D01*
X0309813Y0247953D01*
X0309877Y0247808D01*
X0309937Y0247662D01*
X0309993Y0247514D01*
X0310046Y0247365D01*
X0310095Y0247214D01*
X0310140Y0247062D01*
X0310181Y0246909D01*
X0310219Y0246756D01*
X0310252Y0246601D01*
X0310282Y0246445D01*
X0310308Y0246289D01*
X0310329Y0246132D01*
X0310347Y0245975D01*
X0310361Y0245817D01*
X0310371Y0245659D01*
X0310377Y0245501D01*
X0310379Y0245343D01*
X0310377Y0245185D01*
X0310371Y0245027D01*
X0310361Y0244869D01*
X0310347Y0244711D01*
X0310329Y0244554D01*
X0310308Y0244397D01*
X0310282Y0244241D01*
X0310252Y0244085D01*
X0310219Y0243930D01*
X0310181Y0243777D01*
X0310140Y0243624D01*
X0310095Y0243472D01*
X0310046Y0243321D01*
X0309993Y0243172D01*
X0309937Y0243024D01*
X0309877Y0242878D01*
X0309813Y0242733D01*
X0309745Y0242590D01*
X0309674Y0242448D01*
X0309600Y0242308D01*
X0309522Y0242171D01*
X0309440Y0242035D01*
X0309356Y0241901D01*
X0309267Y0241770D01*
X0309176Y0241641D01*
X0309081Y0241514D01*
X0308984Y0241389D01*
X0308883Y0241267D01*
X0308779Y0241148D01*
X0308672Y0241031D01*
X0308562Y0240917D01*
X0308449Y0240806D01*
X0308334Y0240697D01*
X0308216Y0240592D01*
X0308095Y0240490D01*
X0307972Y0240390D01*
X0307846Y0240294D01*
X0307718Y0240201D01*
X0307588Y0240111D01*
X0307455Y0240025D01*
X0307320Y0239941D01*
X0307184Y0239862D01*
X0307045Y0239785D01*
X0306904Y0239713D01*
X0306762Y0239643D01*
X0306618Y0239578D01*
X0306472Y0239516D01*
X0306325Y0239458D01*
X0306176Y0239403D01*
X0306026Y0239352D01*
X0305875Y0239305D01*
X0305723Y0239262D01*
X0305570Y0239223D01*
X0305415Y0239187D01*
X0305260Y0239156D01*
X0305104Y0239128D01*
X0304948Y0239104D01*
X0304791Y0239084D01*
X0304633Y0239068D01*
X0304476Y0239056D01*
X0304317Y0239048D01*
X0304159Y0239044D01*
X0304001Y0239044D01*
X0303843Y0239048D01*
X0303684Y0239056D01*
X0303527Y0239068D01*
X0303369Y0239084D01*
X0303212Y0239104D01*
X0303056Y0239128D01*
X0302900Y0239156D01*
X0302745Y0239187D01*
X0302590Y0239223D01*
X0302437Y0239262D01*
X0302285Y0239305D01*
X0302134Y0239352D01*
X0301984Y0239403D01*
X0301835Y0239458D01*
X0301688Y0239516D01*
X0301542Y0239578D01*
X0301398Y0239643D01*
X0301256Y0239713D01*
X0301115Y0239785D01*
X0300976Y0239862D01*
X0300840Y0239941D01*
X0300705Y0240025D01*
X0300572Y0240111D01*
X0300442Y0240201D01*
X0300314Y0240294D01*
X0300188Y0240390D01*
X0300065Y0240490D01*
X0299944Y0240592D01*
X0299826Y0240697D01*
X0299711Y0240806D01*
X0299598Y0240917D01*
X0299488Y0241031D01*
X0299381Y0241148D01*
X0299277Y0241267D01*
X0299176Y0241389D01*
X0299079Y0241514D01*
X0298984Y0241641D01*
X0298893Y0241770D01*
X0298804Y0241901D01*
X0298720Y0242035D01*
X0298638Y0242171D01*
X0298560Y0242308D01*
X0298486Y0242448D01*
X0298415Y0242590D01*
X0298347Y0242733D01*
X0298283Y0242878D01*
X0298223Y0243024D01*
X0298167Y0243172D01*
X0298114Y0243321D01*
X0298065Y0243472D01*
X0298020Y0243624D01*
X0297979Y0243777D01*
X0297941Y0243930D01*
X0297908Y0244085D01*
X0297878Y0244241D01*
X0297852Y0244397D01*
X0297831Y0244554D01*
X0297813Y0244711D01*
X0297799Y0244869D01*
X0297789Y0245027D01*
X0297783Y0245185D01*
X0297781Y0245343D01*
X0252781Y0245343D02*
X0252783Y0245501D01*
X0252789Y0245659D01*
X0252799Y0245817D01*
X0252813Y0245975D01*
X0252831Y0246132D01*
X0252852Y0246289D01*
X0252878Y0246445D01*
X0252908Y0246601D01*
X0252941Y0246756D01*
X0252979Y0246909D01*
X0253020Y0247062D01*
X0253065Y0247214D01*
X0253114Y0247365D01*
X0253167Y0247514D01*
X0253223Y0247662D01*
X0253283Y0247808D01*
X0253347Y0247953D01*
X0253415Y0248096D01*
X0253486Y0248238D01*
X0253560Y0248378D01*
X0253638Y0248515D01*
X0253720Y0248651D01*
X0253804Y0248785D01*
X0253893Y0248916D01*
X0253984Y0249045D01*
X0254079Y0249172D01*
X0254176Y0249297D01*
X0254277Y0249419D01*
X0254381Y0249538D01*
X0254488Y0249655D01*
X0254598Y0249769D01*
X0254711Y0249880D01*
X0254826Y0249989D01*
X0254944Y0250094D01*
X0255065Y0250196D01*
X0255188Y0250296D01*
X0255314Y0250392D01*
X0255442Y0250485D01*
X0255572Y0250575D01*
X0255705Y0250661D01*
X0255840Y0250745D01*
X0255976Y0250824D01*
X0256115Y0250901D01*
X0256256Y0250973D01*
X0256398Y0251043D01*
X0256542Y0251108D01*
X0256688Y0251170D01*
X0256835Y0251228D01*
X0256984Y0251283D01*
X0257134Y0251334D01*
X0257285Y0251381D01*
X0257437Y0251424D01*
X0257590Y0251463D01*
X0257745Y0251499D01*
X0257900Y0251530D01*
X0258056Y0251558D01*
X0258212Y0251582D01*
X0258369Y0251602D01*
X0258527Y0251618D01*
X0258684Y0251630D01*
X0258843Y0251638D01*
X0259001Y0251642D01*
X0259159Y0251642D01*
X0259317Y0251638D01*
X0259476Y0251630D01*
X0259633Y0251618D01*
X0259791Y0251602D01*
X0259948Y0251582D01*
X0260104Y0251558D01*
X0260260Y0251530D01*
X0260415Y0251499D01*
X0260570Y0251463D01*
X0260723Y0251424D01*
X0260875Y0251381D01*
X0261026Y0251334D01*
X0261176Y0251283D01*
X0261325Y0251228D01*
X0261472Y0251170D01*
X0261618Y0251108D01*
X0261762Y0251043D01*
X0261904Y0250973D01*
X0262045Y0250901D01*
X0262184Y0250824D01*
X0262320Y0250745D01*
X0262455Y0250661D01*
X0262588Y0250575D01*
X0262718Y0250485D01*
X0262846Y0250392D01*
X0262972Y0250296D01*
X0263095Y0250196D01*
X0263216Y0250094D01*
X0263334Y0249989D01*
X0263449Y0249880D01*
X0263562Y0249769D01*
X0263672Y0249655D01*
X0263779Y0249538D01*
X0263883Y0249419D01*
X0263984Y0249297D01*
X0264081Y0249172D01*
X0264176Y0249045D01*
X0264267Y0248916D01*
X0264356Y0248785D01*
X0264440Y0248651D01*
X0264522Y0248515D01*
X0264600Y0248378D01*
X0264674Y0248238D01*
X0264745Y0248096D01*
X0264813Y0247953D01*
X0264877Y0247808D01*
X0264937Y0247662D01*
X0264993Y0247514D01*
X0265046Y0247365D01*
X0265095Y0247214D01*
X0265140Y0247062D01*
X0265181Y0246909D01*
X0265219Y0246756D01*
X0265252Y0246601D01*
X0265282Y0246445D01*
X0265308Y0246289D01*
X0265329Y0246132D01*
X0265347Y0245975D01*
X0265361Y0245817D01*
X0265371Y0245659D01*
X0265377Y0245501D01*
X0265379Y0245343D01*
X0265377Y0245185D01*
X0265371Y0245027D01*
X0265361Y0244869D01*
X0265347Y0244711D01*
X0265329Y0244554D01*
X0265308Y0244397D01*
X0265282Y0244241D01*
X0265252Y0244085D01*
X0265219Y0243930D01*
X0265181Y0243777D01*
X0265140Y0243624D01*
X0265095Y0243472D01*
X0265046Y0243321D01*
X0264993Y0243172D01*
X0264937Y0243024D01*
X0264877Y0242878D01*
X0264813Y0242733D01*
X0264745Y0242590D01*
X0264674Y0242448D01*
X0264600Y0242308D01*
X0264522Y0242171D01*
X0264440Y0242035D01*
X0264356Y0241901D01*
X0264267Y0241770D01*
X0264176Y0241641D01*
X0264081Y0241514D01*
X0263984Y0241389D01*
X0263883Y0241267D01*
X0263779Y0241148D01*
X0263672Y0241031D01*
X0263562Y0240917D01*
X0263449Y0240806D01*
X0263334Y0240697D01*
X0263216Y0240592D01*
X0263095Y0240490D01*
X0262972Y0240390D01*
X0262846Y0240294D01*
X0262718Y0240201D01*
X0262588Y0240111D01*
X0262455Y0240025D01*
X0262320Y0239941D01*
X0262184Y0239862D01*
X0262045Y0239785D01*
X0261904Y0239713D01*
X0261762Y0239643D01*
X0261618Y0239578D01*
X0261472Y0239516D01*
X0261325Y0239458D01*
X0261176Y0239403D01*
X0261026Y0239352D01*
X0260875Y0239305D01*
X0260723Y0239262D01*
X0260570Y0239223D01*
X0260415Y0239187D01*
X0260260Y0239156D01*
X0260104Y0239128D01*
X0259948Y0239104D01*
X0259791Y0239084D01*
X0259633Y0239068D01*
X0259476Y0239056D01*
X0259317Y0239048D01*
X0259159Y0239044D01*
X0259001Y0239044D01*
X0258843Y0239048D01*
X0258684Y0239056D01*
X0258527Y0239068D01*
X0258369Y0239084D01*
X0258212Y0239104D01*
X0258056Y0239128D01*
X0257900Y0239156D01*
X0257745Y0239187D01*
X0257590Y0239223D01*
X0257437Y0239262D01*
X0257285Y0239305D01*
X0257134Y0239352D01*
X0256984Y0239403D01*
X0256835Y0239458D01*
X0256688Y0239516D01*
X0256542Y0239578D01*
X0256398Y0239643D01*
X0256256Y0239713D01*
X0256115Y0239785D01*
X0255976Y0239862D01*
X0255840Y0239941D01*
X0255705Y0240025D01*
X0255572Y0240111D01*
X0255442Y0240201D01*
X0255314Y0240294D01*
X0255188Y0240390D01*
X0255065Y0240490D01*
X0254944Y0240592D01*
X0254826Y0240697D01*
X0254711Y0240806D01*
X0254598Y0240917D01*
X0254488Y0241031D01*
X0254381Y0241148D01*
X0254277Y0241267D01*
X0254176Y0241389D01*
X0254079Y0241514D01*
X0253984Y0241641D01*
X0253893Y0241770D01*
X0253804Y0241901D01*
X0253720Y0242035D01*
X0253638Y0242171D01*
X0253560Y0242308D01*
X0253486Y0242448D01*
X0253415Y0242590D01*
X0253347Y0242733D01*
X0253283Y0242878D01*
X0253223Y0243024D01*
X0253167Y0243172D01*
X0253114Y0243321D01*
X0253065Y0243472D01*
X0253020Y0243624D01*
X0252979Y0243777D01*
X0252941Y0243930D01*
X0252908Y0244085D01*
X0252878Y0244241D01*
X0252852Y0244397D01*
X0252831Y0244554D01*
X0252813Y0244711D01*
X0252799Y0244869D01*
X0252789Y0245027D01*
X0252783Y0245185D01*
X0252781Y0245343D01*
X0178742Y0329233D02*
X0178744Y0329374D01*
X0178750Y0329515D01*
X0178760Y0329655D01*
X0178774Y0329795D01*
X0178792Y0329935D01*
X0178813Y0330074D01*
X0178839Y0330213D01*
X0178868Y0330351D01*
X0178902Y0330487D01*
X0178939Y0330623D01*
X0178980Y0330758D01*
X0179025Y0330892D01*
X0179074Y0331024D01*
X0179126Y0331155D01*
X0179182Y0331284D01*
X0179242Y0331411D01*
X0179305Y0331537D01*
X0179371Y0331661D01*
X0179442Y0331784D01*
X0179515Y0331904D01*
X0179592Y0332022D01*
X0179672Y0332138D01*
X0179756Y0332251D01*
X0179842Y0332362D01*
X0179932Y0332471D01*
X0180025Y0332577D01*
X0180120Y0332680D01*
X0180219Y0332781D01*
X0180320Y0332879D01*
X0180424Y0332974D01*
X0180531Y0333066D01*
X0180640Y0333155D01*
X0180752Y0333240D01*
X0180866Y0333323D01*
X0180982Y0333403D01*
X0181101Y0333479D01*
X0181222Y0333551D01*
X0181344Y0333621D01*
X0181469Y0333686D01*
X0181595Y0333749D01*
X0181723Y0333807D01*
X0181853Y0333862D01*
X0181984Y0333914D01*
X0182117Y0333961D01*
X0182251Y0334005D01*
X0182386Y0334046D01*
X0182522Y0334082D01*
X0182659Y0334114D01*
X0182797Y0334143D01*
X0182935Y0334168D01*
X0183075Y0334188D01*
X0183215Y0334205D01*
X0183355Y0334218D01*
X0183496Y0334227D01*
X0183636Y0334232D01*
X0183777Y0334233D01*
X0183918Y0334230D01*
X0184059Y0334223D01*
X0184199Y0334212D01*
X0184339Y0334197D01*
X0184479Y0334178D01*
X0184618Y0334156D01*
X0184756Y0334129D01*
X0184894Y0334099D01*
X0185030Y0334064D01*
X0185166Y0334026D01*
X0185300Y0333984D01*
X0185434Y0333938D01*
X0185566Y0333889D01*
X0185696Y0333835D01*
X0185825Y0333778D01*
X0185952Y0333718D01*
X0186078Y0333654D01*
X0186201Y0333586D01*
X0186323Y0333515D01*
X0186443Y0333441D01*
X0186560Y0333363D01*
X0186675Y0333282D01*
X0186788Y0333198D01*
X0186899Y0333111D01*
X0187007Y0333020D01*
X0187112Y0332927D01*
X0187215Y0332830D01*
X0187315Y0332731D01*
X0187412Y0332629D01*
X0187506Y0332524D01*
X0187597Y0332417D01*
X0187685Y0332307D01*
X0187770Y0332195D01*
X0187852Y0332080D01*
X0187931Y0331963D01*
X0188006Y0331844D01*
X0188078Y0331723D01*
X0188146Y0331600D01*
X0188211Y0331475D01*
X0188273Y0331348D01*
X0188330Y0331219D01*
X0188385Y0331089D01*
X0188435Y0330958D01*
X0188482Y0330825D01*
X0188525Y0330691D01*
X0188564Y0330555D01*
X0188599Y0330419D01*
X0188631Y0330282D01*
X0188658Y0330144D01*
X0188682Y0330005D01*
X0188702Y0329865D01*
X0188718Y0329725D01*
X0188730Y0329585D01*
X0188738Y0329444D01*
X0188742Y0329303D01*
X0188742Y0329163D01*
X0188738Y0329022D01*
X0188730Y0328881D01*
X0188718Y0328741D01*
X0188702Y0328601D01*
X0188682Y0328461D01*
X0188658Y0328322D01*
X0188631Y0328184D01*
X0188599Y0328047D01*
X0188564Y0327911D01*
X0188525Y0327775D01*
X0188482Y0327641D01*
X0188435Y0327508D01*
X0188385Y0327377D01*
X0188330Y0327247D01*
X0188273Y0327118D01*
X0188211Y0326991D01*
X0188146Y0326866D01*
X0188078Y0326743D01*
X0188006Y0326622D01*
X0187931Y0326503D01*
X0187852Y0326386D01*
X0187770Y0326271D01*
X0187685Y0326159D01*
X0187597Y0326049D01*
X0187506Y0325942D01*
X0187412Y0325837D01*
X0187315Y0325735D01*
X0187215Y0325636D01*
X0187112Y0325539D01*
X0187007Y0325446D01*
X0186899Y0325355D01*
X0186788Y0325268D01*
X0186675Y0325184D01*
X0186560Y0325103D01*
X0186443Y0325025D01*
X0186323Y0324951D01*
X0186201Y0324880D01*
X0186078Y0324812D01*
X0185952Y0324748D01*
X0185825Y0324688D01*
X0185696Y0324631D01*
X0185566Y0324577D01*
X0185434Y0324528D01*
X0185300Y0324482D01*
X0185166Y0324440D01*
X0185030Y0324402D01*
X0184894Y0324367D01*
X0184756Y0324337D01*
X0184618Y0324310D01*
X0184479Y0324288D01*
X0184339Y0324269D01*
X0184199Y0324254D01*
X0184059Y0324243D01*
X0183918Y0324236D01*
X0183777Y0324233D01*
X0183636Y0324234D01*
X0183496Y0324239D01*
X0183355Y0324248D01*
X0183215Y0324261D01*
X0183075Y0324278D01*
X0182935Y0324298D01*
X0182797Y0324323D01*
X0182659Y0324352D01*
X0182522Y0324384D01*
X0182386Y0324420D01*
X0182251Y0324461D01*
X0182117Y0324505D01*
X0181984Y0324552D01*
X0181853Y0324604D01*
X0181723Y0324659D01*
X0181595Y0324717D01*
X0181469Y0324780D01*
X0181344Y0324845D01*
X0181222Y0324915D01*
X0181101Y0324987D01*
X0180982Y0325063D01*
X0180866Y0325143D01*
X0180752Y0325226D01*
X0180640Y0325311D01*
X0180531Y0325400D01*
X0180424Y0325492D01*
X0180320Y0325587D01*
X0180219Y0325685D01*
X0180120Y0325786D01*
X0180025Y0325889D01*
X0179932Y0325995D01*
X0179842Y0326104D01*
X0179756Y0326215D01*
X0179672Y0326328D01*
X0179592Y0326444D01*
X0179515Y0326562D01*
X0179442Y0326682D01*
X0179371Y0326805D01*
X0179305Y0326929D01*
X0179242Y0327055D01*
X0179182Y0327182D01*
X0179126Y0327311D01*
X0179074Y0327442D01*
X0179025Y0327574D01*
X0178980Y0327708D01*
X0178939Y0327843D01*
X0178902Y0327979D01*
X0178868Y0328115D01*
X0178839Y0328253D01*
X0178813Y0328392D01*
X0178792Y0328531D01*
X0178774Y0328671D01*
X0178760Y0328811D01*
X0178750Y0328951D01*
X0178744Y0329092D01*
X0178742Y0329233D01*
X0062293Y0319060D02*
X0062295Y0319172D01*
X0062301Y0319283D01*
X0062311Y0319395D01*
X0062325Y0319506D01*
X0062342Y0319616D01*
X0062364Y0319726D01*
X0062390Y0319834D01*
X0062419Y0319942D01*
X0062452Y0320049D01*
X0062489Y0320155D01*
X0062530Y0320259D01*
X0062574Y0320361D01*
X0062622Y0320462D01*
X0062674Y0320561D01*
X0062729Y0320659D01*
X0062787Y0320754D01*
X0062849Y0320847D01*
X0062914Y0320938D01*
X0062983Y0321026D01*
X0063054Y0321113D01*
X0063128Y0321196D01*
X0063205Y0321277D01*
X0063286Y0321355D01*
X0063368Y0321430D01*
X0063454Y0321502D01*
X0063542Y0321571D01*
X0063632Y0321637D01*
X0063725Y0321699D01*
X0063819Y0321759D01*
X0063916Y0321815D01*
X0064015Y0321867D01*
X0064115Y0321916D01*
X0064218Y0321961D01*
X0064321Y0322003D01*
X0064426Y0322041D01*
X0064533Y0322075D01*
X0064640Y0322105D01*
X0064749Y0322132D01*
X0064859Y0322154D01*
X0064969Y0322173D01*
X0065080Y0322188D01*
X0065191Y0322199D01*
X0065302Y0322206D01*
X0065414Y0322209D01*
X0065526Y0322208D01*
X0065637Y0322203D01*
X0065749Y0322194D01*
X0065860Y0322181D01*
X0065970Y0322164D01*
X0066080Y0322144D01*
X0066189Y0322119D01*
X0066297Y0322091D01*
X0066404Y0322058D01*
X0066510Y0322022D01*
X0066615Y0321982D01*
X0066718Y0321939D01*
X0066819Y0321892D01*
X0066919Y0321841D01*
X0067016Y0321787D01*
X0067112Y0321730D01*
X0067206Y0321669D01*
X0067297Y0321604D01*
X0067387Y0321537D01*
X0067473Y0321466D01*
X0067557Y0321393D01*
X0067639Y0321316D01*
X0067718Y0321237D01*
X0067793Y0321155D01*
X0067866Y0321070D01*
X0067936Y0320983D01*
X0068003Y0320893D01*
X0068066Y0320801D01*
X0068126Y0320707D01*
X0068183Y0320610D01*
X0068236Y0320512D01*
X0068286Y0320412D01*
X0068332Y0320310D01*
X0068375Y0320207D01*
X0068414Y0320102D01*
X0068449Y0319996D01*
X0068480Y0319889D01*
X0068508Y0319780D01*
X0068531Y0319671D01*
X0068551Y0319561D01*
X0068567Y0319450D01*
X0068579Y0319339D01*
X0068587Y0319228D01*
X0068591Y0319116D01*
X0068591Y0319004D01*
X0068587Y0318892D01*
X0068579Y0318781D01*
X0068567Y0318670D01*
X0068551Y0318559D01*
X0068531Y0318449D01*
X0068508Y0318340D01*
X0068480Y0318231D01*
X0068449Y0318124D01*
X0068414Y0318018D01*
X0068375Y0317913D01*
X0068332Y0317810D01*
X0068286Y0317708D01*
X0068236Y0317608D01*
X0068183Y0317510D01*
X0068126Y0317413D01*
X0068066Y0317319D01*
X0068003Y0317227D01*
X0067936Y0317137D01*
X0067866Y0317050D01*
X0067793Y0316965D01*
X0067718Y0316883D01*
X0067639Y0316804D01*
X0067557Y0316727D01*
X0067473Y0316654D01*
X0067387Y0316583D01*
X0067297Y0316516D01*
X0067206Y0316451D01*
X0067112Y0316390D01*
X0067017Y0316333D01*
X0066919Y0316279D01*
X0066819Y0316228D01*
X0066718Y0316181D01*
X0066615Y0316138D01*
X0066510Y0316098D01*
X0066404Y0316062D01*
X0066297Y0316029D01*
X0066189Y0316001D01*
X0066080Y0315976D01*
X0065970Y0315956D01*
X0065860Y0315939D01*
X0065749Y0315926D01*
X0065637Y0315917D01*
X0065526Y0315912D01*
X0065414Y0315911D01*
X0065302Y0315914D01*
X0065191Y0315921D01*
X0065080Y0315932D01*
X0064969Y0315947D01*
X0064859Y0315966D01*
X0064749Y0315988D01*
X0064640Y0316015D01*
X0064533Y0316045D01*
X0064426Y0316079D01*
X0064321Y0316117D01*
X0064218Y0316159D01*
X0064115Y0316204D01*
X0064015Y0316253D01*
X0063916Y0316305D01*
X0063819Y0316361D01*
X0063725Y0316421D01*
X0063632Y0316483D01*
X0063542Y0316549D01*
X0063454Y0316618D01*
X0063368Y0316690D01*
X0063286Y0316765D01*
X0063205Y0316843D01*
X0063128Y0316924D01*
X0063054Y0317007D01*
X0062983Y0317094D01*
X0062914Y0317182D01*
X0062849Y0317273D01*
X0062787Y0317366D01*
X0062729Y0317461D01*
X0062674Y0317559D01*
X0062622Y0317658D01*
X0062574Y0317759D01*
X0062530Y0317861D01*
X0062489Y0317965D01*
X0062452Y0318071D01*
X0062419Y0318178D01*
X0062390Y0318286D01*
X0062364Y0318394D01*
X0062342Y0318504D01*
X0062325Y0318614D01*
X0062311Y0318725D01*
X0062301Y0318837D01*
X0062295Y0318948D01*
X0062293Y0319060D01*
X0040842Y0329233D02*
X0040844Y0329374D01*
X0040850Y0329515D01*
X0040860Y0329655D01*
X0040874Y0329795D01*
X0040892Y0329935D01*
X0040913Y0330074D01*
X0040939Y0330213D01*
X0040968Y0330351D01*
X0041002Y0330487D01*
X0041039Y0330623D01*
X0041080Y0330758D01*
X0041125Y0330892D01*
X0041174Y0331024D01*
X0041226Y0331155D01*
X0041282Y0331284D01*
X0041342Y0331411D01*
X0041405Y0331537D01*
X0041471Y0331661D01*
X0041542Y0331784D01*
X0041615Y0331904D01*
X0041692Y0332022D01*
X0041772Y0332138D01*
X0041856Y0332251D01*
X0041942Y0332362D01*
X0042032Y0332471D01*
X0042125Y0332577D01*
X0042220Y0332680D01*
X0042319Y0332781D01*
X0042420Y0332879D01*
X0042524Y0332974D01*
X0042631Y0333066D01*
X0042740Y0333155D01*
X0042852Y0333240D01*
X0042966Y0333323D01*
X0043082Y0333403D01*
X0043201Y0333479D01*
X0043322Y0333551D01*
X0043444Y0333621D01*
X0043569Y0333686D01*
X0043695Y0333749D01*
X0043823Y0333807D01*
X0043953Y0333862D01*
X0044084Y0333914D01*
X0044217Y0333961D01*
X0044351Y0334005D01*
X0044486Y0334046D01*
X0044622Y0334082D01*
X0044759Y0334114D01*
X0044897Y0334143D01*
X0045035Y0334168D01*
X0045175Y0334188D01*
X0045315Y0334205D01*
X0045455Y0334218D01*
X0045596Y0334227D01*
X0045736Y0334232D01*
X0045877Y0334233D01*
X0046018Y0334230D01*
X0046159Y0334223D01*
X0046299Y0334212D01*
X0046439Y0334197D01*
X0046579Y0334178D01*
X0046718Y0334156D01*
X0046856Y0334129D01*
X0046994Y0334099D01*
X0047130Y0334064D01*
X0047266Y0334026D01*
X0047400Y0333984D01*
X0047534Y0333938D01*
X0047666Y0333889D01*
X0047796Y0333835D01*
X0047925Y0333778D01*
X0048052Y0333718D01*
X0048178Y0333654D01*
X0048301Y0333586D01*
X0048423Y0333515D01*
X0048543Y0333441D01*
X0048660Y0333363D01*
X0048775Y0333282D01*
X0048888Y0333198D01*
X0048999Y0333111D01*
X0049107Y0333020D01*
X0049212Y0332927D01*
X0049315Y0332830D01*
X0049415Y0332731D01*
X0049512Y0332629D01*
X0049606Y0332524D01*
X0049697Y0332417D01*
X0049785Y0332307D01*
X0049870Y0332195D01*
X0049952Y0332080D01*
X0050031Y0331963D01*
X0050106Y0331844D01*
X0050178Y0331723D01*
X0050246Y0331600D01*
X0050311Y0331475D01*
X0050373Y0331348D01*
X0050430Y0331219D01*
X0050485Y0331089D01*
X0050535Y0330958D01*
X0050582Y0330825D01*
X0050625Y0330691D01*
X0050664Y0330555D01*
X0050699Y0330419D01*
X0050731Y0330282D01*
X0050758Y0330144D01*
X0050782Y0330005D01*
X0050802Y0329865D01*
X0050818Y0329725D01*
X0050830Y0329585D01*
X0050838Y0329444D01*
X0050842Y0329303D01*
X0050842Y0329163D01*
X0050838Y0329022D01*
X0050830Y0328881D01*
X0050818Y0328741D01*
X0050802Y0328601D01*
X0050782Y0328461D01*
X0050758Y0328322D01*
X0050731Y0328184D01*
X0050699Y0328047D01*
X0050664Y0327911D01*
X0050625Y0327775D01*
X0050582Y0327641D01*
X0050535Y0327508D01*
X0050485Y0327377D01*
X0050430Y0327247D01*
X0050373Y0327118D01*
X0050311Y0326991D01*
X0050246Y0326866D01*
X0050178Y0326743D01*
X0050106Y0326622D01*
X0050031Y0326503D01*
X0049952Y0326386D01*
X0049870Y0326271D01*
X0049785Y0326159D01*
X0049697Y0326049D01*
X0049606Y0325942D01*
X0049512Y0325837D01*
X0049415Y0325735D01*
X0049315Y0325636D01*
X0049212Y0325539D01*
X0049107Y0325446D01*
X0048999Y0325355D01*
X0048888Y0325268D01*
X0048775Y0325184D01*
X0048660Y0325103D01*
X0048543Y0325025D01*
X0048423Y0324951D01*
X0048301Y0324880D01*
X0048178Y0324812D01*
X0048052Y0324748D01*
X0047925Y0324688D01*
X0047796Y0324631D01*
X0047666Y0324577D01*
X0047534Y0324528D01*
X0047400Y0324482D01*
X0047266Y0324440D01*
X0047130Y0324402D01*
X0046994Y0324367D01*
X0046856Y0324337D01*
X0046718Y0324310D01*
X0046579Y0324288D01*
X0046439Y0324269D01*
X0046299Y0324254D01*
X0046159Y0324243D01*
X0046018Y0324236D01*
X0045877Y0324233D01*
X0045736Y0324234D01*
X0045596Y0324239D01*
X0045455Y0324248D01*
X0045315Y0324261D01*
X0045175Y0324278D01*
X0045035Y0324298D01*
X0044897Y0324323D01*
X0044759Y0324352D01*
X0044622Y0324384D01*
X0044486Y0324420D01*
X0044351Y0324461D01*
X0044217Y0324505D01*
X0044084Y0324552D01*
X0043953Y0324604D01*
X0043823Y0324659D01*
X0043695Y0324717D01*
X0043569Y0324780D01*
X0043444Y0324845D01*
X0043322Y0324915D01*
X0043201Y0324987D01*
X0043082Y0325063D01*
X0042966Y0325143D01*
X0042852Y0325226D01*
X0042740Y0325311D01*
X0042631Y0325400D01*
X0042524Y0325492D01*
X0042420Y0325587D01*
X0042319Y0325685D01*
X0042220Y0325786D01*
X0042125Y0325889D01*
X0042032Y0325995D01*
X0041942Y0326104D01*
X0041856Y0326215D01*
X0041772Y0326328D01*
X0041692Y0326444D01*
X0041615Y0326562D01*
X0041542Y0326682D01*
X0041471Y0326805D01*
X0041405Y0326929D01*
X0041342Y0327055D01*
X0041282Y0327182D01*
X0041226Y0327311D01*
X0041174Y0327442D01*
X0041125Y0327574D01*
X0041080Y0327708D01*
X0041039Y0327843D01*
X0041002Y0327979D01*
X0040968Y0328115D01*
X0040939Y0328253D01*
X0040913Y0328392D01*
X0040892Y0328531D01*
X0040874Y0328671D01*
X0040860Y0328811D01*
X0040850Y0328951D01*
X0040844Y0329092D01*
X0040842Y0329233D01*
X0295036Y0050333D02*
X0295038Y0050486D01*
X0295044Y0050640D01*
X0295054Y0050793D01*
X0295068Y0050945D01*
X0295086Y0051098D01*
X0295108Y0051249D01*
X0295133Y0051400D01*
X0295163Y0051551D01*
X0295197Y0051701D01*
X0295234Y0051849D01*
X0295275Y0051997D01*
X0295320Y0052143D01*
X0295369Y0052289D01*
X0295422Y0052433D01*
X0295478Y0052575D01*
X0295538Y0052716D01*
X0295602Y0052856D01*
X0295669Y0052994D01*
X0295740Y0053130D01*
X0295815Y0053264D01*
X0295892Y0053396D01*
X0295974Y0053526D01*
X0296058Y0053654D01*
X0296146Y0053780D01*
X0296237Y0053903D01*
X0296331Y0054024D01*
X0296429Y0054142D01*
X0296529Y0054258D01*
X0296633Y0054371D01*
X0296739Y0054482D01*
X0296848Y0054590D01*
X0296960Y0054695D01*
X0297074Y0054796D01*
X0297192Y0054895D01*
X0297311Y0054991D01*
X0297433Y0055084D01*
X0297558Y0055173D01*
X0297685Y0055260D01*
X0297814Y0055342D01*
X0297945Y0055422D01*
X0298078Y0055498D01*
X0298213Y0055571D01*
X0298350Y0055640D01*
X0298489Y0055705D01*
X0298629Y0055767D01*
X0298771Y0055825D01*
X0298914Y0055880D01*
X0299059Y0055931D01*
X0299205Y0055978D01*
X0299352Y0056021D01*
X0299500Y0056060D01*
X0299649Y0056096D01*
X0299799Y0056127D01*
X0299950Y0056155D01*
X0300101Y0056179D01*
X0300254Y0056199D01*
X0300406Y0056215D01*
X0300559Y0056227D01*
X0300712Y0056235D01*
X0300865Y0056239D01*
X0301019Y0056239D01*
X0301172Y0056235D01*
X0301325Y0056227D01*
X0301478Y0056215D01*
X0301630Y0056199D01*
X0301783Y0056179D01*
X0301934Y0056155D01*
X0302085Y0056127D01*
X0302235Y0056096D01*
X0302384Y0056060D01*
X0302532Y0056021D01*
X0302679Y0055978D01*
X0302825Y0055931D01*
X0302970Y0055880D01*
X0303113Y0055825D01*
X0303255Y0055767D01*
X0303395Y0055705D01*
X0303534Y0055640D01*
X0303671Y0055571D01*
X0303806Y0055498D01*
X0303939Y0055422D01*
X0304070Y0055342D01*
X0304199Y0055260D01*
X0304326Y0055173D01*
X0304451Y0055084D01*
X0304573Y0054991D01*
X0304692Y0054895D01*
X0304810Y0054796D01*
X0304924Y0054695D01*
X0305036Y0054590D01*
X0305145Y0054482D01*
X0305251Y0054371D01*
X0305355Y0054258D01*
X0305455Y0054142D01*
X0305553Y0054024D01*
X0305647Y0053903D01*
X0305738Y0053780D01*
X0305826Y0053654D01*
X0305910Y0053526D01*
X0305992Y0053396D01*
X0306069Y0053264D01*
X0306144Y0053130D01*
X0306215Y0052994D01*
X0306282Y0052856D01*
X0306346Y0052716D01*
X0306406Y0052575D01*
X0306462Y0052433D01*
X0306515Y0052289D01*
X0306564Y0052143D01*
X0306609Y0051997D01*
X0306650Y0051849D01*
X0306687Y0051701D01*
X0306721Y0051551D01*
X0306751Y0051400D01*
X0306776Y0051249D01*
X0306798Y0051098D01*
X0306816Y0050945D01*
X0306830Y0050793D01*
X0306840Y0050640D01*
X0306846Y0050486D01*
X0306848Y0050333D01*
X0306846Y0050180D01*
X0306840Y0050026D01*
X0306830Y0049873D01*
X0306816Y0049721D01*
X0306798Y0049568D01*
X0306776Y0049417D01*
X0306751Y0049266D01*
X0306721Y0049115D01*
X0306687Y0048965D01*
X0306650Y0048817D01*
X0306609Y0048669D01*
X0306564Y0048523D01*
X0306515Y0048377D01*
X0306462Y0048233D01*
X0306406Y0048091D01*
X0306346Y0047950D01*
X0306282Y0047810D01*
X0306215Y0047672D01*
X0306144Y0047536D01*
X0306069Y0047402D01*
X0305992Y0047270D01*
X0305910Y0047140D01*
X0305826Y0047012D01*
X0305738Y0046886D01*
X0305647Y0046763D01*
X0305553Y0046642D01*
X0305455Y0046524D01*
X0305355Y0046408D01*
X0305251Y0046295D01*
X0305145Y0046184D01*
X0305036Y0046076D01*
X0304924Y0045971D01*
X0304810Y0045870D01*
X0304692Y0045771D01*
X0304573Y0045675D01*
X0304451Y0045582D01*
X0304326Y0045493D01*
X0304199Y0045406D01*
X0304070Y0045324D01*
X0303939Y0045244D01*
X0303806Y0045168D01*
X0303671Y0045095D01*
X0303534Y0045026D01*
X0303395Y0044961D01*
X0303255Y0044899D01*
X0303113Y0044841D01*
X0302970Y0044786D01*
X0302825Y0044735D01*
X0302679Y0044688D01*
X0302532Y0044645D01*
X0302384Y0044606D01*
X0302235Y0044570D01*
X0302085Y0044539D01*
X0301934Y0044511D01*
X0301783Y0044487D01*
X0301630Y0044467D01*
X0301478Y0044451D01*
X0301325Y0044439D01*
X0301172Y0044431D01*
X0301019Y0044427D01*
X0300865Y0044427D01*
X0300712Y0044431D01*
X0300559Y0044439D01*
X0300406Y0044451D01*
X0300254Y0044467D01*
X0300101Y0044487D01*
X0299950Y0044511D01*
X0299799Y0044539D01*
X0299649Y0044570D01*
X0299500Y0044606D01*
X0299352Y0044645D01*
X0299205Y0044688D01*
X0299059Y0044735D01*
X0298914Y0044786D01*
X0298771Y0044841D01*
X0298629Y0044899D01*
X0298489Y0044961D01*
X0298350Y0045026D01*
X0298213Y0045095D01*
X0298078Y0045168D01*
X0297945Y0045244D01*
X0297814Y0045324D01*
X0297685Y0045406D01*
X0297558Y0045493D01*
X0297433Y0045582D01*
X0297311Y0045675D01*
X0297192Y0045771D01*
X0297074Y0045870D01*
X0296960Y0045971D01*
X0296848Y0046076D01*
X0296739Y0046184D01*
X0296633Y0046295D01*
X0296529Y0046408D01*
X0296429Y0046524D01*
X0296331Y0046642D01*
X0296237Y0046763D01*
X0296146Y0046886D01*
X0296058Y0047012D01*
X0295974Y0047140D01*
X0295892Y0047270D01*
X0295815Y0047402D01*
X0295740Y0047536D01*
X0295669Y0047672D01*
X0295602Y0047810D01*
X0295538Y0047950D01*
X0295478Y0048091D01*
X0295422Y0048233D01*
X0295369Y0048377D01*
X0295320Y0048523D01*
X0295275Y0048669D01*
X0295234Y0048817D01*
X0295197Y0048965D01*
X0295163Y0049115D01*
X0295133Y0049266D01*
X0295108Y0049417D01*
X0295086Y0049568D01*
X0295068Y0049721D01*
X0295054Y0049873D01*
X0295044Y0050026D01*
X0295038Y0050180D01*
X0295036Y0050333D01*
X0335036Y0050333D02*
X0335038Y0050486D01*
X0335044Y0050640D01*
X0335054Y0050793D01*
X0335068Y0050945D01*
X0335086Y0051098D01*
X0335108Y0051249D01*
X0335133Y0051400D01*
X0335163Y0051551D01*
X0335197Y0051701D01*
X0335234Y0051849D01*
X0335275Y0051997D01*
X0335320Y0052143D01*
X0335369Y0052289D01*
X0335422Y0052433D01*
X0335478Y0052575D01*
X0335538Y0052716D01*
X0335602Y0052856D01*
X0335669Y0052994D01*
X0335740Y0053130D01*
X0335815Y0053264D01*
X0335892Y0053396D01*
X0335974Y0053526D01*
X0336058Y0053654D01*
X0336146Y0053780D01*
X0336237Y0053903D01*
X0336331Y0054024D01*
X0336429Y0054142D01*
X0336529Y0054258D01*
X0336633Y0054371D01*
X0336739Y0054482D01*
X0336848Y0054590D01*
X0336960Y0054695D01*
X0337074Y0054796D01*
X0337192Y0054895D01*
X0337311Y0054991D01*
X0337433Y0055084D01*
X0337558Y0055173D01*
X0337685Y0055260D01*
X0337814Y0055342D01*
X0337945Y0055422D01*
X0338078Y0055498D01*
X0338213Y0055571D01*
X0338350Y0055640D01*
X0338489Y0055705D01*
X0338629Y0055767D01*
X0338771Y0055825D01*
X0338914Y0055880D01*
X0339059Y0055931D01*
X0339205Y0055978D01*
X0339352Y0056021D01*
X0339500Y0056060D01*
X0339649Y0056096D01*
X0339799Y0056127D01*
X0339950Y0056155D01*
X0340101Y0056179D01*
X0340254Y0056199D01*
X0340406Y0056215D01*
X0340559Y0056227D01*
X0340712Y0056235D01*
X0340865Y0056239D01*
X0341019Y0056239D01*
X0341172Y0056235D01*
X0341325Y0056227D01*
X0341478Y0056215D01*
X0341630Y0056199D01*
X0341783Y0056179D01*
X0341934Y0056155D01*
X0342085Y0056127D01*
X0342235Y0056096D01*
X0342384Y0056060D01*
X0342532Y0056021D01*
X0342679Y0055978D01*
X0342825Y0055931D01*
X0342970Y0055880D01*
X0343113Y0055825D01*
X0343255Y0055767D01*
X0343395Y0055705D01*
X0343534Y0055640D01*
X0343671Y0055571D01*
X0343806Y0055498D01*
X0343939Y0055422D01*
X0344070Y0055342D01*
X0344199Y0055260D01*
X0344326Y0055173D01*
X0344451Y0055084D01*
X0344573Y0054991D01*
X0344692Y0054895D01*
X0344810Y0054796D01*
X0344924Y0054695D01*
X0345036Y0054590D01*
X0345145Y0054482D01*
X0345251Y0054371D01*
X0345355Y0054258D01*
X0345455Y0054142D01*
X0345553Y0054024D01*
X0345647Y0053903D01*
X0345738Y0053780D01*
X0345826Y0053654D01*
X0345910Y0053526D01*
X0345992Y0053396D01*
X0346069Y0053264D01*
X0346144Y0053130D01*
X0346215Y0052994D01*
X0346282Y0052856D01*
X0346346Y0052716D01*
X0346406Y0052575D01*
X0346462Y0052433D01*
X0346515Y0052289D01*
X0346564Y0052143D01*
X0346609Y0051997D01*
X0346650Y0051849D01*
X0346687Y0051701D01*
X0346721Y0051551D01*
X0346751Y0051400D01*
X0346776Y0051249D01*
X0346798Y0051098D01*
X0346816Y0050945D01*
X0346830Y0050793D01*
X0346840Y0050640D01*
X0346846Y0050486D01*
X0346848Y0050333D01*
X0346846Y0050180D01*
X0346840Y0050026D01*
X0346830Y0049873D01*
X0346816Y0049721D01*
X0346798Y0049568D01*
X0346776Y0049417D01*
X0346751Y0049266D01*
X0346721Y0049115D01*
X0346687Y0048965D01*
X0346650Y0048817D01*
X0346609Y0048669D01*
X0346564Y0048523D01*
X0346515Y0048377D01*
X0346462Y0048233D01*
X0346406Y0048091D01*
X0346346Y0047950D01*
X0346282Y0047810D01*
X0346215Y0047672D01*
X0346144Y0047536D01*
X0346069Y0047402D01*
X0345992Y0047270D01*
X0345910Y0047140D01*
X0345826Y0047012D01*
X0345738Y0046886D01*
X0345647Y0046763D01*
X0345553Y0046642D01*
X0345455Y0046524D01*
X0345355Y0046408D01*
X0345251Y0046295D01*
X0345145Y0046184D01*
X0345036Y0046076D01*
X0344924Y0045971D01*
X0344810Y0045870D01*
X0344692Y0045771D01*
X0344573Y0045675D01*
X0344451Y0045582D01*
X0344326Y0045493D01*
X0344199Y0045406D01*
X0344070Y0045324D01*
X0343939Y0045244D01*
X0343806Y0045168D01*
X0343671Y0045095D01*
X0343534Y0045026D01*
X0343395Y0044961D01*
X0343255Y0044899D01*
X0343113Y0044841D01*
X0342970Y0044786D01*
X0342825Y0044735D01*
X0342679Y0044688D01*
X0342532Y0044645D01*
X0342384Y0044606D01*
X0342235Y0044570D01*
X0342085Y0044539D01*
X0341934Y0044511D01*
X0341783Y0044487D01*
X0341630Y0044467D01*
X0341478Y0044451D01*
X0341325Y0044439D01*
X0341172Y0044431D01*
X0341019Y0044427D01*
X0340865Y0044427D01*
X0340712Y0044431D01*
X0340559Y0044439D01*
X0340406Y0044451D01*
X0340254Y0044467D01*
X0340101Y0044487D01*
X0339950Y0044511D01*
X0339799Y0044539D01*
X0339649Y0044570D01*
X0339500Y0044606D01*
X0339352Y0044645D01*
X0339205Y0044688D01*
X0339059Y0044735D01*
X0338914Y0044786D01*
X0338771Y0044841D01*
X0338629Y0044899D01*
X0338489Y0044961D01*
X0338350Y0045026D01*
X0338213Y0045095D01*
X0338078Y0045168D01*
X0337945Y0045244D01*
X0337814Y0045324D01*
X0337685Y0045406D01*
X0337558Y0045493D01*
X0337433Y0045582D01*
X0337311Y0045675D01*
X0337192Y0045771D01*
X0337074Y0045870D01*
X0336960Y0045971D01*
X0336848Y0046076D01*
X0336739Y0046184D01*
X0336633Y0046295D01*
X0336529Y0046408D01*
X0336429Y0046524D01*
X0336331Y0046642D01*
X0336237Y0046763D01*
X0336146Y0046886D01*
X0336058Y0047012D01*
X0335974Y0047140D01*
X0335892Y0047270D01*
X0335815Y0047402D01*
X0335740Y0047536D01*
X0335669Y0047672D01*
X0335602Y0047810D01*
X0335538Y0047950D01*
X0335478Y0048091D01*
X0335422Y0048233D01*
X0335369Y0048377D01*
X0335320Y0048523D01*
X0335275Y0048669D01*
X0335234Y0048817D01*
X0335197Y0048965D01*
X0335163Y0049115D01*
X0335133Y0049266D01*
X0335108Y0049417D01*
X0335086Y0049568D01*
X0335068Y0049721D01*
X0335054Y0049873D01*
X0335044Y0050026D01*
X0335038Y0050180D01*
X0335036Y0050333D01*
X0377581Y0160523D02*
X0377583Y0160681D01*
X0377589Y0160839D01*
X0377599Y0160997D01*
X0377613Y0161155D01*
X0377631Y0161312D01*
X0377652Y0161469D01*
X0377678Y0161625D01*
X0377708Y0161781D01*
X0377741Y0161936D01*
X0377779Y0162089D01*
X0377820Y0162242D01*
X0377865Y0162394D01*
X0377914Y0162545D01*
X0377967Y0162694D01*
X0378023Y0162842D01*
X0378083Y0162988D01*
X0378147Y0163133D01*
X0378215Y0163276D01*
X0378286Y0163418D01*
X0378360Y0163558D01*
X0378438Y0163695D01*
X0378520Y0163831D01*
X0378604Y0163965D01*
X0378693Y0164096D01*
X0378784Y0164225D01*
X0378879Y0164352D01*
X0378976Y0164477D01*
X0379077Y0164599D01*
X0379181Y0164718D01*
X0379288Y0164835D01*
X0379398Y0164949D01*
X0379511Y0165060D01*
X0379626Y0165169D01*
X0379744Y0165274D01*
X0379865Y0165376D01*
X0379988Y0165476D01*
X0380114Y0165572D01*
X0380242Y0165665D01*
X0380372Y0165755D01*
X0380505Y0165841D01*
X0380640Y0165925D01*
X0380776Y0166004D01*
X0380915Y0166081D01*
X0381056Y0166153D01*
X0381198Y0166223D01*
X0381342Y0166288D01*
X0381488Y0166350D01*
X0381635Y0166408D01*
X0381784Y0166463D01*
X0381934Y0166514D01*
X0382085Y0166561D01*
X0382237Y0166604D01*
X0382390Y0166643D01*
X0382545Y0166679D01*
X0382700Y0166710D01*
X0382856Y0166738D01*
X0383012Y0166762D01*
X0383169Y0166782D01*
X0383327Y0166798D01*
X0383484Y0166810D01*
X0383643Y0166818D01*
X0383801Y0166822D01*
X0383959Y0166822D01*
X0384117Y0166818D01*
X0384276Y0166810D01*
X0384433Y0166798D01*
X0384591Y0166782D01*
X0384748Y0166762D01*
X0384904Y0166738D01*
X0385060Y0166710D01*
X0385215Y0166679D01*
X0385370Y0166643D01*
X0385523Y0166604D01*
X0385675Y0166561D01*
X0385826Y0166514D01*
X0385976Y0166463D01*
X0386125Y0166408D01*
X0386272Y0166350D01*
X0386418Y0166288D01*
X0386562Y0166223D01*
X0386704Y0166153D01*
X0386845Y0166081D01*
X0386984Y0166004D01*
X0387120Y0165925D01*
X0387255Y0165841D01*
X0387388Y0165755D01*
X0387518Y0165665D01*
X0387646Y0165572D01*
X0387772Y0165476D01*
X0387895Y0165376D01*
X0388016Y0165274D01*
X0388134Y0165169D01*
X0388249Y0165060D01*
X0388362Y0164949D01*
X0388472Y0164835D01*
X0388579Y0164718D01*
X0388683Y0164599D01*
X0388784Y0164477D01*
X0388881Y0164352D01*
X0388976Y0164225D01*
X0389067Y0164096D01*
X0389156Y0163965D01*
X0389240Y0163831D01*
X0389322Y0163695D01*
X0389400Y0163558D01*
X0389474Y0163418D01*
X0389545Y0163276D01*
X0389613Y0163133D01*
X0389677Y0162988D01*
X0389737Y0162842D01*
X0389793Y0162694D01*
X0389846Y0162545D01*
X0389895Y0162394D01*
X0389940Y0162242D01*
X0389981Y0162089D01*
X0390019Y0161936D01*
X0390052Y0161781D01*
X0390082Y0161625D01*
X0390108Y0161469D01*
X0390129Y0161312D01*
X0390147Y0161155D01*
X0390161Y0160997D01*
X0390171Y0160839D01*
X0390177Y0160681D01*
X0390179Y0160523D01*
X0390177Y0160365D01*
X0390171Y0160207D01*
X0390161Y0160049D01*
X0390147Y0159891D01*
X0390129Y0159734D01*
X0390108Y0159577D01*
X0390082Y0159421D01*
X0390052Y0159265D01*
X0390019Y0159110D01*
X0389981Y0158957D01*
X0389940Y0158804D01*
X0389895Y0158652D01*
X0389846Y0158501D01*
X0389793Y0158352D01*
X0389737Y0158204D01*
X0389677Y0158058D01*
X0389613Y0157913D01*
X0389545Y0157770D01*
X0389474Y0157628D01*
X0389400Y0157488D01*
X0389322Y0157351D01*
X0389240Y0157215D01*
X0389156Y0157081D01*
X0389067Y0156950D01*
X0388976Y0156821D01*
X0388881Y0156694D01*
X0388784Y0156569D01*
X0388683Y0156447D01*
X0388579Y0156328D01*
X0388472Y0156211D01*
X0388362Y0156097D01*
X0388249Y0155986D01*
X0388134Y0155877D01*
X0388016Y0155772D01*
X0387895Y0155670D01*
X0387772Y0155570D01*
X0387646Y0155474D01*
X0387518Y0155381D01*
X0387388Y0155291D01*
X0387255Y0155205D01*
X0387120Y0155121D01*
X0386984Y0155042D01*
X0386845Y0154965D01*
X0386704Y0154893D01*
X0386562Y0154823D01*
X0386418Y0154758D01*
X0386272Y0154696D01*
X0386125Y0154638D01*
X0385976Y0154583D01*
X0385826Y0154532D01*
X0385675Y0154485D01*
X0385523Y0154442D01*
X0385370Y0154403D01*
X0385215Y0154367D01*
X0385060Y0154336D01*
X0384904Y0154308D01*
X0384748Y0154284D01*
X0384591Y0154264D01*
X0384433Y0154248D01*
X0384276Y0154236D01*
X0384117Y0154228D01*
X0383959Y0154224D01*
X0383801Y0154224D01*
X0383643Y0154228D01*
X0383484Y0154236D01*
X0383327Y0154248D01*
X0383169Y0154264D01*
X0383012Y0154284D01*
X0382856Y0154308D01*
X0382700Y0154336D01*
X0382545Y0154367D01*
X0382390Y0154403D01*
X0382237Y0154442D01*
X0382085Y0154485D01*
X0381934Y0154532D01*
X0381784Y0154583D01*
X0381635Y0154638D01*
X0381488Y0154696D01*
X0381342Y0154758D01*
X0381198Y0154823D01*
X0381056Y0154893D01*
X0380915Y0154965D01*
X0380776Y0155042D01*
X0380640Y0155121D01*
X0380505Y0155205D01*
X0380372Y0155291D01*
X0380242Y0155381D01*
X0380114Y0155474D01*
X0379988Y0155570D01*
X0379865Y0155670D01*
X0379744Y0155772D01*
X0379626Y0155877D01*
X0379511Y0155986D01*
X0379398Y0156097D01*
X0379288Y0156211D01*
X0379181Y0156328D01*
X0379077Y0156447D01*
X0378976Y0156569D01*
X0378879Y0156694D01*
X0378784Y0156821D01*
X0378693Y0156950D01*
X0378604Y0157081D01*
X0378520Y0157215D01*
X0378438Y0157351D01*
X0378360Y0157488D01*
X0378286Y0157628D01*
X0378215Y0157770D01*
X0378147Y0157913D01*
X0378083Y0158058D01*
X0378023Y0158204D01*
X0377967Y0158352D01*
X0377914Y0158501D01*
X0377865Y0158652D01*
X0377820Y0158804D01*
X0377779Y0158957D01*
X0377741Y0159110D01*
X0377708Y0159265D01*
X0377678Y0159421D01*
X0377652Y0159577D01*
X0377631Y0159734D01*
X0377613Y0159891D01*
X0377599Y0160049D01*
X0377589Y0160207D01*
X0377583Y0160365D01*
X0377581Y0160523D01*
X0377536Y0238633D02*
X0377538Y0238786D01*
X0377544Y0238940D01*
X0377554Y0239093D01*
X0377568Y0239245D01*
X0377586Y0239398D01*
X0377608Y0239549D01*
X0377633Y0239700D01*
X0377663Y0239851D01*
X0377697Y0240001D01*
X0377734Y0240149D01*
X0377775Y0240297D01*
X0377820Y0240443D01*
X0377869Y0240589D01*
X0377922Y0240733D01*
X0377978Y0240875D01*
X0378038Y0241016D01*
X0378102Y0241156D01*
X0378169Y0241294D01*
X0378240Y0241430D01*
X0378315Y0241564D01*
X0378392Y0241696D01*
X0378474Y0241826D01*
X0378558Y0241954D01*
X0378646Y0242080D01*
X0378737Y0242203D01*
X0378831Y0242324D01*
X0378929Y0242442D01*
X0379029Y0242558D01*
X0379133Y0242671D01*
X0379239Y0242782D01*
X0379348Y0242890D01*
X0379460Y0242995D01*
X0379574Y0243096D01*
X0379692Y0243195D01*
X0379811Y0243291D01*
X0379933Y0243384D01*
X0380058Y0243473D01*
X0380185Y0243560D01*
X0380314Y0243642D01*
X0380445Y0243722D01*
X0380578Y0243798D01*
X0380713Y0243871D01*
X0380850Y0243940D01*
X0380989Y0244005D01*
X0381129Y0244067D01*
X0381271Y0244125D01*
X0381414Y0244180D01*
X0381559Y0244231D01*
X0381705Y0244278D01*
X0381852Y0244321D01*
X0382000Y0244360D01*
X0382149Y0244396D01*
X0382299Y0244427D01*
X0382450Y0244455D01*
X0382601Y0244479D01*
X0382754Y0244499D01*
X0382906Y0244515D01*
X0383059Y0244527D01*
X0383212Y0244535D01*
X0383365Y0244539D01*
X0383519Y0244539D01*
X0383672Y0244535D01*
X0383825Y0244527D01*
X0383978Y0244515D01*
X0384130Y0244499D01*
X0384283Y0244479D01*
X0384434Y0244455D01*
X0384585Y0244427D01*
X0384735Y0244396D01*
X0384884Y0244360D01*
X0385032Y0244321D01*
X0385179Y0244278D01*
X0385325Y0244231D01*
X0385470Y0244180D01*
X0385613Y0244125D01*
X0385755Y0244067D01*
X0385895Y0244005D01*
X0386034Y0243940D01*
X0386171Y0243871D01*
X0386306Y0243798D01*
X0386439Y0243722D01*
X0386570Y0243642D01*
X0386699Y0243560D01*
X0386826Y0243473D01*
X0386951Y0243384D01*
X0387073Y0243291D01*
X0387192Y0243195D01*
X0387310Y0243096D01*
X0387424Y0242995D01*
X0387536Y0242890D01*
X0387645Y0242782D01*
X0387751Y0242671D01*
X0387855Y0242558D01*
X0387955Y0242442D01*
X0388053Y0242324D01*
X0388147Y0242203D01*
X0388238Y0242080D01*
X0388326Y0241954D01*
X0388410Y0241826D01*
X0388492Y0241696D01*
X0388569Y0241564D01*
X0388644Y0241430D01*
X0388715Y0241294D01*
X0388782Y0241156D01*
X0388846Y0241016D01*
X0388906Y0240875D01*
X0388962Y0240733D01*
X0389015Y0240589D01*
X0389064Y0240443D01*
X0389109Y0240297D01*
X0389150Y0240149D01*
X0389187Y0240001D01*
X0389221Y0239851D01*
X0389251Y0239700D01*
X0389276Y0239549D01*
X0389298Y0239398D01*
X0389316Y0239245D01*
X0389330Y0239093D01*
X0389340Y0238940D01*
X0389346Y0238786D01*
X0389348Y0238633D01*
X0389346Y0238480D01*
X0389340Y0238326D01*
X0389330Y0238173D01*
X0389316Y0238021D01*
X0389298Y0237868D01*
X0389276Y0237717D01*
X0389251Y0237566D01*
X0389221Y0237415D01*
X0389187Y0237265D01*
X0389150Y0237117D01*
X0389109Y0236969D01*
X0389064Y0236823D01*
X0389015Y0236677D01*
X0388962Y0236533D01*
X0388906Y0236391D01*
X0388846Y0236250D01*
X0388782Y0236110D01*
X0388715Y0235972D01*
X0388644Y0235836D01*
X0388569Y0235702D01*
X0388492Y0235570D01*
X0388410Y0235440D01*
X0388326Y0235312D01*
X0388238Y0235186D01*
X0388147Y0235063D01*
X0388053Y0234942D01*
X0387955Y0234824D01*
X0387855Y0234708D01*
X0387751Y0234595D01*
X0387645Y0234484D01*
X0387536Y0234376D01*
X0387424Y0234271D01*
X0387310Y0234170D01*
X0387192Y0234071D01*
X0387073Y0233975D01*
X0386951Y0233882D01*
X0386826Y0233793D01*
X0386699Y0233706D01*
X0386570Y0233624D01*
X0386439Y0233544D01*
X0386306Y0233468D01*
X0386171Y0233395D01*
X0386034Y0233326D01*
X0385895Y0233261D01*
X0385755Y0233199D01*
X0385613Y0233141D01*
X0385470Y0233086D01*
X0385325Y0233035D01*
X0385179Y0232988D01*
X0385032Y0232945D01*
X0384884Y0232906D01*
X0384735Y0232870D01*
X0384585Y0232839D01*
X0384434Y0232811D01*
X0384283Y0232787D01*
X0384130Y0232767D01*
X0383978Y0232751D01*
X0383825Y0232739D01*
X0383672Y0232731D01*
X0383519Y0232727D01*
X0383365Y0232727D01*
X0383212Y0232731D01*
X0383059Y0232739D01*
X0382906Y0232751D01*
X0382754Y0232767D01*
X0382601Y0232787D01*
X0382450Y0232811D01*
X0382299Y0232839D01*
X0382149Y0232870D01*
X0382000Y0232906D01*
X0381852Y0232945D01*
X0381705Y0232988D01*
X0381559Y0233035D01*
X0381414Y0233086D01*
X0381271Y0233141D01*
X0381129Y0233199D01*
X0380989Y0233261D01*
X0380850Y0233326D01*
X0380713Y0233395D01*
X0380578Y0233468D01*
X0380445Y0233544D01*
X0380314Y0233624D01*
X0380185Y0233706D01*
X0380058Y0233793D01*
X0379933Y0233882D01*
X0379811Y0233975D01*
X0379692Y0234071D01*
X0379574Y0234170D01*
X0379460Y0234271D01*
X0379348Y0234376D01*
X0379239Y0234484D01*
X0379133Y0234595D01*
X0379029Y0234708D01*
X0378929Y0234824D01*
X0378831Y0234942D01*
X0378737Y0235063D01*
X0378646Y0235186D01*
X0378558Y0235312D01*
X0378474Y0235440D01*
X0378392Y0235570D01*
X0378315Y0235702D01*
X0378240Y0235836D01*
X0378169Y0235972D01*
X0378102Y0236110D01*
X0378038Y0236250D01*
X0377978Y0236391D01*
X0377922Y0236533D01*
X0377869Y0236677D01*
X0377820Y0236823D01*
X0377775Y0236969D01*
X0377734Y0237117D01*
X0377697Y0237265D01*
X0377663Y0237415D01*
X0377633Y0237566D01*
X0377608Y0237717D01*
X0377586Y0237868D01*
X0377568Y0238021D01*
X0377554Y0238173D01*
X0377544Y0238326D01*
X0377538Y0238480D01*
X0377536Y0238633D01*
X0371536Y0310633D02*
X0371538Y0310786D01*
X0371544Y0310940D01*
X0371554Y0311093D01*
X0371568Y0311245D01*
X0371586Y0311398D01*
X0371608Y0311549D01*
X0371633Y0311700D01*
X0371663Y0311851D01*
X0371697Y0312001D01*
X0371734Y0312149D01*
X0371775Y0312297D01*
X0371820Y0312443D01*
X0371869Y0312589D01*
X0371922Y0312733D01*
X0371978Y0312875D01*
X0372038Y0313016D01*
X0372102Y0313156D01*
X0372169Y0313294D01*
X0372240Y0313430D01*
X0372315Y0313564D01*
X0372392Y0313696D01*
X0372474Y0313826D01*
X0372558Y0313954D01*
X0372646Y0314080D01*
X0372737Y0314203D01*
X0372831Y0314324D01*
X0372929Y0314442D01*
X0373029Y0314558D01*
X0373133Y0314671D01*
X0373239Y0314782D01*
X0373348Y0314890D01*
X0373460Y0314995D01*
X0373574Y0315096D01*
X0373692Y0315195D01*
X0373811Y0315291D01*
X0373933Y0315384D01*
X0374058Y0315473D01*
X0374185Y0315560D01*
X0374314Y0315642D01*
X0374445Y0315722D01*
X0374578Y0315798D01*
X0374713Y0315871D01*
X0374850Y0315940D01*
X0374989Y0316005D01*
X0375129Y0316067D01*
X0375271Y0316125D01*
X0375414Y0316180D01*
X0375559Y0316231D01*
X0375705Y0316278D01*
X0375852Y0316321D01*
X0376000Y0316360D01*
X0376149Y0316396D01*
X0376299Y0316427D01*
X0376450Y0316455D01*
X0376601Y0316479D01*
X0376754Y0316499D01*
X0376906Y0316515D01*
X0377059Y0316527D01*
X0377212Y0316535D01*
X0377365Y0316539D01*
X0377519Y0316539D01*
X0377672Y0316535D01*
X0377825Y0316527D01*
X0377978Y0316515D01*
X0378130Y0316499D01*
X0378283Y0316479D01*
X0378434Y0316455D01*
X0378585Y0316427D01*
X0378735Y0316396D01*
X0378884Y0316360D01*
X0379032Y0316321D01*
X0379179Y0316278D01*
X0379325Y0316231D01*
X0379470Y0316180D01*
X0379613Y0316125D01*
X0379755Y0316067D01*
X0379895Y0316005D01*
X0380034Y0315940D01*
X0380171Y0315871D01*
X0380306Y0315798D01*
X0380439Y0315722D01*
X0380570Y0315642D01*
X0380699Y0315560D01*
X0380826Y0315473D01*
X0380951Y0315384D01*
X0381073Y0315291D01*
X0381192Y0315195D01*
X0381310Y0315096D01*
X0381424Y0314995D01*
X0381536Y0314890D01*
X0381645Y0314782D01*
X0381751Y0314671D01*
X0381855Y0314558D01*
X0381955Y0314442D01*
X0382053Y0314324D01*
X0382147Y0314203D01*
X0382238Y0314080D01*
X0382326Y0313954D01*
X0382410Y0313826D01*
X0382492Y0313696D01*
X0382569Y0313564D01*
X0382644Y0313430D01*
X0382715Y0313294D01*
X0382782Y0313156D01*
X0382846Y0313016D01*
X0382906Y0312875D01*
X0382962Y0312733D01*
X0383015Y0312589D01*
X0383064Y0312443D01*
X0383109Y0312297D01*
X0383150Y0312149D01*
X0383187Y0312001D01*
X0383221Y0311851D01*
X0383251Y0311700D01*
X0383276Y0311549D01*
X0383298Y0311398D01*
X0383316Y0311245D01*
X0383330Y0311093D01*
X0383340Y0310940D01*
X0383346Y0310786D01*
X0383348Y0310633D01*
X0383346Y0310480D01*
X0383340Y0310326D01*
X0383330Y0310173D01*
X0383316Y0310021D01*
X0383298Y0309868D01*
X0383276Y0309717D01*
X0383251Y0309566D01*
X0383221Y0309415D01*
X0383187Y0309265D01*
X0383150Y0309117D01*
X0383109Y0308969D01*
X0383064Y0308823D01*
X0383015Y0308677D01*
X0382962Y0308533D01*
X0382906Y0308391D01*
X0382846Y0308250D01*
X0382782Y0308110D01*
X0382715Y0307972D01*
X0382644Y0307836D01*
X0382569Y0307702D01*
X0382492Y0307570D01*
X0382410Y0307440D01*
X0382326Y0307312D01*
X0382238Y0307186D01*
X0382147Y0307063D01*
X0382053Y0306942D01*
X0381955Y0306824D01*
X0381855Y0306708D01*
X0381751Y0306595D01*
X0381645Y0306484D01*
X0381536Y0306376D01*
X0381424Y0306271D01*
X0381310Y0306170D01*
X0381192Y0306071D01*
X0381073Y0305975D01*
X0380951Y0305882D01*
X0380826Y0305793D01*
X0380699Y0305706D01*
X0380570Y0305624D01*
X0380439Y0305544D01*
X0380306Y0305468D01*
X0380171Y0305395D01*
X0380034Y0305326D01*
X0379895Y0305261D01*
X0379755Y0305199D01*
X0379613Y0305141D01*
X0379470Y0305086D01*
X0379325Y0305035D01*
X0379179Y0304988D01*
X0379032Y0304945D01*
X0378884Y0304906D01*
X0378735Y0304870D01*
X0378585Y0304839D01*
X0378434Y0304811D01*
X0378283Y0304787D01*
X0378130Y0304767D01*
X0377978Y0304751D01*
X0377825Y0304739D01*
X0377672Y0304731D01*
X0377519Y0304727D01*
X0377365Y0304727D01*
X0377212Y0304731D01*
X0377059Y0304739D01*
X0376906Y0304751D01*
X0376754Y0304767D01*
X0376601Y0304787D01*
X0376450Y0304811D01*
X0376299Y0304839D01*
X0376149Y0304870D01*
X0376000Y0304906D01*
X0375852Y0304945D01*
X0375705Y0304988D01*
X0375559Y0305035D01*
X0375414Y0305086D01*
X0375271Y0305141D01*
X0375129Y0305199D01*
X0374989Y0305261D01*
X0374850Y0305326D01*
X0374713Y0305395D01*
X0374578Y0305468D01*
X0374445Y0305544D01*
X0374314Y0305624D01*
X0374185Y0305706D01*
X0374058Y0305793D01*
X0373933Y0305882D01*
X0373811Y0305975D01*
X0373692Y0306071D01*
X0373574Y0306170D01*
X0373460Y0306271D01*
X0373348Y0306376D01*
X0373239Y0306484D01*
X0373133Y0306595D01*
X0373029Y0306708D01*
X0372929Y0306824D01*
X0372831Y0306942D01*
X0372737Y0307063D01*
X0372646Y0307186D01*
X0372558Y0307312D01*
X0372474Y0307440D01*
X0372392Y0307570D01*
X0372315Y0307702D01*
X0372240Y0307836D01*
X0372169Y0307972D01*
X0372102Y0308110D01*
X0372038Y0308250D01*
X0371978Y0308391D01*
X0371922Y0308533D01*
X0371869Y0308677D01*
X0371820Y0308823D01*
X0371775Y0308969D01*
X0371734Y0309117D01*
X0371697Y0309265D01*
X0371663Y0309415D01*
X0371633Y0309566D01*
X0371608Y0309717D01*
X0371586Y0309868D01*
X0371568Y0310021D01*
X0371554Y0310173D01*
X0371544Y0310326D01*
X0371538Y0310480D01*
X0371536Y0310633D01*
D11*
X0183742Y0329233D03*
X0045842Y0329233D03*
X0184942Y0046033D03*
D12*
X0263169Y0139317D03*
X0306942Y0122333D03*
X0308969Y0195635D03*
X0343442Y0238633D03*
X0383442Y0238633D03*
X0377442Y0310633D03*
X0340942Y0050333D03*
X0300942Y0050333D03*
D13*
X0410942Y0109333D02*
X0410942Y0145333D01*
X0424942Y0145333D01*
X0424942Y0109333D01*
X0410942Y0109333D01*
X0410942Y0109557D02*
X0424942Y0109557D01*
X0424942Y0110156D02*
X0410942Y0110156D01*
X0410942Y0110754D02*
X0424942Y0110754D01*
X0424942Y0111353D02*
X0410942Y0111353D01*
X0410942Y0111951D02*
X0424942Y0111951D01*
X0424942Y0112550D02*
X0410942Y0112550D01*
X0410942Y0113148D02*
X0424942Y0113148D01*
X0424942Y0113747D02*
X0410942Y0113747D01*
X0410942Y0114345D02*
X0424942Y0114345D01*
X0424942Y0114944D02*
X0410942Y0114944D01*
X0410942Y0115543D02*
X0424942Y0115543D01*
X0424942Y0116141D02*
X0410942Y0116141D01*
X0410942Y0116740D02*
X0424942Y0116740D01*
X0424942Y0117338D02*
X0410942Y0117338D01*
X0410942Y0117937D02*
X0424942Y0117937D01*
X0424942Y0118535D02*
X0410942Y0118535D01*
X0410942Y0119134D02*
X0424942Y0119134D01*
X0424942Y0119732D02*
X0410942Y0119732D01*
X0410942Y0120331D02*
X0424942Y0120331D01*
X0424942Y0120929D02*
X0410942Y0120929D01*
X0410942Y0121528D02*
X0424942Y0121528D01*
X0424942Y0122126D02*
X0410942Y0122126D01*
X0410942Y0122725D02*
X0424942Y0122725D01*
X0424942Y0123323D02*
X0410942Y0123323D01*
X0410942Y0123922D02*
X0424942Y0123922D01*
X0424942Y0124520D02*
X0410942Y0124520D01*
X0410942Y0125119D02*
X0424942Y0125119D01*
X0424942Y0125717D02*
X0410942Y0125717D01*
X0410942Y0126316D02*
X0424942Y0126316D01*
X0424942Y0126914D02*
X0410942Y0126914D01*
X0410942Y0127513D02*
X0424942Y0127513D01*
X0424942Y0128111D02*
X0410942Y0128111D01*
X0410942Y0128710D02*
X0424942Y0128710D01*
X0424942Y0129308D02*
X0410942Y0129308D01*
X0410942Y0129907D02*
X0424942Y0129907D01*
X0424942Y0130505D02*
X0410942Y0130505D01*
X0410942Y0131104D02*
X0424942Y0131104D01*
X0424942Y0131702D02*
X0410942Y0131702D01*
X0410942Y0132301D02*
X0424942Y0132301D01*
X0424942Y0132899D02*
X0410942Y0132899D01*
X0410942Y0133498D02*
X0424942Y0133498D01*
X0424942Y0134096D02*
X0410942Y0134096D01*
X0410942Y0134695D02*
X0424942Y0134695D01*
X0424942Y0135293D02*
X0410942Y0135293D01*
X0410942Y0135892D02*
X0424942Y0135892D01*
X0424942Y0136490D02*
X0410942Y0136490D01*
X0410942Y0137089D02*
X0424942Y0137089D01*
X0424942Y0137687D02*
X0410942Y0137687D01*
X0410942Y0138286D02*
X0424942Y0138286D01*
X0424942Y0138884D02*
X0410942Y0138884D01*
X0410942Y0139483D02*
X0424942Y0139483D01*
X0424942Y0140081D02*
X0410942Y0140081D01*
X0410942Y0140680D02*
X0424942Y0140680D01*
X0424942Y0141279D02*
X0410942Y0141279D01*
X0410942Y0141877D02*
X0424942Y0141877D01*
X0424942Y0142476D02*
X0410942Y0142476D01*
X0410942Y0143074D02*
X0424942Y0143074D01*
X0424942Y0143673D02*
X0410942Y0143673D01*
X0410942Y0144271D02*
X0424942Y0144271D01*
X0424942Y0144870D02*
X0410942Y0144870D01*
X0273142Y0297533D02*
X0259742Y0297533D01*
X0259742Y0333733D01*
X0273142Y0333733D01*
X0273142Y0297533D01*
X0273142Y0298088D02*
X0259742Y0298088D01*
X0259742Y0298687D02*
X0273142Y0298687D01*
X0273142Y0299285D02*
X0259742Y0299285D01*
X0259742Y0299884D02*
X0273142Y0299884D01*
X0273142Y0300483D02*
X0259742Y0300483D01*
X0259742Y0301081D02*
X0273142Y0301081D01*
X0273142Y0301680D02*
X0259742Y0301680D01*
X0259742Y0302278D02*
X0273142Y0302278D01*
X0273142Y0302877D02*
X0259742Y0302877D01*
X0259742Y0303475D02*
X0273142Y0303475D01*
X0273142Y0304074D02*
X0259742Y0304074D01*
X0259742Y0304672D02*
X0273142Y0304672D01*
X0273142Y0305271D02*
X0259742Y0305271D01*
X0259742Y0305869D02*
X0273142Y0305869D01*
X0273142Y0306468D02*
X0259742Y0306468D01*
X0259742Y0307066D02*
X0273142Y0307066D01*
X0273142Y0307665D02*
X0259742Y0307665D01*
X0259742Y0308263D02*
X0273142Y0308263D01*
X0273142Y0308862D02*
X0259742Y0308862D01*
X0259742Y0309460D02*
X0273142Y0309460D01*
X0273142Y0310059D02*
X0259742Y0310059D01*
X0259742Y0310657D02*
X0273142Y0310657D01*
X0273142Y0311256D02*
X0259742Y0311256D01*
X0259742Y0311854D02*
X0273142Y0311854D01*
X0273142Y0312453D02*
X0259742Y0312453D01*
X0259742Y0313051D02*
X0273142Y0313051D01*
X0273142Y0313650D02*
X0259742Y0313650D01*
X0259742Y0314248D02*
X0273142Y0314248D01*
X0273142Y0314847D02*
X0259742Y0314847D01*
X0259742Y0315445D02*
X0273142Y0315445D01*
X0273142Y0316044D02*
X0259742Y0316044D01*
X0259742Y0316642D02*
X0273142Y0316642D01*
X0273142Y0317241D02*
X0259742Y0317241D01*
X0259742Y0317839D02*
X0273142Y0317839D01*
X0273142Y0318438D02*
X0259742Y0318438D01*
X0259742Y0319036D02*
X0273142Y0319036D01*
X0273142Y0319635D02*
X0259742Y0319635D01*
X0259742Y0320233D02*
X0273142Y0320233D01*
X0273142Y0320832D02*
X0259742Y0320832D01*
X0259742Y0321430D02*
X0273142Y0321430D01*
X0273142Y0322029D02*
X0259742Y0322029D01*
X0259742Y0322627D02*
X0273142Y0322627D01*
X0273142Y0323226D02*
X0259742Y0323226D01*
X0259742Y0323824D02*
X0273142Y0323824D01*
X0273142Y0324423D02*
X0259742Y0324423D01*
X0259742Y0325021D02*
X0273142Y0325021D01*
X0273142Y0325620D02*
X0259742Y0325620D01*
X0259742Y0326219D02*
X0273142Y0326219D01*
X0273142Y0326817D02*
X0259742Y0326817D01*
X0259742Y0327416D02*
X0273142Y0327416D01*
X0273142Y0328014D02*
X0259742Y0328014D01*
X0259742Y0328613D02*
X0273142Y0328613D01*
X0273142Y0329211D02*
X0259742Y0329211D01*
X0259742Y0329810D02*
X0273142Y0329810D01*
X0273142Y0330408D02*
X0259742Y0330408D01*
X0259742Y0331007D02*
X0273142Y0331007D01*
X0273142Y0331605D02*
X0259742Y0331605D01*
X0259742Y0332204D02*
X0273142Y0332204D01*
X0273142Y0332802D02*
X0259742Y0332802D01*
X0259742Y0333401D02*
X0273142Y0333401D01*
D14*
X0038342Y0336933D02*
X0038342Y0038933D01*
X0191842Y0038933D01*
X0191842Y0050933D01*
X0206842Y0050933D01*
X0206842Y0039433D01*
X0284342Y0039433D01*
X0284342Y0046433D01*
X0290842Y0046433D01*
X0290842Y0039933D01*
X0351342Y0039933D01*
X0351342Y0091933D01*
X0362342Y0100933D01*
X0370342Y0105933D01*
X0399342Y0105933D01*
X0399342Y0108933D01*
X0425342Y0108933D01*
X0425342Y0145933D01*
X0399342Y0145933D01*
X0399342Y0211933D01*
X0389342Y0211933D01*
X0389342Y0228433D01*
X0393842Y0228433D01*
X0393842Y0286933D01*
X0385842Y0319933D01*
X0360842Y0319933D01*
X0327342Y0334433D01*
X0258842Y0334433D01*
X0258842Y0296933D01*
X0284842Y0296933D01*
X0284842Y0293933D01*
X0290342Y0293933D01*
X0290342Y0270933D01*
X0206842Y0270933D01*
X0206842Y0266433D01*
X0191342Y0266433D01*
X0191342Y0336933D01*
X0038342Y0336933D01*
X0191842Y0257433D02*
X0191842Y0059933D01*
X0206842Y0059933D01*
X0206842Y0257433D01*
X0191842Y0257433D01*
X0273342Y0185433D02*
X0319342Y0185433D01*
X0319342Y0270933D01*
X0302342Y0270933D01*
X0302342Y0293933D01*
X0313842Y0293933D01*
X0321842Y0288933D01*
X0332842Y0279933D01*
X0332842Y0227933D01*
X0377342Y0227933D01*
X0377342Y0211933D01*
X0323342Y0211933D01*
X0323342Y0131933D01*
X0298342Y0131933D01*
X0290342Y0098433D01*
X0290342Y0055433D01*
X0283842Y0055433D01*
X0283842Y0130933D01*
X0273342Y0130933D01*
X0273342Y0185433D01*
D15*
X0168542Y0249483D03*
X0168542Y0255983D03*
X0115942Y0155383D03*
X0115942Y0148883D03*
X0134142Y0131383D03*
X0134142Y0124883D03*
D16*
X0080796Y0124375D03*
X0080796Y0126737D03*
X0080796Y0129099D03*
X0080796Y0131461D03*
X0080796Y0133824D03*
X0080796Y0136186D03*
X0080796Y0138548D03*
X0080796Y0140910D03*
X0080796Y0143272D03*
X0080796Y0145635D03*
X0080796Y0147997D03*
X0080796Y0150359D03*
X0080796Y0152721D03*
X0080796Y0155083D03*
X0080796Y0157446D03*
X0080796Y0159808D03*
X0080796Y0162170D03*
X0080796Y0164532D03*
X0080796Y0166894D03*
X0080796Y0169257D03*
X0080796Y0171619D03*
X0080796Y0173981D03*
X0080796Y0176343D03*
X0080796Y0178706D03*
X0080796Y0181068D03*
X0080796Y0183430D03*
X0080796Y0185792D03*
X0080796Y0188154D03*
X0080796Y0190517D03*
X0080796Y0192879D03*
X0080796Y0195241D03*
X0080796Y0197603D03*
X0080796Y0199965D03*
X0080796Y0202328D03*
X0080796Y0204690D03*
X0080796Y0207052D03*
X0080796Y0209414D03*
X0080796Y0211776D03*
X0080796Y0214139D03*
X0080796Y0216501D03*
X0080796Y0218863D03*
X0080796Y0221225D03*
X0080796Y0223587D03*
X0080796Y0225950D03*
X0080796Y0228312D03*
X0080796Y0230674D03*
X0080796Y0233036D03*
X0080796Y0235398D03*
X0080796Y0237761D03*
X0080796Y0240123D03*
X0080796Y0242485D03*
X0080796Y0244847D03*
X0080796Y0247209D03*
X0080796Y0249572D03*
X0080796Y0266107D03*
X0080796Y0268469D03*
X0080796Y0270831D03*
X0080796Y0273194D03*
X0080796Y0275556D03*
X0080796Y0277918D03*
X0080796Y0280280D03*
X0080796Y0282643D03*
X0080796Y0285005D03*
X0080796Y0287367D03*
X0080796Y0289729D03*
X0080796Y0292091D03*
X0080796Y0294454D03*
X0080796Y0296816D03*
X0080796Y0299178D03*
X0080796Y0301540D03*
X0080796Y0303902D03*
X0080796Y0306265D03*
X0080796Y0308627D03*
X0080796Y0310989D03*
X0050087Y0309808D03*
X0050087Y0312170D03*
X0050087Y0307446D03*
X0050087Y0305083D03*
X0050087Y0302721D03*
X0050087Y0300359D03*
X0050087Y0297997D03*
X0050087Y0295635D03*
X0050087Y0293272D03*
X0050087Y0290910D03*
X0050087Y0288548D03*
X0050087Y0286186D03*
X0050087Y0283824D03*
X0050087Y0281461D03*
X0050087Y0279099D03*
X0050087Y0276737D03*
X0050087Y0274375D03*
X0050087Y0272013D03*
X0050087Y0269650D03*
X0050087Y0267288D03*
X0050087Y0250753D03*
X0050087Y0248391D03*
X0050087Y0246028D03*
X0050087Y0243666D03*
X0050087Y0241304D03*
X0050087Y0238942D03*
X0050087Y0236580D03*
X0050087Y0234217D03*
X0050087Y0231855D03*
X0050087Y0229493D03*
X0050087Y0227131D03*
X0050087Y0224769D03*
X0050087Y0222406D03*
X0050087Y0220044D03*
X0050087Y0217682D03*
X0050087Y0215320D03*
X0050087Y0212957D03*
X0050087Y0210595D03*
X0050087Y0208233D03*
X0050087Y0205871D03*
X0050087Y0203509D03*
X0050087Y0201146D03*
X0050087Y0198784D03*
X0050087Y0196422D03*
X0050087Y0194060D03*
X0050087Y0191698D03*
X0050087Y0189335D03*
X0050087Y0186973D03*
X0050087Y0184611D03*
X0050087Y0182249D03*
X0050087Y0179887D03*
X0050087Y0177524D03*
X0050087Y0175162D03*
X0050087Y0172800D03*
X0050087Y0170438D03*
X0050087Y0168076D03*
X0050087Y0165713D03*
X0050087Y0163351D03*
X0050087Y0160989D03*
X0050087Y0158627D03*
X0050087Y0156265D03*
X0050087Y0153902D03*
X0050087Y0151540D03*
X0050087Y0149178D03*
X0050087Y0146816D03*
X0050087Y0144454D03*
X0050087Y0142091D03*
X0050087Y0139729D03*
X0050087Y0137367D03*
X0050087Y0135005D03*
X0050087Y0132643D03*
X0050087Y0130280D03*
X0050087Y0127918D03*
X0050087Y0125556D03*
X0050087Y0123194D03*
X0050087Y0120831D03*
X0050087Y0118469D03*
X0050087Y0116107D03*
X0050087Y0113745D03*
X0050087Y0111383D03*
X0050087Y0109020D03*
X0050087Y0106658D03*
X0050087Y0104296D03*
X0050087Y0101934D03*
X0050087Y0099572D03*
X0050087Y0097209D03*
X0050087Y0094847D03*
X0050087Y0092485D03*
X0050087Y0090123D03*
X0050087Y0087761D03*
X0050087Y0085398D03*
X0050087Y0083036D03*
X0050087Y0080674D03*
X0050087Y0078312D03*
X0050087Y0075950D03*
X0050087Y0073587D03*
X0050087Y0071225D03*
X0050087Y0068863D03*
X0050087Y0066501D03*
X0050087Y0064139D03*
X0080796Y0065320D03*
X0080796Y0067682D03*
X0080796Y0070044D03*
X0080796Y0072406D03*
X0080796Y0074769D03*
X0080796Y0077131D03*
X0080796Y0079493D03*
X0080796Y0081855D03*
X0080796Y0084217D03*
X0080796Y0086580D03*
X0080796Y0088942D03*
X0080796Y0091304D03*
X0080796Y0093666D03*
X0080796Y0096028D03*
X0080796Y0098391D03*
X0080796Y0100753D03*
X0080796Y0103115D03*
X0080796Y0105477D03*
X0080796Y0107839D03*
X0080796Y0110202D03*
X0080796Y0112564D03*
X0080796Y0114926D03*
X0080796Y0117288D03*
X0080796Y0119650D03*
X0080796Y0122013D03*
X0080796Y0062957D03*
D17*
X0112686Y0053627D03*
X0112686Y0319469D03*
D18*
X0065442Y0319060D03*
D19*
X0065442Y0056068D03*
D20*
X0092584Y0101733D03*
X0099299Y0101733D03*
X0098984Y0134933D03*
X0105699Y0134933D03*
X0100499Y0251933D03*
X0093784Y0251933D03*
X0093384Y0262533D03*
X0100099Y0262533D03*
D21*
X0106142Y0275776D03*
X0106142Y0282491D03*
X0091342Y0164691D03*
X0091342Y0157976D03*
X0100642Y0152291D03*
X0100642Y0145576D03*
D22*
X0092442Y0301083D03*
X0092442Y0306583D03*
D23*
X0244953Y0188908D03*
X0251453Y0188908D03*
X0152392Y0123133D03*
X0145892Y0123133D03*
X0135292Y0149133D03*
X0128792Y0149133D03*
D24*
X0142767Y0134105D03*
X0144342Y0134105D03*
X0145917Y0134105D03*
X0145917Y0130561D03*
X0144342Y0130561D03*
X0142767Y0130561D03*
D25*
X0146310Y0132333D03*
D26*
X0142176Y0132333D03*
D27*
X0145142Y0148333D03*
X0155142Y0148333D03*
D28*
X0107992Y0079733D03*
X0101092Y0079733D03*
X0131892Y0234533D03*
X0138792Y0234533D03*
X0138992Y0244733D03*
X0132092Y0244733D03*
X0121592Y0248733D03*
X0114692Y0248733D03*
X0114692Y0239333D03*
X0121592Y0239333D03*
X0148492Y0240533D03*
X0155392Y0240533D03*
X0155392Y0231133D03*
X0148492Y0231133D03*
D29*
X0148263Y0256495D03*
X0146295Y0256495D03*
X0144326Y0256495D03*
X0142358Y0256495D03*
X0140389Y0256495D03*
X0138421Y0256495D03*
X0136452Y0256495D03*
X0134484Y0256495D03*
X0132515Y0256495D03*
X0130547Y0256495D03*
X0128578Y0256495D03*
X0150232Y0256495D03*
X0152200Y0256495D03*
X0154169Y0256495D03*
X0156137Y0256495D03*
X0158106Y0256495D03*
X0158106Y0301771D03*
X0156137Y0301771D03*
X0154169Y0301771D03*
X0152200Y0301771D03*
X0150232Y0301771D03*
X0148263Y0301771D03*
X0146295Y0301771D03*
X0144326Y0301771D03*
X0142358Y0301771D03*
X0140389Y0301771D03*
X0138421Y0301771D03*
X0136452Y0301771D03*
X0134484Y0301771D03*
X0132515Y0301771D03*
X0130547Y0301771D03*
X0128578Y0301771D03*
D30*
X0120704Y0293897D03*
X0120704Y0291928D03*
X0120704Y0289960D03*
X0120704Y0287991D03*
X0120704Y0286023D03*
X0120704Y0284054D03*
X0120704Y0282086D03*
X0120704Y0280117D03*
X0120704Y0278149D03*
X0120704Y0276180D03*
X0120704Y0274212D03*
X0120704Y0272243D03*
X0120704Y0270275D03*
X0120704Y0268306D03*
X0120704Y0266338D03*
X0120704Y0264369D03*
X0165980Y0264369D03*
X0165980Y0266338D03*
X0165980Y0268306D03*
X0165980Y0270275D03*
X0165980Y0272243D03*
X0165980Y0274212D03*
X0165980Y0276180D03*
X0165980Y0278149D03*
X0165980Y0280117D03*
X0165980Y0282086D03*
X0165980Y0284054D03*
X0165980Y0286023D03*
X0165980Y0287991D03*
X0165980Y0289960D03*
X0165980Y0291928D03*
X0165980Y0293897D03*
D31*
X0124492Y0301933D03*
X0118992Y0301933D03*
D32*
X0131142Y0219733D03*
X0131142Y0209733D03*
X0131142Y0199733D03*
D33*
X0171892Y0289933D03*
X0177992Y0289933D03*
X0224892Y0163733D03*
X0230992Y0163733D03*
D34*
X0113742Y0079983D03*
X0113742Y0073083D03*
D35*
X0218037Y0136026D02*
X0220007Y0136026D01*
X0218037Y0136026D02*
X0218037Y0136026D01*
X0220007Y0136026D01*
X0220007Y0136026D01*
X0220007Y0137601D02*
X0218037Y0137601D01*
X0218037Y0137601D01*
X0220007Y0137601D01*
X0220007Y0137601D01*
X0220007Y0139176D02*
X0218037Y0139176D01*
X0218037Y0139176D01*
X0220007Y0139176D01*
X0220007Y0139176D01*
X0220007Y0140750D02*
X0218037Y0140750D01*
X0218037Y0140750D01*
X0220007Y0140750D01*
X0220007Y0140750D01*
X0220007Y0142325D02*
X0218037Y0142325D01*
X0218037Y0142325D01*
X0220007Y0142325D01*
X0220007Y0142325D01*
X0220007Y0143900D02*
X0218037Y0143900D01*
X0218037Y0143900D01*
X0220007Y0143900D01*
X0220007Y0143900D01*
X0221187Y0145080D02*
X0221187Y0147050D01*
X0221187Y0147050D01*
X0221187Y0145080D01*
X0221187Y0145080D01*
X0221187Y0145866D02*
X0221187Y0145866D01*
X0221187Y0146652D02*
X0221187Y0146652D01*
X0222762Y0147050D02*
X0222762Y0145080D01*
X0222762Y0147050D02*
X0222762Y0147050D01*
X0222762Y0145080D01*
X0222762Y0145080D01*
X0222762Y0145866D02*
X0222762Y0145866D01*
X0222762Y0146652D02*
X0222762Y0146652D01*
X0224337Y0147050D02*
X0224337Y0145080D01*
X0224337Y0147050D02*
X0224337Y0147050D01*
X0224337Y0145080D01*
X0224337Y0145080D01*
X0224337Y0145866D02*
X0224337Y0145866D01*
X0224337Y0146652D02*
X0224337Y0146652D01*
X0225912Y0147050D02*
X0225912Y0145080D01*
X0225912Y0147050D02*
X0225912Y0147050D01*
X0225912Y0145080D01*
X0225912Y0145080D01*
X0225912Y0145866D02*
X0225912Y0145866D01*
X0225912Y0146652D02*
X0225912Y0146652D01*
X0227487Y0147050D02*
X0227487Y0145080D01*
X0227487Y0147050D02*
X0227487Y0147050D01*
X0227487Y0145080D01*
X0227487Y0145080D01*
X0227487Y0145866D02*
X0227487Y0145866D01*
X0227487Y0146652D02*
X0227487Y0146652D01*
X0229061Y0147050D02*
X0229061Y0145080D01*
X0229061Y0147050D02*
X0229061Y0147050D01*
X0229061Y0145080D01*
X0229061Y0145080D01*
X0229061Y0145866D02*
X0229061Y0145866D01*
X0229061Y0146652D02*
X0229061Y0146652D01*
X0230242Y0143900D02*
X0232212Y0143900D01*
X0232212Y0143900D01*
X0230242Y0143900D01*
X0230242Y0143900D01*
X0230242Y0142325D02*
X0232212Y0142325D01*
X0232212Y0142325D01*
X0230242Y0142325D01*
X0230242Y0142325D01*
X0230242Y0140750D02*
X0232212Y0140750D01*
X0232212Y0140750D01*
X0230242Y0140750D01*
X0230242Y0140750D01*
X0230242Y0139176D02*
X0232212Y0139176D01*
X0232212Y0139176D01*
X0230242Y0139176D01*
X0230242Y0139176D01*
X0230242Y0137601D02*
X0232212Y0137601D01*
X0232212Y0137601D01*
X0230242Y0137601D01*
X0230242Y0137601D01*
X0230242Y0136026D02*
X0232212Y0136026D01*
X0232212Y0136026D01*
X0230242Y0136026D01*
X0230242Y0136026D01*
X0229061Y0134846D02*
X0229061Y0132876D01*
X0229061Y0132876D01*
X0229061Y0134846D01*
X0229061Y0134846D01*
X0229061Y0133662D02*
X0229061Y0133662D01*
X0229061Y0134448D02*
X0229061Y0134448D01*
X0227487Y0134846D02*
X0227487Y0132876D01*
X0227487Y0132876D01*
X0227487Y0134846D01*
X0227487Y0134846D01*
X0227487Y0133662D02*
X0227487Y0133662D01*
X0227487Y0134448D02*
X0227487Y0134448D01*
X0225912Y0134846D02*
X0225912Y0132876D01*
X0225912Y0132876D01*
X0225912Y0134846D01*
X0225912Y0134846D01*
X0225912Y0133662D02*
X0225912Y0133662D01*
X0225912Y0134448D02*
X0225912Y0134448D01*
X0224337Y0134846D02*
X0224337Y0132876D01*
X0224337Y0132876D01*
X0224337Y0134846D01*
X0224337Y0134846D01*
X0224337Y0133662D02*
X0224337Y0133662D01*
X0224337Y0134448D02*
X0224337Y0134448D01*
X0222762Y0134846D02*
X0222762Y0132876D01*
X0222762Y0132876D01*
X0222762Y0134846D01*
X0222762Y0134846D01*
X0222762Y0133662D02*
X0222762Y0133662D01*
X0222762Y0134448D02*
X0222762Y0134448D01*
X0221187Y0134846D02*
X0221187Y0132876D01*
X0221187Y0132876D01*
X0221187Y0134846D01*
X0221187Y0134846D01*
X0221187Y0133662D02*
X0221187Y0133662D01*
X0221187Y0134448D02*
X0221187Y0134448D01*
D36*
X0264080Y0210343D03*
X0269080Y0220343D03*
X0274080Y0210343D03*
X0284080Y0210343D03*
X0294080Y0210343D03*
X0299080Y0220343D03*
X0289080Y0220343D03*
X0279080Y0220343D03*
X0343880Y0195523D03*
X0353880Y0195523D03*
X0363880Y0195523D03*
X0368880Y0185523D03*
X0358880Y0185523D03*
X0348880Y0185523D03*
X0373880Y0195523D03*
X0378880Y0185523D03*
D37*
X0391380Y0172354D03*
X0331537Y0172354D03*
X0311580Y0233513D03*
X0251737Y0233513D03*
D38*
X0256678Y0258650D03*
X0266678Y0264635D03*
X0296481Y0258650D03*
X0306481Y0264635D03*
X0336478Y0147216D03*
X0346478Y0141231D03*
X0376281Y0147216D03*
X0386281Y0141231D03*
D39*
X0383880Y0160523D03*
X0338880Y0160523D03*
X0304080Y0245343D03*
X0259080Y0245343D03*
D40*
X0229835Y0245635D03*
X0229835Y0237761D03*
X0229835Y0253509D03*
X0229835Y0261383D03*
D41*
X0219126Y0264257D03*
X0240543Y0264257D03*
X0240543Y0236698D03*
X0219126Y0236698D03*
D42*
X0228260Y0126343D02*
X0228260Y0120045D01*
X0228260Y0126343D02*
X0229440Y0126343D01*
X0229440Y0120045D01*
X0228260Y0120045D01*
X0228260Y0122800D02*
X0229440Y0122800D01*
X0229440Y0125555D02*
X0228260Y0125555D01*
X0233182Y0126343D02*
X0233182Y0120045D01*
X0233182Y0126343D02*
X0234362Y0126343D01*
X0234362Y0120045D01*
X0233182Y0120045D01*
X0233182Y0122800D02*
X0234362Y0122800D01*
X0234362Y0125555D02*
X0233182Y0125555D01*
X0238103Y0126343D02*
X0238103Y0120045D01*
X0238103Y0126343D02*
X0239283Y0126343D01*
X0239283Y0120045D01*
X0238103Y0120045D01*
X0238103Y0122800D02*
X0239283Y0122800D01*
X0239283Y0125555D02*
X0238103Y0125555D01*
X0243024Y0126343D02*
X0243024Y0120045D01*
X0243024Y0126343D02*
X0244204Y0126343D01*
X0244204Y0120045D01*
X0243024Y0120045D01*
X0243024Y0122800D02*
X0244204Y0122800D01*
X0244204Y0125555D02*
X0243024Y0125555D01*
X0247946Y0126343D02*
X0247946Y0120045D01*
X0247946Y0126343D02*
X0249126Y0126343D01*
X0249126Y0120045D01*
X0247946Y0120045D01*
X0247946Y0122800D02*
X0249126Y0122800D01*
X0249126Y0125555D02*
X0247946Y0125555D01*
X0252867Y0126343D02*
X0252867Y0120045D01*
X0252867Y0126343D02*
X0254047Y0126343D01*
X0254047Y0120045D01*
X0252867Y0120045D01*
X0252867Y0122800D02*
X0254047Y0122800D01*
X0254047Y0125555D02*
X0252867Y0125555D01*
X0257788Y0126343D02*
X0257788Y0120045D01*
X0257788Y0126343D02*
X0258968Y0126343D01*
X0258968Y0120045D01*
X0257788Y0120045D01*
X0257788Y0122800D02*
X0258968Y0122800D01*
X0258968Y0125555D02*
X0257788Y0125555D01*
X0262709Y0126343D02*
X0262709Y0120045D01*
X0262709Y0126343D02*
X0263889Y0126343D01*
X0263889Y0120045D01*
X0262709Y0120045D01*
X0262709Y0122800D02*
X0263889Y0122800D01*
X0263889Y0125555D02*
X0262709Y0125555D01*
X0269796Y0120438D02*
X0276094Y0120438D01*
X0276094Y0119258D01*
X0269796Y0119258D01*
X0269796Y0120438D01*
X0269796Y0115517D02*
X0276094Y0115517D01*
X0276094Y0114337D01*
X0269796Y0114337D01*
X0269796Y0115517D01*
X0269796Y0110596D02*
X0276094Y0110596D01*
X0276094Y0109416D01*
X0269796Y0109416D01*
X0269796Y0110596D01*
X0269796Y0105674D02*
X0276094Y0105674D01*
X0276094Y0104494D01*
X0269796Y0104494D01*
X0269796Y0105674D01*
X0269796Y0100753D02*
X0276094Y0100753D01*
X0276094Y0099573D01*
X0269796Y0099573D01*
X0269796Y0100753D01*
X0269796Y0095832D02*
X0276094Y0095832D01*
X0276094Y0094652D01*
X0269796Y0094652D01*
X0269796Y0095832D01*
X0269796Y0090910D02*
X0276094Y0090910D01*
X0276094Y0089730D01*
X0269796Y0089730D01*
X0269796Y0090910D01*
X0269796Y0085989D02*
X0276094Y0085989D01*
X0276094Y0084809D01*
X0269796Y0084809D01*
X0269796Y0085989D01*
X0269796Y0081068D02*
X0276094Y0081068D01*
X0276094Y0079888D01*
X0269796Y0079888D01*
X0269796Y0081068D01*
X0269796Y0076147D02*
X0276094Y0076147D01*
X0276094Y0074967D01*
X0269796Y0074967D01*
X0269796Y0076147D01*
X0269796Y0071225D02*
X0276094Y0071225D01*
X0276094Y0070045D01*
X0269796Y0070045D01*
X0269796Y0071225D01*
X0269796Y0066304D02*
X0276094Y0066304D01*
X0276094Y0065124D01*
X0269796Y0065124D01*
X0269796Y0066304D01*
X0269796Y0061383D02*
X0276094Y0061383D01*
X0276094Y0060203D01*
X0269796Y0060203D01*
X0269796Y0061383D01*
X0269796Y0056462D02*
X0276094Y0056462D01*
X0276094Y0055282D01*
X0269796Y0055282D01*
X0269796Y0056462D01*
X0269796Y0051540D02*
X0276094Y0051540D01*
X0276094Y0050360D01*
X0269796Y0050360D01*
X0269796Y0051540D01*
X0269796Y0046619D02*
X0276094Y0046619D01*
X0276094Y0045439D01*
X0269796Y0045439D01*
X0269796Y0046619D01*
X0258181Y0071225D02*
X0251883Y0071225D01*
X0258181Y0071225D02*
X0258181Y0070045D01*
X0251883Y0070045D01*
X0251883Y0071225D01*
X0251883Y0076147D02*
X0258181Y0076147D01*
X0258181Y0074967D01*
X0251883Y0074967D01*
X0251883Y0076147D01*
X0251883Y0081068D02*
X0258181Y0081068D01*
X0258181Y0079888D01*
X0251883Y0079888D01*
X0251883Y0081068D01*
X0251883Y0085989D02*
X0258181Y0085989D01*
X0258181Y0084809D01*
X0251883Y0084809D01*
X0251883Y0085989D01*
X0251883Y0090910D02*
X0258181Y0090910D01*
X0258181Y0089730D01*
X0251883Y0089730D01*
X0251883Y0090910D01*
X0251883Y0095832D02*
X0258181Y0095832D01*
X0258181Y0094652D01*
X0251883Y0094652D01*
X0251883Y0095832D01*
X0240070Y0095832D02*
X0233772Y0095832D01*
X0240070Y0095832D02*
X0240070Y0094652D01*
X0233772Y0094652D01*
X0233772Y0095832D01*
X0233772Y0090910D02*
X0240070Y0090910D01*
X0240070Y0089730D01*
X0233772Y0089730D01*
X0233772Y0090910D01*
X0233772Y0085989D02*
X0240070Y0085989D01*
X0240070Y0084809D01*
X0233772Y0084809D01*
X0233772Y0085989D01*
X0233772Y0081068D02*
X0240070Y0081068D01*
X0240070Y0079888D01*
X0233772Y0079888D01*
X0233772Y0081068D01*
X0233772Y0076147D02*
X0240070Y0076147D01*
X0240070Y0074967D01*
X0233772Y0074967D01*
X0233772Y0076147D01*
X0233772Y0071225D02*
X0240070Y0071225D01*
X0240070Y0070045D01*
X0233772Y0070045D01*
X0233772Y0071225D01*
X0222157Y0071225D02*
X0215859Y0071225D01*
X0222157Y0071225D02*
X0222157Y0070045D01*
X0215859Y0070045D01*
X0215859Y0071225D01*
X0215859Y0076147D02*
X0222157Y0076147D01*
X0222157Y0074967D01*
X0215859Y0074967D01*
X0215859Y0076147D01*
X0215859Y0081068D02*
X0222157Y0081068D01*
X0222157Y0079888D01*
X0215859Y0079888D01*
X0215859Y0081068D01*
X0215859Y0085989D02*
X0222157Y0085989D01*
X0222157Y0084809D01*
X0215859Y0084809D01*
X0215859Y0085989D01*
X0215859Y0090910D02*
X0222157Y0090910D01*
X0222157Y0089730D01*
X0215859Y0089730D01*
X0215859Y0090910D01*
X0215859Y0095832D02*
X0222157Y0095832D01*
X0222157Y0094652D01*
X0215859Y0094652D01*
X0215859Y0095832D01*
X0215859Y0100753D02*
X0222157Y0100753D01*
X0222157Y0099573D01*
X0215859Y0099573D01*
X0215859Y0100753D01*
X0215859Y0105674D02*
X0222157Y0105674D01*
X0222157Y0104494D01*
X0215859Y0104494D01*
X0215859Y0105674D01*
X0215859Y0110596D02*
X0222157Y0110596D01*
X0222157Y0109416D01*
X0215859Y0109416D01*
X0215859Y0110596D01*
X0215859Y0115517D02*
X0222157Y0115517D01*
X0222157Y0114337D01*
X0215859Y0114337D01*
X0215859Y0115517D01*
X0215859Y0120438D02*
X0222157Y0120438D01*
X0222157Y0119258D01*
X0215859Y0119258D01*
X0215859Y0120438D01*
X0215859Y0066304D02*
X0222157Y0066304D01*
X0222157Y0065124D01*
X0215859Y0065124D01*
X0215859Y0066304D01*
X0215859Y0061383D02*
X0222157Y0061383D01*
X0222157Y0060203D01*
X0215859Y0060203D01*
X0215859Y0061383D01*
X0215859Y0056462D02*
X0222157Y0056462D01*
X0222157Y0055282D01*
X0215859Y0055282D01*
X0215859Y0056462D01*
X0215859Y0051540D02*
X0222157Y0051540D01*
X0222157Y0050360D01*
X0215859Y0050360D01*
X0215859Y0051540D01*
X0215859Y0046619D02*
X0222157Y0046619D01*
X0222157Y0045439D01*
X0215859Y0045439D01*
X0215859Y0046619D01*
D43*
X0227507Y0183946D03*
X0227507Y0187883D03*
X0227507Y0191820D03*
X0227507Y0195757D03*
X0227507Y0199694D03*
X0227507Y0203631D03*
X0227507Y0207568D03*
X0227507Y0211505D03*
X0227507Y0215442D03*
D44*
X0212342Y0215442D03*
X0212342Y0211505D03*
X0212342Y0207568D03*
X0212342Y0203631D03*
X0212342Y0199694D03*
X0212342Y0195757D03*
X0212342Y0191820D03*
X0212342Y0187883D03*
X0212342Y0183946D03*
D45*
X0233670Y0182828D03*
X0239370Y0182828D03*
X0236334Y0172486D03*
X0230634Y0172486D03*
D46*
X0278542Y0202933D03*
X0282642Y0202933D03*
G36*
X0346118Y0168614D02*
X0344562Y0167058D01*
X0342866Y0168754D01*
X0344422Y0170310D01*
X0346118Y0168614D01*
G37*
G36*
X0349017Y0171513D02*
X0347461Y0169957D01*
X0345765Y0171653D01*
X0347321Y0173209D01*
X0349017Y0171513D01*
G37*
G36*
X0348066Y0173954D02*
X0349622Y0175510D01*
X0351318Y0173814D01*
X0349762Y0172258D01*
X0348066Y0173954D01*
G37*
G36*
X0350965Y0176853D02*
X0352521Y0178409D01*
X0354217Y0176713D01*
X0352661Y0175157D01*
X0350965Y0176853D01*
G37*
X0359442Y0178733D03*
X0363542Y0178733D03*
X0368292Y0178733D03*
X0372392Y0178733D03*
X0375892Y0178733D03*
X0379992Y0178733D03*
D47*
X0273792Y0200533D03*
X0267292Y0200533D03*
D48*
G36*
X0247830Y0210125D02*
X0245427Y0207722D01*
X0243730Y0209419D01*
X0246133Y0211822D01*
X0247830Y0210125D01*
G37*
G36*
X0244153Y0206448D02*
X0241750Y0204045D01*
X0240053Y0205742D01*
X0242456Y0208145D01*
X0244153Y0206448D01*
G37*
X0240942Y0212733D03*
X0235742Y0212733D03*
D49*
X0232992Y0228133D03*
X0239692Y0228133D03*
D50*
X0237942Y0190533D03*
X0233942Y0190533D03*
X0250942Y0179533D03*
X0254942Y0179533D03*
X0254942Y0171133D03*
X0250942Y0171133D03*
X0250942Y0160333D03*
X0254942Y0160333D03*
X0235542Y0143933D03*
X0235542Y0139933D03*
X0219542Y0160333D03*
X0219542Y0164333D03*
X0214942Y0144133D03*
X0214942Y0140133D03*
D51*
X0297832Y0080333D03*
X0315942Y0071081D03*
X0315942Y0062223D03*
X0341926Y0069703D03*
X0341926Y0080333D03*
X0341926Y0090963D03*
X0326572Y0106317D03*
X0315942Y0106317D03*
X0305312Y0106317D03*
X0315942Y0089585D03*
X0368642Y0250523D03*
X0377894Y0268633D03*
X0386752Y0268633D03*
X0379272Y0294617D03*
X0368642Y0294617D03*
X0358012Y0294617D03*
X0342658Y0279263D03*
X0342658Y0268633D03*
X0342658Y0258003D03*
X0359390Y0268633D03*
D52*
X0267442Y0300672D03*
X0267442Y0310121D03*
X0267442Y0319570D03*
X0267442Y0329019D03*
X0416942Y0142294D03*
X0416942Y0132845D03*
X0416942Y0123396D03*
X0416942Y0113947D03*
D53*
X0415367Y0117097D03*
X0415367Y0120246D03*
X0415367Y0135994D03*
X0415367Y0139144D03*
X0269017Y0303822D03*
X0269017Y0306972D03*
X0269017Y0322720D03*
X0269017Y0325869D03*
D54*
X0268229Y0316420D03*
X0268229Y0313271D03*
X0416154Y0129695D03*
X0416154Y0126546D03*
M02*
