%
M48
M72
T01C0.01200
T02C0.01378
T03C0.03622
T04C0.03937
T05C0.03940
T06C0.04000
T07C0.04331
T08C0.05118
T09C0.06102
T10C0.06298
T11C0.09055
T12C0.10000
T13C0.10236
%
T01
X52691Y46500
X73300Y60700
X75900Y58100
X86300Y67500
X72815Y68815
X73900Y74100
X68900Y79700
X55900Y86900
X62100Y96500
X61700Y109700
X54300Y114900
X51100Y117100
X46500Y115900
X36500Y134900
X43500Y153700
X61700Y157500
X77300Y151700
X88997Y153597
X98100Y154500
X101300Y154500
X101300Y149700
X98100Y149700
X99300Y159900
X111800Y155400
X111500Y152200
X111800Y148400
X112300Y144400
X125000Y133300
X118800Y132900
X118259Y126900
X127700Y127500
X130000Y133400
X116100Y119700
X110350Y116350
X107100Y121900
X109500Y124700
X106700Y127300
X103700Y125500
X100300Y125900
X93800Y128900
X80800Y127900
X72500Y125300
X78900Y136100
X99300Y104400
X106300Y104300
X110900Y103100
X118700Y95300
X129100Y94500
X131300Y89300
X130300Y83900
X142606Y89250
X148500Y89700
X162700Y91700
X169900Y103300
X176300Y103100
X192300Y104000
X200100Y102500
X203500Y103300
X192100Y86300
X186500Y86900
X181900Y87100
X186300Y78700
X192100Y74700
X179900Y66100
X168700Y62700
X144500Y52500
X143500Y42100
X154300Y39100
X134700Y31300
X107100Y18700
X75500Y18300
X71700Y27100
X81300Y42100
X110000Y69000
X101700Y77700
X101100Y93700
X98900Y99900
X125900Y109900
X133100Y105300
X130100Y103700
X136500Y97100
X122500Y68500
X49700Y74900
X37100Y85100
X138500Y160700
X166500Y162700
X166300Y152900
X184700Y147500
X202000Y157700
X205400Y154900
X226300Y157900
X226500Y151500
X230700Y151700
X233700Y157900
X237100Y158500
X246100Y157100
X250100Y157100
X254900Y150500
X246700Y148100
X242481Y150641
X240092Y148369
X221300Y135200
X218300Y131200
X222700Y126600
X226100Y130000
X240100Y124900
X258900Y103900
X280500Y90100
X293500Y91900
X293900Y88100
X303700Y87100
X305300Y93100
X328900Y113300
X324500Y134300
X311300Y149500
X277361Y124561
X272639Y124439
X231700Y100900
X202100Y131500
X214300Y172700
X218000Y174900
X222000Y173100
X229700Y175900
X238100Y172100
X266300Y193900
X272200Y196600
X276900Y195100
X284900Y191800
X284100Y68100
X287300Y67900
X290500Y67900
X290500Y64700
X290500Y61700
X287300Y61700
X287300Y64700
X284100Y64900
X284100Y61900
X264100Y68300
X263900Y52700
X269100Y36700
X288700Y38300
X303900Y42700
X303900Y46500
X307100Y49500
X307700Y54700
X313100Y47100
X318100Y52500
X307700Y60300
X307832Y66300
X335900Y51700
X180185Y10415
X177700Y14100
X163700Y15500
T02
X170500Y22900
X185500Y18700
X184500Y11700
X186300Y7700
X194300Y37820
X196900Y40511
X204912Y41711
X207300Y44100
X214300Y41100
X216500Y38300
X187100Y41900
X181100Y40100
X175300Y38900
X195100Y59300
X199300Y63100
X196100Y75500
X178900Y78689
X174548Y81948
X168870Y75300
X169799Y71922
X170100Y66100
X180900Y61700
X152532Y66239
X150424Y63569
X150299Y60191
X140500Y61300
X132215Y56489
X132300Y53111
X126100Y60900
X130100Y65300
X122700Y72900
X121100Y55900
X116595Y55139
X122900Y44100
X112840Y32360
X113122Y28982
X99900Y18300
X95500Y18700
X95500Y24300
X87539Y25900
X82900Y17100
X39493Y61600
X52500Y67900
X46009Y71895
X35100Y78900
X33700Y85500
X33300Y93100
X43711Y81900
X54300Y91300
X61448Y90752
X72700Y89500
X72689Y95598
X74700Y98364
X79900Y105489
X85500Y105644
X92900Y102300
X95700Y104500
X113300Y90100
X120100Y98300
X122300Y108300
X142800Y105720
X151500Y103900
X153900Y97300
X156100Y94500
X158289Y97088
X160478Y94500
X164900Y98700
X179911Y103105
X183700Y102900
X186111Y105905
X188291Y103309
X196811Y102620
X196656Y121300
X194056Y123700
X191878Y121100
X189678Y123700
X187100Y121300
X184700Y124100
X196700Y128500
X197500Y135500
X176500Y148900
X156900Y125100
X154300Y127300
X151700Y124300
X156489Y120700
X164911Y117505
X142300Y97489
X146276Y70711
X151972Y70617
X81589Y83100
X68529Y69500
X52100Y120500
X51300Y123900
X57500Y133500
X63300Y134492
X64147Y137870
X60900Y143500
X56252Y145348
X64100Y152100
X65500Y156300
X69100Y155100
X69722Y149329
X88400Y150300
X72796Y134604
X84900Y128500
X83300Y125100
X90700Y127500
X97900Y128500
X66500Y123700
X30700Y122500
X123600Y156800
X123900Y159700
X127100Y154900
X149700Y173100
X177300Y192300
X235389Y149976
X252900Y136100
X243500Y135100
X243300Y121100
X230900Y120500
X222407Y121289
X234989Y101300
X241300Y100289
X264100Y78700
X271300Y90100
X307930Y73500
X311100Y79500
X345500Y76900
X364900Y74100
X340211Y51389
X342700Y49100
X330700Y27700
X279500Y42700
X265700Y43100
X271500Y28300
X267900Y21500
X263900Y63100
X324700Y113100
X316300Y117700
X314100Y119900
X308500Y128163
X301300Y122911
X294700Y135536
T03
X171746Y203639
X161903Y203639
X154029Y203639
X144187Y203639
T04
X53143Y139900
X43300Y139900
X33457Y139900
X193200Y20300
X203200Y20300
X213200Y20300
X223200Y20300
X223200Y10300
X213200Y10300
X203200Y10300
X193200Y10300
X303200Y10300
X313200Y10300
X313200Y20300
X303200Y20300
X324457Y140900
X334300Y140900
X344143Y140900
T05
X86800Y98400
X86800Y88400
X22700Y39300
X22700Y29300
T06
X97800Y183100
X107800Y183100
X117800Y183100
T07
X320465Y126900
T08
X253843Y169589
X256206Y188880
X194394Y188880
X196757Y169589
T09
X354958Y103798
X354958Y66002
X24042Y67802
X24042Y105598
T10
X57473Y126900
T11
X132100Y214308
X183832Y214308
T12
X22700Y12800
X18900Y127000
X355100Y125200
X357700Y12200
T13
X356347Y170428
X312253Y170428
X65347Y169428
X21253Y169428
M30
