G75*
%MOIN*%
%OFA0B0*%
%FSLAX25Y25*%
%IPPOS*%
%LPD*%
%AMOC8*
5,1,8,0,0,1.08239X$1,22.5*
%
%ADD10C,0.00000*%
%ADD11C,0.00600*%
%ADD12C,0.00400*%
%ADD13C,0.00300*%
%ADD14C,0.00500*%
%ADD15C,0.00200*%
%ADD16C,0.00394*%
%ADD17C,0.00100*%
%ADD18C,0.00787*%
%ADD19C,0.01575*%
%ADD20C,0.01969*%
%ADD21C,0.00700*%
%ADD22C,0.02400*%
%ADD23C,0.01181*%
D10*
X0010700Y0002800D02*
X0011139Y0002800D01*
X0366500Y0002500D01*
X0366500Y0054500D01*
X0377700Y0054500D01*
X0377700Y0115201D01*
X0366900Y0115201D01*
X0366700Y0201801D01*
X0193900Y0201900D01*
X0193900Y0228100D01*
X0072100Y0228100D01*
X0072100Y0201901D01*
X0011139Y0201901D01*
X0011100Y0120100D01*
X0011100Y0116700D01*
X0001500Y0116700D01*
X0001500Y0057000D01*
X0010700Y0056900D01*
X0010700Y0002800D01*
X0017700Y0012800D02*
X0017702Y0012941D01*
X0017708Y0013082D01*
X0017718Y0013222D01*
X0017732Y0013362D01*
X0017750Y0013502D01*
X0017771Y0013641D01*
X0017797Y0013780D01*
X0017826Y0013918D01*
X0017860Y0014054D01*
X0017897Y0014190D01*
X0017938Y0014325D01*
X0017983Y0014459D01*
X0018032Y0014591D01*
X0018084Y0014722D01*
X0018140Y0014851D01*
X0018200Y0014978D01*
X0018263Y0015104D01*
X0018329Y0015228D01*
X0018400Y0015351D01*
X0018473Y0015471D01*
X0018550Y0015589D01*
X0018630Y0015705D01*
X0018714Y0015818D01*
X0018800Y0015929D01*
X0018890Y0016038D01*
X0018983Y0016144D01*
X0019078Y0016247D01*
X0019177Y0016348D01*
X0019278Y0016446D01*
X0019382Y0016541D01*
X0019489Y0016633D01*
X0019598Y0016722D01*
X0019710Y0016807D01*
X0019824Y0016890D01*
X0019940Y0016970D01*
X0020059Y0017046D01*
X0020180Y0017118D01*
X0020302Y0017188D01*
X0020427Y0017253D01*
X0020553Y0017316D01*
X0020681Y0017374D01*
X0020811Y0017429D01*
X0020942Y0017481D01*
X0021075Y0017528D01*
X0021209Y0017572D01*
X0021344Y0017613D01*
X0021480Y0017649D01*
X0021617Y0017681D01*
X0021755Y0017710D01*
X0021893Y0017735D01*
X0022033Y0017755D01*
X0022173Y0017772D01*
X0022313Y0017785D01*
X0022454Y0017794D01*
X0022594Y0017799D01*
X0022735Y0017800D01*
X0022876Y0017797D01*
X0023017Y0017790D01*
X0023157Y0017779D01*
X0023297Y0017764D01*
X0023437Y0017745D01*
X0023576Y0017723D01*
X0023714Y0017696D01*
X0023852Y0017666D01*
X0023988Y0017631D01*
X0024124Y0017593D01*
X0024258Y0017551D01*
X0024392Y0017505D01*
X0024524Y0017456D01*
X0024654Y0017402D01*
X0024783Y0017345D01*
X0024910Y0017285D01*
X0025036Y0017221D01*
X0025159Y0017153D01*
X0025281Y0017082D01*
X0025401Y0017008D01*
X0025518Y0016930D01*
X0025633Y0016849D01*
X0025746Y0016765D01*
X0025857Y0016678D01*
X0025965Y0016587D01*
X0026070Y0016494D01*
X0026173Y0016397D01*
X0026273Y0016298D01*
X0026370Y0016196D01*
X0026464Y0016091D01*
X0026555Y0015984D01*
X0026643Y0015874D01*
X0026728Y0015762D01*
X0026810Y0015647D01*
X0026889Y0015530D01*
X0026964Y0015411D01*
X0027036Y0015290D01*
X0027104Y0015167D01*
X0027169Y0015042D01*
X0027231Y0014915D01*
X0027288Y0014786D01*
X0027343Y0014656D01*
X0027393Y0014525D01*
X0027440Y0014392D01*
X0027483Y0014258D01*
X0027522Y0014122D01*
X0027557Y0013986D01*
X0027589Y0013849D01*
X0027616Y0013711D01*
X0027640Y0013572D01*
X0027660Y0013432D01*
X0027676Y0013292D01*
X0027688Y0013152D01*
X0027696Y0013011D01*
X0027700Y0012870D01*
X0027700Y0012730D01*
X0027696Y0012589D01*
X0027688Y0012448D01*
X0027676Y0012308D01*
X0027660Y0012168D01*
X0027640Y0012028D01*
X0027616Y0011889D01*
X0027589Y0011751D01*
X0027557Y0011614D01*
X0027522Y0011478D01*
X0027483Y0011342D01*
X0027440Y0011208D01*
X0027393Y0011075D01*
X0027343Y0010944D01*
X0027288Y0010814D01*
X0027231Y0010685D01*
X0027169Y0010558D01*
X0027104Y0010433D01*
X0027036Y0010310D01*
X0026964Y0010189D01*
X0026889Y0010070D01*
X0026810Y0009953D01*
X0026728Y0009838D01*
X0026643Y0009726D01*
X0026555Y0009616D01*
X0026464Y0009509D01*
X0026370Y0009404D01*
X0026273Y0009302D01*
X0026173Y0009203D01*
X0026070Y0009106D01*
X0025965Y0009013D01*
X0025857Y0008922D01*
X0025746Y0008835D01*
X0025633Y0008751D01*
X0025518Y0008670D01*
X0025401Y0008592D01*
X0025281Y0008518D01*
X0025159Y0008447D01*
X0025036Y0008379D01*
X0024910Y0008315D01*
X0024783Y0008255D01*
X0024654Y0008198D01*
X0024524Y0008144D01*
X0024392Y0008095D01*
X0024258Y0008049D01*
X0024124Y0008007D01*
X0023988Y0007969D01*
X0023852Y0007934D01*
X0023714Y0007904D01*
X0023576Y0007877D01*
X0023437Y0007855D01*
X0023297Y0007836D01*
X0023157Y0007821D01*
X0023017Y0007810D01*
X0022876Y0007803D01*
X0022735Y0007800D01*
X0022594Y0007801D01*
X0022454Y0007806D01*
X0022313Y0007815D01*
X0022173Y0007828D01*
X0022033Y0007845D01*
X0021893Y0007865D01*
X0021755Y0007890D01*
X0021617Y0007919D01*
X0021480Y0007951D01*
X0021344Y0007987D01*
X0021209Y0008028D01*
X0021075Y0008072D01*
X0020942Y0008119D01*
X0020811Y0008171D01*
X0020681Y0008226D01*
X0020553Y0008284D01*
X0020427Y0008347D01*
X0020302Y0008412D01*
X0020180Y0008482D01*
X0020059Y0008554D01*
X0019940Y0008630D01*
X0019824Y0008710D01*
X0019710Y0008793D01*
X0019598Y0008878D01*
X0019489Y0008967D01*
X0019382Y0009059D01*
X0019278Y0009154D01*
X0019177Y0009252D01*
X0019078Y0009353D01*
X0018983Y0009456D01*
X0018890Y0009562D01*
X0018800Y0009671D01*
X0018714Y0009782D01*
X0018630Y0009895D01*
X0018550Y0010011D01*
X0018473Y0010129D01*
X0018400Y0010249D01*
X0018329Y0010372D01*
X0018263Y0010496D01*
X0018200Y0010622D01*
X0018140Y0010749D01*
X0018084Y0010878D01*
X0018032Y0011009D01*
X0017983Y0011141D01*
X0017938Y0011275D01*
X0017897Y0011410D01*
X0017860Y0011546D01*
X0017826Y0011682D01*
X0017797Y0011820D01*
X0017771Y0011959D01*
X0017750Y0012098D01*
X0017732Y0012238D01*
X0017718Y0012378D01*
X0017708Y0012518D01*
X0017702Y0012659D01*
X0017700Y0012800D01*
X0020991Y0067802D02*
X0020993Y0067912D01*
X0020999Y0068022D01*
X0021009Y0068132D01*
X0021023Y0068241D01*
X0021041Y0068350D01*
X0021062Y0068458D01*
X0021088Y0068565D01*
X0021117Y0068671D01*
X0021151Y0068776D01*
X0021188Y0068880D01*
X0021229Y0068982D01*
X0021273Y0069083D01*
X0021321Y0069182D01*
X0021373Y0069280D01*
X0021428Y0069375D01*
X0021486Y0069468D01*
X0021548Y0069559D01*
X0021613Y0069648D01*
X0021681Y0069735D01*
X0021753Y0069819D01*
X0021827Y0069900D01*
X0021904Y0069979D01*
X0021984Y0070055D01*
X0022067Y0070127D01*
X0022152Y0070197D01*
X0022240Y0070264D01*
X0022330Y0070327D01*
X0022422Y0070387D01*
X0022516Y0070444D01*
X0022613Y0070498D01*
X0022711Y0070547D01*
X0022811Y0070594D01*
X0022913Y0070636D01*
X0023016Y0070675D01*
X0023120Y0070710D01*
X0023226Y0070742D01*
X0023332Y0070769D01*
X0023440Y0070793D01*
X0023548Y0070813D01*
X0023657Y0070829D01*
X0023767Y0070841D01*
X0023877Y0070849D01*
X0023987Y0070853D01*
X0024097Y0070853D01*
X0024207Y0070849D01*
X0024317Y0070841D01*
X0024427Y0070829D01*
X0024536Y0070813D01*
X0024644Y0070793D01*
X0024752Y0070769D01*
X0024858Y0070742D01*
X0024964Y0070710D01*
X0025068Y0070675D01*
X0025171Y0070636D01*
X0025273Y0070594D01*
X0025373Y0070547D01*
X0025471Y0070498D01*
X0025567Y0070444D01*
X0025662Y0070387D01*
X0025754Y0070327D01*
X0025844Y0070264D01*
X0025932Y0070197D01*
X0026017Y0070127D01*
X0026100Y0070055D01*
X0026180Y0069979D01*
X0026257Y0069900D01*
X0026331Y0069819D01*
X0026403Y0069735D01*
X0026471Y0069648D01*
X0026536Y0069559D01*
X0026598Y0069468D01*
X0026656Y0069375D01*
X0026711Y0069280D01*
X0026763Y0069182D01*
X0026811Y0069083D01*
X0026855Y0068982D01*
X0026896Y0068880D01*
X0026933Y0068776D01*
X0026967Y0068671D01*
X0026996Y0068565D01*
X0027022Y0068458D01*
X0027043Y0068350D01*
X0027061Y0068241D01*
X0027075Y0068132D01*
X0027085Y0068022D01*
X0027091Y0067912D01*
X0027093Y0067802D01*
X0027091Y0067692D01*
X0027085Y0067582D01*
X0027075Y0067472D01*
X0027061Y0067363D01*
X0027043Y0067254D01*
X0027022Y0067146D01*
X0026996Y0067039D01*
X0026967Y0066933D01*
X0026933Y0066828D01*
X0026896Y0066724D01*
X0026855Y0066622D01*
X0026811Y0066521D01*
X0026763Y0066422D01*
X0026711Y0066324D01*
X0026656Y0066229D01*
X0026598Y0066136D01*
X0026536Y0066045D01*
X0026471Y0065956D01*
X0026403Y0065869D01*
X0026331Y0065785D01*
X0026257Y0065704D01*
X0026180Y0065625D01*
X0026100Y0065549D01*
X0026017Y0065477D01*
X0025932Y0065407D01*
X0025844Y0065340D01*
X0025754Y0065277D01*
X0025662Y0065217D01*
X0025568Y0065160D01*
X0025471Y0065106D01*
X0025373Y0065057D01*
X0025273Y0065010D01*
X0025171Y0064968D01*
X0025068Y0064929D01*
X0024964Y0064894D01*
X0024858Y0064862D01*
X0024752Y0064835D01*
X0024644Y0064811D01*
X0024536Y0064791D01*
X0024427Y0064775D01*
X0024317Y0064763D01*
X0024207Y0064755D01*
X0024097Y0064751D01*
X0023987Y0064751D01*
X0023877Y0064755D01*
X0023767Y0064763D01*
X0023657Y0064775D01*
X0023548Y0064791D01*
X0023440Y0064811D01*
X0023332Y0064835D01*
X0023226Y0064862D01*
X0023120Y0064894D01*
X0023016Y0064929D01*
X0022913Y0064968D01*
X0022811Y0065010D01*
X0022711Y0065057D01*
X0022613Y0065106D01*
X0022516Y0065160D01*
X0022422Y0065217D01*
X0022330Y0065277D01*
X0022240Y0065340D01*
X0022152Y0065407D01*
X0022067Y0065477D01*
X0021984Y0065549D01*
X0021904Y0065625D01*
X0021827Y0065704D01*
X0021753Y0065785D01*
X0021681Y0065869D01*
X0021613Y0065956D01*
X0021548Y0066045D01*
X0021486Y0066136D01*
X0021428Y0066229D01*
X0021373Y0066324D01*
X0021321Y0066422D01*
X0021273Y0066521D01*
X0021229Y0066622D01*
X0021188Y0066724D01*
X0021151Y0066828D01*
X0021117Y0066933D01*
X0021088Y0067039D01*
X0021062Y0067146D01*
X0021041Y0067254D01*
X0021023Y0067363D01*
X0021009Y0067472D01*
X0020999Y0067582D01*
X0020993Y0067692D01*
X0020991Y0067802D01*
X0020991Y0105598D02*
X0020993Y0105708D01*
X0020999Y0105818D01*
X0021009Y0105928D01*
X0021023Y0106037D01*
X0021041Y0106146D01*
X0021062Y0106254D01*
X0021088Y0106361D01*
X0021117Y0106467D01*
X0021151Y0106572D01*
X0021188Y0106676D01*
X0021229Y0106778D01*
X0021273Y0106879D01*
X0021321Y0106978D01*
X0021373Y0107076D01*
X0021428Y0107171D01*
X0021486Y0107264D01*
X0021548Y0107355D01*
X0021613Y0107444D01*
X0021681Y0107531D01*
X0021753Y0107615D01*
X0021827Y0107696D01*
X0021904Y0107775D01*
X0021984Y0107851D01*
X0022067Y0107923D01*
X0022152Y0107993D01*
X0022240Y0108060D01*
X0022330Y0108123D01*
X0022422Y0108183D01*
X0022516Y0108240D01*
X0022613Y0108294D01*
X0022711Y0108343D01*
X0022811Y0108390D01*
X0022913Y0108432D01*
X0023016Y0108471D01*
X0023120Y0108506D01*
X0023226Y0108538D01*
X0023332Y0108565D01*
X0023440Y0108589D01*
X0023548Y0108609D01*
X0023657Y0108625D01*
X0023767Y0108637D01*
X0023877Y0108645D01*
X0023987Y0108649D01*
X0024097Y0108649D01*
X0024207Y0108645D01*
X0024317Y0108637D01*
X0024427Y0108625D01*
X0024536Y0108609D01*
X0024644Y0108589D01*
X0024752Y0108565D01*
X0024858Y0108538D01*
X0024964Y0108506D01*
X0025068Y0108471D01*
X0025171Y0108432D01*
X0025273Y0108390D01*
X0025373Y0108343D01*
X0025471Y0108294D01*
X0025567Y0108240D01*
X0025662Y0108183D01*
X0025754Y0108123D01*
X0025844Y0108060D01*
X0025932Y0107993D01*
X0026017Y0107923D01*
X0026100Y0107851D01*
X0026180Y0107775D01*
X0026257Y0107696D01*
X0026331Y0107615D01*
X0026403Y0107531D01*
X0026471Y0107444D01*
X0026536Y0107355D01*
X0026598Y0107264D01*
X0026656Y0107171D01*
X0026711Y0107076D01*
X0026763Y0106978D01*
X0026811Y0106879D01*
X0026855Y0106778D01*
X0026896Y0106676D01*
X0026933Y0106572D01*
X0026967Y0106467D01*
X0026996Y0106361D01*
X0027022Y0106254D01*
X0027043Y0106146D01*
X0027061Y0106037D01*
X0027075Y0105928D01*
X0027085Y0105818D01*
X0027091Y0105708D01*
X0027093Y0105598D01*
X0027091Y0105488D01*
X0027085Y0105378D01*
X0027075Y0105268D01*
X0027061Y0105159D01*
X0027043Y0105050D01*
X0027022Y0104942D01*
X0026996Y0104835D01*
X0026967Y0104729D01*
X0026933Y0104624D01*
X0026896Y0104520D01*
X0026855Y0104418D01*
X0026811Y0104317D01*
X0026763Y0104218D01*
X0026711Y0104120D01*
X0026656Y0104025D01*
X0026598Y0103932D01*
X0026536Y0103841D01*
X0026471Y0103752D01*
X0026403Y0103665D01*
X0026331Y0103581D01*
X0026257Y0103500D01*
X0026180Y0103421D01*
X0026100Y0103345D01*
X0026017Y0103273D01*
X0025932Y0103203D01*
X0025844Y0103136D01*
X0025754Y0103073D01*
X0025662Y0103013D01*
X0025568Y0102956D01*
X0025471Y0102902D01*
X0025373Y0102853D01*
X0025273Y0102806D01*
X0025171Y0102764D01*
X0025068Y0102725D01*
X0024964Y0102690D01*
X0024858Y0102658D01*
X0024752Y0102631D01*
X0024644Y0102607D01*
X0024536Y0102587D01*
X0024427Y0102571D01*
X0024317Y0102559D01*
X0024207Y0102551D01*
X0024097Y0102547D01*
X0023987Y0102547D01*
X0023877Y0102551D01*
X0023767Y0102559D01*
X0023657Y0102571D01*
X0023548Y0102587D01*
X0023440Y0102607D01*
X0023332Y0102631D01*
X0023226Y0102658D01*
X0023120Y0102690D01*
X0023016Y0102725D01*
X0022913Y0102764D01*
X0022811Y0102806D01*
X0022711Y0102853D01*
X0022613Y0102902D01*
X0022516Y0102956D01*
X0022422Y0103013D01*
X0022330Y0103073D01*
X0022240Y0103136D01*
X0022152Y0103203D01*
X0022067Y0103273D01*
X0021984Y0103345D01*
X0021904Y0103421D01*
X0021827Y0103500D01*
X0021753Y0103581D01*
X0021681Y0103665D01*
X0021613Y0103752D01*
X0021548Y0103841D01*
X0021486Y0103932D01*
X0021428Y0104025D01*
X0021373Y0104120D01*
X0021321Y0104218D01*
X0021273Y0104317D01*
X0021229Y0104418D01*
X0021188Y0104520D01*
X0021151Y0104624D01*
X0021117Y0104729D01*
X0021088Y0104835D01*
X0021062Y0104942D01*
X0021041Y0105050D01*
X0021023Y0105159D01*
X0021009Y0105268D01*
X0020999Y0105378D01*
X0020993Y0105488D01*
X0020991Y0105598D01*
X0013900Y0127000D02*
X0013902Y0127141D01*
X0013908Y0127282D01*
X0013918Y0127422D01*
X0013932Y0127562D01*
X0013950Y0127702D01*
X0013971Y0127841D01*
X0013997Y0127980D01*
X0014026Y0128118D01*
X0014060Y0128254D01*
X0014097Y0128390D01*
X0014138Y0128525D01*
X0014183Y0128659D01*
X0014232Y0128791D01*
X0014284Y0128922D01*
X0014340Y0129051D01*
X0014400Y0129178D01*
X0014463Y0129304D01*
X0014529Y0129428D01*
X0014600Y0129551D01*
X0014673Y0129671D01*
X0014750Y0129789D01*
X0014830Y0129905D01*
X0014914Y0130018D01*
X0015000Y0130129D01*
X0015090Y0130238D01*
X0015183Y0130344D01*
X0015278Y0130447D01*
X0015377Y0130548D01*
X0015478Y0130646D01*
X0015582Y0130741D01*
X0015689Y0130833D01*
X0015798Y0130922D01*
X0015910Y0131007D01*
X0016024Y0131090D01*
X0016140Y0131170D01*
X0016259Y0131246D01*
X0016380Y0131318D01*
X0016502Y0131388D01*
X0016627Y0131453D01*
X0016753Y0131516D01*
X0016881Y0131574D01*
X0017011Y0131629D01*
X0017142Y0131681D01*
X0017275Y0131728D01*
X0017409Y0131772D01*
X0017544Y0131813D01*
X0017680Y0131849D01*
X0017817Y0131881D01*
X0017955Y0131910D01*
X0018093Y0131935D01*
X0018233Y0131955D01*
X0018373Y0131972D01*
X0018513Y0131985D01*
X0018654Y0131994D01*
X0018794Y0131999D01*
X0018935Y0132000D01*
X0019076Y0131997D01*
X0019217Y0131990D01*
X0019357Y0131979D01*
X0019497Y0131964D01*
X0019637Y0131945D01*
X0019776Y0131923D01*
X0019914Y0131896D01*
X0020052Y0131866D01*
X0020188Y0131831D01*
X0020324Y0131793D01*
X0020458Y0131751D01*
X0020592Y0131705D01*
X0020724Y0131656D01*
X0020854Y0131602D01*
X0020983Y0131545D01*
X0021110Y0131485D01*
X0021236Y0131421D01*
X0021359Y0131353D01*
X0021481Y0131282D01*
X0021601Y0131208D01*
X0021718Y0131130D01*
X0021833Y0131049D01*
X0021946Y0130965D01*
X0022057Y0130878D01*
X0022165Y0130787D01*
X0022270Y0130694D01*
X0022373Y0130597D01*
X0022473Y0130498D01*
X0022570Y0130396D01*
X0022664Y0130291D01*
X0022755Y0130184D01*
X0022843Y0130074D01*
X0022928Y0129962D01*
X0023010Y0129847D01*
X0023089Y0129730D01*
X0023164Y0129611D01*
X0023236Y0129490D01*
X0023304Y0129367D01*
X0023369Y0129242D01*
X0023431Y0129115D01*
X0023488Y0128986D01*
X0023543Y0128856D01*
X0023593Y0128725D01*
X0023640Y0128592D01*
X0023683Y0128458D01*
X0023722Y0128322D01*
X0023757Y0128186D01*
X0023789Y0128049D01*
X0023816Y0127911D01*
X0023840Y0127772D01*
X0023860Y0127632D01*
X0023876Y0127492D01*
X0023888Y0127352D01*
X0023896Y0127211D01*
X0023900Y0127070D01*
X0023900Y0126930D01*
X0023896Y0126789D01*
X0023888Y0126648D01*
X0023876Y0126508D01*
X0023860Y0126368D01*
X0023840Y0126228D01*
X0023816Y0126089D01*
X0023789Y0125951D01*
X0023757Y0125814D01*
X0023722Y0125678D01*
X0023683Y0125542D01*
X0023640Y0125408D01*
X0023593Y0125275D01*
X0023543Y0125144D01*
X0023488Y0125014D01*
X0023431Y0124885D01*
X0023369Y0124758D01*
X0023304Y0124633D01*
X0023236Y0124510D01*
X0023164Y0124389D01*
X0023089Y0124270D01*
X0023010Y0124153D01*
X0022928Y0124038D01*
X0022843Y0123926D01*
X0022755Y0123816D01*
X0022664Y0123709D01*
X0022570Y0123604D01*
X0022473Y0123502D01*
X0022373Y0123403D01*
X0022270Y0123306D01*
X0022165Y0123213D01*
X0022057Y0123122D01*
X0021946Y0123035D01*
X0021833Y0122951D01*
X0021718Y0122870D01*
X0021601Y0122792D01*
X0021481Y0122718D01*
X0021359Y0122647D01*
X0021236Y0122579D01*
X0021110Y0122515D01*
X0020983Y0122455D01*
X0020854Y0122398D01*
X0020724Y0122344D01*
X0020592Y0122295D01*
X0020458Y0122249D01*
X0020324Y0122207D01*
X0020188Y0122169D01*
X0020052Y0122134D01*
X0019914Y0122104D01*
X0019776Y0122077D01*
X0019637Y0122055D01*
X0019497Y0122036D01*
X0019357Y0122021D01*
X0019217Y0122010D01*
X0019076Y0122003D01*
X0018935Y0122000D01*
X0018794Y0122001D01*
X0018654Y0122006D01*
X0018513Y0122015D01*
X0018373Y0122028D01*
X0018233Y0122045D01*
X0018093Y0122065D01*
X0017955Y0122090D01*
X0017817Y0122119D01*
X0017680Y0122151D01*
X0017544Y0122187D01*
X0017409Y0122228D01*
X0017275Y0122272D01*
X0017142Y0122319D01*
X0017011Y0122371D01*
X0016881Y0122426D01*
X0016753Y0122484D01*
X0016627Y0122547D01*
X0016502Y0122612D01*
X0016380Y0122682D01*
X0016259Y0122754D01*
X0016140Y0122830D01*
X0016024Y0122910D01*
X0015910Y0122993D01*
X0015798Y0123078D01*
X0015689Y0123167D01*
X0015582Y0123259D01*
X0015478Y0123354D01*
X0015377Y0123452D01*
X0015278Y0123553D01*
X0015183Y0123656D01*
X0015090Y0123762D01*
X0015000Y0123871D01*
X0014914Y0123982D01*
X0014830Y0124095D01*
X0014750Y0124211D01*
X0014673Y0124329D01*
X0014600Y0124449D01*
X0014529Y0124572D01*
X0014463Y0124696D01*
X0014400Y0124822D01*
X0014340Y0124949D01*
X0014284Y0125078D01*
X0014232Y0125209D01*
X0014183Y0125341D01*
X0014138Y0125475D01*
X0014097Y0125610D01*
X0014060Y0125746D01*
X0014026Y0125882D01*
X0013997Y0126020D01*
X0013971Y0126159D01*
X0013950Y0126298D01*
X0013932Y0126438D01*
X0013918Y0126578D01*
X0013908Y0126718D01*
X0013902Y0126859D01*
X0013900Y0127000D01*
X0054324Y0126900D02*
X0054326Y0127012D01*
X0054332Y0127123D01*
X0054342Y0127235D01*
X0054356Y0127346D01*
X0054373Y0127456D01*
X0054395Y0127566D01*
X0054421Y0127674D01*
X0054450Y0127782D01*
X0054483Y0127889D01*
X0054520Y0127995D01*
X0054561Y0128099D01*
X0054605Y0128201D01*
X0054653Y0128302D01*
X0054705Y0128401D01*
X0054760Y0128499D01*
X0054818Y0128594D01*
X0054880Y0128687D01*
X0054945Y0128778D01*
X0055014Y0128866D01*
X0055085Y0128953D01*
X0055159Y0129036D01*
X0055236Y0129117D01*
X0055317Y0129195D01*
X0055399Y0129270D01*
X0055485Y0129342D01*
X0055573Y0129411D01*
X0055663Y0129477D01*
X0055756Y0129539D01*
X0055850Y0129599D01*
X0055947Y0129655D01*
X0056046Y0129707D01*
X0056146Y0129756D01*
X0056249Y0129801D01*
X0056352Y0129843D01*
X0056457Y0129881D01*
X0056564Y0129915D01*
X0056671Y0129945D01*
X0056780Y0129972D01*
X0056890Y0129994D01*
X0057000Y0130013D01*
X0057111Y0130028D01*
X0057222Y0130039D01*
X0057333Y0130046D01*
X0057445Y0130049D01*
X0057557Y0130048D01*
X0057668Y0130043D01*
X0057780Y0130034D01*
X0057891Y0130021D01*
X0058001Y0130004D01*
X0058111Y0129984D01*
X0058220Y0129959D01*
X0058328Y0129931D01*
X0058435Y0129898D01*
X0058541Y0129862D01*
X0058646Y0129822D01*
X0058749Y0129779D01*
X0058850Y0129732D01*
X0058950Y0129681D01*
X0059047Y0129627D01*
X0059143Y0129570D01*
X0059237Y0129509D01*
X0059328Y0129444D01*
X0059418Y0129377D01*
X0059504Y0129306D01*
X0059588Y0129233D01*
X0059670Y0129156D01*
X0059749Y0129077D01*
X0059824Y0128995D01*
X0059897Y0128910D01*
X0059967Y0128823D01*
X0060034Y0128733D01*
X0060097Y0128641D01*
X0060157Y0128547D01*
X0060214Y0128450D01*
X0060267Y0128352D01*
X0060317Y0128252D01*
X0060363Y0128150D01*
X0060406Y0128047D01*
X0060445Y0127942D01*
X0060480Y0127836D01*
X0060511Y0127729D01*
X0060539Y0127620D01*
X0060562Y0127511D01*
X0060582Y0127401D01*
X0060598Y0127290D01*
X0060610Y0127179D01*
X0060618Y0127068D01*
X0060622Y0126956D01*
X0060622Y0126844D01*
X0060618Y0126732D01*
X0060610Y0126621D01*
X0060598Y0126510D01*
X0060582Y0126399D01*
X0060562Y0126289D01*
X0060539Y0126180D01*
X0060511Y0126071D01*
X0060480Y0125964D01*
X0060445Y0125858D01*
X0060406Y0125753D01*
X0060363Y0125650D01*
X0060317Y0125548D01*
X0060267Y0125448D01*
X0060214Y0125350D01*
X0060157Y0125253D01*
X0060097Y0125159D01*
X0060034Y0125067D01*
X0059967Y0124977D01*
X0059897Y0124890D01*
X0059824Y0124805D01*
X0059749Y0124723D01*
X0059670Y0124644D01*
X0059588Y0124567D01*
X0059504Y0124494D01*
X0059418Y0124423D01*
X0059328Y0124356D01*
X0059237Y0124291D01*
X0059143Y0124230D01*
X0059048Y0124173D01*
X0058950Y0124119D01*
X0058850Y0124068D01*
X0058749Y0124021D01*
X0058646Y0123978D01*
X0058541Y0123938D01*
X0058435Y0123902D01*
X0058328Y0123869D01*
X0058220Y0123841D01*
X0058111Y0123816D01*
X0058001Y0123796D01*
X0057891Y0123779D01*
X0057780Y0123766D01*
X0057668Y0123757D01*
X0057557Y0123752D01*
X0057445Y0123751D01*
X0057333Y0123754D01*
X0057222Y0123761D01*
X0057111Y0123772D01*
X0057000Y0123787D01*
X0056890Y0123806D01*
X0056780Y0123828D01*
X0056671Y0123855D01*
X0056564Y0123885D01*
X0056457Y0123919D01*
X0056352Y0123957D01*
X0056249Y0123999D01*
X0056146Y0124044D01*
X0056046Y0124093D01*
X0055947Y0124145D01*
X0055850Y0124201D01*
X0055756Y0124261D01*
X0055663Y0124323D01*
X0055573Y0124389D01*
X0055485Y0124458D01*
X0055399Y0124530D01*
X0055317Y0124605D01*
X0055236Y0124683D01*
X0055159Y0124764D01*
X0055085Y0124847D01*
X0055014Y0124934D01*
X0054945Y0125022D01*
X0054880Y0125113D01*
X0054818Y0125206D01*
X0054760Y0125301D01*
X0054705Y0125399D01*
X0054653Y0125498D01*
X0054605Y0125599D01*
X0054561Y0125701D01*
X0054520Y0125805D01*
X0054483Y0125911D01*
X0054450Y0126018D01*
X0054421Y0126126D01*
X0054395Y0126234D01*
X0054373Y0126344D01*
X0054356Y0126454D01*
X0054342Y0126565D01*
X0054332Y0126677D01*
X0054326Y0126788D01*
X0054324Y0126900D01*
X0318300Y0126900D02*
X0318302Y0126993D01*
X0318308Y0127085D01*
X0318318Y0127177D01*
X0318332Y0127268D01*
X0318349Y0127359D01*
X0318371Y0127449D01*
X0318396Y0127538D01*
X0318425Y0127626D01*
X0318458Y0127712D01*
X0318495Y0127797D01*
X0318535Y0127881D01*
X0318579Y0127962D01*
X0318626Y0128042D01*
X0318676Y0128120D01*
X0318730Y0128195D01*
X0318787Y0128268D01*
X0318847Y0128338D01*
X0318910Y0128406D01*
X0318976Y0128471D01*
X0319044Y0128533D01*
X0319115Y0128593D01*
X0319189Y0128649D01*
X0319265Y0128702D01*
X0319343Y0128751D01*
X0319423Y0128798D01*
X0319505Y0128840D01*
X0319589Y0128880D01*
X0319674Y0128915D01*
X0319761Y0128947D01*
X0319849Y0128976D01*
X0319938Y0129000D01*
X0320028Y0129021D01*
X0320119Y0129037D01*
X0320211Y0129050D01*
X0320303Y0129059D01*
X0320396Y0129064D01*
X0320488Y0129065D01*
X0320581Y0129062D01*
X0320673Y0129055D01*
X0320765Y0129044D01*
X0320856Y0129029D01*
X0320947Y0129011D01*
X0321037Y0128988D01*
X0321125Y0128962D01*
X0321213Y0128932D01*
X0321299Y0128898D01*
X0321383Y0128861D01*
X0321466Y0128819D01*
X0321547Y0128775D01*
X0321627Y0128727D01*
X0321704Y0128676D01*
X0321778Y0128621D01*
X0321851Y0128563D01*
X0321921Y0128503D01*
X0321988Y0128439D01*
X0322052Y0128373D01*
X0322114Y0128303D01*
X0322172Y0128232D01*
X0322227Y0128158D01*
X0322279Y0128081D01*
X0322328Y0128002D01*
X0322374Y0127922D01*
X0322416Y0127839D01*
X0322454Y0127755D01*
X0322489Y0127669D01*
X0322520Y0127582D01*
X0322547Y0127494D01*
X0322570Y0127404D01*
X0322590Y0127314D01*
X0322606Y0127223D01*
X0322618Y0127131D01*
X0322626Y0127039D01*
X0322630Y0126946D01*
X0322630Y0126854D01*
X0322626Y0126761D01*
X0322618Y0126669D01*
X0322606Y0126577D01*
X0322590Y0126486D01*
X0322570Y0126396D01*
X0322547Y0126306D01*
X0322520Y0126218D01*
X0322489Y0126131D01*
X0322454Y0126045D01*
X0322416Y0125961D01*
X0322374Y0125878D01*
X0322328Y0125798D01*
X0322279Y0125719D01*
X0322227Y0125642D01*
X0322172Y0125568D01*
X0322114Y0125497D01*
X0322052Y0125427D01*
X0321988Y0125361D01*
X0321921Y0125297D01*
X0321851Y0125237D01*
X0321778Y0125179D01*
X0321704Y0125124D01*
X0321627Y0125073D01*
X0321548Y0125025D01*
X0321466Y0124981D01*
X0321383Y0124939D01*
X0321299Y0124902D01*
X0321213Y0124868D01*
X0321125Y0124838D01*
X0321037Y0124812D01*
X0320947Y0124789D01*
X0320856Y0124771D01*
X0320765Y0124756D01*
X0320673Y0124745D01*
X0320581Y0124738D01*
X0320488Y0124735D01*
X0320396Y0124736D01*
X0320303Y0124741D01*
X0320211Y0124750D01*
X0320119Y0124763D01*
X0320028Y0124779D01*
X0319938Y0124800D01*
X0319849Y0124824D01*
X0319761Y0124853D01*
X0319674Y0124885D01*
X0319589Y0124920D01*
X0319505Y0124960D01*
X0319423Y0125002D01*
X0319343Y0125049D01*
X0319265Y0125098D01*
X0319189Y0125151D01*
X0319115Y0125207D01*
X0319044Y0125267D01*
X0318976Y0125329D01*
X0318910Y0125394D01*
X0318847Y0125462D01*
X0318787Y0125532D01*
X0318730Y0125605D01*
X0318676Y0125680D01*
X0318626Y0125758D01*
X0318579Y0125838D01*
X0318535Y0125919D01*
X0318495Y0126003D01*
X0318458Y0126088D01*
X0318425Y0126174D01*
X0318396Y0126262D01*
X0318371Y0126351D01*
X0318349Y0126441D01*
X0318332Y0126532D01*
X0318318Y0126623D01*
X0318308Y0126715D01*
X0318302Y0126807D01*
X0318300Y0126900D01*
X0350100Y0125200D02*
X0350102Y0125341D01*
X0350108Y0125482D01*
X0350118Y0125622D01*
X0350132Y0125762D01*
X0350150Y0125902D01*
X0350171Y0126041D01*
X0350197Y0126180D01*
X0350226Y0126318D01*
X0350260Y0126454D01*
X0350297Y0126590D01*
X0350338Y0126725D01*
X0350383Y0126859D01*
X0350432Y0126991D01*
X0350484Y0127122D01*
X0350540Y0127251D01*
X0350600Y0127378D01*
X0350663Y0127504D01*
X0350729Y0127628D01*
X0350800Y0127751D01*
X0350873Y0127871D01*
X0350950Y0127989D01*
X0351030Y0128105D01*
X0351114Y0128218D01*
X0351200Y0128329D01*
X0351290Y0128438D01*
X0351383Y0128544D01*
X0351478Y0128647D01*
X0351577Y0128748D01*
X0351678Y0128846D01*
X0351782Y0128941D01*
X0351889Y0129033D01*
X0351998Y0129122D01*
X0352110Y0129207D01*
X0352224Y0129290D01*
X0352340Y0129370D01*
X0352459Y0129446D01*
X0352580Y0129518D01*
X0352702Y0129588D01*
X0352827Y0129653D01*
X0352953Y0129716D01*
X0353081Y0129774D01*
X0353211Y0129829D01*
X0353342Y0129881D01*
X0353475Y0129928D01*
X0353609Y0129972D01*
X0353744Y0130013D01*
X0353880Y0130049D01*
X0354017Y0130081D01*
X0354155Y0130110D01*
X0354293Y0130135D01*
X0354433Y0130155D01*
X0354573Y0130172D01*
X0354713Y0130185D01*
X0354854Y0130194D01*
X0354994Y0130199D01*
X0355135Y0130200D01*
X0355276Y0130197D01*
X0355417Y0130190D01*
X0355557Y0130179D01*
X0355697Y0130164D01*
X0355837Y0130145D01*
X0355976Y0130123D01*
X0356114Y0130096D01*
X0356252Y0130066D01*
X0356388Y0130031D01*
X0356524Y0129993D01*
X0356658Y0129951D01*
X0356792Y0129905D01*
X0356924Y0129856D01*
X0357054Y0129802D01*
X0357183Y0129745D01*
X0357310Y0129685D01*
X0357436Y0129621D01*
X0357559Y0129553D01*
X0357681Y0129482D01*
X0357801Y0129408D01*
X0357918Y0129330D01*
X0358033Y0129249D01*
X0358146Y0129165D01*
X0358257Y0129078D01*
X0358365Y0128987D01*
X0358470Y0128894D01*
X0358573Y0128797D01*
X0358673Y0128698D01*
X0358770Y0128596D01*
X0358864Y0128491D01*
X0358955Y0128384D01*
X0359043Y0128274D01*
X0359128Y0128162D01*
X0359210Y0128047D01*
X0359289Y0127930D01*
X0359364Y0127811D01*
X0359436Y0127690D01*
X0359504Y0127567D01*
X0359569Y0127442D01*
X0359631Y0127315D01*
X0359688Y0127186D01*
X0359743Y0127056D01*
X0359793Y0126925D01*
X0359840Y0126792D01*
X0359883Y0126658D01*
X0359922Y0126522D01*
X0359957Y0126386D01*
X0359989Y0126249D01*
X0360016Y0126111D01*
X0360040Y0125972D01*
X0360060Y0125832D01*
X0360076Y0125692D01*
X0360088Y0125552D01*
X0360096Y0125411D01*
X0360100Y0125270D01*
X0360100Y0125130D01*
X0360096Y0124989D01*
X0360088Y0124848D01*
X0360076Y0124708D01*
X0360060Y0124568D01*
X0360040Y0124428D01*
X0360016Y0124289D01*
X0359989Y0124151D01*
X0359957Y0124014D01*
X0359922Y0123878D01*
X0359883Y0123742D01*
X0359840Y0123608D01*
X0359793Y0123475D01*
X0359743Y0123344D01*
X0359688Y0123214D01*
X0359631Y0123085D01*
X0359569Y0122958D01*
X0359504Y0122833D01*
X0359436Y0122710D01*
X0359364Y0122589D01*
X0359289Y0122470D01*
X0359210Y0122353D01*
X0359128Y0122238D01*
X0359043Y0122126D01*
X0358955Y0122016D01*
X0358864Y0121909D01*
X0358770Y0121804D01*
X0358673Y0121702D01*
X0358573Y0121603D01*
X0358470Y0121506D01*
X0358365Y0121413D01*
X0358257Y0121322D01*
X0358146Y0121235D01*
X0358033Y0121151D01*
X0357918Y0121070D01*
X0357801Y0120992D01*
X0357681Y0120918D01*
X0357559Y0120847D01*
X0357436Y0120779D01*
X0357310Y0120715D01*
X0357183Y0120655D01*
X0357054Y0120598D01*
X0356924Y0120544D01*
X0356792Y0120495D01*
X0356658Y0120449D01*
X0356524Y0120407D01*
X0356388Y0120369D01*
X0356252Y0120334D01*
X0356114Y0120304D01*
X0355976Y0120277D01*
X0355837Y0120255D01*
X0355697Y0120236D01*
X0355557Y0120221D01*
X0355417Y0120210D01*
X0355276Y0120203D01*
X0355135Y0120200D01*
X0354994Y0120201D01*
X0354854Y0120206D01*
X0354713Y0120215D01*
X0354573Y0120228D01*
X0354433Y0120245D01*
X0354293Y0120265D01*
X0354155Y0120290D01*
X0354017Y0120319D01*
X0353880Y0120351D01*
X0353744Y0120387D01*
X0353609Y0120428D01*
X0353475Y0120472D01*
X0353342Y0120519D01*
X0353211Y0120571D01*
X0353081Y0120626D01*
X0352953Y0120684D01*
X0352827Y0120747D01*
X0352702Y0120812D01*
X0352580Y0120882D01*
X0352459Y0120954D01*
X0352340Y0121030D01*
X0352224Y0121110D01*
X0352110Y0121193D01*
X0351998Y0121278D01*
X0351889Y0121367D01*
X0351782Y0121459D01*
X0351678Y0121554D01*
X0351577Y0121652D01*
X0351478Y0121753D01*
X0351383Y0121856D01*
X0351290Y0121962D01*
X0351200Y0122071D01*
X0351114Y0122182D01*
X0351030Y0122295D01*
X0350950Y0122411D01*
X0350873Y0122529D01*
X0350800Y0122649D01*
X0350729Y0122772D01*
X0350663Y0122896D01*
X0350600Y0123022D01*
X0350540Y0123149D01*
X0350484Y0123278D01*
X0350432Y0123409D01*
X0350383Y0123541D01*
X0350338Y0123675D01*
X0350297Y0123810D01*
X0350260Y0123946D01*
X0350226Y0124082D01*
X0350197Y0124220D01*
X0350171Y0124359D01*
X0350150Y0124498D01*
X0350132Y0124638D01*
X0350118Y0124778D01*
X0350108Y0124918D01*
X0350102Y0125059D01*
X0350100Y0125200D01*
X0351907Y0103798D02*
X0351909Y0103908D01*
X0351915Y0104018D01*
X0351925Y0104128D01*
X0351939Y0104237D01*
X0351957Y0104346D01*
X0351978Y0104454D01*
X0352004Y0104561D01*
X0352033Y0104667D01*
X0352067Y0104772D01*
X0352104Y0104876D01*
X0352145Y0104978D01*
X0352189Y0105079D01*
X0352237Y0105178D01*
X0352289Y0105276D01*
X0352344Y0105371D01*
X0352402Y0105464D01*
X0352464Y0105555D01*
X0352529Y0105644D01*
X0352597Y0105731D01*
X0352669Y0105815D01*
X0352743Y0105896D01*
X0352820Y0105975D01*
X0352900Y0106051D01*
X0352983Y0106123D01*
X0353068Y0106193D01*
X0353156Y0106260D01*
X0353246Y0106323D01*
X0353338Y0106383D01*
X0353432Y0106440D01*
X0353529Y0106494D01*
X0353627Y0106543D01*
X0353727Y0106590D01*
X0353829Y0106632D01*
X0353932Y0106671D01*
X0354036Y0106706D01*
X0354142Y0106738D01*
X0354248Y0106765D01*
X0354356Y0106789D01*
X0354464Y0106809D01*
X0354573Y0106825D01*
X0354683Y0106837D01*
X0354793Y0106845D01*
X0354903Y0106849D01*
X0355013Y0106849D01*
X0355123Y0106845D01*
X0355233Y0106837D01*
X0355343Y0106825D01*
X0355452Y0106809D01*
X0355560Y0106789D01*
X0355668Y0106765D01*
X0355774Y0106738D01*
X0355880Y0106706D01*
X0355984Y0106671D01*
X0356087Y0106632D01*
X0356189Y0106590D01*
X0356289Y0106543D01*
X0356387Y0106494D01*
X0356483Y0106440D01*
X0356578Y0106383D01*
X0356670Y0106323D01*
X0356760Y0106260D01*
X0356848Y0106193D01*
X0356933Y0106123D01*
X0357016Y0106051D01*
X0357096Y0105975D01*
X0357173Y0105896D01*
X0357247Y0105815D01*
X0357319Y0105731D01*
X0357387Y0105644D01*
X0357452Y0105555D01*
X0357514Y0105464D01*
X0357572Y0105371D01*
X0357627Y0105276D01*
X0357679Y0105178D01*
X0357727Y0105079D01*
X0357771Y0104978D01*
X0357812Y0104876D01*
X0357849Y0104772D01*
X0357883Y0104667D01*
X0357912Y0104561D01*
X0357938Y0104454D01*
X0357959Y0104346D01*
X0357977Y0104237D01*
X0357991Y0104128D01*
X0358001Y0104018D01*
X0358007Y0103908D01*
X0358009Y0103798D01*
X0358007Y0103688D01*
X0358001Y0103578D01*
X0357991Y0103468D01*
X0357977Y0103359D01*
X0357959Y0103250D01*
X0357938Y0103142D01*
X0357912Y0103035D01*
X0357883Y0102929D01*
X0357849Y0102824D01*
X0357812Y0102720D01*
X0357771Y0102618D01*
X0357727Y0102517D01*
X0357679Y0102418D01*
X0357627Y0102320D01*
X0357572Y0102225D01*
X0357514Y0102132D01*
X0357452Y0102041D01*
X0357387Y0101952D01*
X0357319Y0101865D01*
X0357247Y0101781D01*
X0357173Y0101700D01*
X0357096Y0101621D01*
X0357016Y0101545D01*
X0356933Y0101473D01*
X0356848Y0101403D01*
X0356760Y0101336D01*
X0356670Y0101273D01*
X0356578Y0101213D01*
X0356484Y0101156D01*
X0356387Y0101102D01*
X0356289Y0101053D01*
X0356189Y0101006D01*
X0356087Y0100964D01*
X0355984Y0100925D01*
X0355880Y0100890D01*
X0355774Y0100858D01*
X0355668Y0100831D01*
X0355560Y0100807D01*
X0355452Y0100787D01*
X0355343Y0100771D01*
X0355233Y0100759D01*
X0355123Y0100751D01*
X0355013Y0100747D01*
X0354903Y0100747D01*
X0354793Y0100751D01*
X0354683Y0100759D01*
X0354573Y0100771D01*
X0354464Y0100787D01*
X0354356Y0100807D01*
X0354248Y0100831D01*
X0354142Y0100858D01*
X0354036Y0100890D01*
X0353932Y0100925D01*
X0353829Y0100964D01*
X0353727Y0101006D01*
X0353627Y0101053D01*
X0353529Y0101102D01*
X0353432Y0101156D01*
X0353338Y0101213D01*
X0353246Y0101273D01*
X0353156Y0101336D01*
X0353068Y0101403D01*
X0352983Y0101473D01*
X0352900Y0101545D01*
X0352820Y0101621D01*
X0352743Y0101700D01*
X0352669Y0101781D01*
X0352597Y0101865D01*
X0352529Y0101952D01*
X0352464Y0102041D01*
X0352402Y0102132D01*
X0352344Y0102225D01*
X0352289Y0102320D01*
X0352237Y0102418D01*
X0352189Y0102517D01*
X0352145Y0102618D01*
X0352104Y0102720D01*
X0352067Y0102824D01*
X0352033Y0102929D01*
X0352004Y0103035D01*
X0351978Y0103142D01*
X0351957Y0103250D01*
X0351939Y0103359D01*
X0351925Y0103468D01*
X0351915Y0103578D01*
X0351909Y0103688D01*
X0351907Y0103798D01*
X0351907Y0066002D02*
X0351909Y0066112D01*
X0351915Y0066222D01*
X0351925Y0066332D01*
X0351939Y0066441D01*
X0351957Y0066550D01*
X0351978Y0066658D01*
X0352004Y0066765D01*
X0352033Y0066871D01*
X0352067Y0066976D01*
X0352104Y0067080D01*
X0352145Y0067182D01*
X0352189Y0067283D01*
X0352237Y0067382D01*
X0352289Y0067480D01*
X0352344Y0067575D01*
X0352402Y0067668D01*
X0352464Y0067759D01*
X0352529Y0067848D01*
X0352597Y0067935D01*
X0352669Y0068019D01*
X0352743Y0068100D01*
X0352820Y0068179D01*
X0352900Y0068255D01*
X0352983Y0068327D01*
X0353068Y0068397D01*
X0353156Y0068464D01*
X0353246Y0068527D01*
X0353338Y0068587D01*
X0353432Y0068644D01*
X0353529Y0068698D01*
X0353627Y0068747D01*
X0353727Y0068794D01*
X0353829Y0068836D01*
X0353932Y0068875D01*
X0354036Y0068910D01*
X0354142Y0068942D01*
X0354248Y0068969D01*
X0354356Y0068993D01*
X0354464Y0069013D01*
X0354573Y0069029D01*
X0354683Y0069041D01*
X0354793Y0069049D01*
X0354903Y0069053D01*
X0355013Y0069053D01*
X0355123Y0069049D01*
X0355233Y0069041D01*
X0355343Y0069029D01*
X0355452Y0069013D01*
X0355560Y0068993D01*
X0355668Y0068969D01*
X0355774Y0068942D01*
X0355880Y0068910D01*
X0355984Y0068875D01*
X0356087Y0068836D01*
X0356189Y0068794D01*
X0356289Y0068747D01*
X0356387Y0068698D01*
X0356483Y0068644D01*
X0356578Y0068587D01*
X0356670Y0068527D01*
X0356760Y0068464D01*
X0356848Y0068397D01*
X0356933Y0068327D01*
X0357016Y0068255D01*
X0357096Y0068179D01*
X0357173Y0068100D01*
X0357247Y0068019D01*
X0357319Y0067935D01*
X0357387Y0067848D01*
X0357452Y0067759D01*
X0357514Y0067668D01*
X0357572Y0067575D01*
X0357627Y0067480D01*
X0357679Y0067382D01*
X0357727Y0067283D01*
X0357771Y0067182D01*
X0357812Y0067080D01*
X0357849Y0066976D01*
X0357883Y0066871D01*
X0357912Y0066765D01*
X0357938Y0066658D01*
X0357959Y0066550D01*
X0357977Y0066441D01*
X0357991Y0066332D01*
X0358001Y0066222D01*
X0358007Y0066112D01*
X0358009Y0066002D01*
X0358007Y0065892D01*
X0358001Y0065782D01*
X0357991Y0065672D01*
X0357977Y0065563D01*
X0357959Y0065454D01*
X0357938Y0065346D01*
X0357912Y0065239D01*
X0357883Y0065133D01*
X0357849Y0065028D01*
X0357812Y0064924D01*
X0357771Y0064822D01*
X0357727Y0064721D01*
X0357679Y0064622D01*
X0357627Y0064524D01*
X0357572Y0064429D01*
X0357514Y0064336D01*
X0357452Y0064245D01*
X0357387Y0064156D01*
X0357319Y0064069D01*
X0357247Y0063985D01*
X0357173Y0063904D01*
X0357096Y0063825D01*
X0357016Y0063749D01*
X0356933Y0063677D01*
X0356848Y0063607D01*
X0356760Y0063540D01*
X0356670Y0063477D01*
X0356578Y0063417D01*
X0356484Y0063360D01*
X0356387Y0063306D01*
X0356289Y0063257D01*
X0356189Y0063210D01*
X0356087Y0063168D01*
X0355984Y0063129D01*
X0355880Y0063094D01*
X0355774Y0063062D01*
X0355668Y0063035D01*
X0355560Y0063011D01*
X0355452Y0062991D01*
X0355343Y0062975D01*
X0355233Y0062963D01*
X0355123Y0062955D01*
X0355013Y0062951D01*
X0354903Y0062951D01*
X0354793Y0062955D01*
X0354683Y0062963D01*
X0354573Y0062975D01*
X0354464Y0062991D01*
X0354356Y0063011D01*
X0354248Y0063035D01*
X0354142Y0063062D01*
X0354036Y0063094D01*
X0353932Y0063129D01*
X0353829Y0063168D01*
X0353727Y0063210D01*
X0353627Y0063257D01*
X0353529Y0063306D01*
X0353432Y0063360D01*
X0353338Y0063417D01*
X0353246Y0063477D01*
X0353156Y0063540D01*
X0353068Y0063607D01*
X0352983Y0063677D01*
X0352900Y0063749D01*
X0352820Y0063825D01*
X0352743Y0063904D01*
X0352669Y0063985D01*
X0352597Y0064069D01*
X0352529Y0064156D01*
X0352464Y0064245D01*
X0352402Y0064336D01*
X0352344Y0064429D01*
X0352289Y0064524D01*
X0352237Y0064622D01*
X0352189Y0064721D01*
X0352145Y0064822D01*
X0352104Y0064924D01*
X0352067Y0065028D01*
X0352033Y0065133D01*
X0352004Y0065239D01*
X0351978Y0065346D01*
X0351957Y0065454D01*
X0351939Y0065563D01*
X0351925Y0065672D01*
X0351915Y0065782D01*
X0351909Y0065892D01*
X0351907Y0066002D01*
X0352700Y0012200D02*
X0352702Y0012341D01*
X0352708Y0012482D01*
X0352718Y0012622D01*
X0352732Y0012762D01*
X0352750Y0012902D01*
X0352771Y0013041D01*
X0352797Y0013180D01*
X0352826Y0013318D01*
X0352860Y0013454D01*
X0352897Y0013590D01*
X0352938Y0013725D01*
X0352983Y0013859D01*
X0353032Y0013991D01*
X0353084Y0014122D01*
X0353140Y0014251D01*
X0353200Y0014378D01*
X0353263Y0014504D01*
X0353329Y0014628D01*
X0353400Y0014751D01*
X0353473Y0014871D01*
X0353550Y0014989D01*
X0353630Y0015105D01*
X0353714Y0015218D01*
X0353800Y0015329D01*
X0353890Y0015438D01*
X0353983Y0015544D01*
X0354078Y0015647D01*
X0354177Y0015748D01*
X0354278Y0015846D01*
X0354382Y0015941D01*
X0354489Y0016033D01*
X0354598Y0016122D01*
X0354710Y0016207D01*
X0354824Y0016290D01*
X0354940Y0016370D01*
X0355059Y0016446D01*
X0355180Y0016518D01*
X0355302Y0016588D01*
X0355427Y0016653D01*
X0355553Y0016716D01*
X0355681Y0016774D01*
X0355811Y0016829D01*
X0355942Y0016881D01*
X0356075Y0016928D01*
X0356209Y0016972D01*
X0356344Y0017013D01*
X0356480Y0017049D01*
X0356617Y0017081D01*
X0356755Y0017110D01*
X0356893Y0017135D01*
X0357033Y0017155D01*
X0357173Y0017172D01*
X0357313Y0017185D01*
X0357454Y0017194D01*
X0357594Y0017199D01*
X0357735Y0017200D01*
X0357876Y0017197D01*
X0358017Y0017190D01*
X0358157Y0017179D01*
X0358297Y0017164D01*
X0358437Y0017145D01*
X0358576Y0017123D01*
X0358714Y0017096D01*
X0358852Y0017066D01*
X0358988Y0017031D01*
X0359124Y0016993D01*
X0359258Y0016951D01*
X0359392Y0016905D01*
X0359524Y0016856D01*
X0359654Y0016802D01*
X0359783Y0016745D01*
X0359910Y0016685D01*
X0360036Y0016621D01*
X0360159Y0016553D01*
X0360281Y0016482D01*
X0360401Y0016408D01*
X0360518Y0016330D01*
X0360633Y0016249D01*
X0360746Y0016165D01*
X0360857Y0016078D01*
X0360965Y0015987D01*
X0361070Y0015894D01*
X0361173Y0015797D01*
X0361273Y0015698D01*
X0361370Y0015596D01*
X0361464Y0015491D01*
X0361555Y0015384D01*
X0361643Y0015274D01*
X0361728Y0015162D01*
X0361810Y0015047D01*
X0361889Y0014930D01*
X0361964Y0014811D01*
X0362036Y0014690D01*
X0362104Y0014567D01*
X0362169Y0014442D01*
X0362231Y0014315D01*
X0362288Y0014186D01*
X0362343Y0014056D01*
X0362393Y0013925D01*
X0362440Y0013792D01*
X0362483Y0013658D01*
X0362522Y0013522D01*
X0362557Y0013386D01*
X0362589Y0013249D01*
X0362616Y0013111D01*
X0362640Y0012972D01*
X0362660Y0012832D01*
X0362676Y0012692D01*
X0362688Y0012552D01*
X0362696Y0012411D01*
X0362700Y0012270D01*
X0362700Y0012130D01*
X0362696Y0011989D01*
X0362688Y0011848D01*
X0362676Y0011708D01*
X0362660Y0011568D01*
X0362640Y0011428D01*
X0362616Y0011289D01*
X0362589Y0011151D01*
X0362557Y0011014D01*
X0362522Y0010878D01*
X0362483Y0010742D01*
X0362440Y0010608D01*
X0362393Y0010475D01*
X0362343Y0010344D01*
X0362288Y0010214D01*
X0362231Y0010085D01*
X0362169Y0009958D01*
X0362104Y0009833D01*
X0362036Y0009710D01*
X0361964Y0009589D01*
X0361889Y0009470D01*
X0361810Y0009353D01*
X0361728Y0009238D01*
X0361643Y0009126D01*
X0361555Y0009016D01*
X0361464Y0008909D01*
X0361370Y0008804D01*
X0361273Y0008702D01*
X0361173Y0008603D01*
X0361070Y0008506D01*
X0360965Y0008413D01*
X0360857Y0008322D01*
X0360746Y0008235D01*
X0360633Y0008151D01*
X0360518Y0008070D01*
X0360401Y0007992D01*
X0360281Y0007918D01*
X0360159Y0007847D01*
X0360036Y0007779D01*
X0359910Y0007715D01*
X0359783Y0007655D01*
X0359654Y0007598D01*
X0359524Y0007544D01*
X0359392Y0007495D01*
X0359258Y0007449D01*
X0359124Y0007407D01*
X0358988Y0007369D01*
X0358852Y0007334D01*
X0358714Y0007304D01*
X0358576Y0007277D01*
X0358437Y0007255D01*
X0358297Y0007236D01*
X0358157Y0007221D01*
X0358017Y0007210D01*
X0357876Y0007203D01*
X0357735Y0007200D01*
X0357594Y0007201D01*
X0357454Y0007206D01*
X0357313Y0007215D01*
X0357173Y0007228D01*
X0357033Y0007245D01*
X0356893Y0007265D01*
X0356755Y0007290D01*
X0356617Y0007319D01*
X0356480Y0007351D01*
X0356344Y0007387D01*
X0356209Y0007428D01*
X0356075Y0007472D01*
X0355942Y0007519D01*
X0355811Y0007571D01*
X0355681Y0007626D01*
X0355553Y0007684D01*
X0355427Y0007747D01*
X0355302Y0007812D01*
X0355180Y0007882D01*
X0355059Y0007954D01*
X0354940Y0008030D01*
X0354824Y0008110D01*
X0354710Y0008193D01*
X0354598Y0008278D01*
X0354489Y0008367D01*
X0354382Y0008459D01*
X0354278Y0008554D01*
X0354177Y0008652D01*
X0354078Y0008753D01*
X0353983Y0008856D01*
X0353890Y0008962D01*
X0353800Y0009071D01*
X0353714Y0009182D01*
X0353630Y0009295D01*
X0353550Y0009411D01*
X0353473Y0009529D01*
X0353400Y0009649D01*
X0353329Y0009772D01*
X0353263Y0009896D01*
X0353200Y0010022D01*
X0353140Y0010149D01*
X0353084Y0010278D01*
X0353032Y0010409D01*
X0352983Y0010541D01*
X0352938Y0010675D01*
X0352897Y0010810D01*
X0352860Y0010946D01*
X0352826Y0011082D01*
X0352797Y0011220D01*
X0352771Y0011359D01*
X0352750Y0011498D01*
X0352732Y0011638D01*
X0352718Y0011778D01*
X0352708Y0011918D01*
X0352702Y0012059D01*
X0352700Y0012200D01*
D11*
X0352950Y0018500D02*
X0352952Y0018466D01*
X0352958Y0018433D01*
X0352967Y0018401D01*
X0352980Y0018370D01*
X0352996Y0018340D01*
X0353015Y0018313D01*
X0353038Y0018288D01*
X0353063Y0018265D01*
X0353090Y0018246D01*
X0353120Y0018230D01*
X0353151Y0018217D01*
X0353183Y0018208D01*
X0353216Y0018202D01*
X0353250Y0018200D01*
X0353284Y0018202D01*
X0353317Y0018208D01*
X0353349Y0018217D01*
X0353380Y0018230D01*
X0353410Y0018246D01*
X0353437Y0018265D01*
X0353462Y0018288D01*
X0353485Y0018313D01*
X0353504Y0018340D01*
X0353520Y0018370D01*
X0353533Y0018401D01*
X0353542Y0018433D01*
X0353548Y0018466D01*
X0353550Y0018500D01*
X0353548Y0018534D01*
X0353542Y0018567D01*
X0353533Y0018599D01*
X0353520Y0018630D01*
X0353504Y0018660D01*
X0353485Y0018687D01*
X0353462Y0018712D01*
X0353437Y0018735D01*
X0353410Y0018754D01*
X0353380Y0018770D01*
X0353349Y0018783D01*
X0353317Y0018792D01*
X0353284Y0018798D01*
X0353250Y0018800D01*
X0353216Y0018798D01*
X0353183Y0018792D01*
X0353151Y0018783D01*
X0353120Y0018770D01*
X0353090Y0018754D01*
X0353063Y0018735D01*
X0353038Y0018712D01*
X0353015Y0018687D01*
X0352996Y0018660D01*
X0352980Y0018630D01*
X0352967Y0018599D01*
X0352958Y0018567D01*
X0352952Y0018534D01*
X0352950Y0018500D01*
X0345100Y0034750D02*
X0345134Y0034752D01*
X0345167Y0034758D01*
X0345199Y0034767D01*
X0345230Y0034780D01*
X0345260Y0034796D01*
X0345287Y0034815D01*
X0345312Y0034838D01*
X0345335Y0034863D01*
X0345354Y0034890D01*
X0345370Y0034920D01*
X0345383Y0034951D01*
X0345392Y0034983D01*
X0345398Y0035016D01*
X0345400Y0035050D01*
X0345398Y0035084D01*
X0345392Y0035117D01*
X0345383Y0035149D01*
X0345370Y0035180D01*
X0345354Y0035210D01*
X0345335Y0035237D01*
X0345312Y0035262D01*
X0345287Y0035285D01*
X0345260Y0035304D01*
X0345230Y0035320D01*
X0345199Y0035333D01*
X0345167Y0035342D01*
X0345134Y0035348D01*
X0345100Y0035350D01*
X0345066Y0035348D01*
X0345033Y0035342D01*
X0345001Y0035333D01*
X0344970Y0035320D01*
X0344940Y0035304D01*
X0344913Y0035285D01*
X0344888Y0035262D01*
X0344865Y0035237D01*
X0344846Y0035210D01*
X0344830Y0035180D01*
X0344817Y0035149D01*
X0344808Y0035117D01*
X0344802Y0035084D01*
X0344800Y0035050D01*
X0344802Y0035016D01*
X0344808Y0034983D01*
X0344817Y0034951D01*
X0344830Y0034920D01*
X0344846Y0034890D01*
X0344865Y0034863D01*
X0344888Y0034838D01*
X0344913Y0034815D01*
X0344940Y0034796D01*
X0344970Y0034780D01*
X0345001Y0034767D01*
X0345033Y0034758D01*
X0345066Y0034752D01*
X0345100Y0034750D01*
X0330850Y0030500D02*
X0330848Y0030534D01*
X0330842Y0030567D01*
X0330833Y0030599D01*
X0330820Y0030630D01*
X0330804Y0030660D01*
X0330785Y0030687D01*
X0330762Y0030712D01*
X0330737Y0030735D01*
X0330710Y0030754D01*
X0330680Y0030770D01*
X0330649Y0030783D01*
X0330617Y0030792D01*
X0330584Y0030798D01*
X0330550Y0030800D01*
X0330516Y0030798D01*
X0330483Y0030792D01*
X0330451Y0030783D01*
X0330420Y0030770D01*
X0330390Y0030754D01*
X0330363Y0030735D01*
X0330338Y0030712D01*
X0330315Y0030687D01*
X0330296Y0030660D01*
X0330280Y0030630D01*
X0330267Y0030599D01*
X0330258Y0030567D01*
X0330252Y0030534D01*
X0330250Y0030500D01*
X0330252Y0030466D01*
X0330258Y0030433D01*
X0330267Y0030401D01*
X0330280Y0030370D01*
X0330296Y0030340D01*
X0330315Y0030313D01*
X0330338Y0030288D01*
X0330363Y0030265D01*
X0330390Y0030246D01*
X0330420Y0030230D01*
X0330451Y0030217D01*
X0330483Y0030208D01*
X0330516Y0030202D01*
X0330550Y0030200D01*
X0330584Y0030202D01*
X0330617Y0030208D01*
X0330649Y0030217D01*
X0330680Y0030230D01*
X0330710Y0030246D01*
X0330737Y0030265D01*
X0330762Y0030288D01*
X0330785Y0030313D01*
X0330804Y0030340D01*
X0330820Y0030370D01*
X0330833Y0030401D01*
X0330842Y0030433D01*
X0330848Y0030466D01*
X0330850Y0030500D01*
X0325800Y0035300D02*
X0325798Y0035266D01*
X0325792Y0035233D01*
X0325783Y0035201D01*
X0325770Y0035170D01*
X0325754Y0035140D01*
X0325735Y0035113D01*
X0325712Y0035088D01*
X0325687Y0035065D01*
X0325660Y0035046D01*
X0325630Y0035030D01*
X0325599Y0035017D01*
X0325567Y0035008D01*
X0325534Y0035002D01*
X0325500Y0035000D01*
X0325466Y0035002D01*
X0325433Y0035008D01*
X0325401Y0035017D01*
X0325370Y0035030D01*
X0325340Y0035046D01*
X0325313Y0035065D01*
X0325288Y0035088D01*
X0325265Y0035113D01*
X0325246Y0035140D01*
X0325230Y0035170D01*
X0325217Y0035201D01*
X0325208Y0035233D01*
X0325202Y0035266D01*
X0325200Y0035300D01*
X0325202Y0035334D01*
X0325208Y0035367D01*
X0325217Y0035399D01*
X0325230Y0035430D01*
X0325246Y0035460D01*
X0325265Y0035487D01*
X0325288Y0035512D01*
X0325313Y0035535D01*
X0325340Y0035554D01*
X0325370Y0035570D01*
X0325401Y0035583D01*
X0325433Y0035592D01*
X0325466Y0035598D01*
X0325500Y0035600D01*
X0325534Y0035598D01*
X0325567Y0035592D01*
X0325599Y0035583D01*
X0325630Y0035570D01*
X0325660Y0035554D01*
X0325687Y0035535D01*
X0325712Y0035512D01*
X0325735Y0035487D01*
X0325754Y0035460D01*
X0325770Y0035430D01*
X0325783Y0035399D01*
X0325792Y0035367D01*
X0325798Y0035334D01*
X0325800Y0035300D01*
X0318478Y0043194D02*
X0318476Y0043160D01*
X0318470Y0043127D01*
X0318461Y0043095D01*
X0318448Y0043064D01*
X0318432Y0043034D01*
X0318413Y0043007D01*
X0318390Y0042982D01*
X0318365Y0042959D01*
X0318338Y0042940D01*
X0318308Y0042924D01*
X0318277Y0042911D01*
X0318245Y0042902D01*
X0318212Y0042896D01*
X0318178Y0042894D01*
X0318144Y0042896D01*
X0318111Y0042902D01*
X0318079Y0042911D01*
X0318048Y0042924D01*
X0318018Y0042940D01*
X0317991Y0042959D01*
X0317966Y0042982D01*
X0317943Y0043007D01*
X0317924Y0043034D01*
X0317908Y0043064D01*
X0317895Y0043095D01*
X0317886Y0043127D01*
X0317880Y0043160D01*
X0317878Y0043194D01*
X0317880Y0043228D01*
X0317886Y0043261D01*
X0317895Y0043293D01*
X0317908Y0043324D01*
X0317924Y0043354D01*
X0317943Y0043381D01*
X0317966Y0043406D01*
X0317991Y0043429D01*
X0318018Y0043448D01*
X0318048Y0043464D01*
X0318079Y0043477D01*
X0318111Y0043486D01*
X0318144Y0043492D01*
X0318178Y0043494D01*
X0318212Y0043492D01*
X0318245Y0043486D01*
X0318277Y0043477D01*
X0318308Y0043464D01*
X0318338Y0043448D01*
X0318365Y0043429D01*
X0318390Y0043406D01*
X0318413Y0043381D01*
X0318432Y0043354D01*
X0318448Y0043324D01*
X0318461Y0043293D01*
X0318470Y0043261D01*
X0318476Y0043228D01*
X0318478Y0043194D01*
X0305141Y0047083D02*
X0303641Y0047083D01*
X0305141Y0047083D02*
X0305141Y0048583D01*
X0301100Y0034300D02*
X0301066Y0034298D01*
X0301033Y0034292D01*
X0301001Y0034283D01*
X0300970Y0034270D01*
X0300940Y0034254D01*
X0300913Y0034235D01*
X0300888Y0034212D01*
X0300865Y0034187D01*
X0300846Y0034160D01*
X0300830Y0034130D01*
X0300817Y0034099D01*
X0300808Y0034067D01*
X0300802Y0034034D01*
X0300800Y0034000D01*
X0300802Y0033966D01*
X0300808Y0033933D01*
X0300817Y0033901D01*
X0300830Y0033870D01*
X0300846Y0033840D01*
X0300865Y0033813D01*
X0300888Y0033788D01*
X0300913Y0033765D01*
X0300940Y0033746D01*
X0300970Y0033730D01*
X0301001Y0033717D01*
X0301033Y0033708D01*
X0301066Y0033702D01*
X0301100Y0033700D01*
X0301134Y0033702D01*
X0301167Y0033708D01*
X0301199Y0033717D01*
X0301230Y0033730D01*
X0301260Y0033746D01*
X0301287Y0033765D01*
X0301312Y0033788D01*
X0301335Y0033813D01*
X0301354Y0033840D01*
X0301370Y0033870D01*
X0301383Y0033901D01*
X0301392Y0033933D01*
X0301398Y0033966D01*
X0301400Y0034000D01*
X0301398Y0034034D01*
X0301392Y0034067D01*
X0301383Y0034099D01*
X0301370Y0034130D01*
X0301354Y0034160D01*
X0301335Y0034187D01*
X0301312Y0034212D01*
X0301287Y0034235D01*
X0301260Y0034254D01*
X0301230Y0034270D01*
X0301199Y0034283D01*
X0301167Y0034292D01*
X0301134Y0034298D01*
X0301100Y0034300D01*
X0282700Y0031700D02*
X0282666Y0031698D01*
X0282633Y0031692D01*
X0282601Y0031683D01*
X0282570Y0031670D01*
X0282540Y0031654D01*
X0282513Y0031635D01*
X0282488Y0031612D01*
X0282465Y0031587D01*
X0282446Y0031560D01*
X0282430Y0031530D01*
X0282417Y0031499D01*
X0282408Y0031467D01*
X0282402Y0031434D01*
X0282400Y0031400D01*
X0282402Y0031366D01*
X0282408Y0031333D01*
X0282417Y0031301D01*
X0282430Y0031270D01*
X0282446Y0031240D01*
X0282465Y0031213D01*
X0282488Y0031188D01*
X0282513Y0031165D01*
X0282540Y0031146D01*
X0282570Y0031130D01*
X0282601Y0031117D01*
X0282633Y0031108D01*
X0282666Y0031102D01*
X0282700Y0031100D01*
X0282734Y0031102D01*
X0282767Y0031108D01*
X0282799Y0031117D01*
X0282830Y0031130D01*
X0282860Y0031146D01*
X0282887Y0031165D01*
X0282912Y0031188D01*
X0282935Y0031213D01*
X0282954Y0031240D01*
X0282970Y0031270D01*
X0282983Y0031301D01*
X0282992Y0031333D01*
X0282998Y0031366D01*
X0283000Y0031400D01*
X0282998Y0031434D01*
X0282992Y0031467D01*
X0282983Y0031499D01*
X0282970Y0031530D01*
X0282954Y0031560D01*
X0282935Y0031587D01*
X0282912Y0031612D01*
X0282887Y0031635D01*
X0282860Y0031654D01*
X0282830Y0031670D01*
X0282799Y0031683D01*
X0282767Y0031692D01*
X0282734Y0031698D01*
X0282700Y0031700D01*
X0276900Y0033700D02*
X0276866Y0033702D01*
X0276833Y0033708D01*
X0276801Y0033717D01*
X0276770Y0033730D01*
X0276740Y0033746D01*
X0276713Y0033765D01*
X0276688Y0033788D01*
X0276665Y0033813D01*
X0276646Y0033840D01*
X0276630Y0033870D01*
X0276617Y0033901D01*
X0276608Y0033933D01*
X0276602Y0033966D01*
X0276600Y0034000D01*
X0276602Y0034034D01*
X0276608Y0034067D01*
X0276617Y0034099D01*
X0276630Y0034130D01*
X0276646Y0034160D01*
X0276665Y0034187D01*
X0276688Y0034212D01*
X0276713Y0034235D01*
X0276740Y0034254D01*
X0276770Y0034270D01*
X0276801Y0034283D01*
X0276833Y0034292D01*
X0276866Y0034298D01*
X0276900Y0034300D01*
X0276934Y0034298D01*
X0276967Y0034292D01*
X0276999Y0034283D01*
X0277030Y0034270D01*
X0277060Y0034254D01*
X0277087Y0034235D01*
X0277112Y0034212D01*
X0277135Y0034187D01*
X0277154Y0034160D01*
X0277170Y0034130D01*
X0277183Y0034099D01*
X0277192Y0034067D01*
X0277198Y0034034D01*
X0277200Y0034000D01*
X0277198Y0033966D01*
X0277192Y0033933D01*
X0277183Y0033901D01*
X0277170Y0033870D01*
X0277154Y0033840D01*
X0277135Y0033813D01*
X0277112Y0033788D01*
X0277087Y0033765D01*
X0277060Y0033746D01*
X0277030Y0033730D01*
X0276999Y0033717D01*
X0276967Y0033708D01*
X0276934Y0033702D01*
X0276900Y0033700D01*
X0268500Y0034100D02*
X0268466Y0034102D01*
X0268433Y0034108D01*
X0268401Y0034117D01*
X0268370Y0034130D01*
X0268340Y0034146D01*
X0268313Y0034165D01*
X0268288Y0034188D01*
X0268265Y0034213D01*
X0268246Y0034240D01*
X0268230Y0034270D01*
X0268217Y0034301D01*
X0268208Y0034333D01*
X0268202Y0034366D01*
X0268200Y0034400D01*
X0268202Y0034434D01*
X0268208Y0034467D01*
X0268217Y0034499D01*
X0268230Y0034530D01*
X0268246Y0034560D01*
X0268265Y0034587D01*
X0268288Y0034612D01*
X0268313Y0034635D01*
X0268340Y0034654D01*
X0268370Y0034670D01*
X0268401Y0034683D01*
X0268433Y0034692D01*
X0268466Y0034698D01*
X0268500Y0034700D01*
X0268534Y0034698D01*
X0268567Y0034692D01*
X0268599Y0034683D01*
X0268630Y0034670D01*
X0268660Y0034654D01*
X0268687Y0034635D01*
X0268712Y0034612D01*
X0268735Y0034587D01*
X0268754Y0034560D01*
X0268770Y0034530D01*
X0268783Y0034499D01*
X0268792Y0034467D01*
X0268798Y0034434D01*
X0268800Y0034400D01*
X0268798Y0034366D01*
X0268792Y0034333D01*
X0268783Y0034301D01*
X0268770Y0034270D01*
X0268754Y0034240D01*
X0268735Y0034213D01*
X0268712Y0034188D01*
X0268687Y0034165D01*
X0268660Y0034146D01*
X0268630Y0034130D01*
X0268599Y0034117D01*
X0268567Y0034108D01*
X0268534Y0034102D01*
X0268500Y0034100D01*
X0268741Y0047083D02*
X0268741Y0048583D01*
X0268741Y0047083D02*
X0270241Y0047083D01*
X0263900Y0051300D02*
X0263866Y0051302D01*
X0263833Y0051308D01*
X0263801Y0051317D01*
X0263770Y0051330D01*
X0263740Y0051346D01*
X0263713Y0051365D01*
X0263688Y0051388D01*
X0263665Y0051413D01*
X0263646Y0051440D01*
X0263630Y0051470D01*
X0263617Y0051501D01*
X0263608Y0051533D01*
X0263602Y0051566D01*
X0263600Y0051600D01*
X0263602Y0051634D01*
X0263608Y0051667D01*
X0263617Y0051699D01*
X0263630Y0051730D01*
X0263646Y0051760D01*
X0263665Y0051787D01*
X0263688Y0051812D01*
X0263713Y0051835D01*
X0263740Y0051854D01*
X0263770Y0051870D01*
X0263801Y0051883D01*
X0263833Y0051892D01*
X0263866Y0051898D01*
X0263900Y0051900D01*
X0263934Y0051898D01*
X0263967Y0051892D01*
X0263999Y0051883D01*
X0264030Y0051870D01*
X0264060Y0051854D01*
X0264087Y0051835D01*
X0264112Y0051812D01*
X0264135Y0051787D01*
X0264154Y0051760D01*
X0264170Y0051730D01*
X0264183Y0051699D01*
X0264192Y0051667D01*
X0264198Y0051634D01*
X0264200Y0051600D01*
X0264198Y0051566D01*
X0264192Y0051533D01*
X0264183Y0051501D01*
X0264170Y0051470D01*
X0264154Y0051440D01*
X0264135Y0051413D01*
X0264112Y0051388D01*
X0264087Y0051365D01*
X0264060Y0051346D01*
X0264030Y0051330D01*
X0263999Y0051317D01*
X0263967Y0051308D01*
X0263934Y0051302D01*
X0263900Y0051300D01*
X0264100Y0066900D02*
X0264066Y0066902D01*
X0264033Y0066908D01*
X0264001Y0066917D01*
X0263970Y0066930D01*
X0263940Y0066946D01*
X0263913Y0066965D01*
X0263888Y0066988D01*
X0263865Y0067013D01*
X0263846Y0067040D01*
X0263830Y0067070D01*
X0263817Y0067101D01*
X0263808Y0067133D01*
X0263802Y0067166D01*
X0263800Y0067200D01*
X0263802Y0067234D01*
X0263808Y0067267D01*
X0263817Y0067299D01*
X0263830Y0067330D01*
X0263846Y0067360D01*
X0263865Y0067387D01*
X0263888Y0067412D01*
X0263913Y0067435D01*
X0263940Y0067454D01*
X0263970Y0067470D01*
X0264001Y0067483D01*
X0264033Y0067492D01*
X0264066Y0067498D01*
X0264100Y0067500D01*
X0264134Y0067498D01*
X0264167Y0067492D01*
X0264199Y0067483D01*
X0264230Y0067470D01*
X0264260Y0067454D01*
X0264287Y0067435D01*
X0264312Y0067412D01*
X0264335Y0067387D01*
X0264354Y0067360D01*
X0264370Y0067330D01*
X0264383Y0067299D01*
X0264392Y0067267D01*
X0264398Y0067234D01*
X0264400Y0067200D01*
X0264398Y0067166D01*
X0264392Y0067133D01*
X0264383Y0067101D01*
X0264370Y0067070D01*
X0264354Y0067040D01*
X0264335Y0067013D01*
X0264312Y0066988D01*
X0264287Y0066965D01*
X0264260Y0066946D01*
X0264230Y0066930D01*
X0264199Y0066917D01*
X0264167Y0066908D01*
X0264134Y0066902D01*
X0264100Y0066900D01*
X0268741Y0081983D02*
X0268741Y0083483D01*
X0270241Y0083483D01*
X0271500Y0087500D02*
X0271502Y0087534D01*
X0271508Y0087567D01*
X0271517Y0087599D01*
X0271530Y0087630D01*
X0271546Y0087660D01*
X0271565Y0087687D01*
X0271588Y0087712D01*
X0271613Y0087735D01*
X0271640Y0087754D01*
X0271670Y0087770D01*
X0271701Y0087783D01*
X0271733Y0087792D01*
X0271766Y0087798D01*
X0271800Y0087800D01*
X0271834Y0087798D01*
X0271867Y0087792D01*
X0271899Y0087783D01*
X0271930Y0087770D01*
X0271960Y0087754D01*
X0271987Y0087735D01*
X0272012Y0087712D01*
X0272035Y0087687D01*
X0272054Y0087660D01*
X0272070Y0087630D01*
X0272083Y0087599D01*
X0272092Y0087567D01*
X0272098Y0087534D01*
X0272100Y0087500D01*
X0272098Y0087466D01*
X0272092Y0087433D01*
X0272083Y0087401D01*
X0272070Y0087370D01*
X0272054Y0087340D01*
X0272035Y0087313D01*
X0272012Y0087288D01*
X0271987Y0087265D01*
X0271960Y0087246D01*
X0271930Y0087230D01*
X0271899Y0087217D01*
X0271867Y0087208D01*
X0271834Y0087202D01*
X0271800Y0087200D01*
X0271766Y0087202D01*
X0271733Y0087208D01*
X0271701Y0087217D01*
X0271670Y0087230D01*
X0271640Y0087246D01*
X0271613Y0087265D01*
X0271588Y0087288D01*
X0271565Y0087313D01*
X0271546Y0087340D01*
X0271530Y0087370D01*
X0271517Y0087401D01*
X0271508Y0087433D01*
X0271502Y0087466D01*
X0271500Y0087500D01*
X0271500Y0092300D02*
X0271502Y0092334D01*
X0271508Y0092367D01*
X0271517Y0092399D01*
X0271530Y0092430D01*
X0271546Y0092460D01*
X0271565Y0092487D01*
X0271588Y0092512D01*
X0271613Y0092535D01*
X0271640Y0092554D01*
X0271670Y0092570D01*
X0271701Y0092583D01*
X0271733Y0092592D01*
X0271766Y0092598D01*
X0271800Y0092600D01*
X0271834Y0092598D01*
X0271867Y0092592D01*
X0271899Y0092583D01*
X0271930Y0092570D01*
X0271960Y0092554D01*
X0271987Y0092535D01*
X0272012Y0092512D01*
X0272035Y0092487D01*
X0272054Y0092460D01*
X0272070Y0092430D01*
X0272083Y0092399D01*
X0272092Y0092367D01*
X0272098Y0092334D01*
X0272100Y0092300D01*
X0272098Y0092266D01*
X0272092Y0092233D01*
X0272083Y0092201D01*
X0272070Y0092170D01*
X0272054Y0092140D01*
X0272035Y0092113D01*
X0272012Y0092088D01*
X0271987Y0092065D01*
X0271960Y0092046D01*
X0271930Y0092030D01*
X0271899Y0092017D01*
X0271867Y0092008D01*
X0271834Y0092002D01*
X0271800Y0092000D01*
X0271766Y0092002D01*
X0271733Y0092008D01*
X0271701Y0092017D01*
X0271670Y0092030D01*
X0271640Y0092046D01*
X0271613Y0092065D01*
X0271588Y0092088D01*
X0271565Y0092113D01*
X0271546Y0092140D01*
X0271530Y0092170D01*
X0271517Y0092201D01*
X0271508Y0092233D01*
X0271502Y0092266D01*
X0271500Y0092300D01*
X0263100Y0087300D02*
X0263098Y0087334D01*
X0263092Y0087367D01*
X0263083Y0087399D01*
X0263070Y0087430D01*
X0263054Y0087460D01*
X0263035Y0087487D01*
X0263012Y0087512D01*
X0262987Y0087535D01*
X0262960Y0087554D01*
X0262930Y0087570D01*
X0262899Y0087583D01*
X0262867Y0087592D01*
X0262834Y0087598D01*
X0262800Y0087600D01*
X0262766Y0087598D01*
X0262733Y0087592D01*
X0262701Y0087583D01*
X0262670Y0087570D01*
X0262640Y0087554D01*
X0262613Y0087535D01*
X0262588Y0087512D01*
X0262565Y0087487D01*
X0262546Y0087460D01*
X0262530Y0087430D01*
X0262517Y0087399D01*
X0262508Y0087367D01*
X0262502Y0087334D01*
X0262500Y0087300D01*
X0262502Y0087266D01*
X0262508Y0087233D01*
X0262517Y0087201D01*
X0262530Y0087170D01*
X0262546Y0087140D01*
X0262565Y0087113D01*
X0262588Y0087088D01*
X0262613Y0087065D01*
X0262640Y0087046D01*
X0262670Y0087030D01*
X0262701Y0087017D01*
X0262733Y0087008D01*
X0262766Y0087002D01*
X0262800Y0087000D01*
X0262834Y0087002D01*
X0262867Y0087008D01*
X0262899Y0087017D01*
X0262930Y0087030D01*
X0262960Y0087046D01*
X0262987Y0087065D01*
X0263012Y0087088D01*
X0263035Y0087113D01*
X0263054Y0087140D01*
X0263070Y0087170D01*
X0263083Y0087201D01*
X0263092Y0087233D01*
X0263098Y0087266D01*
X0263100Y0087300D01*
X0260100Y0096900D02*
X0258700Y0096900D01*
X0258700Y0102900D02*
X0260100Y0102900D01*
X0267200Y0099900D02*
X0267202Y0099866D01*
X0267208Y0099833D01*
X0267217Y0099801D01*
X0267230Y0099770D01*
X0267246Y0099740D01*
X0267265Y0099713D01*
X0267288Y0099688D01*
X0267313Y0099665D01*
X0267340Y0099646D01*
X0267370Y0099630D01*
X0267401Y0099617D01*
X0267433Y0099608D01*
X0267466Y0099602D01*
X0267500Y0099600D01*
X0267534Y0099602D01*
X0267567Y0099608D01*
X0267599Y0099617D01*
X0267630Y0099630D01*
X0267660Y0099646D01*
X0267687Y0099665D01*
X0267712Y0099688D01*
X0267735Y0099713D01*
X0267754Y0099740D01*
X0267770Y0099770D01*
X0267783Y0099801D01*
X0267792Y0099833D01*
X0267798Y0099866D01*
X0267800Y0099900D01*
X0267798Y0099934D01*
X0267792Y0099967D01*
X0267783Y0099999D01*
X0267770Y0100030D01*
X0267754Y0100060D01*
X0267735Y0100087D01*
X0267712Y0100112D01*
X0267687Y0100135D01*
X0267660Y0100154D01*
X0267630Y0100170D01*
X0267599Y0100183D01*
X0267567Y0100192D01*
X0267534Y0100198D01*
X0267500Y0100200D01*
X0267466Y0100198D01*
X0267433Y0100192D01*
X0267401Y0100183D01*
X0267370Y0100170D01*
X0267340Y0100154D01*
X0267313Y0100135D01*
X0267288Y0100112D01*
X0267265Y0100087D01*
X0267246Y0100060D01*
X0267230Y0100030D01*
X0267217Y0099999D01*
X0267208Y0099967D01*
X0267202Y0099934D01*
X0267200Y0099900D01*
X0285700Y0096900D02*
X0285734Y0096898D01*
X0285767Y0096892D01*
X0285799Y0096883D01*
X0285830Y0096870D01*
X0285860Y0096854D01*
X0285887Y0096835D01*
X0285912Y0096812D01*
X0285935Y0096787D01*
X0285954Y0096760D01*
X0285970Y0096730D01*
X0285983Y0096699D01*
X0285992Y0096667D01*
X0285998Y0096634D01*
X0286000Y0096600D01*
X0285998Y0096566D01*
X0285992Y0096533D01*
X0285983Y0096501D01*
X0285970Y0096470D01*
X0285954Y0096440D01*
X0285935Y0096413D01*
X0285912Y0096388D01*
X0285887Y0096365D01*
X0285860Y0096346D01*
X0285830Y0096330D01*
X0285799Y0096317D01*
X0285767Y0096308D01*
X0285734Y0096302D01*
X0285700Y0096300D01*
X0285666Y0096302D01*
X0285633Y0096308D01*
X0285601Y0096317D01*
X0285570Y0096330D01*
X0285540Y0096346D01*
X0285513Y0096365D01*
X0285488Y0096388D01*
X0285465Y0096413D01*
X0285446Y0096440D01*
X0285430Y0096470D01*
X0285417Y0096501D01*
X0285408Y0096533D01*
X0285402Y0096566D01*
X0285400Y0096600D01*
X0285402Y0096634D01*
X0285408Y0096667D01*
X0285417Y0096699D01*
X0285430Y0096730D01*
X0285446Y0096760D01*
X0285465Y0096787D01*
X0285488Y0096812D01*
X0285513Y0096835D01*
X0285540Y0096854D01*
X0285570Y0096870D01*
X0285601Y0096883D01*
X0285633Y0096892D01*
X0285666Y0096898D01*
X0285700Y0096900D01*
X0290700Y0097100D02*
X0290734Y0097098D01*
X0290767Y0097092D01*
X0290799Y0097083D01*
X0290830Y0097070D01*
X0290860Y0097054D01*
X0290887Y0097035D01*
X0290912Y0097012D01*
X0290935Y0096987D01*
X0290954Y0096960D01*
X0290970Y0096930D01*
X0290983Y0096899D01*
X0290992Y0096867D01*
X0290998Y0096834D01*
X0291000Y0096800D01*
X0290998Y0096766D01*
X0290992Y0096733D01*
X0290983Y0096701D01*
X0290970Y0096670D01*
X0290954Y0096640D01*
X0290935Y0096613D01*
X0290912Y0096588D01*
X0290887Y0096565D01*
X0290860Y0096546D01*
X0290830Y0096530D01*
X0290799Y0096517D01*
X0290767Y0096508D01*
X0290734Y0096502D01*
X0290700Y0096500D01*
X0290666Y0096502D01*
X0290633Y0096508D01*
X0290601Y0096517D01*
X0290570Y0096530D01*
X0290540Y0096546D01*
X0290513Y0096565D01*
X0290488Y0096588D01*
X0290465Y0096613D01*
X0290446Y0096640D01*
X0290430Y0096670D01*
X0290417Y0096701D01*
X0290408Y0096733D01*
X0290402Y0096766D01*
X0290400Y0096800D01*
X0290402Y0096834D01*
X0290408Y0096867D01*
X0290417Y0096899D01*
X0290430Y0096930D01*
X0290446Y0096960D01*
X0290465Y0096987D01*
X0290488Y0097012D01*
X0290513Y0097035D01*
X0290540Y0097054D01*
X0290570Y0097070D01*
X0290601Y0097083D01*
X0290633Y0097092D01*
X0290666Y0097098D01*
X0290700Y0097100D01*
X0305500Y0095300D02*
X0305534Y0095298D01*
X0305567Y0095292D01*
X0305599Y0095283D01*
X0305630Y0095270D01*
X0305660Y0095254D01*
X0305687Y0095235D01*
X0305712Y0095212D01*
X0305735Y0095187D01*
X0305754Y0095160D01*
X0305770Y0095130D01*
X0305783Y0095099D01*
X0305792Y0095067D01*
X0305798Y0095034D01*
X0305800Y0095000D01*
X0305798Y0094966D01*
X0305792Y0094933D01*
X0305783Y0094901D01*
X0305770Y0094870D01*
X0305754Y0094840D01*
X0305735Y0094813D01*
X0305712Y0094788D01*
X0305687Y0094765D01*
X0305660Y0094746D01*
X0305630Y0094730D01*
X0305599Y0094717D01*
X0305567Y0094708D01*
X0305534Y0094702D01*
X0305500Y0094700D01*
X0305466Y0094702D01*
X0305433Y0094708D01*
X0305401Y0094717D01*
X0305370Y0094730D01*
X0305340Y0094746D01*
X0305313Y0094765D01*
X0305288Y0094788D01*
X0305265Y0094813D01*
X0305246Y0094840D01*
X0305230Y0094870D01*
X0305217Y0094901D01*
X0305208Y0094933D01*
X0305202Y0094966D01*
X0305200Y0095000D01*
X0305202Y0095034D01*
X0305208Y0095067D01*
X0305217Y0095099D01*
X0305230Y0095130D01*
X0305246Y0095160D01*
X0305265Y0095187D01*
X0305288Y0095212D01*
X0305313Y0095235D01*
X0305340Y0095254D01*
X0305370Y0095270D01*
X0305401Y0095283D01*
X0305433Y0095292D01*
X0305466Y0095298D01*
X0305500Y0095300D01*
X0305141Y0083483D02*
X0303641Y0083483D01*
X0305141Y0083483D02*
X0305141Y0081983D01*
X0289800Y0123600D02*
X0288400Y0123600D01*
X0288400Y0129600D02*
X0289800Y0129600D01*
X0296900Y0126600D02*
X0296902Y0126566D01*
X0296908Y0126533D01*
X0296917Y0126501D01*
X0296930Y0126470D01*
X0296946Y0126440D01*
X0296965Y0126413D01*
X0296988Y0126388D01*
X0297013Y0126365D01*
X0297040Y0126346D01*
X0297070Y0126330D01*
X0297101Y0126317D01*
X0297133Y0126308D01*
X0297166Y0126302D01*
X0297200Y0126300D01*
X0297234Y0126302D01*
X0297267Y0126308D01*
X0297299Y0126317D01*
X0297330Y0126330D01*
X0297360Y0126346D01*
X0297387Y0126365D01*
X0297412Y0126388D01*
X0297435Y0126413D01*
X0297454Y0126440D01*
X0297470Y0126470D01*
X0297483Y0126501D01*
X0297492Y0126533D01*
X0297498Y0126566D01*
X0297500Y0126600D01*
X0297498Y0126634D01*
X0297492Y0126667D01*
X0297483Y0126699D01*
X0297470Y0126730D01*
X0297454Y0126760D01*
X0297435Y0126787D01*
X0297412Y0126812D01*
X0297387Y0126835D01*
X0297360Y0126854D01*
X0297330Y0126870D01*
X0297299Y0126883D01*
X0297267Y0126892D01*
X0297234Y0126898D01*
X0297200Y0126900D01*
X0297166Y0126898D01*
X0297133Y0126892D01*
X0297101Y0126883D01*
X0297070Y0126870D01*
X0297040Y0126854D01*
X0297013Y0126835D01*
X0296988Y0126812D01*
X0296965Y0126787D01*
X0296946Y0126760D01*
X0296930Y0126730D01*
X0296917Y0126699D01*
X0296908Y0126667D01*
X0296902Y0126634D01*
X0296900Y0126600D01*
X0309000Y0131500D02*
X0309000Y0132900D01*
X0315000Y0132900D02*
X0315000Y0131500D01*
X0312000Y0140000D02*
X0312034Y0140002D01*
X0312067Y0140008D01*
X0312099Y0140017D01*
X0312130Y0140030D01*
X0312160Y0140046D01*
X0312187Y0140065D01*
X0312212Y0140088D01*
X0312235Y0140113D01*
X0312254Y0140140D01*
X0312270Y0140170D01*
X0312283Y0140201D01*
X0312292Y0140233D01*
X0312298Y0140266D01*
X0312300Y0140300D01*
X0312298Y0140334D01*
X0312292Y0140367D01*
X0312283Y0140399D01*
X0312270Y0140430D01*
X0312254Y0140460D01*
X0312235Y0140487D01*
X0312212Y0140512D01*
X0312187Y0140535D01*
X0312160Y0140554D01*
X0312130Y0140570D01*
X0312099Y0140583D01*
X0312067Y0140592D01*
X0312034Y0140598D01*
X0312000Y0140600D01*
X0311966Y0140598D01*
X0311933Y0140592D01*
X0311901Y0140583D01*
X0311870Y0140570D01*
X0311840Y0140554D01*
X0311813Y0140535D01*
X0311788Y0140512D01*
X0311765Y0140487D01*
X0311746Y0140460D01*
X0311730Y0140430D01*
X0311717Y0140399D01*
X0311708Y0140367D01*
X0311702Y0140334D01*
X0311700Y0140300D01*
X0311702Y0140266D01*
X0311708Y0140233D01*
X0311717Y0140201D01*
X0311730Y0140170D01*
X0311746Y0140140D01*
X0311765Y0140113D01*
X0311788Y0140088D01*
X0311813Y0140065D01*
X0311840Y0140046D01*
X0311870Y0140030D01*
X0311901Y0140017D01*
X0311933Y0140008D01*
X0311966Y0140002D01*
X0312000Y0140000D01*
X0239200Y0111200D02*
X0239200Y0103000D01*
X0231000Y0103000D01*
X0231000Y0111200D01*
X0239200Y0111200D01*
X0229800Y0107700D02*
X0229800Y0106300D01*
X0223800Y0106300D02*
X0223800Y0107700D01*
X0226800Y0099200D02*
X0226766Y0099198D01*
X0226733Y0099192D01*
X0226701Y0099183D01*
X0226670Y0099170D01*
X0226640Y0099154D01*
X0226613Y0099135D01*
X0226588Y0099112D01*
X0226565Y0099087D01*
X0226546Y0099060D01*
X0226530Y0099030D01*
X0226517Y0098999D01*
X0226508Y0098967D01*
X0226502Y0098934D01*
X0226500Y0098900D01*
X0226502Y0098866D01*
X0226508Y0098833D01*
X0226517Y0098801D01*
X0226530Y0098770D01*
X0226546Y0098740D01*
X0226565Y0098713D01*
X0226588Y0098688D01*
X0226613Y0098665D01*
X0226640Y0098646D01*
X0226670Y0098630D01*
X0226701Y0098617D01*
X0226733Y0098608D01*
X0226766Y0098602D01*
X0226800Y0098600D01*
X0226834Y0098602D01*
X0226867Y0098608D01*
X0226899Y0098617D01*
X0226930Y0098630D01*
X0226960Y0098646D01*
X0226987Y0098665D01*
X0227012Y0098688D01*
X0227035Y0098713D01*
X0227054Y0098740D01*
X0227070Y0098770D01*
X0227083Y0098801D01*
X0227092Y0098833D01*
X0227098Y0098866D01*
X0227100Y0098900D01*
X0227098Y0098934D01*
X0227092Y0098967D01*
X0227083Y0098999D01*
X0227070Y0099030D01*
X0227054Y0099060D01*
X0227035Y0099087D01*
X0227012Y0099112D01*
X0226987Y0099135D01*
X0226960Y0099154D01*
X0226930Y0099170D01*
X0226899Y0099183D01*
X0226867Y0099192D01*
X0226834Y0099198D01*
X0226800Y0099200D01*
X0194100Y0131100D02*
X0194100Y0138700D01*
X0181300Y0138700D02*
X0181300Y0131100D01*
X0164700Y0116500D02*
X0164734Y0116498D01*
X0164767Y0116492D01*
X0164799Y0116483D01*
X0164830Y0116470D01*
X0164860Y0116454D01*
X0164887Y0116435D01*
X0164912Y0116412D01*
X0164935Y0116387D01*
X0164954Y0116360D01*
X0164970Y0116330D01*
X0164983Y0116299D01*
X0164992Y0116267D01*
X0164998Y0116234D01*
X0165000Y0116200D01*
X0164998Y0116166D01*
X0164992Y0116133D01*
X0164983Y0116101D01*
X0164970Y0116070D01*
X0164954Y0116040D01*
X0164935Y0116013D01*
X0164912Y0115988D01*
X0164887Y0115965D01*
X0164860Y0115946D01*
X0164830Y0115930D01*
X0164799Y0115917D01*
X0164767Y0115908D01*
X0164734Y0115902D01*
X0164700Y0115900D01*
X0164666Y0115902D01*
X0164633Y0115908D01*
X0164601Y0115917D01*
X0164570Y0115930D01*
X0164540Y0115946D01*
X0164513Y0115965D01*
X0164488Y0115988D01*
X0164465Y0116013D01*
X0164446Y0116040D01*
X0164430Y0116070D01*
X0164417Y0116101D01*
X0164408Y0116133D01*
X0164402Y0116166D01*
X0164400Y0116200D01*
X0164402Y0116234D01*
X0164408Y0116267D01*
X0164417Y0116299D01*
X0164430Y0116330D01*
X0164446Y0116360D01*
X0164465Y0116387D01*
X0164488Y0116412D01*
X0164513Y0116435D01*
X0164540Y0116454D01*
X0164570Y0116470D01*
X0164601Y0116483D01*
X0164633Y0116492D01*
X0164666Y0116498D01*
X0164700Y0116500D01*
X0123800Y0079200D02*
X0123800Y0067600D01*
X0103200Y0067600D02*
X0103200Y0079200D01*
X0068100Y0080700D02*
X0068100Y0072700D01*
X0055300Y0072700D02*
X0055300Y0080700D01*
X0038100Y0056700D02*
X0038098Y0056734D01*
X0038092Y0056767D01*
X0038083Y0056799D01*
X0038070Y0056830D01*
X0038054Y0056860D01*
X0038035Y0056887D01*
X0038012Y0056912D01*
X0037987Y0056935D01*
X0037960Y0056954D01*
X0037930Y0056970D01*
X0037899Y0056983D01*
X0037867Y0056992D01*
X0037834Y0056998D01*
X0037800Y0057000D01*
X0037766Y0056998D01*
X0037733Y0056992D01*
X0037701Y0056983D01*
X0037670Y0056970D01*
X0037640Y0056954D01*
X0037613Y0056935D01*
X0037588Y0056912D01*
X0037565Y0056887D01*
X0037546Y0056860D01*
X0037530Y0056830D01*
X0037517Y0056799D01*
X0037508Y0056767D01*
X0037502Y0056734D01*
X0037500Y0056700D01*
X0037502Y0056666D01*
X0037508Y0056633D01*
X0037517Y0056601D01*
X0037530Y0056570D01*
X0037546Y0056540D01*
X0037565Y0056513D01*
X0037588Y0056488D01*
X0037613Y0056465D01*
X0037640Y0056446D01*
X0037670Y0056430D01*
X0037701Y0056417D01*
X0037733Y0056408D01*
X0037766Y0056402D01*
X0037800Y0056400D01*
X0037834Y0056402D01*
X0037867Y0056408D01*
X0037899Y0056417D01*
X0037930Y0056430D01*
X0037960Y0056446D01*
X0037987Y0056465D01*
X0038012Y0056488D01*
X0038035Y0056513D01*
X0038054Y0056540D01*
X0038070Y0056570D01*
X0038083Y0056601D01*
X0038092Y0056633D01*
X0038098Y0056666D01*
X0038100Y0056700D01*
X0039600Y0033500D02*
X0051800Y0033500D01*
X0051800Y0027100D02*
X0039600Y0027100D01*
X0099900Y0035700D02*
X0099934Y0035702D01*
X0099967Y0035708D01*
X0099999Y0035717D01*
X0100030Y0035730D01*
X0100060Y0035746D01*
X0100087Y0035765D01*
X0100112Y0035788D01*
X0100135Y0035813D01*
X0100154Y0035840D01*
X0100170Y0035870D01*
X0100183Y0035901D01*
X0100192Y0035933D01*
X0100198Y0035966D01*
X0100200Y0036000D01*
X0100198Y0036034D01*
X0100192Y0036067D01*
X0100183Y0036099D01*
X0100170Y0036130D01*
X0100154Y0036160D01*
X0100135Y0036187D01*
X0100112Y0036212D01*
X0100087Y0036235D01*
X0100060Y0036254D01*
X0100030Y0036270D01*
X0099999Y0036283D01*
X0099967Y0036292D01*
X0099934Y0036298D01*
X0099900Y0036300D01*
X0099866Y0036298D01*
X0099833Y0036292D01*
X0099801Y0036283D01*
X0099770Y0036270D01*
X0099740Y0036254D01*
X0099713Y0036235D01*
X0099688Y0036212D01*
X0099665Y0036187D01*
X0099646Y0036160D01*
X0099630Y0036130D01*
X0099617Y0036099D01*
X0099608Y0036067D01*
X0099602Y0036034D01*
X0099600Y0036000D01*
X0099602Y0035966D01*
X0099608Y0035933D01*
X0099617Y0035901D01*
X0099630Y0035870D01*
X0099646Y0035840D01*
X0099665Y0035813D01*
X0099688Y0035788D01*
X0099713Y0035765D01*
X0099740Y0035746D01*
X0099770Y0035730D01*
X0099801Y0035717D01*
X0099833Y0035708D01*
X0099866Y0035702D01*
X0099900Y0035700D01*
X0151700Y0026900D02*
X0151702Y0026934D01*
X0151708Y0026967D01*
X0151717Y0026999D01*
X0151730Y0027030D01*
X0151746Y0027060D01*
X0151765Y0027087D01*
X0151788Y0027112D01*
X0151813Y0027135D01*
X0151840Y0027154D01*
X0151870Y0027170D01*
X0151901Y0027183D01*
X0151933Y0027192D01*
X0151966Y0027198D01*
X0152000Y0027200D01*
X0152034Y0027198D01*
X0152067Y0027192D01*
X0152099Y0027183D01*
X0152130Y0027170D01*
X0152160Y0027154D01*
X0152187Y0027135D01*
X0152212Y0027112D01*
X0152235Y0027087D01*
X0152254Y0027060D01*
X0152270Y0027030D01*
X0152283Y0026999D01*
X0152292Y0026967D01*
X0152298Y0026934D01*
X0152300Y0026900D01*
X0152298Y0026866D01*
X0152292Y0026833D01*
X0152283Y0026801D01*
X0152270Y0026770D01*
X0152254Y0026740D01*
X0152235Y0026713D01*
X0152212Y0026688D01*
X0152187Y0026665D01*
X0152160Y0026646D01*
X0152130Y0026630D01*
X0152099Y0026617D01*
X0152067Y0026608D01*
X0152034Y0026602D01*
X0152000Y0026600D01*
X0151966Y0026602D01*
X0151933Y0026608D01*
X0151901Y0026617D01*
X0151870Y0026630D01*
X0151840Y0026646D01*
X0151813Y0026665D01*
X0151788Y0026688D01*
X0151765Y0026713D01*
X0151746Y0026740D01*
X0151730Y0026770D01*
X0151717Y0026801D01*
X0151708Y0026833D01*
X0151702Y0026866D01*
X0151700Y0026900D01*
X0173100Y0026150D02*
X0173134Y0026148D01*
X0173167Y0026142D01*
X0173199Y0026133D01*
X0173230Y0026120D01*
X0173260Y0026104D01*
X0173287Y0026085D01*
X0173312Y0026062D01*
X0173335Y0026037D01*
X0173354Y0026010D01*
X0173370Y0025980D01*
X0173383Y0025949D01*
X0173392Y0025917D01*
X0173398Y0025884D01*
X0173400Y0025850D01*
X0173398Y0025816D01*
X0173392Y0025783D01*
X0173383Y0025751D01*
X0173370Y0025720D01*
X0173354Y0025690D01*
X0173335Y0025663D01*
X0173312Y0025638D01*
X0173287Y0025615D01*
X0173260Y0025596D01*
X0173230Y0025580D01*
X0173199Y0025567D01*
X0173167Y0025558D01*
X0173134Y0025552D01*
X0173100Y0025550D01*
X0173066Y0025552D01*
X0173033Y0025558D01*
X0173001Y0025567D01*
X0172970Y0025580D01*
X0172940Y0025596D01*
X0172913Y0025615D01*
X0172888Y0025638D01*
X0172865Y0025663D01*
X0172846Y0025690D01*
X0172830Y0025720D01*
X0172817Y0025751D01*
X0172808Y0025783D01*
X0172802Y0025816D01*
X0172800Y0025850D01*
X0172802Y0025884D01*
X0172808Y0025917D01*
X0172817Y0025949D01*
X0172830Y0025980D01*
X0172846Y0026010D01*
X0172865Y0026037D01*
X0172888Y0026062D01*
X0172913Y0026085D01*
X0172940Y0026104D01*
X0172970Y0026120D01*
X0173001Y0026133D01*
X0173033Y0026142D01*
X0173066Y0026148D01*
X0173100Y0026150D01*
X0181350Y0009700D02*
X0181352Y0009666D01*
X0181358Y0009633D01*
X0181367Y0009601D01*
X0181380Y0009570D01*
X0181396Y0009540D01*
X0181415Y0009513D01*
X0181438Y0009488D01*
X0181463Y0009465D01*
X0181490Y0009446D01*
X0181520Y0009430D01*
X0181551Y0009417D01*
X0181583Y0009408D01*
X0181616Y0009402D01*
X0181650Y0009400D01*
X0181684Y0009402D01*
X0181717Y0009408D01*
X0181749Y0009417D01*
X0181780Y0009430D01*
X0181810Y0009446D01*
X0181837Y0009465D01*
X0181862Y0009488D01*
X0181885Y0009513D01*
X0181904Y0009540D01*
X0181920Y0009570D01*
X0181933Y0009601D01*
X0181942Y0009633D01*
X0181948Y0009666D01*
X0181950Y0009700D01*
X0181948Y0009734D01*
X0181942Y0009767D01*
X0181933Y0009799D01*
X0181920Y0009830D01*
X0181904Y0009860D01*
X0181885Y0009887D01*
X0181862Y0009912D01*
X0181837Y0009935D01*
X0181810Y0009954D01*
X0181780Y0009970D01*
X0181749Y0009983D01*
X0181717Y0009992D01*
X0181684Y0009998D01*
X0181650Y0010000D01*
X0181616Y0009998D01*
X0181583Y0009992D01*
X0181551Y0009983D01*
X0181520Y0009970D01*
X0181490Y0009954D01*
X0181463Y0009935D01*
X0181438Y0009912D01*
X0181415Y0009887D01*
X0181396Y0009860D01*
X0181380Y0009830D01*
X0181367Y0009799D01*
X0181358Y0009767D01*
X0181352Y0009734D01*
X0181350Y0009700D01*
X0099257Y0109265D02*
X0098190Y0109265D01*
X0099257Y0109265D02*
X0100325Y0110332D01*
X0100325Y0115670D01*
X0096054Y0115670D02*
X0096054Y0112468D01*
X0097122Y0111400D01*
X0100325Y0111400D01*
X0093886Y0115670D02*
X0092818Y0115670D01*
X0090683Y0113535D01*
X0090683Y0111400D02*
X0090683Y0115670D01*
X0088508Y0114603D02*
X0088508Y0113535D01*
X0084238Y0113535D01*
X0084238Y0112468D02*
X0084238Y0114603D01*
X0085305Y0115670D01*
X0087440Y0115670D01*
X0088508Y0114603D01*
X0087440Y0111400D02*
X0085305Y0111400D01*
X0084238Y0112468D01*
X0082076Y0111400D02*
X0081008Y0112468D01*
X0081008Y0116738D01*
X0079941Y0115670D02*
X0082076Y0115670D01*
X0077779Y0115670D02*
X0075644Y0115670D01*
X0076711Y0116738D02*
X0076711Y0112468D01*
X0077779Y0111400D01*
X0073469Y0111400D02*
X0073469Y0114603D01*
X0072401Y0115670D01*
X0070266Y0115670D01*
X0070266Y0113535D02*
X0073469Y0113535D01*
X0073469Y0111400D02*
X0070266Y0111400D01*
X0069198Y0112468D01*
X0070266Y0113535D01*
X0067023Y0113535D02*
X0067023Y0112468D01*
X0065955Y0111400D01*
X0062753Y0111400D01*
X0062753Y0117805D01*
X0065955Y0117805D01*
X0067023Y0116738D01*
X0067023Y0115670D01*
X0065955Y0114603D01*
X0062753Y0114603D01*
X0065955Y0114603D02*
X0067023Y0113535D01*
X0102700Y0134000D02*
X0102700Y0135400D01*
X0108700Y0135400D02*
X0108700Y0134000D01*
X0105700Y0126900D02*
X0105666Y0126898D01*
X0105633Y0126892D01*
X0105601Y0126883D01*
X0105570Y0126870D01*
X0105540Y0126854D01*
X0105513Y0126835D01*
X0105488Y0126812D01*
X0105465Y0126787D01*
X0105446Y0126760D01*
X0105430Y0126730D01*
X0105417Y0126699D01*
X0105408Y0126667D01*
X0105402Y0126634D01*
X0105400Y0126600D01*
X0105402Y0126566D01*
X0105408Y0126533D01*
X0105417Y0126501D01*
X0105430Y0126470D01*
X0105446Y0126440D01*
X0105465Y0126413D01*
X0105488Y0126388D01*
X0105513Y0126365D01*
X0105540Y0126346D01*
X0105570Y0126330D01*
X0105601Y0126317D01*
X0105633Y0126308D01*
X0105666Y0126302D01*
X0105700Y0126300D01*
X0105734Y0126302D01*
X0105767Y0126308D01*
X0105799Y0126317D01*
X0105830Y0126330D01*
X0105860Y0126346D01*
X0105887Y0126365D01*
X0105912Y0126388D01*
X0105935Y0126413D01*
X0105954Y0126440D01*
X0105970Y0126470D01*
X0105983Y0126501D01*
X0105992Y0126533D01*
X0105998Y0126566D01*
X0106000Y0126600D01*
X0105998Y0126634D01*
X0105992Y0126667D01*
X0105983Y0126699D01*
X0105970Y0126730D01*
X0105954Y0126760D01*
X0105935Y0126787D01*
X0105912Y0126812D01*
X0105887Y0126835D01*
X0105860Y0126854D01*
X0105830Y0126870D01*
X0105799Y0126883D01*
X0105767Y0126892D01*
X0105734Y0126898D01*
X0105700Y0126900D01*
X0071500Y0146000D02*
X0071498Y0146034D01*
X0071492Y0146067D01*
X0071483Y0146099D01*
X0071470Y0146130D01*
X0071454Y0146160D01*
X0071435Y0146187D01*
X0071412Y0146212D01*
X0071387Y0146235D01*
X0071360Y0146254D01*
X0071330Y0146270D01*
X0071299Y0146283D01*
X0071267Y0146292D01*
X0071234Y0146298D01*
X0071200Y0146300D01*
X0071166Y0146298D01*
X0071133Y0146292D01*
X0071101Y0146283D01*
X0071070Y0146270D01*
X0071040Y0146254D01*
X0071013Y0146235D01*
X0070988Y0146212D01*
X0070965Y0146187D01*
X0070946Y0146160D01*
X0070930Y0146130D01*
X0070917Y0146099D01*
X0070908Y0146067D01*
X0070902Y0146034D01*
X0070900Y0146000D01*
X0070902Y0145966D01*
X0070908Y0145933D01*
X0070917Y0145901D01*
X0070930Y0145870D01*
X0070946Y0145840D01*
X0070965Y0145813D01*
X0070988Y0145788D01*
X0071013Y0145765D01*
X0071040Y0145746D01*
X0071070Y0145730D01*
X0071101Y0145717D01*
X0071133Y0145708D01*
X0071166Y0145702D01*
X0071200Y0145700D01*
X0071234Y0145702D01*
X0071267Y0145708D01*
X0071299Y0145717D01*
X0071330Y0145730D01*
X0071360Y0145746D01*
X0071387Y0145765D01*
X0071412Y0145788D01*
X0071435Y0145813D01*
X0071454Y0145840D01*
X0071470Y0145870D01*
X0071483Y0145901D01*
X0071492Y0145933D01*
X0071498Y0145966D01*
X0071500Y0146000D01*
X0087500Y0154900D02*
X0087466Y0154902D01*
X0087433Y0154908D01*
X0087401Y0154917D01*
X0087370Y0154930D01*
X0087340Y0154946D01*
X0087313Y0154965D01*
X0087288Y0154988D01*
X0087265Y0155013D01*
X0087246Y0155040D01*
X0087230Y0155070D01*
X0087217Y0155101D01*
X0087208Y0155133D01*
X0087202Y0155166D01*
X0087200Y0155200D01*
X0087202Y0155234D01*
X0087208Y0155267D01*
X0087217Y0155299D01*
X0087230Y0155330D01*
X0087246Y0155360D01*
X0087265Y0155387D01*
X0087288Y0155412D01*
X0087313Y0155435D01*
X0087340Y0155454D01*
X0087370Y0155470D01*
X0087401Y0155483D01*
X0087433Y0155492D01*
X0087466Y0155498D01*
X0087500Y0155500D01*
X0087534Y0155498D01*
X0087567Y0155492D01*
X0087599Y0155483D01*
X0087630Y0155470D01*
X0087660Y0155454D01*
X0087687Y0155435D01*
X0087712Y0155412D01*
X0087735Y0155387D01*
X0087754Y0155360D01*
X0087770Y0155330D01*
X0087783Y0155299D01*
X0087792Y0155267D01*
X0087798Y0155234D01*
X0087800Y0155200D01*
X0087798Y0155166D01*
X0087792Y0155133D01*
X0087783Y0155101D01*
X0087770Y0155070D01*
X0087754Y0155040D01*
X0087735Y0155013D01*
X0087712Y0154988D01*
X0087687Y0154965D01*
X0087660Y0154946D01*
X0087630Y0154930D01*
X0087599Y0154917D01*
X0087567Y0154908D01*
X0087534Y0154902D01*
X0087500Y0154900D01*
X0084500Y0162600D02*
X0084500Y0164000D01*
X0090500Y0164000D02*
X0090500Y0162600D01*
X0077200Y0162200D02*
X0077200Y0161600D01*
X0073000Y0161600D02*
X0073000Y0162200D01*
X0092800Y0180600D02*
X0095300Y0178100D01*
X0100300Y0178100D01*
X0102800Y0180600D01*
X0102800Y0185600D01*
X0100300Y0188100D01*
X0095300Y0188100D01*
X0092800Y0185600D01*
X0092800Y0180600D01*
X0096500Y0178300D02*
X0096534Y0178298D01*
X0096567Y0178292D01*
X0096599Y0178283D01*
X0096630Y0178270D01*
X0096660Y0178254D01*
X0096687Y0178235D01*
X0096712Y0178212D01*
X0096735Y0178187D01*
X0096754Y0178160D01*
X0096770Y0178130D01*
X0096783Y0178099D01*
X0096792Y0178067D01*
X0096798Y0178034D01*
X0096800Y0178000D01*
X0096798Y0177966D01*
X0096792Y0177933D01*
X0096783Y0177901D01*
X0096770Y0177870D01*
X0096754Y0177840D01*
X0096735Y0177813D01*
X0096712Y0177788D01*
X0096687Y0177765D01*
X0096660Y0177746D01*
X0096630Y0177730D01*
X0096599Y0177717D01*
X0096567Y0177708D01*
X0096534Y0177702D01*
X0096500Y0177700D01*
X0096466Y0177702D01*
X0096433Y0177708D01*
X0096401Y0177717D01*
X0096370Y0177730D01*
X0096340Y0177746D01*
X0096313Y0177765D01*
X0096288Y0177788D01*
X0096265Y0177813D01*
X0096246Y0177840D01*
X0096230Y0177870D01*
X0096217Y0177901D01*
X0096208Y0177933D01*
X0096202Y0177966D01*
X0096200Y0178000D01*
X0096202Y0178034D01*
X0096208Y0178067D01*
X0096217Y0178099D01*
X0096230Y0178130D01*
X0096246Y0178160D01*
X0096265Y0178187D01*
X0096288Y0178212D01*
X0096313Y0178235D01*
X0096340Y0178254D01*
X0096370Y0178270D01*
X0096401Y0178283D01*
X0096433Y0178292D01*
X0096466Y0178298D01*
X0096500Y0178300D01*
X0102800Y0180600D02*
X0105300Y0178100D01*
X0110300Y0178100D01*
X0112800Y0180600D01*
X0112800Y0185600D01*
X0110300Y0188100D01*
X0105300Y0188100D01*
X0102800Y0185600D01*
X0112800Y0185600D02*
X0115300Y0188100D01*
X0120300Y0188100D01*
X0122800Y0185600D01*
X0122800Y0180600D01*
X0120300Y0178100D01*
X0115300Y0178100D01*
X0112800Y0180600D01*
X0106900Y0176200D02*
X0106934Y0176198D01*
X0106967Y0176192D01*
X0106999Y0176183D01*
X0107030Y0176170D01*
X0107060Y0176154D01*
X0107087Y0176135D01*
X0107112Y0176112D01*
X0107135Y0176087D01*
X0107154Y0176060D01*
X0107170Y0176030D01*
X0107183Y0175999D01*
X0107192Y0175967D01*
X0107198Y0175934D01*
X0107200Y0175900D01*
X0107198Y0175866D01*
X0107192Y0175833D01*
X0107183Y0175801D01*
X0107170Y0175770D01*
X0107154Y0175740D01*
X0107135Y0175713D01*
X0107112Y0175688D01*
X0107087Y0175665D01*
X0107060Y0175646D01*
X0107030Y0175630D01*
X0106999Y0175617D01*
X0106967Y0175608D01*
X0106934Y0175602D01*
X0106900Y0175600D01*
X0106866Y0175602D01*
X0106833Y0175608D01*
X0106801Y0175617D01*
X0106770Y0175630D01*
X0106740Y0175646D01*
X0106713Y0175665D01*
X0106688Y0175688D01*
X0106665Y0175713D01*
X0106646Y0175740D01*
X0106630Y0175770D01*
X0106617Y0175801D01*
X0106608Y0175833D01*
X0106602Y0175866D01*
X0106600Y0175900D01*
X0106602Y0175934D01*
X0106608Y0175967D01*
X0106617Y0175999D01*
X0106630Y0176030D01*
X0106646Y0176060D01*
X0106665Y0176087D01*
X0106688Y0176112D01*
X0106713Y0176135D01*
X0106740Y0176154D01*
X0106770Y0176170D01*
X0106801Y0176183D01*
X0106833Y0176192D01*
X0106866Y0176198D01*
X0106900Y0176200D01*
X0129600Y0161700D02*
X0131000Y0161700D01*
X0138100Y0158700D02*
X0138102Y0158666D01*
X0138108Y0158633D01*
X0138117Y0158601D01*
X0138130Y0158570D01*
X0138146Y0158540D01*
X0138165Y0158513D01*
X0138188Y0158488D01*
X0138213Y0158465D01*
X0138240Y0158446D01*
X0138270Y0158430D01*
X0138301Y0158417D01*
X0138333Y0158408D01*
X0138366Y0158402D01*
X0138400Y0158400D01*
X0138434Y0158402D01*
X0138467Y0158408D01*
X0138499Y0158417D01*
X0138530Y0158430D01*
X0138560Y0158446D01*
X0138587Y0158465D01*
X0138612Y0158488D01*
X0138635Y0158513D01*
X0138654Y0158540D01*
X0138670Y0158570D01*
X0138683Y0158601D01*
X0138692Y0158633D01*
X0138698Y0158666D01*
X0138700Y0158700D01*
X0138698Y0158734D01*
X0138692Y0158767D01*
X0138683Y0158799D01*
X0138670Y0158830D01*
X0138654Y0158860D01*
X0138635Y0158887D01*
X0138612Y0158912D01*
X0138587Y0158935D01*
X0138560Y0158954D01*
X0138530Y0158970D01*
X0138499Y0158983D01*
X0138467Y0158992D01*
X0138434Y0158998D01*
X0138400Y0159000D01*
X0138366Y0158998D01*
X0138333Y0158992D01*
X0138301Y0158983D01*
X0138270Y0158970D01*
X0138240Y0158954D01*
X0138213Y0158935D01*
X0138188Y0158912D01*
X0138165Y0158887D01*
X0138146Y0158860D01*
X0138130Y0158830D01*
X0138117Y0158799D01*
X0138108Y0158767D01*
X0138102Y0158734D01*
X0138100Y0158700D01*
X0131000Y0155700D02*
X0129600Y0155700D01*
X0158400Y0159900D02*
X0159800Y0159900D01*
X0159800Y0165900D02*
X0158400Y0165900D01*
X0166900Y0162900D02*
X0166902Y0162866D01*
X0166908Y0162833D01*
X0166917Y0162801D01*
X0166930Y0162770D01*
X0166946Y0162740D01*
X0166965Y0162713D01*
X0166988Y0162688D01*
X0167013Y0162665D01*
X0167040Y0162646D01*
X0167070Y0162630D01*
X0167101Y0162617D01*
X0167133Y0162608D01*
X0167166Y0162602D01*
X0167200Y0162600D01*
X0167234Y0162602D01*
X0167267Y0162608D01*
X0167299Y0162617D01*
X0167330Y0162630D01*
X0167360Y0162646D01*
X0167387Y0162665D01*
X0167412Y0162688D01*
X0167435Y0162713D01*
X0167454Y0162740D01*
X0167470Y0162770D01*
X0167483Y0162801D01*
X0167492Y0162833D01*
X0167498Y0162866D01*
X0167500Y0162900D01*
X0167498Y0162934D01*
X0167492Y0162967D01*
X0167483Y0162999D01*
X0167470Y0163030D01*
X0167454Y0163060D01*
X0167435Y0163087D01*
X0167412Y0163112D01*
X0167387Y0163135D01*
X0167360Y0163154D01*
X0167330Y0163170D01*
X0167299Y0163183D01*
X0167267Y0163192D01*
X0167234Y0163198D01*
X0167200Y0163200D01*
X0167166Y0163198D01*
X0167133Y0163192D01*
X0167101Y0163183D01*
X0167070Y0163170D01*
X0167040Y0163154D01*
X0167013Y0163135D01*
X0166988Y0163112D01*
X0166965Y0163087D01*
X0166946Y0163060D01*
X0166930Y0163030D01*
X0166917Y0162999D01*
X0166908Y0162967D01*
X0166902Y0162934D01*
X0166900Y0162900D01*
X0325300Y0018700D02*
X0325266Y0018698D01*
X0325233Y0018692D01*
X0325201Y0018683D01*
X0325170Y0018670D01*
X0325140Y0018654D01*
X0325113Y0018635D01*
X0325088Y0018612D01*
X0325065Y0018587D01*
X0325046Y0018560D01*
X0325030Y0018530D01*
X0325017Y0018499D01*
X0325008Y0018467D01*
X0325002Y0018434D01*
X0325000Y0018400D01*
X0325002Y0018366D01*
X0325008Y0018333D01*
X0325017Y0018301D01*
X0325030Y0018270D01*
X0325046Y0018240D01*
X0325065Y0018213D01*
X0325088Y0018188D01*
X0325113Y0018165D01*
X0325140Y0018146D01*
X0325170Y0018130D01*
X0325201Y0018117D01*
X0325233Y0018108D01*
X0325266Y0018102D01*
X0325300Y0018100D01*
X0325334Y0018102D01*
X0325367Y0018108D01*
X0325399Y0018117D01*
X0325430Y0018130D01*
X0325460Y0018146D01*
X0325487Y0018165D01*
X0325512Y0018188D01*
X0325535Y0018213D01*
X0325554Y0018240D01*
X0325570Y0018270D01*
X0325583Y0018301D01*
X0325592Y0018333D01*
X0325598Y0018366D01*
X0325600Y0018400D01*
X0325598Y0018434D01*
X0325592Y0018467D01*
X0325583Y0018499D01*
X0325570Y0018530D01*
X0325554Y0018560D01*
X0325535Y0018587D01*
X0325512Y0018612D01*
X0325487Y0018635D01*
X0325460Y0018654D01*
X0325430Y0018670D01*
X0325399Y0018683D01*
X0325367Y0018692D01*
X0325334Y0018698D01*
X0325300Y0018700D01*
D12*
X0312041Y0026700D02*
X0312041Y0029002D01*
X0311274Y0029769D01*
X0308972Y0029769D01*
X0308972Y0026700D01*
X0307437Y0028235D02*
X0307437Y0029002D01*
X0306670Y0029769D01*
X0305135Y0029769D01*
X0304368Y0029002D01*
X0304368Y0027467D01*
X0305135Y0026700D01*
X0306670Y0026700D01*
X0307437Y0028235D02*
X0304368Y0028235D01*
X0302833Y0028235D02*
X0299764Y0028235D01*
X0299764Y0029002D02*
X0299764Y0027467D01*
X0300531Y0026700D01*
X0302066Y0026700D01*
X0302833Y0028235D02*
X0302833Y0029002D01*
X0302066Y0029769D01*
X0300531Y0029769D01*
X0299764Y0029002D01*
X0298229Y0029769D02*
X0297462Y0029769D01*
X0295927Y0028235D01*
X0295927Y0029769D02*
X0295927Y0026700D01*
X0294393Y0026700D02*
X0292091Y0026700D01*
X0291324Y0027467D01*
X0291324Y0029002D01*
X0292091Y0029769D01*
X0294393Y0029769D01*
X0289789Y0029769D02*
X0287487Y0029769D01*
X0286720Y0029002D01*
X0287487Y0028235D01*
X0289022Y0028235D01*
X0289789Y0027467D01*
X0289022Y0026700D01*
X0286720Y0026700D01*
X0285185Y0026700D02*
X0285185Y0029002D01*
X0284418Y0029769D01*
X0282883Y0029769D01*
X0282116Y0029002D01*
X0280581Y0029769D02*
X0278279Y0029769D01*
X0277512Y0029002D01*
X0277512Y0027467D01*
X0278279Y0026700D01*
X0280581Y0026700D01*
X0282116Y0026700D02*
X0282116Y0031304D01*
X0275977Y0029769D02*
X0275977Y0026700D01*
X0273675Y0026700D01*
X0272908Y0027467D01*
X0272908Y0029769D01*
X0271373Y0029002D02*
X0270606Y0029769D01*
X0269071Y0029769D01*
X0268304Y0029002D01*
X0268304Y0027467D01*
X0269071Y0026700D01*
X0270606Y0026700D01*
X0271373Y0027467D01*
X0271373Y0029002D01*
X0266769Y0031304D02*
X0263700Y0031304D01*
X0265235Y0031304D02*
X0265235Y0026700D01*
X0246367Y0027016D02*
X0245500Y0026149D01*
X0243765Y0026149D01*
X0242898Y0027016D01*
X0242898Y0027884D01*
X0243765Y0028751D01*
X0245500Y0028751D01*
X0246367Y0027884D01*
X0246367Y0027016D01*
X0245500Y0028751D02*
X0246367Y0029618D01*
X0246367Y0030486D01*
X0245500Y0031353D01*
X0243765Y0031353D01*
X0242898Y0030486D01*
X0242898Y0029618D01*
X0243765Y0028751D01*
X0241211Y0026149D02*
X0237741Y0026149D01*
X0239476Y0026149D02*
X0239476Y0031353D01*
X0237741Y0029618D01*
X0236055Y0031353D02*
X0236055Y0027016D01*
X0235187Y0026149D01*
X0233452Y0026149D01*
X0232585Y0027016D01*
X0232585Y0031353D01*
X0218511Y0039896D02*
X0218511Y0043366D01*
X0217644Y0045053D02*
X0218511Y0045920D01*
X0218511Y0047655D01*
X0217644Y0048522D01*
X0216776Y0048522D01*
X0215909Y0047655D01*
X0215909Y0045920D01*
X0215041Y0045053D01*
X0214174Y0045053D01*
X0213307Y0045920D01*
X0213307Y0047655D01*
X0214174Y0048522D01*
X0213307Y0050209D02*
X0213307Y0052811D01*
X0214174Y0053679D01*
X0215909Y0053679D01*
X0216776Y0052811D01*
X0216776Y0050209D01*
X0218511Y0050209D02*
X0213307Y0050209D01*
X0213307Y0043366D02*
X0213307Y0039896D01*
X0218511Y0039896D01*
X0215909Y0039896D02*
X0215909Y0041631D01*
X0215909Y0060522D02*
X0215909Y0063991D01*
X0215041Y0070835D02*
X0213307Y0072569D01*
X0218511Y0072569D01*
X0218511Y0070835D02*
X0218511Y0074304D01*
X0218511Y0075991D02*
X0215041Y0079461D01*
X0214174Y0079461D01*
X0213307Y0078593D01*
X0213307Y0076858D01*
X0214174Y0075991D01*
X0218511Y0075991D02*
X0218511Y0079461D01*
X0218511Y0081147D02*
X0213307Y0081147D01*
X0213307Y0084617D01*
X0215909Y0082882D02*
X0215909Y0081147D01*
X0218511Y0081147D02*
X0218511Y0084617D01*
X0252995Y0099229D02*
X0257599Y0099229D01*
X0257599Y0102298D01*
X0257599Y0103833D02*
X0257599Y0106902D01*
X0257599Y0105368D02*
X0252995Y0105368D01*
X0254530Y0103833D01*
X0303763Y0119699D02*
X0306832Y0119699D01*
X0308367Y0120467D02*
X0309134Y0119699D01*
X0310669Y0119699D01*
X0311436Y0120467D01*
X0311436Y0121234D01*
X0310669Y0122001D01*
X0309902Y0122001D01*
X0310669Y0122001D02*
X0311436Y0122768D01*
X0311436Y0123536D01*
X0310669Y0124303D01*
X0309134Y0124303D01*
X0308367Y0123536D01*
X0303763Y0124303D02*
X0303763Y0119699D01*
X0267100Y0151467D02*
X0266333Y0150700D01*
X0267100Y0151467D02*
X0267100Y0152235D01*
X0266333Y0153002D01*
X0262496Y0153002D01*
X0262496Y0152235D02*
X0262496Y0153769D01*
X0264031Y0155304D02*
X0262496Y0156839D01*
X0267100Y0156839D01*
X0267100Y0158373D02*
X0267100Y0155304D01*
X0266333Y0159908D02*
X0263263Y0162977D01*
X0266333Y0162977D01*
X0267100Y0162210D01*
X0267100Y0160675D01*
X0266333Y0159908D01*
X0263263Y0159908D01*
X0262496Y0160675D01*
X0262496Y0162210D01*
X0263263Y0162977D01*
X0258573Y0156104D02*
X0258573Y0155337D01*
X0255504Y0152267D01*
X0255504Y0151500D01*
X0253969Y0152267D02*
X0253969Y0156104D01*
X0255504Y0156104D02*
X0258573Y0156104D01*
X0253969Y0152267D02*
X0253202Y0151500D01*
X0251667Y0151500D01*
X0250900Y0152267D01*
X0250900Y0156104D01*
X0235365Y0146904D02*
X0233831Y0146137D01*
X0232296Y0144602D01*
X0234598Y0144602D01*
X0235365Y0143835D01*
X0235365Y0143067D01*
X0234598Y0142300D01*
X0233063Y0142300D01*
X0232296Y0143067D01*
X0232296Y0144602D01*
X0230761Y0146137D02*
X0230761Y0143067D01*
X0229994Y0142300D01*
X0228459Y0142300D01*
X0227692Y0143067D01*
X0227692Y0146137D01*
X0228459Y0146904D01*
X0229994Y0146904D01*
X0230761Y0146137D01*
X0229227Y0143835D02*
X0230761Y0142300D01*
X0228933Y0149700D02*
X0225863Y0149700D01*
X0225096Y0150467D01*
X0225096Y0152002D01*
X0225863Y0152769D01*
X0228933Y0152769D01*
X0229700Y0152002D01*
X0229700Y0150467D01*
X0228933Y0149700D01*
X0228165Y0151235D02*
X0229700Y0152769D01*
X0228933Y0154304D02*
X0229700Y0155071D01*
X0229700Y0156606D01*
X0228933Y0157373D01*
X0227398Y0157373D01*
X0226631Y0156606D01*
X0226631Y0155839D01*
X0227398Y0154304D01*
X0225096Y0154304D01*
X0225096Y0157373D01*
X0204373Y0154704D02*
X0204373Y0153937D01*
X0201304Y0150867D01*
X0201304Y0150100D01*
X0199002Y0150867D02*
X0199002Y0154704D01*
X0198235Y0154704D02*
X0199769Y0154704D01*
X0201304Y0154704D02*
X0204373Y0154704D01*
X0199002Y0150867D02*
X0198235Y0150100D01*
X0197467Y0150100D01*
X0196700Y0150867D01*
X0131199Y0150335D02*
X0131199Y0148800D01*
X0130432Y0148033D01*
X0128897Y0148033D02*
X0128130Y0149568D01*
X0128130Y0150335D01*
X0128897Y0151102D01*
X0130432Y0151102D01*
X0131199Y0150335D01*
X0128897Y0148033D02*
X0126595Y0148033D01*
X0126595Y0151102D01*
X0131199Y0146498D02*
X0131199Y0143429D01*
X0126595Y0143429D01*
X0126698Y0174601D02*
X0123629Y0174601D01*
X0123629Y0179205D01*
X0128233Y0178437D02*
X0129000Y0179205D01*
X0130535Y0179205D01*
X0131302Y0178437D01*
X0131302Y0177670D01*
X0128233Y0174601D01*
X0131302Y0174601D01*
X0109577Y0189300D02*
X0106508Y0189300D01*
X0109577Y0192369D01*
X0109577Y0193137D01*
X0108810Y0193904D01*
X0107275Y0193904D01*
X0106508Y0193137D01*
X0104973Y0193137D02*
X0104973Y0191602D01*
X0104206Y0190835D01*
X0101904Y0190835D01*
X0101904Y0189300D02*
X0101904Y0193904D01*
X0104206Y0193904D01*
X0104973Y0193137D01*
X0100369Y0193904D02*
X0098835Y0193904D01*
X0099602Y0193904D02*
X0099602Y0190067D01*
X0098835Y0189300D01*
X0098067Y0189300D01*
X0097300Y0190067D01*
X0091800Y0190712D02*
X0088731Y0190712D01*
X0088731Y0191479D01*
X0089498Y0192246D01*
X0088731Y0193014D01*
X0089498Y0193781D01*
X0091800Y0193781D01*
X0091800Y0192246D02*
X0089498Y0192246D01*
X0089498Y0195316D02*
X0089498Y0198385D01*
X0088731Y0198385D02*
X0091800Y0198385D01*
X0088731Y0198385D02*
X0087196Y0196850D01*
X0088731Y0195316D01*
X0091800Y0195316D01*
X0091033Y0189177D02*
X0091800Y0188410D01*
X0091800Y0186875D01*
X0091033Y0186108D01*
X0087963Y0189177D01*
X0091033Y0189177D01*
X0091033Y0186108D02*
X0087963Y0186108D01*
X0087196Y0186875D01*
X0087196Y0188410D01*
X0087963Y0189177D01*
X0087963Y0184573D02*
X0087196Y0183806D01*
X0087196Y0182271D01*
X0087963Y0181504D01*
X0091033Y0181504D01*
X0087963Y0184573D01*
X0091033Y0184573D01*
X0091800Y0183806D01*
X0091800Y0182271D01*
X0091033Y0181504D01*
X0091033Y0179969D02*
X0091800Y0179202D01*
X0091800Y0177667D01*
X0091033Y0176900D01*
X0089498Y0176900D02*
X0088731Y0178435D01*
X0088731Y0179202D01*
X0089498Y0179969D01*
X0091033Y0179969D01*
X0087196Y0179969D02*
X0087196Y0176900D01*
X0089498Y0176900D01*
X0074700Y0181067D02*
X0074700Y0181835D01*
X0073933Y0182602D01*
X0070096Y0182602D01*
X0070096Y0181835D02*
X0070096Y0183369D01*
X0070863Y0184904D02*
X0070096Y0185671D01*
X0070096Y0187206D01*
X0070863Y0187973D01*
X0071631Y0187973D01*
X0072398Y0187206D01*
X0073165Y0187973D01*
X0073933Y0187973D01*
X0074700Y0187206D01*
X0074700Y0185671D01*
X0073933Y0184904D01*
X0072398Y0186439D02*
X0072398Y0187206D01*
X0074700Y0181067D02*
X0073933Y0180300D01*
X0114100Y0191000D02*
X0117169Y0194069D01*
X0117169Y0194837D01*
X0116402Y0195604D01*
X0114867Y0195604D01*
X0114100Y0194837D01*
X0114100Y0191000D02*
X0117169Y0191000D01*
X0118704Y0191000D02*
X0118704Y0194069D01*
X0120239Y0195604D01*
X0121773Y0194069D01*
X0121773Y0191000D01*
X0121773Y0193302D02*
X0118704Y0193302D01*
X0026373Y0136537D02*
X0026373Y0135769D01*
X0025606Y0135002D01*
X0024071Y0135002D01*
X0023304Y0135769D01*
X0023304Y0136537D01*
X0024071Y0137304D01*
X0025606Y0137304D01*
X0026373Y0136537D01*
X0025606Y0135002D02*
X0026373Y0134235D01*
X0026373Y0133467D01*
X0025606Y0132700D01*
X0024071Y0132700D01*
X0023304Y0133467D01*
X0023304Y0134235D01*
X0024071Y0135002D01*
X0021769Y0133467D02*
X0021002Y0132700D01*
X0019467Y0132700D01*
X0018700Y0133467D01*
X0018700Y0137304D01*
X0021769Y0137304D02*
X0021769Y0133467D01*
X0033035Y0127304D02*
X0034569Y0127304D01*
X0033802Y0127304D02*
X0033802Y0123467D01*
X0033035Y0122700D01*
X0032267Y0122700D01*
X0031500Y0123467D01*
X0036104Y0122700D02*
X0039173Y0122700D01*
X0037639Y0122700D02*
X0037639Y0127304D01*
X0036104Y0125769D01*
X0056696Y0108206D02*
X0056696Y0106671D01*
X0057463Y0105904D01*
X0057463Y0104369D02*
X0060533Y0104369D01*
X0061300Y0103602D01*
X0061300Y0102067D01*
X0060533Y0101300D01*
X0057463Y0101300D01*
X0056696Y0102067D01*
X0056696Y0103602D01*
X0057463Y0104369D01*
X0059765Y0102835D02*
X0061300Y0104369D01*
X0061300Y0105904D02*
X0058231Y0108973D01*
X0057463Y0108973D01*
X0056696Y0108206D01*
X0061300Y0108973D02*
X0061300Y0105904D01*
X0066267Y0117700D02*
X0067802Y0117700D01*
X0068569Y0118467D01*
X0068569Y0122304D01*
X0070104Y0120769D02*
X0071639Y0122304D01*
X0071639Y0117700D01*
X0073173Y0117700D02*
X0070104Y0117700D01*
X0066267Y0117700D02*
X0065500Y0118467D01*
X0065500Y0122304D01*
X0074708Y0121537D02*
X0075475Y0122304D01*
X0077010Y0122304D01*
X0077777Y0121537D01*
X0077777Y0120769D01*
X0074708Y0117700D01*
X0077777Y0117700D01*
X0108500Y0106504D02*
X0108500Y0101900D01*
X0108500Y0103435D02*
X0110802Y0103435D01*
X0111569Y0104202D01*
X0111569Y0105737D01*
X0110802Y0106504D01*
X0108500Y0106504D01*
X0113104Y0105737D02*
X0113104Y0102667D01*
X0113871Y0101900D01*
X0115406Y0101900D01*
X0116173Y0102667D01*
X0116173Y0105737D01*
X0115406Y0106504D01*
X0113871Y0106504D01*
X0113104Y0105737D01*
X0117708Y0106504D02*
X0117708Y0101900D01*
X0119242Y0103435D01*
X0120777Y0101900D01*
X0120777Y0106504D01*
X0122312Y0106504D02*
X0122312Y0101900D01*
X0125381Y0101900D01*
X0126916Y0101900D02*
X0126916Y0106504D01*
X0129218Y0106504D01*
X0129985Y0105737D01*
X0129985Y0104202D01*
X0129218Y0103435D01*
X0126916Y0103435D01*
X0128450Y0103435D02*
X0129985Y0101900D01*
X0129682Y0100404D02*
X0128148Y0100404D01*
X0127380Y0099637D01*
X0127380Y0098869D01*
X0128148Y0098102D01*
X0129682Y0098102D01*
X0130450Y0097335D01*
X0130450Y0096567D01*
X0129682Y0095800D01*
X0128148Y0095800D01*
X0127380Y0096567D01*
X0130450Y0099637D02*
X0129682Y0100404D01*
X0131984Y0100404D02*
X0135054Y0100404D01*
X0133519Y0100404D02*
X0133519Y0095800D01*
X0136588Y0095800D02*
X0136588Y0098869D01*
X0138123Y0100404D01*
X0139657Y0098869D01*
X0139657Y0095800D01*
X0139657Y0098102D02*
X0136588Y0098102D01*
X0141192Y0100404D02*
X0144261Y0100404D01*
X0142727Y0100404D02*
X0142727Y0095800D01*
X0145796Y0095800D02*
X0148865Y0098869D01*
X0148865Y0099637D01*
X0148098Y0100404D01*
X0146563Y0100404D01*
X0145796Y0099637D01*
X0145796Y0095800D02*
X0148865Y0095800D01*
X0149296Y0092350D02*
X0153900Y0092350D01*
X0153900Y0090816D02*
X0153900Y0093885D01*
X0150831Y0090816D02*
X0149296Y0092350D01*
X0149296Y0089281D02*
X0149296Y0086212D01*
X0149296Y0087746D02*
X0153900Y0087746D01*
X0153900Y0084677D02*
X0150831Y0084677D01*
X0149296Y0083142D01*
X0150831Y0081608D01*
X0153900Y0081608D01*
X0151598Y0081608D02*
X0151598Y0084677D01*
X0149296Y0080073D02*
X0149296Y0077004D01*
X0149296Y0078539D02*
X0153900Y0078539D01*
X0153133Y0075469D02*
X0153900Y0074702D01*
X0153900Y0073167D01*
X0153133Y0072400D01*
X0151598Y0073167D02*
X0151598Y0074702D01*
X0152365Y0075469D01*
X0153133Y0075469D01*
X0151598Y0073167D02*
X0150831Y0072400D01*
X0150063Y0072400D01*
X0149296Y0073167D01*
X0149296Y0074702D01*
X0150063Y0075469D01*
X0143410Y0072769D02*
X0142642Y0072769D01*
X0141108Y0071235D01*
X0141108Y0072769D02*
X0141108Y0069700D01*
X0139573Y0069700D02*
X0139573Y0072002D01*
X0138806Y0072769D01*
X0137271Y0072769D01*
X0137271Y0071235D02*
X0139573Y0071235D01*
X0139573Y0069700D02*
X0137271Y0069700D01*
X0136504Y0070467D01*
X0137271Y0071235D01*
X0134969Y0071235D02*
X0134969Y0070467D01*
X0134202Y0069700D01*
X0131900Y0069700D01*
X0131900Y0074304D01*
X0134202Y0074304D01*
X0134969Y0073537D01*
X0134969Y0072769D01*
X0134202Y0072002D01*
X0131900Y0072002D01*
X0134202Y0072002D02*
X0134969Y0071235D01*
X0102565Y0064904D02*
X0101031Y0064137D01*
X0099496Y0062602D01*
X0101798Y0062602D01*
X0102565Y0061835D01*
X0102565Y0061067D01*
X0101798Y0060300D01*
X0100263Y0060300D01*
X0099496Y0061067D01*
X0099496Y0062602D01*
X0097961Y0064904D02*
X0096427Y0064904D01*
X0097194Y0064904D02*
X0097194Y0061067D01*
X0096427Y0060300D01*
X0095659Y0060300D01*
X0094892Y0061067D01*
X0074700Y0069667D02*
X0074700Y0071202D01*
X0073933Y0071969D01*
X0070096Y0071969D01*
X0071631Y0073504D02*
X0070096Y0075039D01*
X0074700Y0075039D01*
X0074700Y0076573D02*
X0074700Y0073504D01*
X0074700Y0078108D02*
X0073933Y0078108D01*
X0070863Y0081177D01*
X0070096Y0081177D01*
X0070096Y0078108D01*
X0069467Y0081700D02*
X0068700Y0082467D01*
X0068700Y0085537D01*
X0069467Y0086304D01*
X0071002Y0086304D01*
X0071769Y0085537D01*
X0071769Y0082467D01*
X0071002Y0081700D01*
X0069467Y0081700D01*
X0070235Y0083235D02*
X0071769Y0081700D01*
X0073304Y0081700D02*
X0076373Y0081700D01*
X0074839Y0081700D02*
X0074839Y0086304D01*
X0073304Y0084769D01*
X0074700Y0069667D02*
X0073933Y0068900D01*
X0070096Y0068900D01*
X0035973Y0057002D02*
X0032904Y0057002D01*
X0035206Y0059304D01*
X0035206Y0054700D01*
X0030602Y0055467D02*
X0030602Y0059304D01*
X0029835Y0059304D02*
X0031369Y0059304D01*
X0030602Y0055467D02*
X0029835Y0054700D01*
X0029067Y0054700D01*
X0028300Y0055467D01*
X0021573Y0053137D02*
X0021573Y0052369D01*
X0020806Y0051602D01*
X0019271Y0051602D01*
X0018504Y0052369D01*
X0018504Y0053137D01*
X0019271Y0053904D01*
X0020806Y0053904D01*
X0021573Y0053137D01*
X0020806Y0051602D02*
X0021573Y0050835D01*
X0021573Y0050067D01*
X0020806Y0049300D01*
X0019271Y0049300D01*
X0018504Y0050067D01*
X0018504Y0050835D01*
X0019271Y0051602D01*
X0016969Y0053904D02*
X0015435Y0053904D01*
X0016202Y0053904D02*
X0016202Y0050067D01*
X0015435Y0049300D01*
X0014667Y0049300D01*
X0013900Y0050067D01*
X0041900Y0039704D02*
X0041900Y0035100D01*
X0044202Y0035100D01*
X0044969Y0035867D01*
X0044969Y0038937D01*
X0044202Y0039704D01*
X0041900Y0039704D01*
X0046504Y0037402D02*
X0048806Y0037402D01*
X0049573Y0036635D01*
X0049573Y0035867D01*
X0048806Y0035100D01*
X0047271Y0035100D01*
X0046504Y0035867D01*
X0046504Y0037402D01*
X0048039Y0038937D01*
X0049573Y0039704D01*
X0082100Y0012937D02*
X0082867Y0013704D01*
X0084402Y0013704D01*
X0085169Y0012937D01*
X0084402Y0011402D02*
X0085169Y0010635D01*
X0085169Y0009867D01*
X0084402Y0009100D01*
X0082867Y0009100D01*
X0082100Y0009867D01*
X0082867Y0011402D02*
X0084402Y0011402D01*
X0082867Y0011402D02*
X0082100Y0012169D01*
X0082100Y0012937D01*
X0086704Y0012169D02*
X0086704Y0009867D01*
X0087471Y0009100D01*
X0088239Y0009867D01*
X0089006Y0009100D01*
X0089773Y0009867D01*
X0089773Y0012169D01*
X0091308Y0012169D02*
X0092075Y0012169D01*
X0092075Y0009100D01*
X0091308Y0009100D02*
X0092842Y0009100D01*
X0095144Y0009867D02*
X0095912Y0009100D01*
X0095144Y0009867D02*
X0095144Y0012937D01*
X0094377Y0012169D02*
X0095912Y0012169D01*
X0097446Y0011402D02*
X0097446Y0009867D01*
X0098214Y0009100D01*
X0100516Y0009100D01*
X0102050Y0009100D02*
X0102050Y0013704D01*
X0102818Y0012169D02*
X0102050Y0011402D01*
X0102818Y0012169D02*
X0104352Y0012169D01*
X0105120Y0011402D01*
X0105120Y0009100D01*
X0100516Y0012169D02*
X0098214Y0012169D01*
X0097446Y0011402D01*
X0092075Y0013704D02*
X0092075Y0014471D01*
X0122100Y0009137D02*
X0122100Y0008369D01*
X0122867Y0007602D01*
X0124402Y0007602D01*
X0125169Y0006835D01*
X0125169Y0006067D01*
X0124402Y0005300D01*
X0122867Y0005300D01*
X0122100Y0006067D01*
X0122100Y0009137D02*
X0122867Y0009904D01*
X0124402Y0009904D01*
X0125169Y0009137D01*
X0126704Y0008369D02*
X0129006Y0008369D01*
X0129773Y0007602D01*
X0129773Y0006067D01*
X0129006Y0005300D01*
X0126704Y0005300D01*
X0126704Y0003765D02*
X0126704Y0008369D01*
X0125896Y0010900D02*
X0130500Y0010900D01*
X0130500Y0013969D01*
X0129733Y0015504D02*
X0130500Y0016271D01*
X0130500Y0017806D01*
X0129733Y0018573D01*
X0128965Y0018573D01*
X0128198Y0017806D01*
X0128198Y0016271D01*
X0127431Y0015504D01*
X0126663Y0015504D01*
X0125896Y0016271D01*
X0125896Y0017806D01*
X0126663Y0018573D01*
X0127431Y0020108D02*
X0125896Y0021642D01*
X0130500Y0021642D01*
X0130500Y0020108D02*
X0130500Y0023177D01*
X0132075Y0008369D02*
X0133610Y0008369D01*
X0134377Y0007602D01*
X0134377Y0006835D01*
X0131308Y0006835D01*
X0131308Y0007602D02*
X0132075Y0008369D01*
X0131308Y0007602D02*
X0131308Y0006067D01*
X0132075Y0005300D01*
X0133610Y0005300D01*
X0135912Y0006067D02*
X0136679Y0006835D01*
X0138981Y0006835D01*
X0138981Y0007602D02*
X0138981Y0005300D01*
X0136679Y0005300D01*
X0135912Y0006067D01*
X0136679Y0008369D02*
X0138214Y0008369D01*
X0138981Y0007602D01*
X0140516Y0006835D02*
X0142818Y0008369D01*
X0144352Y0007602D02*
X0145120Y0008369D01*
X0146654Y0008369D01*
X0147422Y0007602D01*
X0147422Y0006835D01*
X0144352Y0006835D01*
X0144352Y0007602D02*
X0144352Y0006067D01*
X0145120Y0005300D01*
X0146654Y0005300D01*
X0148956Y0005300D02*
X0148956Y0008369D01*
X0148956Y0006835D02*
X0150491Y0008369D01*
X0151258Y0008369D01*
X0142818Y0005300D02*
X0140516Y0006835D01*
X0140516Y0005300D02*
X0140516Y0009904D01*
X0123846Y0104202D02*
X0122312Y0104202D01*
X0122312Y0106504D02*
X0125381Y0106504D01*
X0352500Y0134267D02*
X0353267Y0133500D01*
X0354802Y0133500D01*
X0355569Y0134267D01*
X0355569Y0138104D01*
X0357104Y0137337D02*
X0357104Y0136569D01*
X0357871Y0135802D01*
X0360173Y0135802D01*
X0360173Y0137337D02*
X0359406Y0138104D01*
X0357871Y0138104D01*
X0357104Y0137337D01*
X0360173Y0137337D02*
X0360173Y0134267D01*
X0359406Y0133500D01*
X0357871Y0133500D01*
X0357104Y0134267D01*
X0352500Y0134267D02*
X0352500Y0138104D01*
D13*
X0287550Y0142867D02*
X0287550Y0144102D01*
X0286933Y0144719D01*
X0283847Y0144719D01*
X0285081Y0145933D02*
X0283847Y0147168D01*
X0287550Y0147168D01*
X0287550Y0148402D02*
X0287550Y0145933D01*
X0287550Y0142867D02*
X0286933Y0142250D01*
X0283847Y0142250D01*
X0285698Y0149616D02*
X0284464Y0150851D01*
X0283847Y0152085D01*
X0285698Y0151468D02*
X0285698Y0149616D01*
X0286933Y0149616D01*
X0287550Y0150233D01*
X0287550Y0151468D01*
X0286933Y0152085D01*
X0286316Y0152085D01*
X0285698Y0151468D01*
X0301075Y0089233D02*
X0304211Y0086097D01*
X0304211Y0087665D02*
X0301075Y0087665D01*
X0301075Y0086097D02*
X0304211Y0089233D01*
X0302643Y0089233D02*
X0302643Y0086097D01*
X0289295Y0078033D02*
X0285375Y0078033D01*
X0284591Y0077249D01*
X0284591Y0075681D01*
X0285375Y0074897D01*
X0289295Y0074897D01*
X0289295Y0073429D02*
X0286943Y0073429D01*
X0287727Y0071861D01*
X0287727Y0071077D01*
X0286943Y0070293D01*
X0285375Y0070293D01*
X0284591Y0071077D01*
X0284591Y0072645D01*
X0285375Y0073429D01*
X0289295Y0073429D02*
X0289295Y0070293D01*
X0195670Y0139914D02*
X0192534Y0143050D01*
X0192534Y0141482D02*
X0195670Y0141482D01*
X0195670Y0143050D02*
X0192534Y0139914D01*
X0194102Y0139914D02*
X0194102Y0143050D01*
X0127370Y0087150D02*
X0124234Y0084014D01*
X0124234Y0085582D02*
X0127370Y0085582D01*
X0127370Y0084014D02*
X0124234Y0087150D01*
X0125802Y0087150D02*
X0125802Y0084014D01*
X0125764Y0079336D02*
X0125147Y0078718D01*
X0125147Y0077484D01*
X0125764Y0076867D01*
X0125147Y0075652D02*
X0128233Y0075652D01*
X0128850Y0075035D01*
X0128850Y0073801D01*
X0128233Y0073184D01*
X0125147Y0073184D01*
X0128850Y0076867D02*
X0126381Y0079336D01*
X0125764Y0079336D01*
X0128850Y0079336D02*
X0128850Y0076867D01*
X0092536Y0125450D02*
X0090067Y0125450D01*
X0088852Y0125450D02*
X0087618Y0126684D01*
X0088235Y0126684D02*
X0086384Y0126684D01*
X0086384Y0125450D02*
X0086384Y0129153D01*
X0088235Y0129153D01*
X0088852Y0128536D01*
X0088852Y0127302D01*
X0088235Y0126684D01*
X0090067Y0127919D02*
X0091301Y0129153D01*
X0091301Y0125450D01*
X0096767Y0141450D02*
X0098002Y0141450D01*
X0098619Y0142067D01*
X0098619Y0145153D01*
X0099833Y0143919D02*
X0101068Y0145153D01*
X0101068Y0141450D01*
X0102302Y0141450D02*
X0099833Y0141450D01*
X0096767Y0141450D02*
X0096150Y0142067D01*
X0096150Y0145153D01*
X0035486Y0031870D02*
X0032350Y0028734D01*
X0033918Y0028734D02*
X0033918Y0031870D01*
X0032350Y0031870D02*
X0035486Y0028734D01*
X0035486Y0030302D02*
X0032350Y0030302D01*
D14*
X0035200Y0029300D02*
X0035200Y0019300D01*
X0012700Y0019300D01*
X0012700Y0029300D01*
X0012700Y0039300D02*
X0012700Y0049300D01*
X0035200Y0049300D01*
X0035200Y0039300D01*
X0040300Y0052700D02*
X0052300Y0052700D01*
X0052300Y0060700D01*
X0040300Y0060700D01*
X0040300Y0052700D01*
X0069550Y0058754D02*
X0072553Y0058754D01*
X0071051Y0058754D02*
X0071051Y0054250D01*
X0074154Y0054250D02*
X0074154Y0058754D01*
X0076406Y0058754D01*
X0077156Y0058003D01*
X0077156Y0056502D01*
X0076406Y0055751D01*
X0074154Y0055751D01*
X0078758Y0054250D02*
X0081760Y0054250D01*
X0080259Y0054250D02*
X0080259Y0058754D01*
X0078758Y0057253D01*
X0083350Y0058754D02*
X0086353Y0058754D01*
X0084851Y0058754D02*
X0084851Y0054250D01*
X0087954Y0054250D02*
X0087954Y0058754D01*
X0090206Y0058754D01*
X0090956Y0058003D01*
X0090956Y0056502D01*
X0090206Y0055751D01*
X0087954Y0055751D01*
X0092558Y0054250D02*
X0095560Y0057253D01*
X0095560Y0058003D01*
X0094810Y0058754D01*
X0093308Y0058754D01*
X0092558Y0058003D01*
X0092558Y0054250D02*
X0095560Y0054250D01*
X0107300Y0049700D02*
X0107300Y0037700D01*
X0112300Y0037700D01*
X0112300Y0049700D01*
X0107300Y0049700D01*
X0116600Y0053900D02*
X0116600Y0041900D01*
X0121600Y0041900D01*
X0121600Y0053900D01*
X0116600Y0053900D01*
X0125900Y0044700D02*
X0125900Y0032700D01*
X0131900Y0032700D01*
X0131900Y0044700D01*
X0125900Y0044700D01*
X0136700Y0044700D02*
X0136700Y0032700D01*
X0142700Y0032700D01*
X0142700Y0044700D01*
X0136700Y0044700D01*
X0147350Y0037500D02*
X0155350Y0037500D01*
X0155350Y0033500D01*
X0147350Y0033500D01*
X0147350Y0037500D01*
X0154700Y0028900D02*
X0162700Y0028900D01*
X0162700Y0024900D01*
X0154700Y0024900D01*
X0154700Y0028900D01*
X0155576Y0027124D02*
X0150851Y0021612D01*
X0154001Y0023974D02*
X0154001Y0008226D01*
X0166599Y0008226D01*
X0166599Y0023974D01*
X0154001Y0023974D01*
X0151700Y0028100D02*
X0131700Y0028100D01*
X0131700Y0011100D01*
X0151700Y0011100D01*
X0151700Y0028100D01*
X0162717Y0031798D02*
X0162717Y0038491D01*
X0170100Y0023450D02*
X0170100Y0012450D01*
X0176100Y0012450D01*
X0176100Y0023450D01*
X0170100Y0023450D01*
X0171150Y0011700D02*
X0171150Y0007700D01*
X0179150Y0007700D01*
X0179150Y0011700D01*
X0171150Y0011700D01*
X0151452Y0005076D02*
X0151454Y0005160D01*
X0151460Y0005243D01*
X0151470Y0005327D01*
X0151484Y0005409D01*
X0151502Y0005491D01*
X0151523Y0005572D01*
X0151549Y0005652D01*
X0151578Y0005730D01*
X0151611Y0005808D01*
X0151648Y0005883D01*
X0151688Y0005956D01*
X0151732Y0006028D01*
X0151779Y0006097D01*
X0151829Y0006165D01*
X0151882Y0006229D01*
X0151939Y0006291D01*
X0151998Y0006350D01*
X0152060Y0006407D01*
X0152124Y0006460D01*
X0152192Y0006510D01*
X0152261Y0006557D01*
X0152332Y0006601D01*
X0152406Y0006641D01*
X0152481Y0006678D01*
X0152559Y0006711D01*
X0152637Y0006740D01*
X0152717Y0006766D01*
X0152798Y0006787D01*
X0152880Y0006805D01*
X0152962Y0006819D01*
X0153046Y0006829D01*
X0153129Y0006835D01*
X0153213Y0006837D01*
X0153297Y0006835D01*
X0153380Y0006829D01*
X0153464Y0006819D01*
X0153546Y0006805D01*
X0153628Y0006787D01*
X0153709Y0006766D01*
X0153789Y0006740D01*
X0153867Y0006711D01*
X0153945Y0006678D01*
X0154020Y0006641D01*
X0154093Y0006601D01*
X0154165Y0006557D01*
X0154234Y0006510D01*
X0154302Y0006460D01*
X0154366Y0006407D01*
X0154428Y0006350D01*
X0154487Y0006291D01*
X0154544Y0006229D01*
X0154597Y0006165D01*
X0154647Y0006097D01*
X0154694Y0006028D01*
X0154738Y0005957D01*
X0154778Y0005883D01*
X0154815Y0005808D01*
X0154848Y0005730D01*
X0154877Y0005652D01*
X0154903Y0005572D01*
X0154924Y0005491D01*
X0154942Y0005409D01*
X0154956Y0005327D01*
X0154966Y0005243D01*
X0154972Y0005160D01*
X0154974Y0005076D01*
X0154972Y0004992D01*
X0154966Y0004909D01*
X0154956Y0004825D01*
X0154942Y0004743D01*
X0154924Y0004661D01*
X0154903Y0004580D01*
X0154877Y0004500D01*
X0154848Y0004422D01*
X0154815Y0004344D01*
X0154778Y0004269D01*
X0154738Y0004196D01*
X0154694Y0004124D01*
X0154647Y0004055D01*
X0154597Y0003987D01*
X0154544Y0003923D01*
X0154487Y0003861D01*
X0154428Y0003802D01*
X0154366Y0003745D01*
X0154302Y0003692D01*
X0154234Y0003642D01*
X0154165Y0003595D01*
X0154094Y0003551D01*
X0154020Y0003511D01*
X0153945Y0003474D01*
X0153867Y0003441D01*
X0153789Y0003412D01*
X0153709Y0003386D01*
X0153628Y0003365D01*
X0153546Y0003347D01*
X0153464Y0003333D01*
X0153380Y0003323D01*
X0153297Y0003317D01*
X0153213Y0003315D01*
X0153129Y0003317D01*
X0153046Y0003323D01*
X0152962Y0003333D01*
X0152880Y0003347D01*
X0152798Y0003365D01*
X0152717Y0003386D01*
X0152637Y0003412D01*
X0152559Y0003441D01*
X0152481Y0003474D01*
X0152406Y0003511D01*
X0152333Y0003551D01*
X0152261Y0003595D01*
X0152192Y0003642D01*
X0152124Y0003692D01*
X0152060Y0003745D01*
X0151998Y0003802D01*
X0151939Y0003861D01*
X0151882Y0003923D01*
X0151829Y0003987D01*
X0151779Y0004055D01*
X0151732Y0004124D01*
X0151688Y0004195D01*
X0151648Y0004269D01*
X0151611Y0004344D01*
X0151578Y0004422D01*
X0151549Y0004500D01*
X0151523Y0004580D01*
X0151502Y0004661D01*
X0151484Y0004743D01*
X0151470Y0004825D01*
X0151460Y0004909D01*
X0151454Y0004992D01*
X0151452Y0005076D01*
X0130650Y0023700D02*
X0122650Y0023700D01*
X0122650Y0027700D01*
X0130650Y0027700D01*
X0130650Y0023700D01*
X0103900Y0021500D02*
X0103900Y0033500D01*
X0095900Y0033500D01*
X0095900Y0021500D01*
X0103900Y0021500D01*
X0084949Y0025601D02*
X0084198Y0024850D01*
X0082697Y0024850D01*
X0081946Y0025601D01*
X0083447Y0027102D02*
X0084198Y0027102D01*
X0084949Y0026351D01*
X0084949Y0025601D01*
X0084198Y0027102D02*
X0084949Y0027853D01*
X0084949Y0028603D01*
X0084198Y0029354D01*
X0082697Y0029354D01*
X0081946Y0028603D01*
X0080345Y0028603D02*
X0080345Y0027102D01*
X0079594Y0026351D01*
X0077342Y0026351D01*
X0077342Y0024850D02*
X0077342Y0029354D01*
X0079594Y0029354D01*
X0080345Y0028603D01*
X0075741Y0029354D02*
X0072738Y0029354D01*
X0074239Y0029354D02*
X0074239Y0024850D01*
X0052700Y0076500D02*
X0046700Y0076500D01*
X0046700Y0088500D01*
X0052700Y0088500D01*
X0052700Y0076500D01*
X0066747Y0087794D02*
X0072653Y0087794D01*
X0072653Y0091731D01*
X0072653Y0095669D02*
X0072653Y0099606D01*
X0066747Y0099606D01*
X0062300Y0101100D02*
X0074300Y0101100D01*
X0074300Y0107100D01*
X0062300Y0107100D01*
X0062300Y0101100D01*
X0060406Y0100453D02*
X0056469Y0100453D01*
X0060406Y0100453D02*
X0060406Y0094547D01*
X0056469Y0094547D02*
X0052531Y0094547D01*
X0048594Y0094547D02*
X0048594Y0100453D01*
X0052531Y0100453D01*
X0047900Y0108900D02*
X0059900Y0108900D01*
X0059900Y0114900D01*
X0047900Y0114900D01*
X0047900Y0108900D01*
X0066747Y0095669D02*
X0066747Y0091731D01*
X0076800Y0088400D02*
X0076800Y0078400D01*
X0099300Y0078400D01*
X0099300Y0088400D01*
X0099300Y0098400D02*
X0099300Y0108400D01*
X0076800Y0108400D01*
X0076800Y0098400D01*
X0104800Y0106900D02*
X0104800Y0118900D01*
X0109800Y0118900D01*
X0109800Y0106900D01*
X0104800Y0106900D01*
X0109900Y0120800D02*
X0109900Y0132800D01*
X0115900Y0132800D01*
X0115900Y0120800D01*
X0109900Y0120800D01*
X0108700Y0129200D02*
X0102700Y0129200D01*
X0102700Y0140200D01*
X0108700Y0140200D01*
X0108700Y0129200D01*
X0097600Y0130300D02*
X0079600Y0130300D01*
X0079600Y0138300D01*
X0097600Y0138300D01*
X0097600Y0130300D01*
X0085700Y0142000D02*
X0085700Y0150000D01*
X0073700Y0150000D01*
X0073700Y0142000D01*
X0085700Y0142000D01*
X0077206Y0135806D02*
X0077206Y0133837D01*
X0077206Y0135806D02*
X0065394Y0135806D01*
X0065394Y0133837D01*
X0059488Y0133837D02*
X0059490Y0133925D01*
X0059496Y0134013D01*
X0059506Y0134101D01*
X0059520Y0134189D01*
X0059537Y0134275D01*
X0059559Y0134361D01*
X0059584Y0134445D01*
X0059614Y0134529D01*
X0059646Y0134611D01*
X0059683Y0134691D01*
X0059723Y0134770D01*
X0059767Y0134847D01*
X0059814Y0134922D01*
X0059864Y0134994D01*
X0059918Y0135065D01*
X0059974Y0135132D01*
X0060034Y0135198D01*
X0060096Y0135260D01*
X0060162Y0135320D01*
X0060229Y0135376D01*
X0060300Y0135430D01*
X0060372Y0135480D01*
X0060447Y0135527D01*
X0060524Y0135571D01*
X0060603Y0135611D01*
X0060683Y0135648D01*
X0060765Y0135680D01*
X0060849Y0135710D01*
X0060933Y0135735D01*
X0061019Y0135757D01*
X0061105Y0135774D01*
X0061193Y0135788D01*
X0061281Y0135798D01*
X0061369Y0135804D01*
X0061457Y0135806D01*
X0061545Y0135804D01*
X0061633Y0135798D01*
X0061721Y0135788D01*
X0061809Y0135774D01*
X0061895Y0135757D01*
X0061981Y0135735D01*
X0062065Y0135710D01*
X0062149Y0135680D01*
X0062231Y0135648D01*
X0062311Y0135611D01*
X0062390Y0135571D01*
X0062467Y0135527D01*
X0062542Y0135480D01*
X0062614Y0135430D01*
X0062685Y0135376D01*
X0062752Y0135320D01*
X0062818Y0135260D01*
X0062880Y0135198D01*
X0062940Y0135132D01*
X0062996Y0135065D01*
X0063050Y0134994D01*
X0063100Y0134922D01*
X0063147Y0134847D01*
X0063191Y0134770D01*
X0063231Y0134691D01*
X0063268Y0134611D01*
X0063300Y0134529D01*
X0063330Y0134445D01*
X0063355Y0134361D01*
X0063377Y0134275D01*
X0063394Y0134189D01*
X0063408Y0134101D01*
X0063418Y0134013D01*
X0063424Y0133925D01*
X0063426Y0133837D01*
X0063424Y0133749D01*
X0063418Y0133661D01*
X0063408Y0133573D01*
X0063394Y0133485D01*
X0063377Y0133399D01*
X0063355Y0133313D01*
X0063330Y0133229D01*
X0063300Y0133145D01*
X0063268Y0133063D01*
X0063231Y0132983D01*
X0063191Y0132904D01*
X0063147Y0132827D01*
X0063100Y0132752D01*
X0063050Y0132680D01*
X0062996Y0132609D01*
X0062940Y0132542D01*
X0062880Y0132476D01*
X0062818Y0132414D01*
X0062752Y0132354D01*
X0062685Y0132298D01*
X0062614Y0132244D01*
X0062542Y0132194D01*
X0062467Y0132147D01*
X0062390Y0132103D01*
X0062311Y0132063D01*
X0062231Y0132026D01*
X0062149Y0131994D01*
X0062065Y0131964D01*
X0061981Y0131939D01*
X0061895Y0131917D01*
X0061809Y0131900D01*
X0061721Y0131886D01*
X0061633Y0131876D01*
X0061545Y0131870D01*
X0061457Y0131868D01*
X0061369Y0131870D01*
X0061281Y0131876D01*
X0061193Y0131886D01*
X0061105Y0131900D01*
X0061019Y0131917D01*
X0060933Y0131939D01*
X0060849Y0131964D01*
X0060765Y0131994D01*
X0060683Y0132026D01*
X0060603Y0132063D01*
X0060524Y0132103D01*
X0060447Y0132147D01*
X0060372Y0132194D01*
X0060300Y0132244D01*
X0060229Y0132298D01*
X0060162Y0132354D01*
X0060096Y0132414D01*
X0060034Y0132476D01*
X0059974Y0132542D01*
X0059918Y0132609D01*
X0059864Y0132680D01*
X0059814Y0132752D01*
X0059767Y0132827D01*
X0059723Y0132904D01*
X0059683Y0132983D01*
X0059646Y0133063D01*
X0059614Y0133145D01*
X0059584Y0133229D01*
X0059559Y0133313D01*
X0059537Y0133399D01*
X0059520Y0133485D01*
X0059506Y0133573D01*
X0059496Y0133661D01*
X0059490Y0133749D01*
X0059488Y0133837D01*
X0051300Y0131900D02*
X0039300Y0131900D01*
X0039300Y0125900D01*
X0051300Y0125900D01*
X0051300Y0131900D01*
X0037200Y0134500D02*
X0037200Y0122500D01*
X0032200Y0122500D01*
X0032200Y0134500D01*
X0037200Y0134500D01*
X0065394Y0125963D02*
X0065394Y0123994D01*
X0077206Y0123994D01*
X0077206Y0125963D01*
X0114588Y0141413D02*
X0125612Y0141413D01*
X0125612Y0155587D01*
X0114588Y0155587D01*
X0114588Y0141413D01*
X0124800Y0155700D02*
X0135800Y0155700D01*
X0135800Y0161700D01*
X0124800Y0161700D01*
X0124800Y0155700D01*
X0119413Y0162588D02*
X0133587Y0162588D01*
X0133587Y0173612D01*
X0119413Y0173612D01*
X0119413Y0162588D01*
X0110400Y0161400D02*
X0110400Y0173400D01*
X0103400Y0173400D01*
X0103400Y0161400D01*
X0110400Y0161400D01*
X0100500Y0163500D02*
X0100500Y0175500D01*
X0092500Y0175500D01*
X0092500Y0163500D01*
X0100500Y0163500D01*
X0090500Y0168800D02*
X0090500Y0157800D01*
X0084500Y0157800D01*
X0084500Y0168800D01*
X0090500Y0168800D01*
X0086150Y0170425D02*
X0086150Y0174175D01*
X0090393Y0157100D02*
X0090395Y0157153D01*
X0090401Y0157205D01*
X0090411Y0157257D01*
X0090424Y0157308D01*
X0090442Y0157358D01*
X0090463Y0157407D01*
X0090488Y0157454D01*
X0090516Y0157498D01*
X0090547Y0157541D01*
X0090582Y0157581D01*
X0090619Y0157618D01*
X0090659Y0157653D01*
X0090702Y0157684D01*
X0090747Y0157712D01*
X0090793Y0157737D01*
X0090842Y0157758D01*
X0090892Y0157776D01*
X0090943Y0157789D01*
X0090995Y0157799D01*
X0091047Y0157805D01*
X0091100Y0157807D01*
X0091153Y0157805D01*
X0091205Y0157799D01*
X0091257Y0157789D01*
X0091308Y0157776D01*
X0091358Y0157758D01*
X0091407Y0157737D01*
X0091454Y0157712D01*
X0091498Y0157684D01*
X0091541Y0157653D01*
X0091581Y0157618D01*
X0091618Y0157581D01*
X0091653Y0157541D01*
X0091684Y0157498D01*
X0091712Y0157453D01*
X0091737Y0157407D01*
X0091758Y0157358D01*
X0091776Y0157308D01*
X0091789Y0157257D01*
X0091799Y0157205D01*
X0091805Y0157153D01*
X0091807Y0157100D01*
X0091805Y0157047D01*
X0091799Y0156995D01*
X0091789Y0156943D01*
X0091776Y0156892D01*
X0091758Y0156842D01*
X0091737Y0156793D01*
X0091712Y0156746D01*
X0091684Y0156702D01*
X0091653Y0156659D01*
X0091618Y0156619D01*
X0091581Y0156582D01*
X0091541Y0156547D01*
X0091498Y0156516D01*
X0091453Y0156488D01*
X0091407Y0156463D01*
X0091358Y0156442D01*
X0091308Y0156424D01*
X0091257Y0156411D01*
X0091205Y0156401D01*
X0091153Y0156395D01*
X0091100Y0156393D01*
X0091047Y0156395D01*
X0090995Y0156401D01*
X0090943Y0156411D01*
X0090892Y0156424D01*
X0090842Y0156442D01*
X0090793Y0156463D01*
X0090746Y0156488D01*
X0090702Y0156516D01*
X0090659Y0156547D01*
X0090619Y0156582D01*
X0090582Y0156619D01*
X0090547Y0156659D01*
X0090516Y0156702D01*
X0090488Y0156747D01*
X0090463Y0156793D01*
X0090442Y0156842D01*
X0090424Y0156892D01*
X0090411Y0156943D01*
X0090401Y0156995D01*
X0090395Y0157047D01*
X0090393Y0157100D01*
X0136626Y0159226D02*
X0136626Y0174974D01*
X0152374Y0174974D01*
X0152374Y0159226D01*
X0136626Y0159226D01*
X0139500Y0155700D02*
X0139500Y0149700D01*
X0151500Y0149700D01*
X0151500Y0155700D01*
X0139500Y0155700D01*
X0152700Y0155900D02*
X0152700Y0149900D01*
X0164700Y0149900D01*
X0164700Y0155900D01*
X0152700Y0155900D01*
X0153600Y0159900D02*
X0164600Y0159900D01*
X0164600Y0165900D01*
X0153600Y0165900D01*
X0153600Y0159900D01*
X0147900Y0179400D02*
X0135900Y0179400D01*
X0135900Y0184400D01*
X0147900Y0184400D01*
X0147900Y0179400D01*
X0109600Y0194900D02*
X0109600Y0200900D01*
X0097600Y0200900D01*
X0097600Y0194900D01*
X0109600Y0194900D01*
X0110100Y0205900D02*
X0076100Y0205900D01*
X0075777Y0205963D02*
X0075777Y0215412D01*
X0076100Y0227900D02*
X0110100Y0227900D01*
X0110423Y0215412D02*
X0110423Y0205963D01*
X0195772Y0203054D02*
X0195772Y0197148D01*
X0195772Y0203054D02*
X0254828Y0203054D01*
X0254828Y0197148D01*
X0254828Y0159746D02*
X0254828Y0157778D01*
X0195772Y0157778D01*
X0195772Y0159746D01*
X0234725Y0157250D02*
X0234725Y0155675D01*
X0234725Y0157250D02*
X0237875Y0157250D01*
X0237875Y0154887D02*
X0237875Y0153313D01*
X0237875Y0150950D02*
X0234725Y0150950D01*
X0234725Y0152525D01*
X0238125Y0149350D02*
X0241275Y0149350D01*
X0241275Y0147775D01*
X0243650Y0148650D02*
X0249950Y0148650D01*
X0249950Y0154950D01*
X0243650Y0154950D01*
X0243650Y0148650D01*
X0241275Y0144625D02*
X0241275Y0143050D01*
X0238125Y0143050D01*
X0238125Y0145413D02*
X0238125Y0146987D01*
X0232400Y0140800D02*
X0232400Y0135800D01*
X0244400Y0135800D01*
X0244400Y0140800D01*
X0232400Y0140800D01*
X0251500Y0137400D02*
X0251500Y0149400D01*
X0257500Y0149400D01*
X0257500Y0137400D01*
X0251500Y0137400D01*
X0250410Y0147863D02*
X0250412Y0147930D01*
X0250418Y0147996D01*
X0250428Y0148062D01*
X0250442Y0148127D01*
X0250459Y0148191D01*
X0250481Y0148254D01*
X0250506Y0148316D01*
X0250535Y0148376D01*
X0250568Y0148434D01*
X0250604Y0148491D01*
X0250643Y0148544D01*
X0250685Y0148596D01*
X0250730Y0148645D01*
X0250779Y0148691D01*
X0250829Y0148734D01*
X0250883Y0148774D01*
X0250938Y0148811D01*
X0250996Y0148844D01*
X0251056Y0148874D01*
X0251117Y0148900D01*
X0251180Y0148922D01*
X0251244Y0148941D01*
X0251309Y0148956D01*
X0251374Y0148967D01*
X0251441Y0148974D01*
X0251507Y0148977D01*
X0251574Y0148976D01*
X0251640Y0148971D01*
X0251706Y0148962D01*
X0251772Y0148949D01*
X0251836Y0148932D01*
X0251900Y0148912D01*
X0251962Y0148887D01*
X0252022Y0148859D01*
X0252081Y0148828D01*
X0252138Y0148793D01*
X0252192Y0148754D01*
X0252244Y0148713D01*
X0252294Y0148668D01*
X0252341Y0148621D01*
X0252384Y0148571D01*
X0252425Y0148518D01*
X0252463Y0148463D01*
X0252497Y0148406D01*
X0252528Y0148346D01*
X0252555Y0148285D01*
X0252578Y0148223D01*
X0252598Y0148159D01*
X0252614Y0148095D01*
X0252626Y0148029D01*
X0252634Y0147963D01*
X0252638Y0147896D01*
X0252638Y0147830D01*
X0252634Y0147763D01*
X0252626Y0147697D01*
X0252614Y0147631D01*
X0252598Y0147567D01*
X0252578Y0147503D01*
X0252555Y0147441D01*
X0252528Y0147380D01*
X0252497Y0147320D01*
X0252463Y0147263D01*
X0252425Y0147208D01*
X0252384Y0147155D01*
X0252341Y0147105D01*
X0252294Y0147058D01*
X0252244Y0147013D01*
X0252192Y0146972D01*
X0252138Y0146933D01*
X0252081Y0146898D01*
X0252022Y0146867D01*
X0251962Y0146839D01*
X0251900Y0146814D01*
X0251836Y0146794D01*
X0251772Y0146777D01*
X0251706Y0146764D01*
X0251640Y0146755D01*
X0251574Y0146750D01*
X0251507Y0146749D01*
X0251441Y0146752D01*
X0251374Y0146759D01*
X0251309Y0146770D01*
X0251244Y0146785D01*
X0251180Y0146804D01*
X0251117Y0146826D01*
X0251056Y0146852D01*
X0250996Y0146882D01*
X0250938Y0146915D01*
X0250883Y0146952D01*
X0250829Y0146992D01*
X0250779Y0147035D01*
X0250730Y0147081D01*
X0250685Y0147130D01*
X0250643Y0147182D01*
X0250604Y0147235D01*
X0250568Y0147292D01*
X0250535Y0147350D01*
X0250506Y0147410D01*
X0250481Y0147472D01*
X0250459Y0147535D01*
X0250442Y0147599D01*
X0250428Y0147664D01*
X0250418Y0147730D01*
X0250412Y0147796D01*
X0250410Y0147863D01*
X0237400Y0124300D02*
X0232400Y0124300D01*
X0232400Y0112300D01*
X0237400Y0112300D01*
X0237400Y0124300D01*
X0229800Y0112500D02*
X0223800Y0112500D01*
X0223800Y0101500D01*
X0229800Y0101500D01*
X0229800Y0112500D01*
X0240988Y0111387D02*
X0240988Y0097213D01*
X0252012Y0097213D01*
X0252012Y0111387D01*
X0240988Y0111387D01*
X0253900Y0102900D02*
X0253900Y0096900D01*
X0264900Y0096900D01*
X0264900Y0102900D01*
X0253900Y0102900D01*
X0257206Y0094790D02*
X0257206Y0031798D01*
X0228465Y0031798D01*
X0261900Y0054300D02*
X0261900Y0062300D01*
X0265900Y0062300D01*
X0265900Y0054300D01*
X0261900Y0054300D01*
X0266500Y0045100D02*
X0266500Y0037100D01*
X0270500Y0037100D01*
X0270500Y0045100D01*
X0266500Y0045100D01*
X0274900Y0044700D02*
X0274900Y0036700D01*
X0278900Y0036700D01*
X0278900Y0044700D01*
X0274900Y0044700D01*
X0279700Y0044800D02*
X0279700Y0033800D01*
X0285700Y0033800D01*
X0285700Y0044800D01*
X0279700Y0044800D01*
X0286333Y0044739D02*
X0286333Y0038739D01*
X0298333Y0038739D01*
X0298333Y0044739D01*
X0286333Y0044739D01*
X0299100Y0044700D02*
X0299100Y0036700D01*
X0303100Y0036700D01*
X0303100Y0044700D01*
X0299100Y0044700D01*
X0304778Y0046194D02*
X0304778Y0040194D01*
X0315778Y0040194D01*
X0315778Y0046194D01*
X0304778Y0046194D01*
X0314900Y0037300D02*
X0314900Y0033300D01*
X0322900Y0033300D01*
X0322900Y0037300D01*
X0314900Y0037300D01*
X0323300Y0029100D02*
X0323300Y0021100D01*
X0327300Y0021100D01*
X0327300Y0029100D01*
X0323300Y0029100D01*
X0325451Y0023612D02*
X0330176Y0029124D01*
X0333050Y0028500D02*
X0341050Y0028500D01*
X0341050Y0032500D01*
X0333050Y0032500D01*
X0333050Y0028500D01*
X0328601Y0025974D02*
X0328601Y0010226D01*
X0341199Y0010226D01*
X0341199Y0025974D01*
X0328601Y0025974D01*
X0342100Y0021650D02*
X0342100Y0032650D01*
X0348100Y0032650D01*
X0348100Y0021650D01*
X0342100Y0021650D01*
X0342750Y0020500D02*
X0342750Y0016500D01*
X0350750Y0016500D01*
X0350750Y0020500D01*
X0342750Y0020500D01*
X0326052Y0007076D02*
X0326054Y0007160D01*
X0326060Y0007243D01*
X0326070Y0007327D01*
X0326084Y0007409D01*
X0326102Y0007491D01*
X0326123Y0007572D01*
X0326149Y0007652D01*
X0326178Y0007730D01*
X0326211Y0007808D01*
X0326248Y0007883D01*
X0326288Y0007956D01*
X0326332Y0008028D01*
X0326379Y0008097D01*
X0326429Y0008165D01*
X0326482Y0008229D01*
X0326539Y0008291D01*
X0326598Y0008350D01*
X0326660Y0008407D01*
X0326724Y0008460D01*
X0326792Y0008510D01*
X0326861Y0008557D01*
X0326932Y0008601D01*
X0327006Y0008641D01*
X0327081Y0008678D01*
X0327159Y0008711D01*
X0327237Y0008740D01*
X0327317Y0008766D01*
X0327398Y0008787D01*
X0327480Y0008805D01*
X0327562Y0008819D01*
X0327646Y0008829D01*
X0327729Y0008835D01*
X0327813Y0008837D01*
X0327897Y0008835D01*
X0327980Y0008829D01*
X0328064Y0008819D01*
X0328146Y0008805D01*
X0328228Y0008787D01*
X0328309Y0008766D01*
X0328389Y0008740D01*
X0328467Y0008711D01*
X0328545Y0008678D01*
X0328620Y0008641D01*
X0328693Y0008601D01*
X0328765Y0008557D01*
X0328834Y0008510D01*
X0328902Y0008460D01*
X0328966Y0008407D01*
X0329028Y0008350D01*
X0329087Y0008291D01*
X0329144Y0008229D01*
X0329197Y0008165D01*
X0329247Y0008097D01*
X0329294Y0008028D01*
X0329338Y0007957D01*
X0329378Y0007883D01*
X0329415Y0007808D01*
X0329448Y0007730D01*
X0329477Y0007652D01*
X0329503Y0007572D01*
X0329524Y0007491D01*
X0329542Y0007409D01*
X0329556Y0007327D01*
X0329566Y0007243D01*
X0329572Y0007160D01*
X0329574Y0007076D01*
X0329572Y0006992D01*
X0329566Y0006909D01*
X0329556Y0006825D01*
X0329542Y0006743D01*
X0329524Y0006661D01*
X0329503Y0006580D01*
X0329477Y0006500D01*
X0329448Y0006422D01*
X0329415Y0006344D01*
X0329378Y0006269D01*
X0329338Y0006196D01*
X0329294Y0006124D01*
X0329247Y0006055D01*
X0329197Y0005987D01*
X0329144Y0005923D01*
X0329087Y0005861D01*
X0329028Y0005802D01*
X0328966Y0005745D01*
X0328902Y0005692D01*
X0328834Y0005642D01*
X0328765Y0005595D01*
X0328694Y0005551D01*
X0328620Y0005511D01*
X0328545Y0005474D01*
X0328467Y0005441D01*
X0328389Y0005412D01*
X0328309Y0005386D01*
X0328228Y0005365D01*
X0328146Y0005347D01*
X0328064Y0005333D01*
X0327980Y0005323D01*
X0327897Y0005317D01*
X0327813Y0005315D01*
X0327729Y0005317D01*
X0327646Y0005323D01*
X0327562Y0005333D01*
X0327480Y0005347D01*
X0327398Y0005365D01*
X0327317Y0005386D01*
X0327237Y0005412D01*
X0327159Y0005441D01*
X0327081Y0005474D01*
X0327006Y0005511D01*
X0326933Y0005551D01*
X0326861Y0005595D01*
X0326792Y0005642D01*
X0326724Y0005692D01*
X0326660Y0005745D01*
X0326598Y0005802D01*
X0326539Y0005861D01*
X0326482Y0005923D01*
X0326429Y0005987D01*
X0326379Y0006055D01*
X0326332Y0006124D01*
X0326288Y0006195D01*
X0326248Y0006269D01*
X0326211Y0006344D01*
X0326178Y0006422D01*
X0326149Y0006500D01*
X0326123Y0006580D01*
X0326102Y0006661D01*
X0326084Y0006743D01*
X0326070Y0006825D01*
X0326060Y0006909D01*
X0326054Y0006992D01*
X0326052Y0007076D01*
X0266100Y0069900D02*
X0262100Y0069900D01*
X0262100Y0077900D01*
X0266100Y0077900D01*
X0266100Y0069900D01*
X0265500Y0085300D02*
X0273500Y0085300D01*
X0273500Y0089300D01*
X0265500Y0089300D01*
X0265500Y0085300D01*
X0274500Y0085500D02*
X0282500Y0085500D01*
X0282500Y0089500D01*
X0274500Y0089500D01*
X0274500Y0085500D01*
X0274500Y0090300D02*
X0282500Y0090300D01*
X0282500Y0094300D01*
X0274500Y0094300D01*
X0274500Y0090300D01*
X0283700Y0093900D02*
X0283700Y0085900D01*
X0287700Y0085900D01*
X0287700Y0093900D01*
X0283700Y0093900D01*
X0288700Y0094100D02*
X0288700Y0086100D01*
X0292700Y0086100D01*
X0292700Y0094100D01*
X0288700Y0094100D01*
X0303500Y0092300D02*
X0303500Y0084300D01*
X0307500Y0084300D01*
X0307500Y0092300D01*
X0303500Y0092300D01*
X0308248Y0095054D02*
X0308248Y0084031D01*
X0312972Y0084031D01*
X0312972Y0095054D01*
X0308248Y0095054D01*
X0326700Y0114900D02*
X0338700Y0114900D01*
X0338700Y0120900D01*
X0326700Y0120900D01*
X0326700Y0114900D01*
X0325700Y0124100D02*
X0331700Y0124100D01*
X0331700Y0136100D01*
X0325700Y0136100D01*
X0325700Y0124100D01*
X0315000Y0126700D02*
X0315000Y0137700D01*
X0309000Y0137700D01*
X0309000Y0126700D01*
X0315000Y0126700D01*
X0308112Y0125013D02*
X0308112Y0139187D01*
X0297088Y0139187D01*
X0297088Y0125013D01*
X0308112Y0125013D01*
X0295073Y0129801D02*
X0295075Y0129868D01*
X0295081Y0129934D01*
X0295091Y0130000D01*
X0295105Y0130065D01*
X0295122Y0130129D01*
X0295144Y0130192D01*
X0295169Y0130254D01*
X0295198Y0130314D01*
X0295231Y0130372D01*
X0295267Y0130429D01*
X0295306Y0130482D01*
X0295348Y0130534D01*
X0295393Y0130583D01*
X0295442Y0130629D01*
X0295492Y0130672D01*
X0295546Y0130712D01*
X0295601Y0130749D01*
X0295659Y0130782D01*
X0295719Y0130812D01*
X0295780Y0130838D01*
X0295843Y0130860D01*
X0295907Y0130879D01*
X0295972Y0130894D01*
X0296037Y0130905D01*
X0296104Y0130912D01*
X0296170Y0130915D01*
X0296237Y0130914D01*
X0296303Y0130909D01*
X0296369Y0130900D01*
X0296435Y0130887D01*
X0296499Y0130870D01*
X0296563Y0130850D01*
X0296625Y0130825D01*
X0296685Y0130797D01*
X0296744Y0130766D01*
X0296801Y0130731D01*
X0296855Y0130692D01*
X0296907Y0130651D01*
X0296957Y0130606D01*
X0297004Y0130559D01*
X0297047Y0130509D01*
X0297088Y0130456D01*
X0297126Y0130401D01*
X0297160Y0130344D01*
X0297191Y0130284D01*
X0297218Y0130223D01*
X0297241Y0130161D01*
X0297261Y0130097D01*
X0297277Y0130033D01*
X0297289Y0129967D01*
X0297297Y0129901D01*
X0297301Y0129834D01*
X0297301Y0129768D01*
X0297297Y0129701D01*
X0297289Y0129635D01*
X0297277Y0129569D01*
X0297261Y0129505D01*
X0297241Y0129441D01*
X0297218Y0129379D01*
X0297191Y0129318D01*
X0297160Y0129258D01*
X0297126Y0129201D01*
X0297088Y0129146D01*
X0297047Y0129093D01*
X0297004Y0129043D01*
X0296957Y0128996D01*
X0296907Y0128951D01*
X0296855Y0128910D01*
X0296801Y0128871D01*
X0296744Y0128836D01*
X0296685Y0128805D01*
X0296625Y0128777D01*
X0296563Y0128752D01*
X0296499Y0128732D01*
X0296435Y0128715D01*
X0296369Y0128702D01*
X0296303Y0128693D01*
X0296237Y0128688D01*
X0296170Y0128687D01*
X0296104Y0128690D01*
X0296037Y0128697D01*
X0295972Y0128708D01*
X0295907Y0128723D01*
X0295843Y0128742D01*
X0295780Y0128764D01*
X0295719Y0128790D01*
X0295659Y0128820D01*
X0295601Y0128853D01*
X0295546Y0128890D01*
X0295492Y0128930D01*
X0295442Y0128973D01*
X0295393Y0129019D01*
X0295348Y0129068D01*
X0295306Y0129120D01*
X0295267Y0129173D01*
X0295231Y0129230D01*
X0295198Y0129288D01*
X0295169Y0129348D01*
X0295144Y0129410D01*
X0295122Y0129473D01*
X0295105Y0129537D01*
X0295091Y0129602D01*
X0295081Y0129668D01*
X0295075Y0129734D01*
X0295073Y0129801D01*
X0294600Y0129600D02*
X0283600Y0129600D01*
X0283600Y0123600D01*
X0294600Y0123600D01*
X0294600Y0129600D01*
X0294100Y0131100D02*
X0294100Y0141100D01*
X0284100Y0141100D01*
X0284100Y0131100D01*
X0294100Y0131100D01*
X0295100Y0140200D02*
X0305100Y0140200D01*
X0305100Y0144200D01*
X0295100Y0144200D01*
X0295100Y0140200D01*
X0239982Y0101600D02*
X0239984Y0101666D01*
X0239990Y0101732D01*
X0240000Y0101798D01*
X0240013Y0101863D01*
X0240031Y0101927D01*
X0240052Y0101989D01*
X0240077Y0102051D01*
X0240105Y0102111D01*
X0240137Y0102169D01*
X0240173Y0102225D01*
X0240211Y0102278D01*
X0240253Y0102330D01*
X0240298Y0102379D01*
X0240345Y0102425D01*
X0240396Y0102468D01*
X0240448Y0102508D01*
X0240503Y0102545D01*
X0240560Y0102579D01*
X0240619Y0102609D01*
X0240680Y0102636D01*
X0240742Y0102659D01*
X0240805Y0102678D01*
X0240870Y0102694D01*
X0240935Y0102706D01*
X0241001Y0102714D01*
X0241067Y0102718D01*
X0241133Y0102718D01*
X0241199Y0102714D01*
X0241265Y0102706D01*
X0241330Y0102694D01*
X0241395Y0102678D01*
X0241458Y0102659D01*
X0241520Y0102636D01*
X0241581Y0102609D01*
X0241640Y0102579D01*
X0241697Y0102545D01*
X0241752Y0102508D01*
X0241804Y0102468D01*
X0241855Y0102425D01*
X0241902Y0102379D01*
X0241947Y0102330D01*
X0241989Y0102278D01*
X0242027Y0102225D01*
X0242063Y0102169D01*
X0242095Y0102111D01*
X0242123Y0102051D01*
X0242148Y0101989D01*
X0242169Y0101927D01*
X0242187Y0101863D01*
X0242200Y0101798D01*
X0242210Y0101732D01*
X0242216Y0101666D01*
X0242218Y0101600D01*
X0242216Y0101534D01*
X0242210Y0101468D01*
X0242200Y0101402D01*
X0242187Y0101337D01*
X0242169Y0101273D01*
X0242148Y0101211D01*
X0242123Y0101149D01*
X0242095Y0101089D01*
X0242063Y0101031D01*
X0242027Y0100975D01*
X0241989Y0100922D01*
X0241947Y0100870D01*
X0241902Y0100821D01*
X0241855Y0100775D01*
X0241804Y0100732D01*
X0241752Y0100692D01*
X0241697Y0100655D01*
X0241640Y0100621D01*
X0241581Y0100591D01*
X0241520Y0100564D01*
X0241458Y0100541D01*
X0241395Y0100522D01*
X0241330Y0100506D01*
X0241265Y0100494D01*
X0241199Y0100486D01*
X0241133Y0100482D01*
X0241067Y0100482D01*
X0241001Y0100486D01*
X0240935Y0100494D01*
X0240870Y0100506D01*
X0240805Y0100522D01*
X0240742Y0100541D01*
X0240680Y0100564D01*
X0240619Y0100591D01*
X0240560Y0100621D01*
X0240503Y0100655D01*
X0240448Y0100692D01*
X0240396Y0100732D01*
X0240345Y0100775D01*
X0240298Y0100821D01*
X0240253Y0100870D01*
X0240211Y0100922D01*
X0240173Y0100975D01*
X0240137Y0101031D01*
X0240105Y0101089D01*
X0240077Y0101149D01*
X0240052Y0101211D01*
X0240031Y0101273D01*
X0240013Y0101337D01*
X0240000Y0101402D01*
X0239990Y0101468D01*
X0239984Y0101534D01*
X0239982Y0101600D01*
X0228465Y0094790D02*
X0257206Y0094790D01*
X0216300Y0110900D02*
X0216300Y0122900D01*
X0210300Y0122900D01*
X0210300Y0110900D01*
X0216300Y0110900D01*
X0168700Y0113700D02*
X0168700Y0101700D01*
X0160700Y0101700D01*
X0160700Y0113700D01*
X0168700Y0113700D01*
X0162717Y0094790D02*
X0162717Y0085735D01*
X0147875Y0086497D02*
X0144125Y0086497D01*
X0132903Y0090725D02*
X0132903Y0094475D01*
X0124050Y0108025D02*
X0124050Y0111775D01*
D15*
X0120031Y0113000D02*
X0118162Y0113000D01*
X0119096Y0113000D02*
X0119096Y0115802D01*
X0118162Y0114868D01*
X0117268Y0115335D02*
X0117268Y0113467D01*
X0116801Y0113000D01*
X0115400Y0113000D01*
X0115400Y0115802D01*
X0116801Y0115802D01*
X0117268Y0115335D01*
X0108800Y0122900D02*
X0105998Y0122900D01*
X0105998Y0124301D01*
X0106465Y0124768D01*
X0107399Y0124768D01*
X0107866Y0124301D01*
X0107866Y0122900D01*
X0107866Y0123834D02*
X0108800Y0124768D01*
X0108800Y0125662D02*
X0106932Y0127531D01*
X0106465Y0127531D01*
X0105998Y0127064D01*
X0105998Y0126129D01*
X0106465Y0125662D01*
X0108800Y0125662D02*
X0108800Y0127531D01*
X0102100Y0131767D02*
X0102100Y0132701D01*
X0101633Y0133168D01*
X0101633Y0134062D02*
X0102100Y0134529D01*
X0102100Y0135464D01*
X0101633Y0135931D01*
X0100699Y0135931D01*
X0100232Y0135464D01*
X0100232Y0134996D01*
X0100699Y0134062D01*
X0099298Y0134062D01*
X0099298Y0135931D01*
X0099765Y0133168D02*
X0099298Y0132701D01*
X0099298Y0131767D01*
X0099765Y0131300D01*
X0101633Y0131300D01*
X0102100Y0131767D01*
X0102332Y0116893D02*
X0101865Y0116893D01*
X0101398Y0116426D01*
X0101398Y0115492D01*
X0101865Y0115025D01*
X0101865Y0114131D02*
X0102332Y0114131D01*
X0102799Y0113664D01*
X0103266Y0114131D01*
X0103733Y0114131D01*
X0104200Y0113664D01*
X0104200Y0112729D01*
X0103733Y0112262D01*
X0104200Y0111368D02*
X0103266Y0110434D01*
X0103266Y0110901D02*
X0103266Y0109500D01*
X0104200Y0109500D02*
X0101398Y0109500D01*
X0101398Y0110901D01*
X0101865Y0111368D01*
X0102799Y0111368D01*
X0103266Y0110901D01*
X0101865Y0112262D02*
X0101398Y0112729D01*
X0101398Y0113664D01*
X0101865Y0114131D01*
X0102799Y0113664D02*
X0102799Y0113196D01*
X0104200Y0115025D02*
X0102332Y0116893D01*
X0104200Y0116893D02*
X0104200Y0115025D01*
X0078431Y0138100D02*
X0076562Y0138100D01*
X0078431Y0139968D01*
X0078431Y0140435D01*
X0077964Y0140902D01*
X0077029Y0140902D01*
X0076562Y0140435D01*
X0075668Y0140435D02*
X0075201Y0140902D01*
X0074267Y0140902D01*
X0073800Y0140435D01*
X0073800Y0138567D01*
X0074267Y0138100D01*
X0075201Y0138100D01*
X0075668Y0138567D01*
X0085567Y0154300D02*
X0086501Y0154300D01*
X0086968Y0154767D01*
X0087862Y0155701D02*
X0089264Y0157102D01*
X0089264Y0154300D01*
X0089731Y0155701D02*
X0087862Y0155701D01*
X0086968Y0156635D02*
X0086501Y0157102D01*
X0085567Y0157102D01*
X0085100Y0156635D01*
X0085100Y0154767D01*
X0085567Y0154300D01*
X0081000Y0158713D02*
X0078198Y0158713D01*
X0078198Y0160114D01*
X0078665Y0160581D01*
X0079599Y0160581D01*
X0080066Y0160114D01*
X0080066Y0158713D01*
X0080066Y0159647D02*
X0081000Y0160581D01*
X0080533Y0161475D02*
X0081000Y0161942D01*
X0081000Y0162876D01*
X0080533Y0163344D01*
X0080066Y0163344D01*
X0079599Y0162876D01*
X0079599Y0162409D01*
X0079599Y0162876D02*
X0079132Y0163344D01*
X0078665Y0163344D01*
X0078198Y0162876D01*
X0078198Y0161942D01*
X0078665Y0161475D01*
X0078665Y0164238D02*
X0078198Y0164705D01*
X0078198Y0165639D01*
X0078665Y0166106D01*
X0079132Y0166106D01*
X0079599Y0165639D01*
X0080066Y0166106D01*
X0080533Y0166106D01*
X0081000Y0165639D01*
X0081000Y0164705D01*
X0080533Y0164238D01*
X0079599Y0165172D02*
X0079599Y0165639D01*
X0088598Y0170542D02*
X0089065Y0170075D01*
X0090933Y0170075D01*
X0091400Y0170542D01*
X0091400Y0171476D01*
X0090933Y0171944D01*
X0091400Y0172838D02*
X0091400Y0174706D01*
X0091400Y0173772D02*
X0088598Y0173772D01*
X0089532Y0172838D01*
X0089065Y0171944D02*
X0088598Y0171476D01*
X0088598Y0170542D01*
X0081664Y0175400D02*
X0081664Y0178202D01*
X0080262Y0176801D01*
X0082131Y0176801D01*
X0079368Y0175867D02*
X0079368Y0177735D01*
X0078901Y0178202D01*
X0077500Y0178202D01*
X0077500Y0175400D01*
X0078901Y0175400D01*
X0079368Y0175867D01*
X0110998Y0170139D02*
X0110998Y0169205D01*
X0111465Y0168738D01*
X0111465Y0167844D02*
X0110998Y0167376D01*
X0110998Y0166442D01*
X0111465Y0165975D01*
X0113333Y0165975D01*
X0113800Y0166442D01*
X0113800Y0167376D01*
X0113333Y0167844D01*
X0113333Y0168738D02*
X0113800Y0169205D01*
X0113800Y0170139D01*
X0113333Y0170606D01*
X0112866Y0170606D01*
X0112399Y0170139D01*
X0112399Y0169672D01*
X0112399Y0170139D02*
X0111932Y0170606D01*
X0111465Y0170606D01*
X0110998Y0170139D01*
X0127013Y0154635D02*
X0127013Y0152767D01*
X0127480Y0152300D01*
X0128414Y0152300D01*
X0128881Y0152767D01*
X0129775Y0152300D02*
X0131644Y0152300D01*
X0130709Y0152300D02*
X0130709Y0155102D01*
X0129775Y0154168D01*
X0128881Y0154635D02*
X0128414Y0155102D01*
X0127480Y0155102D01*
X0127013Y0154635D01*
X0132538Y0153701D02*
X0133939Y0153701D01*
X0134406Y0153234D01*
X0134406Y0152767D01*
X0133939Y0152300D01*
X0133005Y0152300D01*
X0132538Y0152767D01*
X0132538Y0153701D01*
X0133472Y0154635D01*
X0134406Y0155102D01*
X0143075Y0148135D02*
X0143542Y0148602D01*
X0144476Y0148602D01*
X0144944Y0148135D01*
X0145838Y0147201D02*
X0147239Y0147201D01*
X0147706Y0146734D01*
X0147706Y0146267D01*
X0147239Y0145800D01*
X0146305Y0145800D01*
X0145838Y0146267D01*
X0145838Y0147201D01*
X0146772Y0148135D01*
X0147706Y0148602D01*
X0144944Y0146267D02*
X0144476Y0145800D01*
X0143542Y0145800D01*
X0143075Y0146267D01*
X0143075Y0148135D01*
X0156275Y0148335D02*
X0156275Y0146467D01*
X0156742Y0146000D01*
X0157676Y0146000D01*
X0158144Y0146467D01*
X0159038Y0146467D02*
X0159038Y0146000D01*
X0159038Y0146467D02*
X0160906Y0148335D01*
X0160906Y0148802D01*
X0159038Y0148802D01*
X0158144Y0148335D02*
X0157676Y0148802D01*
X0156742Y0148802D01*
X0156275Y0148335D01*
X0157642Y0156500D02*
X0158576Y0156500D01*
X0159044Y0156967D01*
X0159938Y0156967D02*
X0159938Y0157434D01*
X0160405Y0157901D01*
X0161339Y0157901D01*
X0161806Y0157434D01*
X0161806Y0156967D01*
X0161339Y0156500D01*
X0160405Y0156500D01*
X0159938Y0156967D01*
X0160405Y0157901D02*
X0159938Y0158368D01*
X0159938Y0158835D01*
X0160405Y0159302D01*
X0161339Y0159302D01*
X0161806Y0158835D01*
X0161806Y0158368D01*
X0161339Y0157901D01*
X0159044Y0158835D02*
X0158576Y0159302D01*
X0157642Y0159302D01*
X0157175Y0158835D01*
X0157175Y0156967D01*
X0157642Y0156500D01*
X0144139Y0176000D02*
X0143205Y0176000D01*
X0142738Y0176467D01*
X0142738Y0176934D01*
X0143205Y0177401D01*
X0144139Y0177401D01*
X0144606Y0176934D01*
X0144606Y0176467D01*
X0144139Y0176000D01*
X0144139Y0177401D02*
X0144606Y0177868D01*
X0144606Y0178335D01*
X0144139Y0178802D01*
X0143205Y0178802D01*
X0142738Y0178335D01*
X0142738Y0177868D01*
X0143205Y0177401D01*
X0141844Y0177401D02*
X0139975Y0177401D01*
X0141376Y0178802D01*
X0141376Y0176000D01*
X0139081Y0176000D02*
X0138147Y0176934D01*
X0138614Y0176934D02*
X0137213Y0176934D01*
X0137213Y0176000D02*
X0137213Y0178802D01*
X0138614Y0178802D01*
X0139081Y0178335D01*
X0139081Y0177401D01*
X0138614Y0176934D01*
X0107093Y0202000D02*
X0105225Y0202000D01*
X0106159Y0202000D02*
X0106159Y0204802D01*
X0105225Y0203868D01*
X0104331Y0203401D02*
X0102462Y0203401D01*
X0103864Y0204802D01*
X0103864Y0202000D01*
X0101568Y0202000D02*
X0100634Y0202934D01*
X0101101Y0202934D02*
X0099700Y0202934D01*
X0099700Y0202000D02*
X0099700Y0204802D01*
X0101101Y0204802D01*
X0101568Y0204335D01*
X0101568Y0203401D01*
X0101101Y0202934D01*
X0048326Y0135802D02*
X0046925Y0134401D01*
X0048793Y0134401D01*
X0048326Y0133000D02*
X0048326Y0135802D01*
X0046031Y0135335D02*
X0045564Y0135802D01*
X0044629Y0135802D01*
X0044162Y0135335D01*
X0043268Y0135335D02*
X0043268Y0134401D01*
X0042801Y0133934D01*
X0041400Y0133934D01*
X0041400Y0133000D02*
X0041400Y0135802D01*
X0042801Y0135802D01*
X0043268Y0135335D01*
X0042334Y0133934D02*
X0043268Y0133000D01*
X0044162Y0133000D02*
X0046031Y0134868D01*
X0046031Y0135335D01*
X0046031Y0133000D02*
X0044162Y0133000D01*
X0031600Y0132493D02*
X0031600Y0130625D01*
X0029732Y0132493D01*
X0029265Y0132493D01*
X0028798Y0132026D01*
X0028798Y0131092D01*
X0029265Y0130625D01*
X0030199Y0129731D02*
X0030199Y0127862D01*
X0028798Y0129264D01*
X0031600Y0129264D01*
X0031600Y0126968D02*
X0030666Y0126034D01*
X0030666Y0126501D02*
X0030666Y0125100D01*
X0031600Y0125100D02*
X0028798Y0125100D01*
X0028798Y0126501D01*
X0029265Y0126968D01*
X0030199Y0126968D01*
X0030666Y0126501D01*
X0049180Y0107802D02*
X0048713Y0107335D01*
X0048713Y0105467D01*
X0049180Y0105000D01*
X0050114Y0105000D01*
X0050581Y0105467D01*
X0051475Y0105000D02*
X0053344Y0105000D01*
X0054238Y0105000D02*
X0056106Y0106868D01*
X0056106Y0107335D01*
X0055639Y0107802D01*
X0054705Y0107802D01*
X0054238Y0107335D01*
X0052409Y0107802D02*
X0052409Y0105000D01*
X0054238Y0105000D02*
X0056106Y0105000D01*
X0052409Y0107802D02*
X0051475Y0106868D01*
X0050581Y0107335D02*
X0050114Y0107802D01*
X0049180Y0107802D01*
X0064400Y0108200D02*
X0064400Y0111002D01*
X0065801Y0111002D01*
X0066268Y0110535D01*
X0066268Y0109601D01*
X0065801Y0109134D01*
X0064400Y0109134D01*
X0065334Y0109134D02*
X0066268Y0108200D01*
X0067162Y0108667D02*
X0067162Y0109134D01*
X0067629Y0109601D01*
X0068564Y0109601D01*
X0069031Y0109134D01*
X0069031Y0108667D01*
X0068564Y0108200D01*
X0067629Y0108200D01*
X0067162Y0108667D01*
X0067629Y0109601D02*
X0067162Y0110068D01*
X0067162Y0110535D01*
X0067629Y0111002D01*
X0068564Y0111002D01*
X0069031Y0110535D01*
X0069031Y0110068D01*
X0068564Y0109601D01*
X0056133Y0085706D02*
X0056600Y0085239D01*
X0056600Y0084305D01*
X0056133Y0083838D01*
X0054265Y0085706D01*
X0056133Y0085706D01*
X0054265Y0085706D02*
X0053798Y0085239D01*
X0053798Y0084305D01*
X0054265Y0083838D01*
X0056133Y0083838D01*
X0056600Y0082944D02*
X0056600Y0081075D01*
X0056600Y0080181D02*
X0055666Y0079247D01*
X0055666Y0079714D02*
X0055666Y0078313D01*
X0056600Y0078313D02*
X0053798Y0078313D01*
X0053798Y0079714D01*
X0054265Y0080181D01*
X0055199Y0080181D01*
X0055666Y0079714D01*
X0054732Y0081075D02*
X0053798Y0082009D01*
X0056600Y0082009D01*
X0047793Y0051602D02*
X0046859Y0051135D01*
X0045925Y0050201D01*
X0047326Y0050201D01*
X0047793Y0049734D01*
X0047793Y0049267D01*
X0047326Y0048800D01*
X0046392Y0048800D01*
X0045925Y0049267D01*
X0045925Y0050201D01*
X0045031Y0049734D02*
X0045031Y0049267D01*
X0044564Y0048800D01*
X0043629Y0048800D01*
X0043162Y0049267D01*
X0042268Y0049267D02*
X0041801Y0048800D01*
X0040867Y0048800D01*
X0040400Y0049267D01*
X0040400Y0051135D01*
X0040867Y0051602D01*
X0041801Y0051602D01*
X0042268Y0051135D01*
X0043162Y0051135D02*
X0043629Y0051602D01*
X0044564Y0051602D01*
X0045031Y0051135D01*
X0045031Y0050668D01*
X0044564Y0050201D01*
X0045031Y0049734D01*
X0044564Y0050201D02*
X0044096Y0050201D01*
X0091998Y0032239D02*
X0091998Y0031305D01*
X0092465Y0030838D01*
X0092932Y0030838D01*
X0093399Y0031305D01*
X0093399Y0032706D01*
X0094333Y0032706D02*
X0092465Y0032706D01*
X0091998Y0032239D01*
X0092465Y0029944D02*
X0091998Y0029476D01*
X0091998Y0028542D01*
X0092465Y0028075D01*
X0094333Y0028075D01*
X0094800Y0028542D01*
X0094800Y0029476D01*
X0094333Y0029944D01*
X0094333Y0030838D02*
X0094800Y0031305D01*
X0094800Y0032239D01*
X0094333Y0032706D01*
X0103898Y0040300D02*
X0103898Y0041701D01*
X0104365Y0042168D01*
X0105299Y0042168D01*
X0105766Y0041701D01*
X0105766Y0040300D01*
X0106700Y0040300D02*
X0103898Y0040300D01*
X0105766Y0041234D02*
X0106700Y0042168D01*
X0106233Y0043062D02*
X0106700Y0043529D01*
X0106700Y0044464D01*
X0106233Y0044931D01*
X0105766Y0044931D01*
X0105299Y0044464D01*
X0105299Y0043062D01*
X0106233Y0043062D01*
X0105299Y0043062D02*
X0104365Y0043996D01*
X0103898Y0044931D01*
X0113198Y0044500D02*
X0113198Y0045901D01*
X0113665Y0046368D01*
X0114599Y0046368D01*
X0115066Y0045901D01*
X0115066Y0044500D01*
X0116000Y0044500D02*
X0113198Y0044500D01*
X0115066Y0045434D02*
X0116000Y0046368D01*
X0116000Y0047262D02*
X0115533Y0047262D01*
X0113665Y0049131D01*
X0113198Y0049131D01*
X0113198Y0047262D01*
X0132998Y0040439D02*
X0134399Y0039038D01*
X0134399Y0040906D01*
X0135800Y0040439D02*
X0132998Y0040439D01*
X0133465Y0038144D02*
X0132998Y0037676D01*
X0132998Y0036275D01*
X0135800Y0036275D01*
X0135800Y0037676D01*
X0135333Y0038144D01*
X0134866Y0038144D01*
X0134399Y0037676D01*
X0134399Y0036275D01*
X0134399Y0037676D02*
X0133932Y0038144D01*
X0133465Y0038144D01*
X0132998Y0035381D02*
X0132998Y0033513D01*
X0135800Y0033513D01*
X0134399Y0033513D02*
X0134399Y0034447D01*
X0130143Y0030635D02*
X0128275Y0028767D01*
X0128742Y0028300D01*
X0129676Y0028300D01*
X0130143Y0028767D01*
X0130143Y0030635D01*
X0129676Y0031102D01*
X0128742Y0031102D01*
X0128275Y0030635D01*
X0128275Y0028767D01*
X0127381Y0029701D02*
X0125512Y0029701D01*
X0126914Y0031102D01*
X0126914Y0028300D01*
X0124618Y0028767D02*
X0124151Y0028300D01*
X0123217Y0028300D01*
X0122750Y0028767D01*
X0122750Y0030635D01*
X0123217Y0031102D01*
X0124151Y0031102D01*
X0124618Y0030635D01*
X0143798Y0033513D02*
X0143798Y0035381D01*
X0143798Y0036275D02*
X0143798Y0037676D01*
X0144265Y0038144D01*
X0144732Y0038144D01*
X0145199Y0037676D01*
X0145199Y0036275D01*
X0146600Y0036275D02*
X0146600Y0037676D01*
X0146133Y0038144D01*
X0145666Y0038144D01*
X0145199Y0037676D01*
X0146133Y0039038D02*
X0146600Y0039505D01*
X0146600Y0040439D01*
X0146133Y0040906D01*
X0145666Y0040906D01*
X0145199Y0040439D01*
X0145199Y0039972D01*
X0145199Y0040439D02*
X0144732Y0040906D01*
X0144265Y0040906D01*
X0143798Y0040439D01*
X0143798Y0039505D01*
X0144265Y0039038D01*
X0143798Y0036275D02*
X0146600Y0036275D01*
X0145199Y0034447D02*
X0145199Y0033513D01*
X0146600Y0033513D02*
X0143798Y0033513D01*
X0147163Y0032435D02*
X0147163Y0030567D01*
X0147630Y0030100D01*
X0148564Y0030100D01*
X0149031Y0030567D01*
X0149925Y0030567D02*
X0150392Y0030100D01*
X0151326Y0030100D01*
X0151794Y0030567D01*
X0151794Y0031034D01*
X0151326Y0031501D01*
X0150859Y0031501D01*
X0151326Y0031501D02*
X0151794Y0031968D01*
X0151794Y0032435D01*
X0151326Y0032902D01*
X0150392Y0032902D01*
X0149925Y0032435D01*
X0149031Y0032435D02*
X0148564Y0032902D01*
X0147630Y0032902D01*
X0147163Y0032435D01*
X0152688Y0032435D02*
X0152688Y0031968D01*
X0153155Y0031501D01*
X0154556Y0031501D01*
X0154556Y0030567D02*
X0154556Y0032435D01*
X0154089Y0032902D01*
X0153155Y0032902D01*
X0152688Y0032435D01*
X0152688Y0030567D02*
X0153155Y0030100D01*
X0154089Y0030100D01*
X0154556Y0030567D01*
X0155300Y0030467D02*
X0155767Y0030000D01*
X0156701Y0030000D01*
X0157168Y0030467D01*
X0158062Y0030000D02*
X0159931Y0031868D01*
X0159931Y0032335D01*
X0159464Y0032802D01*
X0158529Y0032802D01*
X0158062Y0032335D01*
X0157168Y0032335D02*
X0156701Y0032802D01*
X0155767Y0032802D01*
X0155300Y0032335D01*
X0155300Y0030467D01*
X0158062Y0030000D02*
X0159931Y0030000D01*
X0160825Y0030467D02*
X0161292Y0030000D01*
X0162226Y0030000D01*
X0162693Y0030467D01*
X0162693Y0032335D01*
X0162226Y0032802D01*
X0161292Y0032802D01*
X0160825Y0032335D01*
X0160825Y0031868D01*
X0161292Y0031401D01*
X0162693Y0031401D01*
X0176698Y0022656D02*
X0176698Y0020788D01*
X0178099Y0020788D01*
X0177632Y0021722D01*
X0177632Y0022189D01*
X0178099Y0022656D01*
X0179033Y0022656D01*
X0179500Y0022189D01*
X0179500Y0021255D01*
X0179033Y0020788D01*
X0179033Y0019894D02*
X0179500Y0019426D01*
X0179500Y0018025D01*
X0176698Y0018025D01*
X0176698Y0019426D01*
X0177165Y0019894D01*
X0177632Y0019894D01*
X0178099Y0019426D01*
X0178099Y0018025D01*
X0178099Y0019426D02*
X0178566Y0019894D01*
X0179033Y0019894D01*
X0176698Y0017131D02*
X0176698Y0015263D01*
X0179500Y0015263D01*
X0178099Y0015263D02*
X0178099Y0016197D01*
X0178856Y0007102D02*
X0178856Y0006635D01*
X0176988Y0004767D01*
X0176988Y0004300D01*
X0176094Y0004300D02*
X0174225Y0004300D01*
X0176094Y0006168D01*
X0176094Y0006635D01*
X0175626Y0007102D01*
X0174692Y0007102D01*
X0174225Y0006635D01*
X0173331Y0006635D02*
X0172864Y0007102D01*
X0171930Y0007102D01*
X0171463Y0006635D01*
X0171463Y0004767D01*
X0171930Y0004300D01*
X0172864Y0004300D01*
X0173331Y0004767D01*
X0176988Y0007102D02*
X0178856Y0007102D01*
X0166035Y0004100D02*
X0164166Y0004100D01*
X0165100Y0004100D02*
X0165100Y0006902D01*
X0164166Y0005968D01*
X0163272Y0006435D02*
X0162805Y0006902D01*
X0161871Y0006902D01*
X0161404Y0006435D01*
X0161404Y0004567D01*
X0161871Y0004100D01*
X0162805Y0004100D01*
X0163272Y0004567D01*
X0160496Y0004100D02*
X0159562Y0004100D01*
X0160029Y0004100D02*
X0160029Y0006902D01*
X0159562Y0006902D02*
X0160496Y0006902D01*
X0158668Y0006902D02*
X0158668Y0004100D01*
X0156800Y0004100D02*
X0156800Y0006902D01*
X0157734Y0005968D01*
X0158668Y0006902D01*
X0257998Y0055367D02*
X0258465Y0054900D01*
X0260333Y0054900D01*
X0260800Y0055367D01*
X0260800Y0056301D01*
X0260333Y0056768D01*
X0260333Y0057662D02*
X0260800Y0058129D01*
X0260800Y0059064D01*
X0260333Y0059531D01*
X0259866Y0059531D01*
X0259399Y0059064D01*
X0259399Y0057662D01*
X0260333Y0057662D01*
X0259399Y0057662D02*
X0258465Y0058596D01*
X0257998Y0059531D01*
X0259399Y0060425D02*
X0257998Y0061826D01*
X0260800Y0061826D01*
X0259399Y0062293D02*
X0259399Y0060425D01*
X0258465Y0056768D02*
X0257998Y0056301D01*
X0257998Y0055367D01*
X0263065Y0045093D02*
X0262598Y0044626D01*
X0262598Y0043692D01*
X0263065Y0043225D01*
X0262598Y0042331D02*
X0263065Y0041396D01*
X0263999Y0040462D01*
X0263999Y0041864D01*
X0264466Y0042331D01*
X0264933Y0042331D01*
X0265400Y0041864D01*
X0265400Y0040929D01*
X0264933Y0040462D01*
X0263999Y0040462D01*
X0264933Y0039568D02*
X0265400Y0039101D01*
X0265400Y0038167D01*
X0264933Y0037700D01*
X0263065Y0037700D01*
X0262598Y0038167D01*
X0262598Y0039101D01*
X0263065Y0039568D01*
X0264933Y0043225D02*
X0265400Y0043692D01*
X0265400Y0044626D01*
X0264933Y0045093D01*
X0264466Y0045093D01*
X0263999Y0044626D01*
X0263999Y0044159D01*
X0263999Y0044626D02*
X0263532Y0045093D01*
X0263065Y0045093D01*
X0270998Y0044693D02*
X0271465Y0043759D01*
X0272399Y0042825D01*
X0272399Y0044226D01*
X0272866Y0044693D01*
X0273333Y0044693D01*
X0273800Y0044226D01*
X0273800Y0043292D01*
X0273333Y0042825D01*
X0272399Y0042825D01*
X0272866Y0041931D02*
X0272399Y0041464D01*
X0272399Y0040062D01*
X0273333Y0040062D01*
X0273800Y0040529D01*
X0273800Y0041464D01*
X0273333Y0041931D01*
X0272866Y0041931D01*
X0271465Y0040996D02*
X0270998Y0041931D01*
X0271465Y0040996D02*
X0272399Y0040062D01*
X0273333Y0039168D02*
X0273800Y0038701D01*
X0273800Y0037767D01*
X0273333Y0037300D01*
X0271465Y0037300D01*
X0270998Y0037767D01*
X0270998Y0038701D01*
X0271465Y0039168D01*
X0276298Y0039031D02*
X0276298Y0037162D01*
X0277699Y0037162D01*
X0277232Y0038096D01*
X0277232Y0038564D01*
X0277699Y0039031D01*
X0278633Y0039031D01*
X0279100Y0038564D01*
X0279100Y0037629D01*
X0278633Y0037162D01*
X0278633Y0036268D02*
X0279100Y0035801D01*
X0279100Y0034867D01*
X0278633Y0034400D01*
X0276765Y0034400D01*
X0276298Y0034867D01*
X0276298Y0035801D01*
X0276765Y0036268D01*
X0277699Y0039925D02*
X0277699Y0041793D01*
X0279100Y0041326D02*
X0276298Y0041326D01*
X0277699Y0039925D01*
X0288146Y0037642D02*
X0288146Y0034839D01*
X0288146Y0035773D02*
X0289547Y0035773D01*
X0290014Y0036241D01*
X0290014Y0037175D01*
X0289547Y0037642D01*
X0288146Y0037642D01*
X0289080Y0035773D02*
X0290014Y0034839D01*
X0290908Y0035306D02*
X0291375Y0034839D01*
X0292310Y0034839D01*
X0292777Y0035306D01*
X0292777Y0036241D01*
X0292310Y0036708D01*
X0291842Y0036708D01*
X0290908Y0036241D01*
X0290908Y0037642D01*
X0292777Y0037642D01*
X0293671Y0036708D02*
X0294605Y0037642D01*
X0294605Y0034839D01*
X0293671Y0034839D02*
X0295539Y0034839D01*
X0295665Y0037300D02*
X0297533Y0037300D01*
X0298000Y0037767D01*
X0298000Y0038701D01*
X0297533Y0039168D01*
X0297533Y0040062D02*
X0298000Y0040529D01*
X0298000Y0041464D01*
X0297533Y0041931D01*
X0297066Y0041931D01*
X0296599Y0041464D01*
X0296599Y0040062D01*
X0297533Y0040062D01*
X0296599Y0040062D02*
X0295665Y0040996D01*
X0295198Y0041931D01*
X0295665Y0042825D02*
X0295198Y0043292D01*
X0295198Y0044226D01*
X0295665Y0044693D01*
X0297533Y0042825D01*
X0298000Y0043292D01*
X0298000Y0044226D01*
X0297533Y0044693D01*
X0295665Y0044693D01*
X0295665Y0042825D02*
X0297533Y0042825D01*
X0295665Y0039168D02*
X0295198Y0038701D01*
X0295198Y0037767D01*
X0295665Y0037300D01*
X0306091Y0036794D02*
X0306091Y0039597D01*
X0307959Y0039597D01*
X0308853Y0039597D02*
X0308853Y0036794D01*
X0310254Y0036794D01*
X0310721Y0037262D01*
X0310721Y0037729D01*
X0310254Y0038196D01*
X0308853Y0038196D01*
X0308853Y0039597D02*
X0310254Y0039597D01*
X0310721Y0039130D01*
X0310721Y0038663D01*
X0310254Y0038196D01*
X0311616Y0039130D02*
X0312083Y0039597D01*
X0313017Y0039597D01*
X0313484Y0039130D01*
X0313484Y0038663D01*
X0311616Y0036794D01*
X0313484Y0036794D01*
X0314713Y0032702D02*
X0316114Y0032702D01*
X0316581Y0032235D01*
X0316581Y0031301D01*
X0316114Y0030834D01*
X0314713Y0030834D01*
X0314713Y0029900D02*
X0314713Y0032702D01*
X0315647Y0030834D02*
X0316581Y0029900D01*
X0317475Y0030367D02*
X0317942Y0029900D01*
X0318876Y0029900D01*
X0319344Y0030367D01*
X0319344Y0031301D01*
X0318876Y0031768D01*
X0318409Y0031768D01*
X0317475Y0031301D01*
X0317475Y0032702D01*
X0319344Y0032702D01*
X0320238Y0032235D02*
X0320705Y0032702D01*
X0321639Y0032702D01*
X0322106Y0032235D01*
X0322106Y0031768D01*
X0320238Y0029900D01*
X0322106Y0029900D01*
X0319865Y0029093D02*
X0321733Y0027225D01*
X0322200Y0027225D01*
X0321733Y0026331D02*
X0322200Y0025864D01*
X0322200Y0024929D01*
X0321733Y0024462D01*
X0321733Y0023568D02*
X0322200Y0023101D01*
X0322200Y0022167D01*
X0321733Y0021700D01*
X0319865Y0021700D01*
X0319398Y0022167D01*
X0319398Y0023101D01*
X0319865Y0023568D01*
X0319865Y0024462D02*
X0319398Y0024929D01*
X0319398Y0025864D01*
X0319865Y0026331D01*
X0320332Y0026331D01*
X0320799Y0025864D01*
X0321266Y0026331D01*
X0321733Y0026331D01*
X0320799Y0025864D02*
X0320799Y0025396D01*
X0319398Y0027225D02*
X0319398Y0029093D01*
X0319865Y0029093D01*
X0332650Y0033567D02*
X0333117Y0033100D01*
X0334051Y0033100D01*
X0334518Y0033567D01*
X0335412Y0033567D02*
X0335879Y0033100D01*
X0336814Y0033100D01*
X0337281Y0033567D01*
X0337281Y0034034D01*
X0336814Y0034501D01*
X0336346Y0034501D01*
X0336814Y0034501D02*
X0337281Y0034968D01*
X0337281Y0035435D01*
X0336814Y0035902D01*
X0335879Y0035902D01*
X0335412Y0035435D01*
X0334518Y0035435D02*
X0334051Y0035902D01*
X0333117Y0035902D01*
X0332650Y0035435D01*
X0332650Y0033567D01*
X0338175Y0033100D02*
X0340043Y0034968D01*
X0340043Y0035435D01*
X0339576Y0035902D01*
X0338642Y0035902D01*
X0338175Y0035435D01*
X0338175Y0033100D02*
X0340043Y0033100D01*
X0348698Y0031856D02*
X0349165Y0030922D01*
X0350099Y0029988D01*
X0350099Y0031389D01*
X0350566Y0031856D01*
X0351033Y0031856D01*
X0351500Y0031389D01*
X0351500Y0030455D01*
X0351033Y0029988D01*
X0350099Y0029988D01*
X0350566Y0029094D02*
X0350099Y0028626D01*
X0350099Y0027225D01*
X0351500Y0027225D02*
X0348698Y0027225D01*
X0348698Y0028626D01*
X0349165Y0029094D01*
X0349632Y0029094D01*
X0350099Y0028626D01*
X0350566Y0029094D02*
X0351033Y0029094D01*
X0351500Y0028626D01*
X0351500Y0027225D01*
X0350099Y0025397D02*
X0350099Y0024463D01*
X0351500Y0024463D02*
X0348698Y0024463D01*
X0348698Y0026331D01*
X0349522Y0015902D02*
X0349522Y0013100D01*
X0348588Y0013100D02*
X0350456Y0013100D01*
X0348588Y0014968D02*
X0349522Y0015902D01*
X0347694Y0015435D02*
X0347226Y0015902D01*
X0346292Y0015902D01*
X0345825Y0015435D01*
X0344931Y0015435D02*
X0344464Y0015902D01*
X0343530Y0015902D01*
X0343063Y0015435D01*
X0343063Y0013567D01*
X0343530Y0013100D01*
X0344464Y0013100D01*
X0344931Y0013567D01*
X0345825Y0013567D02*
X0346292Y0013100D01*
X0347226Y0013100D01*
X0347694Y0013567D01*
X0347694Y0014034D01*
X0347226Y0014501D01*
X0346759Y0014501D01*
X0347226Y0014501D02*
X0347694Y0014968D01*
X0347694Y0015435D01*
X0327300Y0015271D02*
X0327300Y0016205D01*
X0326833Y0016672D01*
X0327300Y0017566D02*
X0325432Y0019435D01*
X0324965Y0019435D01*
X0324498Y0018967D01*
X0324498Y0018033D01*
X0324965Y0017566D01*
X0324965Y0016672D02*
X0324498Y0016205D01*
X0324498Y0015271D01*
X0324965Y0014804D01*
X0326833Y0014804D01*
X0327300Y0015271D01*
X0327300Y0013896D02*
X0327300Y0012962D01*
X0327300Y0013429D02*
X0324498Y0013429D01*
X0324498Y0012962D02*
X0324498Y0013896D01*
X0324498Y0012068D02*
X0327300Y0012068D01*
X0327300Y0010200D02*
X0324498Y0010200D01*
X0325432Y0011134D01*
X0324498Y0012068D01*
X0327300Y0017566D02*
X0327300Y0019435D01*
X0307025Y0038196D02*
X0306091Y0038196D01*
X0261000Y0070967D02*
X0261000Y0071901D01*
X0260533Y0072368D01*
X0260533Y0073262D02*
X0261000Y0073729D01*
X0261000Y0074664D01*
X0260533Y0075131D01*
X0260066Y0075131D01*
X0259599Y0074664D01*
X0259599Y0073262D01*
X0260533Y0073262D01*
X0259599Y0073262D02*
X0258665Y0074196D01*
X0258198Y0075131D01*
X0259132Y0076025D02*
X0258198Y0076959D01*
X0261000Y0076959D01*
X0261000Y0076025D02*
X0261000Y0077893D01*
X0258665Y0072368D02*
X0258198Y0071901D01*
X0258198Y0070967D01*
X0258665Y0070500D01*
X0260533Y0070500D01*
X0261000Y0070967D01*
X0266567Y0090400D02*
X0266100Y0090867D01*
X0266100Y0092735D01*
X0266567Y0093202D01*
X0267501Y0093202D01*
X0267968Y0092735D01*
X0268862Y0091801D02*
X0270264Y0091801D01*
X0270731Y0091334D01*
X0270731Y0090867D01*
X0270264Y0090400D01*
X0269329Y0090400D01*
X0268862Y0090867D01*
X0268862Y0091801D01*
X0269796Y0092735D01*
X0270731Y0093202D01*
X0271625Y0093202D02*
X0273493Y0093202D01*
X0273493Y0092735D01*
X0271625Y0090867D01*
X0271625Y0090400D01*
X0275100Y0091067D02*
X0275100Y0092935D01*
X0275567Y0093402D01*
X0276501Y0093402D01*
X0276968Y0092935D01*
X0277862Y0092001D02*
X0277862Y0091067D01*
X0278329Y0090600D01*
X0279264Y0090600D01*
X0279731Y0091067D01*
X0279731Y0091534D01*
X0279264Y0092001D01*
X0277862Y0092001D01*
X0278796Y0092935D01*
X0279731Y0093402D01*
X0280625Y0092935D02*
X0280625Y0092468D01*
X0281092Y0092001D01*
X0282026Y0092001D01*
X0282493Y0091534D01*
X0282493Y0091067D01*
X0282026Y0090600D01*
X0281092Y0090600D01*
X0280625Y0091067D01*
X0280625Y0091534D01*
X0281092Y0092001D01*
X0282026Y0092001D02*
X0282493Y0092468D01*
X0282493Y0092935D01*
X0282026Y0093402D01*
X0281092Y0093402D01*
X0280625Y0092935D01*
X0280625Y0095400D02*
X0282493Y0097268D01*
X0282493Y0097735D01*
X0282026Y0098202D01*
X0281092Y0098202D01*
X0280625Y0097735D01*
X0279731Y0098202D02*
X0278796Y0097735D01*
X0277862Y0096801D01*
X0279264Y0096801D01*
X0279731Y0096334D01*
X0279731Y0095867D01*
X0279264Y0095400D01*
X0278329Y0095400D01*
X0277862Y0095867D01*
X0277862Y0096801D01*
X0276968Y0095867D02*
X0276501Y0095400D01*
X0275567Y0095400D01*
X0275100Y0095867D01*
X0275100Y0097735D01*
X0275567Y0098202D01*
X0276501Y0098202D01*
X0276968Y0097735D01*
X0280625Y0095400D02*
X0282493Y0095400D01*
X0288798Y0092139D02*
X0288798Y0091205D01*
X0289265Y0090738D01*
X0289732Y0090738D01*
X0290199Y0091205D01*
X0290199Y0092606D01*
X0291133Y0092606D02*
X0289265Y0092606D01*
X0288798Y0092139D01*
X0288798Y0089844D02*
X0288798Y0087975D01*
X0290199Y0087975D01*
X0289732Y0088909D01*
X0289732Y0089376D01*
X0290199Y0089844D01*
X0291133Y0089844D01*
X0291600Y0089376D01*
X0291600Y0088442D01*
X0291133Y0087975D01*
X0291133Y0087081D02*
X0291600Y0086614D01*
X0291600Y0085680D01*
X0291133Y0085213D01*
X0289265Y0085213D01*
X0288798Y0085680D01*
X0288798Y0086614D01*
X0289265Y0087081D01*
X0291133Y0090738D02*
X0291600Y0091205D01*
X0291600Y0092139D01*
X0291133Y0092606D01*
X0293798Y0092806D02*
X0293798Y0090938D01*
X0295199Y0090938D01*
X0294732Y0091872D01*
X0294732Y0092339D01*
X0295199Y0092806D01*
X0296133Y0092806D01*
X0296600Y0092339D01*
X0296600Y0091405D01*
X0296133Y0090938D01*
X0296133Y0090044D02*
X0296600Y0089576D01*
X0296600Y0088642D01*
X0296133Y0088175D01*
X0296133Y0087281D02*
X0296600Y0086814D01*
X0296600Y0085880D01*
X0296133Y0085413D01*
X0294265Y0085413D01*
X0293798Y0085880D01*
X0293798Y0086814D01*
X0294265Y0087281D01*
X0293798Y0088175D02*
X0295199Y0088175D01*
X0294732Y0089109D01*
X0294732Y0089576D01*
X0295199Y0090044D01*
X0296133Y0090044D01*
X0293798Y0090044D02*
X0293798Y0088175D01*
X0304708Y0088044D02*
X0305175Y0088511D01*
X0306109Y0088511D01*
X0306576Y0088044D01*
X0306576Y0086643D01*
X0306576Y0087577D02*
X0307510Y0088511D01*
X0307043Y0089405D02*
X0307510Y0089872D01*
X0307510Y0090806D01*
X0307043Y0091273D01*
X0306109Y0091273D01*
X0305642Y0090806D01*
X0305642Y0090339D01*
X0306109Y0089405D01*
X0304708Y0089405D01*
X0304708Y0091273D01*
X0305175Y0092167D02*
X0304708Y0092634D01*
X0304708Y0093568D01*
X0305175Y0094035D01*
X0307043Y0092167D01*
X0307510Y0092634D01*
X0307510Y0093568D01*
X0307043Y0094035D01*
X0305175Y0094035D01*
X0305175Y0092167D02*
X0307043Y0092167D01*
X0308598Y0090539D02*
X0308598Y0089605D01*
X0309065Y0089138D01*
X0309532Y0089138D01*
X0309999Y0089605D01*
X0309999Y0091006D01*
X0310933Y0091006D02*
X0309065Y0091006D01*
X0308598Y0090539D01*
X0310933Y0091006D02*
X0311400Y0090539D01*
X0311400Y0089605D01*
X0310933Y0089138D01*
X0311400Y0088244D02*
X0311400Y0086375D01*
X0311400Y0087309D02*
X0308598Y0087309D01*
X0309532Y0086375D01*
X0309065Y0085481D02*
X0308598Y0085014D01*
X0308598Y0084080D01*
X0309065Y0083613D01*
X0310933Y0083613D01*
X0311400Y0084080D01*
X0311400Y0085014D01*
X0310933Y0085481D01*
X0307510Y0086643D02*
X0304708Y0086643D01*
X0304708Y0088044D01*
X0276968Y0091067D02*
X0276501Y0090600D01*
X0275567Y0090600D01*
X0275100Y0091067D01*
X0267968Y0090867D02*
X0267501Y0090400D01*
X0266567Y0090400D01*
X0262106Y0093967D02*
X0261639Y0093500D01*
X0260705Y0093500D01*
X0260238Y0093967D01*
X0259344Y0093967D02*
X0258876Y0093500D01*
X0257942Y0093500D01*
X0257475Y0093967D01*
X0256581Y0093967D02*
X0256114Y0093500D01*
X0255180Y0093500D01*
X0254713Y0093967D01*
X0254713Y0095835D01*
X0255180Y0096302D01*
X0256114Y0096302D01*
X0256581Y0095835D01*
X0257475Y0095835D02*
X0257942Y0096302D01*
X0258876Y0096302D01*
X0259344Y0095835D01*
X0259344Y0095368D01*
X0258876Y0094901D01*
X0259344Y0094434D01*
X0259344Y0093967D01*
X0258876Y0094901D02*
X0258409Y0094901D01*
X0260238Y0095835D02*
X0260705Y0096302D01*
X0261639Y0096302D01*
X0262106Y0095835D01*
X0262106Y0095368D01*
X0261639Y0094901D01*
X0262106Y0094434D01*
X0262106Y0093967D01*
X0261639Y0094901D02*
X0261172Y0094901D01*
X0237806Y0099667D02*
X0237339Y0099200D01*
X0236405Y0099200D01*
X0235938Y0099667D01*
X0235044Y0099667D02*
X0235044Y0102002D01*
X0235938Y0101535D02*
X0236405Y0102002D01*
X0237339Y0102002D01*
X0237806Y0101535D01*
X0237806Y0101068D01*
X0237339Y0100601D01*
X0237806Y0100134D01*
X0237806Y0099667D01*
X0237339Y0100601D02*
X0236872Y0100601D01*
X0235044Y0099667D02*
X0234576Y0099200D01*
X0233642Y0099200D01*
X0233175Y0099667D01*
X0233175Y0102002D01*
X0223200Y0104067D02*
X0223200Y0105001D01*
X0222733Y0105468D01*
X0222733Y0106362D02*
X0223200Y0106829D01*
X0223200Y0107764D01*
X0222733Y0108231D01*
X0222266Y0108231D01*
X0221799Y0107764D01*
X0221799Y0107296D01*
X0221799Y0107764D02*
X0221332Y0108231D01*
X0220865Y0108231D01*
X0220398Y0107764D01*
X0220398Y0106829D01*
X0220865Y0106362D01*
X0220865Y0105468D02*
X0220398Y0105001D01*
X0220398Y0104067D01*
X0220865Y0103600D01*
X0222733Y0103600D01*
X0223200Y0104067D01*
X0221799Y0109125D02*
X0221799Y0110993D01*
X0223200Y0110526D02*
X0220398Y0110526D01*
X0221799Y0109125D01*
X0228998Y0114900D02*
X0228998Y0116301D01*
X0229465Y0116768D01*
X0230399Y0116768D01*
X0230866Y0116301D01*
X0230866Y0114900D01*
X0231800Y0114900D02*
X0228998Y0114900D01*
X0230866Y0115834D02*
X0231800Y0116768D01*
X0230399Y0117662D02*
X0230399Y0119531D01*
X0229932Y0120425D02*
X0230399Y0120892D01*
X0230399Y0122293D01*
X0231333Y0122293D02*
X0229465Y0122293D01*
X0228998Y0121826D01*
X0228998Y0120892D01*
X0229465Y0120425D01*
X0229932Y0120425D01*
X0231333Y0120425D02*
X0231800Y0120892D01*
X0231800Y0121826D01*
X0231333Y0122293D01*
X0231800Y0119064D02*
X0228998Y0119064D01*
X0230399Y0117662D01*
X0233713Y0132400D02*
X0233713Y0135202D01*
X0235114Y0135202D01*
X0235581Y0134735D01*
X0235581Y0133801D01*
X0235114Y0133334D01*
X0233713Y0133334D01*
X0234647Y0133334D02*
X0235581Y0132400D01*
X0236475Y0132867D02*
X0236942Y0132400D01*
X0237876Y0132400D01*
X0238344Y0132867D01*
X0238344Y0133334D01*
X0237876Y0133801D01*
X0237409Y0133801D01*
X0237876Y0133801D02*
X0238344Y0134268D01*
X0238344Y0134735D01*
X0237876Y0135202D01*
X0236942Y0135202D01*
X0236475Y0134735D01*
X0239238Y0134735D02*
X0239238Y0134268D01*
X0239705Y0133801D01*
X0241106Y0133801D01*
X0241106Y0132867D02*
X0241106Y0134735D01*
X0240639Y0135202D01*
X0239705Y0135202D01*
X0239238Y0134735D01*
X0239238Y0132867D02*
X0239705Y0132400D01*
X0240639Y0132400D01*
X0241106Y0132867D01*
X0247598Y0139500D02*
X0247598Y0140901D01*
X0248065Y0141368D01*
X0248999Y0141368D01*
X0249466Y0140901D01*
X0249466Y0139500D01*
X0250400Y0139500D02*
X0247598Y0139500D01*
X0249466Y0140434D02*
X0250400Y0141368D01*
X0249933Y0142262D02*
X0250400Y0142729D01*
X0250400Y0143664D01*
X0249933Y0144131D01*
X0249466Y0144131D01*
X0248999Y0143664D01*
X0248999Y0143196D01*
X0248999Y0143664D02*
X0248532Y0144131D01*
X0248065Y0144131D01*
X0247598Y0143664D01*
X0247598Y0142729D01*
X0248065Y0142262D01*
X0248065Y0145025D02*
X0248532Y0145025D01*
X0248999Y0145492D01*
X0248999Y0146426D01*
X0249466Y0146893D01*
X0249933Y0146893D01*
X0250400Y0146426D01*
X0250400Y0145492D01*
X0249933Y0145025D01*
X0249466Y0145025D01*
X0248999Y0145492D01*
X0248999Y0146426D02*
X0248532Y0146893D01*
X0248065Y0146893D01*
X0247598Y0146426D01*
X0247598Y0145492D01*
X0248065Y0145025D01*
X0284413Y0122535D02*
X0284413Y0120667D01*
X0284880Y0120200D01*
X0285814Y0120200D01*
X0286281Y0120667D01*
X0287175Y0120200D02*
X0289044Y0120200D01*
X0289938Y0120200D02*
X0291806Y0120200D01*
X0290872Y0120200D02*
X0290872Y0123002D01*
X0289938Y0122068D01*
X0288109Y0123002D02*
X0288109Y0120200D01*
X0287175Y0122068D02*
X0288109Y0123002D01*
X0286281Y0122535D02*
X0285814Y0123002D01*
X0284880Y0123002D01*
X0284413Y0122535D01*
X0296667Y0144800D02*
X0297601Y0144800D01*
X0298068Y0145267D01*
X0298962Y0144800D02*
X0300831Y0144800D01*
X0299896Y0144800D02*
X0299896Y0147602D01*
X0298962Y0146668D01*
X0298068Y0147135D02*
X0297601Y0147602D01*
X0296667Y0147602D01*
X0296200Y0147135D01*
X0296200Y0145267D01*
X0296667Y0144800D01*
X0301725Y0145267D02*
X0301725Y0145734D01*
X0302192Y0146201D01*
X0303126Y0146201D01*
X0303593Y0145734D01*
X0303593Y0145267D01*
X0303126Y0144800D01*
X0302192Y0144800D01*
X0301725Y0145267D01*
X0302192Y0146201D02*
X0301725Y0146668D01*
X0301725Y0147135D01*
X0302192Y0147602D01*
X0303126Y0147602D01*
X0303593Y0147135D01*
X0303593Y0146668D01*
X0303126Y0146201D01*
X0315598Y0134906D02*
X0316065Y0134906D01*
X0317933Y0133038D01*
X0318400Y0133038D01*
X0318400Y0132144D02*
X0318400Y0130275D01*
X0318400Y0131209D02*
X0315598Y0131209D01*
X0316532Y0130275D01*
X0316065Y0129381D02*
X0315598Y0128914D01*
X0315598Y0127980D01*
X0316065Y0127513D01*
X0317933Y0127513D01*
X0318400Y0127980D01*
X0318400Y0128914D01*
X0317933Y0129381D01*
X0315598Y0133038D02*
X0315598Y0134906D01*
X0332798Y0133306D02*
X0332798Y0131438D01*
X0333265Y0130544D02*
X0332798Y0130076D01*
X0332798Y0129142D01*
X0333265Y0128675D01*
X0333265Y0127781D02*
X0334199Y0127781D01*
X0334666Y0127314D01*
X0334666Y0125913D01*
X0335600Y0125913D02*
X0332798Y0125913D01*
X0332798Y0127314D01*
X0333265Y0127781D01*
X0334666Y0126847D02*
X0335600Y0127781D01*
X0335600Y0128675D02*
X0333732Y0130544D01*
X0333265Y0130544D01*
X0335133Y0131438D02*
X0333265Y0133306D01*
X0332798Y0133306D01*
X0335133Y0131438D02*
X0335600Y0131438D01*
X0335600Y0130544D02*
X0335600Y0128675D01*
X0334906Y0113802D02*
X0333038Y0113802D01*
X0333038Y0112401D01*
X0333972Y0112868D01*
X0334439Y0112868D01*
X0334906Y0112401D01*
X0334906Y0111467D01*
X0334439Y0111000D01*
X0333505Y0111000D01*
X0333038Y0111467D01*
X0332144Y0111000D02*
X0330275Y0111000D01*
X0331209Y0111000D02*
X0331209Y0113802D01*
X0330275Y0112868D01*
X0329381Y0113335D02*
X0328914Y0113802D01*
X0327980Y0113802D01*
X0327513Y0113335D01*
X0327513Y0111467D01*
X0327980Y0111000D01*
X0328914Y0111000D01*
X0329381Y0111467D01*
X0209200Y0113000D02*
X0206398Y0113000D01*
X0206398Y0114401D01*
X0206865Y0114868D01*
X0207799Y0114868D01*
X0208266Y0114401D01*
X0208266Y0113000D01*
X0208266Y0113934D02*
X0209200Y0114868D01*
X0207799Y0115762D02*
X0207799Y0117631D01*
X0209200Y0117164D02*
X0206398Y0117164D01*
X0207799Y0115762D01*
X0197633Y0130713D02*
X0198100Y0131180D01*
X0198100Y0132114D01*
X0197633Y0132581D01*
X0195298Y0132581D01*
X0196232Y0133475D02*
X0195298Y0134409D01*
X0198100Y0134409D01*
X0198100Y0133475D02*
X0198100Y0135344D01*
X0198100Y0136238D02*
X0198100Y0138106D01*
X0198100Y0137172D02*
X0195298Y0137172D01*
X0196232Y0136238D01*
X0195298Y0130713D02*
X0197633Y0130713D01*
X0159600Y0112439D02*
X0159600Y0111505D01*
X0159133Y0111038D01*
X0159133Y0110144D02*
X0159600Y0109676D01*
X0159600Y0108742D01*
X0159133Y0108275D01*
X0159133Y0107381D02*
X0159600Y0106914D01*
X0159600Y0105980D01*
X0159133Y0105513D01*
X0157265Y0105513D01*
X0156798Y0105980D01*
X0156798Y0106914D01*
X0157265Y0107381D01*
X0157265Y0108275D02*
X0156798Y0108742D01*
X0156798Y0109676D01*
X0157265Y0110144D01*
X0157732Y0110144D01*
X0158199Y0109676D01*
X0158666Y0110144D01*
X0159133Y0110144D01*
X0158199Y0109676D02*
X0158199Y0109209D01*
X0158199Y0111038D02*
X0157732Y0111972D01*
X0157732Y0112439D01*
X0158199Y0112906D01*
X0159133Y0112906D01*
X0159600Y0112439D01*
X0158199Y0111038D02*
X0156798Y0111038D01*
X0156798Y0112906D01*
X0140392Y0089502D02*
X0140859Y0089035D01*
X0140859Y0088568D01*
X0140392Y0088101D01*
X0140859Y0087634D01*
X0140859Y0087167D01*
X0140392Y0086700D01*
X0139457Y0086700D01*
X0138990Y0087167D01*
X0138096Y0087167D02*
X0138096Y0089035D01*
X0137629Y0089502D01*
X0136228Y0089502D01*
X0136228Y0086700D01*
X0137629Y0086700D01*
X0138096Y0087167D01*
X0139925Y0088101D02*
X0140392Y0088101D01*
X0140392Y0089502D02*
X0139457Y0089502D01*
X0138990Y0089035D01*
X0140565Y0082478D02*
X0140098Y0082011D01*
X0140098Y0081077D01*
X0140565Y0080610D01*
X0140565Y0079716D02*
X0140098Y0079248D01*
X0140098Y0077847D01*
X0142900Y0077847D01*
X0142900Y0079248D01*
X0142433Y0079716D01*
X0140565Y0079716D01*
X0142900Y0080610D02*
X0141032Y0082478D01*
X0140565Y0082478D01*
X0142900Y0082478D02*
X0142900Y0080610D01*
D16*
X0105702Y0145998D02*
X0093498Y0145998D01*
X0093498Y0146588D01*
X0105702Y0146588D02*
X0105702Y0145998D01*
X0105702Y0157612D02*
X0105702Y0158202D01*
X0093498Y0158202D01*
X0093498Y0157612D01*
D17*
X0106500Y0058000D02*
X0108000Y0058000D01*
X0108000Y0057000D01*
X0106500Y0057000D01*
X0106500Y0058000D01*
X0106500Y0057953D02*
X0108000Y0057953D01*
X0108000Y0057854D02*
X0106500Y0057854D01*
X0106500Y0057756D02*
X0108000Y0057756D01*
X0108000Y0057657D02*
X0106500Y0057657D01*
X0106500Y0057559D02*
X0108000Y0057559D01*
X0108000Y0057460D02*
X0106500Y0057460D01*
X0106500Y0057362D02*
X0108000Y0057362D01*
X0108000Y0057263D02*
X0106500Y0057263D01*
X0106500Y0057165D02*
X0108000Y0057165D01*
X0108000Y0057066D02*
X0106500Y0057066D01*
X0265641Y0055206D02*
X0265641Y0053706D01*
X0266641Y0053706D01*
X0266641Y0055206D01*
X0265641Y0055206D01*
X0265641Y0055195D02*
X0266641Y0055195D01*
X0266641Y0055096D02*
X0265641Y0055096D01*
X0265641Y0054998D02*
X0266641Y0054998D01*
X0266641Y0054899D02*
X0265641Y0054899D01*
X0265641Y0054801D02*
X0266641Y0054801D01*
X0266641Y0054702D02*
X0265641Y0054702D01*
X0265641Y0054604D02*
X0266641Y0054604D01*
X0266641Y0054505D02*
X0265641Y0054505D01*
X0265641Y0054407D02*
X0266641Y0054407D01*
X0266641Y0054308D02*
X0265641Y0054308D01*
X0265641Y0054210D02*
X0266641Y0054210D01*
X0266641Y0054111D02*
X0265641Y0054111D01*
X0265641Y0054012D02*
X0266641Y0054012D01*
X0266641Y0053914D02*
X0265641Y0053914D01*
X0265641Y0053815D02*
X0266641Y0053815D01*
X0266641Y0053717D02*
X0265641Y0053717D01*
X0285207Y0044983D02*
X0285207Y0043983D01*
X0286707Y0043983D01*
X0286707Y0044983D01*
X0285207Y0044983D01*
X0285207Y0044949D02*
X0286707Y0044949D01*
X0286707Y0044851D02*
X0285207Y0044851D01*
X0285207Y0044752D02*
X0286707Y0044752D01*
X0286707Y0044654D02*
X0285207Y0044654D01*
X0285207Y0044555D02*
X0286707Y0044555D01*
X0286707Y0044457D02*
X0285207Y0044457D01*
X0285207Y0044358D02*
X0286707Y0044358D01*
X0286707Y0044260D02*
X0285207Y0044260D01*
X0285207Y0044161D02*
X0286707Y0044161D01*
X0286707Y0044063D02*
X0285207Y0044063D01*
X0307241Y0051737D02*
X0307241Y0053237D01*
X0308241Y0053237D01*
X0308241Y0051737D01*
X0307241Y0051737D01*
X0307241Y0051747D02*
X0308241Y0051747D01*
X0308241Y0051845D02*
X0307241Y0051845D01*
X0307241Y0051944D02*
X0308241Y0051944D01*
X0308241Y0052042D02*
X0307241Y0052042D01*
X0307241Y0052141D02*
X0308241Y0052141D01*
X0308241Y0052239D02*
X0307241Y0052239D01*
X0307241Y0052338D02*
X0308241Y0052338D01*
X0308241Y0052436D02*
X0307241Y0052436D01*
X0307241Y0052535D02*
X0308241Y0052535D01*
X0308241Y0052633D02*
X0307241Y0052633D01*
X0307241Y0052732D02*
X0308241Y0052732D01*
X0308241Y0052830D02*
X0307241Y0052830D01*
X0307241Y0052929D02*
X0308241Y0052929D01*
X0308241Y0053027D02*
X0307241Y0053027D01*
X0307241Y0053126D02*
X0308241Y0053126D01*
X0308241Y0053224D02*
X0307241Y0053224D01*
X0307241Y0071422D02*
X0307241Y0072922D01*
X0308241Y0072922D01*
X0308241Y0071422D01*
X0307241Y0071422D01*
X0307241Y0071449D02*
X0308241Y0071449D01*
X0308241Y0071548D02*
X0307241Y0071548D01*
X0307241Y0071646D02*
X0308241Y0071646D01*
X0308241Y0071745D02*
X0307241Y0071745D01*
X0307241Y0071843D02*
X0308241Y0071843D01*
X0308241Y0071942D02*
X0307241Y0071942D01*
X0307241Y0072040D02*
X0308241Y0072040D01*
X0308241Y0072139D02*
X0307241Y0072139D01*
X0307241Y0072237D02*
X0308241Y0072237D01*
X0308241Y0072336D02*
X0307241Y0072336D01*
X0307241Y0072434D02*
X0308241Y0072434D01*
X0308241Y0072533D02*
X0307241Y0072533D01*
X0307241Y0072631D02*
X0308241Y0072631D01*
X0308241Y0072730D02*
X0307241Y0072730D01*
X0307241Y0072828D02*
X0308241Y0072828D01*
X0284738Y0085583D02*
X0284738Y0086583D01*
X0283238Y0086583D01*
X0283238Y0085583D01*
X0284738Y0085583D01*
X0284738Y0085635D02*
X0283238Y0085635D01*
X0283238Y0085733D02*
X0284738Y0085733D01*
X0284738Y0085832D02*
X0283238Y0085832D01*
X0283238Y0085930D02*
X0284738Y0085930D01*
X0284738Y0086029D02*
X0283238Y0086029D01*
X0283238Y0086127D02*
X0284738Y0086127D01*
X0284738Y0086226D02*
X0283238Y0086226D01*
X0283238Y0086324D02*
X0284738Y0086324D01*
X0284738Y0086423D02*
X0283238Y0086423D01*
X0283238Y0086521D02*
X0284738Y0086521D01*
X0266641Y0074891D02*
X0265641Y0074891D01*
X0265641Y0073391D01*
X0266641Y0073391D01*
X0266641Y0074891D01*
X0266641Y0074798D02*
X0265641Y0074798D01*
X0265641Y0074700D02*
X0266641Y0074700D01*
X0266641Y0074601D02*
X0265641Y0074601D01*
X0265641Y0074503D02*
X0266641Y0074503D01*
X0266641Y0074404D02*
X0265641Y0074404D01*
X0265641Y0074306D02*
X0266641Y0074306D01*
X0266641Y0074207D02*
X0265641Y0074207D01*
X0265641Y0074109D02*
X0266641Y0074109D01*
X0266641Y0074010D02*
X0265641Y0074010D01*
X0265641Y0073912D02*
X0266641Y0073912D01*
X0266641Y0073813D02*
X0265641Y0073813D01*
X0265641Y0073715D02*
X0266641Y0073715D01*
X0266641Y0073616D02*
X0265641Y0073616D01*
X0265641Y0073518D02*
X0266641Y0073518D01*
X0266641Y0073419D02*
X0265641Y0073419D01*
D18*
X0133083Y0170250D02*
X0133085Y0170319D01*
X0133091Y0170387D01*
X0133101Y0170455D01*
X0133115Y0170522D01*
X0133133Y0170589D01*
X0133154Y0170654D01*
X0133180Y0170718D01*
X0133209Y0170780D01*
X0133241Y0170840D01*
X0133277Y0170899D01*
X0133317Y0170955D01*
X0133359Y0171009D01*
X0133405Y0171060D01*
X0133454Y0171109D01*
X0133505Y0171155D01*
X0133559Y0171197D01*
X0133615Y0171237D01*
X0133673Y0171273D01*
X0133734Y0171305D01*
X0133796Y0171334D01*
X0133860Y0171360D01*
X0133925Y0171381D01*
X0133992Y0171399D01*
X0134059Y0171413D01*
X0134127Y0171423D01*
X0134195Y0171429D01*
X0134264Y0171431D01*
X0134333Y0171429D01*
X0134401Y0171423D01*
X0134469Y0171413D01*
X0134536Y0171399D01*
X0134603Y0171381D01*
X0134668Y0171360D01*
X0134732Y0171334D01*
X0134794Y0171305D01*
X0134854Y0171273D01*
X0134913Y0171237D01*
X0134969Y0171197D01*
X0135023Y0171155D01*
X0135074Y0171109D01*
X0135123Y0171060D01*
X0135169Y0171009D01*
X0135211Y0170955D01*
X0135251Y0170899D01*
X0135287Y0170840D01*
X0135319Y0170780D01*
X0135348Y0170718D01*
X0135374Y0170654D01*
X0135395Y0170589D01*
X0135413Y0170522D01*
X0135427Y0170455D01*
X0135437Y0170387D01*
X0135443Y0170319D01*
X0135445Y0170250D01*
X0135443Y0170181D01*
X0135437Y0170113D01*
X0135427Y0170045D01*
X0135413Y0169978D01*
X0135395Y0169911D01*
X0135374Y0169846D01*
X0135348Y0169782D01*
X0135319Y0169720D01*
X0135287Y0169659D01*
X0135251Y0169601D01*
X0135211Y0169545D01*
X0135169Y0169491D01*
X0135123Y0169440D01*
X0135074Y0169391D01*
X0135023Y0169345D01*
X0134969Y0169303D01*
X0134913Y0169263D01*
X0134855Y0169227D01*
X0134794Y0169195D01*
X0134732Y0169166D01*
X0134668Y0169140D01*
X0134603Y0169119D01*
X0134536Y0169101D01*
X0134469Y0169087D01*
X0134401Y0169077D01*
X0134333Y0169071D01*
X0134264Y0169069D01*
X0134195Y0169071D01*
X0134127Y0169077D01*
X0134059Y0169087D01*
X0133992Y0169101D01*
X0133925Y0169119D01*
X0133860Y0169140D01*
X0133796Y0169166D01*
X0133734Y0169195D01*
X0133673Y0169227D01*
X0133615Y0169263D01*
X0133559Y0169303D01*
X0133505Y0169345D01*
X0133454Y0169391D01*
X0133405Y0169440D01*
X0133359Y0169491D01*
X0133317Y0169545D01*
X0133277Y0169601D01*
X0133241Y0169659D01*
X0133209Y0169720D01*
X0133180Y0169782D01*
X0133154Y0169846D01*
X0133133Y0169911D01*
X0133115Y0169978D01*
X0133101Y0170045D01*
X0133091Y0170113D01*
X0133085Y0170181D01*
X0133083Y0170250D01*
D19*
X0068300Y0179900D02*
X0068300Y0194900D01*
X0018300Y0194900D01*
X0018300Y0179900D01*
X0018300Y0159900D02*
X0018300Y0139900D01*
X0028300Y0139900D01*
X0058300Y0139900D02*
X0068300Y0139900D01*
X0068300Y0159900D01*
X0309300Y0160900D02*
X0309300Y0140900D01*
X0319300Y0140900D01*
X0349300Y0140900D02*
X0359300Y0140900D01*
X0359300Y0160900D01*
X0359300Y0180900D02*
X0359300Y0195900D01*
X0309300Y0195900D01*
X0309300Y0180900D01*
D20*
X0339604Y0111672D02*
X0361651Y0111672D01*
X0361651Y0058128D01*
X0339604Y0058128D01*
X0339604Y0067577D01*
X0361651Y0058128D02*
X0371100Y0058128D01*
X0371100Y0067577D01*
X0371100Y0102223D02*
X0371100Y0111672D01*
X0361651Y0111672D01*
X0339604Y0111672D02*
X0339604Y0102223D01*
X0182966Y0203639D02*
X0177966Y0203639D01*
X0182966Y0223639D02*
X0182966Y0258639D01*
X0132966Y0258639D01*
X0132966Y0223639D01*
X0132966Y0203639D02*
X0137966Y0203639D01*
X0039396Y0113472D02*
X0017349Y0113472D01*
X0017349Y0059928D01*
X0007900Y0059928D01*
X0007900Y0069377D01*
X0017349Y0059928D02*
X0039396Y0059928D01*
X0039396Y0069377D01*
X0039396Y0104023D02*
X0039396Y0113472D01*
X0017349Y0113472D02*
X0007900Y0113472D01*
X0007900Y0104023D01*
D21*
X0188200Y0025300D02*
X0188200Y0005300D01*
X0318200Y0005300D01*
X0318200Y0025300D01*
X0188200Y0025300D01*
D22*
X0232402Y0056601D02*
X0232402Y0082191D01*
X0234765Y0082191D01*
X0235158Y0082191D02*
X0254450Y0082191D01*
X0254450Y0078648D01*
X0239883Y0078648D01*
X0239883Y0074711D01*
X0254056Y0074711D01*
X0254056Y0069987D01*
X0239883Y0069987D01*
X0239883Y0065262D01*
X0254056Y0065262D01*
X0254056Y0060931D01*
X0240276Y0060931D01*
X0240276Y0056601D01*
X0254056Y0056601D01*
X0254056Y0040853D01*
D23*
X0149911Y0048952D02*
X0126289Y0048952D01*
X0126289Y0058794D02*
X0126289Y0064700D01*
X0130226Y0064700D01*
X0145974Y0064700D02*
X0149911Y0064700D01*
X0149911Y0058794D01*
X0077711Y0021700D02*
X0077711Y0015794D01*
X0077711Y0021700D02*
X0073774Y0021700D01*
X0058026Y0021700D02*
X0054089Y0021700D01*
X0054089Y0015794D01*
X0054089Y0005952D02*
X0077711Y0005952D01*
X0274889Y0179352D02*
X0298511Y0179352D01*
X0298511Y0189194D02*
X0298511Y0195100D01*
X0294574Y0195100D01*
X0278826Y0195100D02*
X0274889Y0195100D01*
X0274889Y0189194D01*
M02*
