G75*
%MOIN*%
%OFA0B0*%
%FSLAX25Y25*%
%IPPOS*%
%LPD*%
%AMOC8*
5,1,8,0,0,1.08239X$1,22.5*
%
%ADD10C,0.00000*%
%ADD11R,0.05700X0.03800*%
%ADD12R,0.03800X0.05700*%
%ADD13R,0.04900X0.02800*%
%ADD14R,0.06800X0.06600*%
%ADD15R,0.04724X0.03959*%
%ADD16R,0.02756X0.00866*%
%ADD17R,0.07087X0.09449*%
%ADD18R,0.01600X0.07500*%
%ADD19R,0.03600X0.03800*%
%ADD20R,0.01575X0.05315*%
%ADD21R,0.07480X0.07480*%
%ADD22R,0.08268X0.06299*%
%ADD23R,0.07087X0.07480*%
%ADD24R,0.03959X0.04724*%
%ADD25C,0.01181*%
%ADD26R,0.02756X0.00984*%
%ADD27R,0.00787X0.04724*%
%ADD28R,0.02300X0.06200*%
%ADD29R,0.01969X0.01181*%
%ADD30R,0.01969X0.04724*%
%ADD31C,0.00378*%
%ADD32C,0.00661*%
%ADD33R,0.02760X0.03940*%
%ADD34R,0.02800X0.04900*%
%ADD35R,0.03150X0.07874*%
%ADD36R,0.07874X0.03150*%
%ADD37R,0.03400X0.02400*%
%ADD38R,0.01181X0.10236*%
%ADD39R,0.03200X0.03000*%
%ADD40R,0.02008X0.01575*%
%ADD41C,0.00906*%
%ADD42R,0.03800X0.03600*%
%ADD43R,0.02400X0.06200*%
%ADD44R,0.03150X0.03543*%
%ADD45R,0.05575X0.02565*%
%ADD46R,0.03543X0.03150*%
%ADD47R,0.04724X0.09843*%
%ADD48R,0.09843X0.04724*%
%ADD49R,0.07500X0.15000*%
%ADD50R,0.02400X0.03400*%
%ADD51R,0.01200X0.03200*%
%ADD52R,0.03200X0.01200*%
%ADD53C,0.00100*%
%ADD54R,0.03600X0.04100*%
%ADD55R,0.02600X0.02600*%
%ADD56R,0.04200X0.03200*%
%ADD57R,0.02800X0.02800*%
%ADD58R,0.07874X0.01969*%
%ADD59R,0.02362X0.06102*%
%ADD60R,0.04724X0.07087*%
%ADD61R,0.03940X0.02760*%
%ADD62R,0.02449X0.04063*%
%ADD63R,0.01969X0.04063*%
%ADD64R,0.02200X0.02400*%
%ADD65R,0.04100X0.03600*%
%ADD66R,0.02400X0.02600*%
D10*
X0010700Y0002800D02*
X0011139Y0002800D01*
X0366500Y0002500D01*
X0366500Y0054500D01*
X0377700Y0054500D01*
X0377700Y0115201D01*
X0366900Y0115201D01*
X0366700Y0201801D01*
X0193900Y0201900D01*
X0193900Y0228100D01*
X0072100Y0228100D01*
X0072100Y0201901D01*
X0011139Y0201901D01*
X0011100Y0120100D01*
X0011100Y0116700D01*
X0001500Y0116700D01*
X0001500Y0057000D01*
X0010700Y0056900D01*
X0010700Y0002800D01*
X0017700Y0012800D02*
X0017702Y0012941D01*
X0017708Y0013082D01*
X0017718Y0013222D01*
X0017732Y0013362D01*
X0017750Y0013502D01*
X0017771Y0013641D01*
X0017797Y0013780D01*
X0017826Y0013918D01*
X0017860Y0014054D01*
X0017897Y0014190D01*
X0017938Y0014325D01*
X0017983Y0014459D01*
X0018032Y0014591D01*
X0018084Y0014722D01*
X0018140Y0014851D01*
X0018200Y0014978D01*
X0018263Y0015104D01*
X0018329Y0015228D01*
X0018400Y0015351D01*
X0018473Y0015471D01*
X0018550Y0015589D01*
X0018630Y0015705D01*
X0018714Y0015818D01*
X0018800Y0015929D01*
X0018890Y0016038D01*
X0018983Y0016144D01*
X0019078Y0016247D01*
X0019177Y0016348D01*
X0019278Y0016446D01*
X0019382Y0016541D01*
X0019489Y0016633D01*
X0019598Y0016722D01*
X0019710Y0016807D01*
X0019824Y0016890D01*
X0019940Y0016970D01*
X0020059Y0017046D01*
X0020180Y0017118D01*
X0020302Y0017188D01*
X0020427Y0017253D01*
X0020553Y0017316D01*
X0020681Y0017374D01*
X0020811Y0017429D01*
X0020942Y0017481D01*
X0021075Y0017528D01*
X0021209Y0017572D01*
X0021344Y0017613D01*
X0021480Y0017649D01*
X0021617Y0017681D01*
X0021755Y0017710D01*
X0021893Y0017735D01*
X0022033Y0017755D01*
X0022173Y0017772D01*
X0022313Y0017785D01*
X0022454Y0017794D01*
X0022594Y0017799D01*
X0022735Y0017800D01*
X0022876Y0017797D01*
X0023017Y0017790D01*
X0023157Y0017779D01*
X0023297Y0017764D01*
X0023437Y0017745D01*
X0023576Y0017723D01*
X0023714Y0017696D01*
X0023852Y0017666D01*
X0023988Y0017631D01*
X0024124Y0017593D01*
X0024258Y0017551D01*
X0024392Y0017505D01*
X0024524Y0017456D01*
X0024654Y0017402D01*
X0024783Y0017345D01*
X0024910Y0017285D01*
X0025036Y0017221D01*
X0025159Y0017153D01*
X0025281Y0017082D01*
X0025401Y0017008D01*
X0025518Y0016930D01*
X0025633Y0016849D01*
X0025746Y0016765D01*
X0025857Y0016678D01*
X0025965Y0016587D01*
X0026070Y0016494D01*
X0026173Y0016397D01*
X0026273Y0016298D01*
X0026370Y0016196D01*
X0026464Y0016091D01*
X0026555Y0015984D01*
X0026643Y0015874D01*
X0026728Y0015762D01*
X0026810Y0015647D01*
X0026889Y0015530D01*
X0026964Y0015411D01*
X0027036Y0015290D01*
X0027104Y0015167D01*
X0027169Y0015042D01*
X0027231Y0014915D01*
X0027288Y0014786D01*
X0027343Y0014656D01*
X0027393Y0014525D01*
X0027440Y0014392D01*
X0027483Y0014258D01*
X0027522Y0014122D01*
X0027557Y0013986D01*
X0027589Y0013849D01*
X0027616Y0013711D01*
X0027640Y0013572D01*
X0027660Y0013432D01*
X0027676Y0013292D01*
X0027688Y0013152D01*
X0027696Y0013011D01*
X0027700Y0012870D01*
X0027700Y0012730D01*
X0027696Y0012589D01*
X0027688Y0012448D01*
X0027676Y0012308D01*
X0027660Y0012168D01*
X0027640Y0012028D01*
X0027616Y0011889D01*
X0027589Y0011751D01*
X0027557Y0011614D01*
X0027522Y0011478D01*
X0027483Y0011342D01*
X0027440Y0011208D01*
X0027393Y0011075D01*
X0027343Y0010944D01*
X0027288Y0010814D01*
X0027231Y0010685D01*
X0027169Y0010558D01*
X0027104Y0010433D01*
X0027036Y0010310D01*
X0026964Y0010189D01*
X0026889Y0010070D01*
X0026810Y0009953D01*
X0026728Y0009838D01*
X0026643Y0009726D01*
X0026555Y0009616D01*
X0026464Y0009509D01*
X0026370Y0009404D01*
X0026273Y0009302D01*
X0026173Y0009203D01*
X0026070Y0009106D01*
X0025965Y0009013D01*
X0025857Y0008922D01*
X0025746Y0008835D01*
X0025633Y0008751D01*
X0025518Y0008670D01*
X0025401Y0008592D01*
X0025281Y0008518D01*
X0025159Y0008447D01*
X0025036Y0008379D01*
X0024910Y0008315D01*
X0024783Y0008255D01*
X0024654Y0008198D01*
X0024524Y0008144D01*
X0024392Y0008095D01*
X0024258Y0008049D01*
X0024124Y0008007D01*
X0023988Y0007969D01*
X0023852Y0007934D01*
X0023714Y0007904D01*
X0023576Y0007877D01*
X0023437Y0007855D01*
X0023297Y0007836D01*
X0023157Y0007821D01*
X0023017Y0007810D01*
X0022876Y0007803D01*
X0022735Y0007800D01*
X0022594Y0007801D01*
X0022454Y0007806D01*
X0022313Y0007815D01*
X0022173Y0007828D01*
X0022033Y0007845D01*
X0021893Y0007865D01*
X0021755Y0007890D01*
X0021617Y0007919D01*
X0021480Y0007951D01*
X0021344Y0007987D01*
X0021209Y0008028D01*
X0021075Y0008072D01*
X0020942Y0008119D01*
X0020811Y0008171D01*
X0020681Y0008226D01*
X0020553Y0008284D01*
X0020427Y0008347D01*
X0020302Y0008412D01*
X0020180Y0008482D01*
X0020059Y0008554D01*
X0019940Y0008630D01*
X0019824Y0008710D01*
X0019710Y0008793D01*
X0019598Y0008878D01*
X0019489Y0008967D01*
X0019382Y0009059D01*
X0019278Y0009154D01*
X0019177Y0009252D01*
X0019078Y0009353D01*
X0018983Y0009456D01*
X0018890Y0009562D01*
X0018800Y0009671D01*
X0018714Y0009782D01*
X0018630Y0009895D01*
X0018550Y0010011D01*
X0018473Y0010129D01*
X0018400Y0010249D01*
X0018329Y0010372D01*
X0018263Y0010496D01*
X0018200Y0010622D01*
X0018140Y0010749D01*
X0018084Y0010878D01*
X0018032Y0011009D01*
X0017983Y0011141D01*
X0017938Y0011275D01*
X0017897Y0011410D01*
X0017860Y0011546D01*
X0017826Y0011682D01*
X0017797Y0011820D01*
X0017771Y0011959D01*
X0017750Y0012098D01*
X0017732Y0012238D01*
X0017718Y0012378D01*
X0017708Y0012518D01*
X0017702Y0012659D01*
X0017700Y0012800D01*
X0020991Y0067802D02*
X0020993Y0067912D01*
X0020999Y0068022D01*
X0021009Y0068132D01*
X0021023Y0068241D01*
X0021041Y0068350D01*
X0021062Y0068458D01*
X0021088Y0068565D01*
X0021117Y0068671D01*
X0021151Y0068776D01*
X0021188Y0068880D01*
X0021229Y0068982D01*
X0021273Y0069083D01*
X0021321Y0069182D01*
X0021373Y0069280D01*
X0021428Y0069375D01*
X0021486Y0069468D01*
X0021548Y0069559D01*
X0021613Y0069648D01*
X0021681Y0069735D01*
X0021753Y0069819D01*
X0021827Y0069900D01*
X0021904Y0069979D01*
X0021984Y0070055D01*
X0022067Y0070127D01*
X0022152Y0070197D01*
X0022240Y0070264D01*
X0022330Y0070327D01*
X0022422Y0070387D01*
X0022516Y0070444D01*
X0022613Y0070498D01*
X0022711Y0070547D01*
X0022811Y0070594D01*
X0022913Y0070636D01*
X0023016Y0070675D01*
X0023120Y0070710D01*
X0023226Y0070742D01*
X0023332Y0070769D01*
X0023440Y0070793D01*
X0023548Y0070813D01*
X0023657Y0070829D01*
X0023767Y0070841D01*
X0023877Y0070849D01*
X0023987Y0070853D01*
X0024097Y0070853D01*
X0024207Y0070849D01*
X0024317Y0070841D01*
X0024427Y0070829D01*
X0024536Y0070813D01*
X0024644Y0070793D01*
X0024752Y0070769D01*
X0024858Y0070742D01*
X0024964Y0070710D01*
X0025068Y0070675D01*
X0025171Y0070636D01*
X0025273Y0070594D01*
X0025373Y0070547D01*
X0025471Y0070498D01*
X0025567Y0070444D01*
X0025662Y0070387D01*
X0025754Y0070327D01*
X0025844Y0070264D01*
X0025932Y0070197D01*
X0026017Y0070127D01*
X0026100Y0070055D01*
X0026180Y0069979D01*
X0026257Y0069900D01*
X0026331Y0069819D01*
X0026403Y0069735D01*
X0026471Y0069648D01*
X0026536Y0069559D01*
X0026598Y0069468D01*
X0026656Y0069375D01*
X0026711Y0069280D01*
X0026763Y0069182D01*
X0026811Y0069083D01*
X0026855Y0068982D01*
X0026896Y0068880D01*
X0026933Y0068776D01*
X0026967Y0068671D01*
X0026996Y0068565D01*
X0027022Y0068458D01*
X0027043Y0068350D01*
X0027061Y0068241D01*
X0027075Y0068132D01*
X0027085Y0068022D01*
X0027091Y0067912D01*
X0027093Y0067802D01*
X0027091Y0067692D01*
X0027085Y0067582D01*
X0027075Y0067472D01*
X0027061Y0067363D01*
X0027043Y0067254D01*
X0027022Y0067146D01*
X0026996Y0067039D01*
X0026967Y0066933D01*
X0026933Y0066828D01*
X0026896Y0066724D01*
X0026855Y0066622D01*
X0026811Y0066521D01*
X0026763Y0066422D01*
X0026711Y0066324D01*
X0026656Y0066229D01*
X0026598Y0066136D01*
X0026536Y0066045D01*
X0026471Y0065956D01*
X0026403Y0065869D01*
X0026331Y0065785D01*
X0026257Y0065704D01*
X0026180Y0065625D01*
X0026100Y0065549D01*
X0026017Y0065477D01*
X0025932Y0065407D01*
X0025844Y0065340D01*
X0025754Y0065277D01*
X0025662Y0065217D01*
X0025568Y0065160D01*
X0025471Y0065106D01*
X0025373Y0065057D01*
X0025273Y0065010D01*
X0025171Y0064968D01*
X0025068Y0064929D01*
X0024964Y0064894D01*
X0024858Y0064862D01*
X0024752Y0064835D01*
X0024644Y0064811D01*
X0024536Y0064791D01*
X0024427Y0064775D01*
X0024317Y0064763D01*
X0024207Y0064755D01*
X0024097Y0064751D01*
X0023987Y0064751D01*
X0023877Y0064755D01*
X0023767Y0064763D01*
X0023657Y0064775D01*
X0023548Y0064791D01*
X0023440Y0064811D01*
X0023332Y0064835D01*
X0023226Y0064862D01*
X0023120Y0064894D01*
X0023016Y0064929D01*
X0022913Y0064968D01*
X0022811Y0065010D01*
X0022711Y0065057D01*
X0022613Y0065106D01*
X0022516Y0065160D01*
X0022422Y0065217D01*
X0022330Y0065277D01*
X0022240Y0065340D01*
X0022152Y0065407D01*
X0022067Y0065477D01*
X0021984Y0065549D01*
X0021904Y0065625D01*
X0021827Y0065704D01*
X0021753Y0065785D01*
X0021681Y0065869D01*
X0021613Y0065956D01*
X0021548Y0066045D01*
X0021486Y0066136D01*
X0021428Y0066229D01*
X0021373Y0066324D01*
X0021321Y0066422D01*
X0021273Y0066521D01*
X0021229Y0066622D01*
X0021188Y0066724D01*
X0021151Y0066828D01*
X0021117Y0066933D01*
X0021088Y0067039D01*
X0021062Y0067146D01*
X0021041Y0067254D01*
X0021023Y0067363D01*
X0021009Y0067472D01*
X0020999Y0067582D01*
X0020993Y0067692D01*
X0020991Y0067802D01*
X0020991Y0105598D02*
X0020993Y0105708D01*
X0020999Y0105818D01*
X0021009Y0105928D01*
X0021023Y0106037D01*
X0021041Y0106146D01*
X0021062Y0106254D01*
X0021088Y0106361D01*
X0021117Y0106467D01*
X0021151Y0106572D01*
X0021188Y0106676D01*
X0021229Y0106778D01*
X0021273Y0106879D01*
X0021321Y0106978D01*
X0021373Y0107076D01*
X0021428Y0107171D01*
X0021486Y0107264D01*
X0021548Y0107355D01*
X0021613Y0107444D01*
X0021681Y0107531D01*
X0021753Y0107615D01*
X0021827Y0107696D01*
X0021904Y0107775D01*
X0021984Y0107851D01*
X0022067Y0107923D01*
X0022152Y0107993D01*
X0022240Y0108060D01*
X0022330Y0108123D01*
X0022422Y0108183D01*
X0022516Y0108240D01*
X0022613Y0108294D01*
X0022711Y0108343D01*
X0022811Y0108390D01*
X0022913Y0108432D01*
X0023016Y0108471D01*
X0023120Y0108506D01*
X0023226Y0108538D01*
X0023332Y0108565D01*
X0023440Y0108589D01*
X0023548Y0108609D01*
X0023657Y0108625D01*
X0023767Y0108637D01*
X0023877Y0108645D01*
X0023987Y0108649D01*
X0024097Y0108649D01*
X0024207Y0108645D01*
X0024317Y0108637D01*
X0024427Y0108625D01*
X0024536Y0108609D01*
X0024644Y0108589D01*
X0024752Y0108565D01*
X0024858Y0108538D01*
X0024964Y0108506D01*
X0025068Y0108471D01*
X0025171Y0108432D01*
X0025273Y0108390D01*
X0025373Y0108343D01*
X0025471Y0108294D01*
X0025567Y0108240D01*
X0025662Y0108183D01*
X0025754Y0108123D01*
X0025844Y0108060D01*
X0025932Y0107993D01*
X0026017Y0107923D01*
X0026100Y0107851D01*
X0026180Y0107775D01*
X0026257Y0107696D01*
X0026331Y0107615D01*
X0026403Y0107531D01*
X0026471Y0107444D01*
X0026536Y0107355D01*
X0026598Y0107264D01*
X0026656Y0107171D01*
X0026711Y0107076D01*
X0026763Y0106978D01*
X0026811Y0106879D01*
X0026855Y0106778D01*
X0026896Y0106676D01*
X0026933Y0106572D01*
X0026967Y0106467D01*
X0026996Y0106361D01*
X0027022Y0106254D01*
X0027043Y0106146D01*
X0027061Y0106037D01*
X0027075Y0105928D01*
X0027085Y0105818D01*
X0027091Y0105708D01*
X0027093Y0105598D01*
X0027091Y0105488D01*
X0027085Y0105378D01*
X0027075Y0105268D01*
X0027061Y0105159D01*
X0027043Y0105050D01*
X0027022Y0104942D01*
X0026996Y0104835D01*
X0026967Y0104729D01*
X0026933Y0104624D01*
X0026896Y0104520D01*
X0026855Y0104418D01*
X0026811Y0104317D01*
X0026763Y0104218D01*
X0026711Y0104120D01*
X0026656Y0104025D01*
X0026598Y0103932D01*
X0026536Y0103841D01*
X0026471Y0103752D01*
X0026403Y0103665D01*
X0026331Y0103581D01*
X0026257Y0103500D01*
X0026180Y0103421D01*
X0026100Y0103345D01*
X0026017Y0103273D01*
X0025932Y0103203D01*
X0025844Y0103136D01*
X0025754Y0103073D01*
X0025662Y0103013D01*
X0025568Y0102956D01*
X0025471Y0102902D01*
X0025373Y0102853D01*
X0025273Y0102806D01*
X0025171Y0102764D01*
X0025068Y0102725D01*
X0024964Y0102690D01*
X0024858Y0102658D01*
X0024752Y0102631D01*
X0024644Y0102607D01*
X0024536Y0102587D01*
X0024427Y0102571D01*
X0024317Y0102559D01*
X0024207Y0102551D01*
X0024097Y0102547D01*
X0023987Y0102547D01*
X0023877Y0102551D01*
X0023767Y0102559D01*
X0023657Y0102571D01*
X0023548Y0102587D01*
X0023440Y0102607D01*
X0023332Y0102631D01*
X0023226Y0102658D01*
X0023120Y0102690D01*
X0023016Y0102725D01*
X0022913Y0102764D01*
X0022811Y0102806D01*
X0022711Y0102853D01*
X0022613Y0102902D01*
X0022516Y0102956D01*
X0022422Y0103013D01*
X0022330Y0103073D01*
X0022240Y0103136D01*
X0022152Y0103203D01*
X0022067Y0103273D01*
X0021984Y0103345D01*
X0021904Y0103421D01*
X0021827Y0103500D01*
X0021753Y0103581D01*
X0021681Y0103665D01*
X0021613Y0103752D01*
X0021548Y0103841D01*
X0021486Y0103932D01*
X0021428Y0104025D01*
X0021373Y0104120D01*
X0021321Y0104218D01*
X0021273Y0104317D01*
X0021229Y0104418D01*
X0021188Y0104520D01*
X0021151Y0104624D01*
X0021117Y0104729D01*
X0021088Y0104835D01*
X0021062Y0104942D01*
X0021041Y0105050D01*
X0021023Y0105159D01*
X0021009Y0105268D01*
X0020999Y0105378D01*
X0020993Y0105488D01*
X0020991Y0105598D01*
X0013900Y0127000D02*
X0013902Y0127141D01*
X0013908Y0127282D01*
X0013918Y0127422D01*
X0013932Y0127562D01*
X0013950Y0127702D01*
X0013971Y0127841D01*
X0013997Y0127980D01*
X0014026Y0128118D01*
X0014060Y0128254D01*
X0014097Y0128390D01*
X0014138Y0128525D01*
X0014183Y0128659D01*
X0014232Y0128791D01*
X0014284Y0128922D01*
X0014340Y0129051D01*
X0014400Y0129178D01*
X0014463Y0129304D01*
X0014529Y0129428D01*
X0014600Y0129551D01*
X0014673Y0129671D01*
X0014750Y0129789D01*
X0014830Y0129905D01*
X0014914Y0130018D01*
X0015000Y0130129D01*
X0015090Y0130238D01*
X0015183Y0130344D01*
X0015278Y0130447D01*
X0015377Y0130548D01*
X0015478Y0130646D01*
X0015582Y0130741D01*
X0015689Y0130833D01*
X0015798Y0130922D01*
X0015910Y0131007D01*
X0016024Y0131090D01*
X0016140Y0131170D01*
X0016259Y0131246D01*
X0016380Y0131318D01*
X0016502Y0131388D01*
X0016627Y0131453D01*
X0016753Y0131516D01*
X0016881Y0131574D01*
X0017011Y0131629D01*
X0017142Y0131681D01*
X0017275Y0131728D01*
X0017409Y0131772D01*
X0017544Y0131813D01*
X0017680Y0131849D01*
X0017817Y0131881D01*
X0017955Y0131910D01*
X0018093Y0131935D01*
X0018233Y0131955D01*
X0018373Y0131972D01*
X0018513Y0131985D01*
X0018654Y0131994D01*
X0018794Y0131999D01*
X0018935Y0132000D01*
X0019076Y0131997D01*
X0019217Y0131990D01*
X0019357Y0131979D01*
X0019497Y0131964D01*
X0019637Y0131945D01*
X0019776Y0131923D01*
X0019914Y0131896D01*
X0020052Y0131866D01*
X0020188Y0131831D01*
X0020324Y0131793D01*
X0020458Y0131751D01*
X0020592Y0131705D01*
X0020724Y0131656D01*
X0020854Y0131602D01*
X0020983Y0131545D01*
X0021110Y0131485D01*
X0021236Y0131421D01*
X0021359Y0131353D01*
X0021481Y0131282D01*
X0021601Y0131208D01*
X0021718Y0131130D01*
X0021833Y0131049D01*
X0021946Y0130965D01*
X0022057Y0130878D01*
X0022165Y0130787D01*
X0022270Y0130694D01*
X0022373Y0130597D01*
X0022473Y0130498D01*
X0022570Y0130396D01*
X0022664Y0130291D01*
X0022755Y0130184D01*
X0022843Y0130074D01*
X0022928Y0129962D01*
X0023010Y0129847D01*
X0023089Y0129730D01*
X0023164Y0129611D01*
X0023236Y0129490D01*
X0023304Y0129367D01*
X0023369Y0129242D01*
X0023431Y0129115D01*
X0023488Y0128986D01*
X0023543Y0128856D01*
X0023593Y0128725D01*
X0023640Y0128592D01*
X0023683Y0128458D01*
X0023722Y0128322D01*
X0023757Y0128186D01*
X0023789Y0128049D01*
X0023816Y0127911D01*
X0023840Y0127772D01*
X0023860Y0127632D01*
X0023876Y0127492D01*
X0023888Y0127352D01*
X0023896Y0127211D01*
X0023900Y0127070D01*
X0023900Y0126930D01*
X0023896Y0126789D01*
X0023888Y0126648D01*
X0023876Y0126508D01*
X0023860Y0126368D01*
X0023840Y0126228D01*
X0023816Y0126089D01*
X0023789Y0125951D01*
X0023757Y0125814D01*
X0023722Y0125678D01*
X0023683Y0125542D01*
X0023640Y0125408D01*
X0023593Y0125275D01*
X0023543Y0125144D01*
X0023488Y0125014D01*
X0023431Y0124885D01*
X0023369Y0124758D01*
X0023304Y0124633D01*
X0023236Y0124510D01*
X0023164Y0124389D01*
X0023089Y0124270D01*
X0023010Y0124153D01*
X0022928Y0124038D01*
X0022843Y0123926D01*
X0022755Y0123816D01*
X0022664Y0123709D01*
X0022570Y0123604D01*
X0022473Y0123502D01*
X0022373Y0123403D01*
X0022270Y0123306D01*
X0022165Y0123213D01*
X0022057Y0123122D01*
X0021946Y0123035D01*
X0021833Y0122951D01*
X0021718Y0122870D01*
X0021601Y0122792D01*
X0021481Y0122718D01*
X0021359Y0122647D01*
X0021236Y0122579D01*
X0021110Y0122515D01*
X0020983Y0122455D01*
X0020854Y0122398D01*
X0020724Y0122344D01*
X0020592Y0122295D01*
X0020458Y0122249D01*
X0020324Y0122207D01*
X0020188Y0122169D01*
X0020052Y0122134D01*
X0019914Y0122104D01*
X0019776Y0122077D01*
X0019637Y0122055D01*
X0019497Y0122036D01*
X0019357Y0122021D01*
X0019217Y0122010D01*
X0019076Y0122003D01*
X0018935Y0122000D01*
X0018794Y0122001D01*
X0018654Y0122006D01*
X0018513Y0122015D01*
X0018373Y0122028D01*
X0018233Y0122045D01*
X0018093Y0122065D01*
X0017955Y0122090D01*
X0017817Y0122119D01*
X0017680Y0122151D01*
X0017544Y0122187D01*
X0017409Y0122228D01*
X0017275Y0122272D01*
X0017142Y0122319D01*
X0017011Y0122371D01*
X0016881Y0122426D01*
X0016753Y0122484D01*
X0016627Y0122547D01*
X0016502Y0122612D01*
X0016380Y0122682D01*
X0016259Y0122754D01*
X0016140Y0122830D01*
X0016024Y0122910D01*
X0015910Y0122993D01*
X0015798Y0123078D01*
X0015689Y0123167D01*
X0015582Y0123259D01*
X0015478Y0123354D01*
X0015377Y0123452D01*
X0015278Y0123553D01*
X0015183Y0123656D01*
X0015090Y0123762D01*
X0015000Y0123871D01*
X0014914Y0123982D01*
X0014830Y0124095D01*
X0014750Y0124211D01*
X0014673Y0124329D01*
X0014600Y0124449D01*
X0014529Y0124572D01*
X0014463Y0124696D01*
X0014400Y0124822D01*
X0014340Y0124949D01*
X0014284Y0125078D01*
X0014232Y0125209D01*
X0014183Y0125341D01*
X0014138Y0125475D01*
X0014097Y0125610D01*
X0014060Y0125746D01*
X0014026Y0125882D01*
X0013997Y0126020D01*
X0013971Y0126159D01*
X0013950Y0126298D01*
X0013932Y0126438D01*
X0013918Y0126578D01*
X0013908Y0126718D01*
X0013902Y0126859D01*
X0013900Y0127000D01*
X0054324Y0126900D02*
X0054326Y0127012D01*
X0054332Y0127123D01*
X0054342Y0127235D01*
X0054356Y0127346D01*
X0054373Y0127456D01*
X0054395Y0127566D01*
X0054421Y0127674D01*
X0054450Y0127782D01*
X0054483Y0127889D01*
X0054520Y0127995D01*
X0054561Y0128099D01*
X0054605Y0128201D01*
X0054653Y0128302D01*
X0054705Y0128401D01*
X0054760Y0128499D01*
X0054818Y0128594D01*
X0054880Y0128687D01*
X0054945Y0128778D01*
X0055014Y0128866D01*
X0055085Y0128953D01*
X0055159Y0129036D01*
X0055236Y0129117D01*
X0055317Y0129195D01*
X0055399Y0129270D01*
X0055485Y0129342D01*
X0055573Y0129411D01*
X0055663Y0129477D01*
X0055756Y0129539D01*
X0055850Y0129599D01*
X0055947Y0129655D01*
X0056046Y0129707D01*
X0056146Y0129756D01*
X0056249Y0129801D01*
X0056352Y0129843D01*
X0056457Y0129881D01*
X0056564Y0129915D01*
X0056671Y0129945D01*
X0056780Y0129972D01*
X0056890Y0129994D01*
X0057000Y0130013D01*
X0057111Y0130028D01*
X0057222Y0130039D01*
X0057333Y0130046D01*
X0057445Y0130049D01*
X0057557Y0130048D01*
X0057668Y0130043D01*
X0057780Y0130034D01*
X0057891Y0130021D01*
X0058001Y0130004D01*
X0058111Y0129984D01*
X0058220Y0129959D01*
X0058328Y0129931D01*
X0058435Y0129898D01*
X0058541Y0129862D01*
X0058646Y0129822D01*
X0058749Y0129779D01*
X0058850Y0129732D01*
X0058950Y0129681D01*
X0059047Y0129627D01*
X0059143Y0129570D01*
X0059237Y0129509D01*
X0059328Y0129444D01*
X0059418Y0129377D01*
X0059504Y0129306D01*
X0059588Y0129233D01*
X0059670Y0129156D01*
X0059749Y0129077D01*
X0059824Y0128995D01*
X0059897Y0128910D01*
X0059967Y0128823D01*
X0060034Y0128733D01*
X0060097Y0128641D01*
X0060157Y0128547D01*
X0060214Y0128450D01*
X0060267Y0128352D01*
X0060317Y0128252D01*
X0060363Y0128150D01*
X0060406Y0128047D01*
X0060445Y0127942D01*
X0060480Y0127836D01*
X0060511Y0127729D01*
X0060539Y0127620D01*
X0060562Y0127511D01*
X0060582Y0127401D01*
X0060598Y0127290D01*
X0060610Y0127179D01*
X0060618Y0127068D01*
X0060622Y0126956D01*
X0060622Y0126844D01*
X0060618Y0126732D01*
X0060610Y0126621D01*
X0060598Y0126510D01*
X0060582Y0126399D01*
X0060562Y0126289D01*
X0060539Y0126180D01*
X0060511Y0126071D01*
X0060480Y0125964D01*
X0060445Y0125858D01*
X0060406Y0125753D01*
X0060363Y0125650D01*
X0060317Y0125548D01*
X0060267Y0125448D01*
X0060214Y0125350D01*
X0060157Y0125253D01*
X0060097Y0125159D01*
X0060034Y0125067D01*
X0059967Y0124977D01*
X0059897Y0124890D01*
X0059824Y0124805D01*
X0059749Y0124723D01*
X0059670Y0124644D01*
X0059588Y0124567D01*
X0059504Y0124494D01*
X0059418Y0124423D01*
X0059328Y0124356D01*
X0059237Y0124291D01*
X0059143Y0124230D01*
X0059048Y0124173D01*
X0058950Y0124119D01*
X0058850Y0124068D01*
X0058749Y0124021D01*
X0058646Y0123978D01*
X0058541Y0123938D01*
X0058435Y0123902D01*
X0058328Y0123869D01*
X0058220Y0123841D01*
X0058111Y0123816D01*
X0058001Y0123796D01*
X0057891Y0123779D01*
X0057780Y0123766D01*
X0057668Y0123757D01*
X0057557Y0123752D01*
X0057445Y0123751D01*
X0057333Y0123754D01*
X0057222Y0123761D01*
X0057111Y0123772D01*
X0057000Y0123787D01*
X0056890Y0123806D01*
X0056780Y0123828D01*
X0056671Y0123855D01*
X0056564Y0123885D01*
X0056457Y0123919D01*
X0056352Y0123957D01*
X0056249Y0123999D01*
X0056146Y0124044D01*
X0056046Y0124093D01*
X0055947Y0124145D01*
X0055850Y0124201D01*
X0055756Y0124261D01*
X0055663Y0124323D01*
X0055573Y0124389D01*
X0055485Y0124458D01*
X0055399Y0124530D01*
X0055317Y0124605D01*
X0055236Y0124683D01*
X0055159Y0124764D01*
X0055085Y0124847D01*
X0055014Y0124934D01*
X0054945Y0125022D01*
X0054880Y0125113D01*
X0054818Y0125206D01*
X0054760Y0125301D01*
X0054705Y0125399D01*
X0054653Y0125498D01*
X0054605Y0125599D01*
X0054561Y0125701D01*
X0054520Y0125805D01*
X0054483Y0125911D01*
X0054450Y0126018D01*
X0054421Y0126126D01*
X0054395Y0126234D01*
X0054373Y0126344D01*
X0054356Y0126454D01*
X0054342Y0126565D01*
X0054332Y0126677D01*
X0054326Y0126788D01*
X0054324Y0126900D01*
X0318300Y0126900D02*
X0318302Y0126993D01*
X0318308Y0127085D01*
X0318318Y0127177D01*
X0318332Y0127268D01*
X0318349Y0127359D01*
X0318371Y0127449D01*
X0318396Y0127538D01*
X0318425Y0127626D01*
X0318458Y0127712D01*
X0318495Y0127797D01*
X0318535Y0127881D01*
X0318579Y0127962D01*
X0318626Y0128042D01*
X0318676Y0128120D01*
X0318730Y0128195D01*
X0318787Y0128268D01*
X0318847Y0128338D01*
X0318910Y0128406D01*
X0318976Y0128471D01*
X0319044Y0128533D01*
X0319115Y0128593D01*
X0319189Y0128649D01*
X0319265Y0128702D01*
X0319343Y0128751D01*
X0319423Y0128798D01*
X0319505Y0128840D01*
X0319589Y0128880D01*
X0319674Y0128915D01*
X0319761Y0128947D01*
X0319849Y0128976D01*
X0319938Y0129000D01*
X0320028Y0129021D01*
X0320119Y0129037D01*
X0320211Y0129050D01*
X0320303Y0129059D01*
X0320396Y0129064D01*
X0320488Y0129065D01*
X0320581Y0129062D01*
X0320673Y0129055D01*
X0320765Y0129044D01*
X0320856Y0129029D01*
X0320947Y0129011D01*
X0321037Y0128988D01*
X0321125Y0128962D01*
X0321213Y0128932D01*
X0321299Y0128898D01*
X0321383Y0128861D01*
X0321466Y0128819D01*
X0321547Y0128775D01*
X0321627Y0128727D01*
X0321704Y0128676D01*
X0321778Y0128621D01*
X0321851Y0128563D01*
X0321921Y0128503D01*
X0321988Y0128439D01*
X0322052Y0128373D01*
X0322114Y0128303D01*
X0322172Y0128232D01*
X0322227Y0128158D01*
X0322279Y0128081D01*
X0322328Y0128002D01*
X0322374Y0127922D01*
X0322416Y0127839D01*
X0322454Y0127755D01*
X0322489Y0127669D01*
X0322520Y0127582D01*
X0322547Y0127494D01*
X0322570Y0127404D01*
X0322590Y0127314D01*
X0322606Y0127223D01*
X0322618Y0127131D01*
X0322626Y0127039D01*
X0322630Y0126946D01*
X0322630Y0126854D01*
X0322626Y0126761D01*
X0322618Y0126669D01*
X0322606Y0126577D01*
X0322590Y0126486D01*
X0322570Y0126396D01*
X0322547Y0126306D01*
X0322520Y0126218D01*
X0322489Y0126131D01*
X0322454Y0126045D01*
X0322416Y0125961D01*
X0322374Y0125878D01*
X0322328Y0125798D01*
X0322279Y0125719D01*
X0322227Y0125642D01*
X0322172Y0125568D01*
X0322114Y0125497D01*
X0322052Y0125427D01*
X0321988Y0125361D01*
X0321921Y0125297D01*
X0321851Y0125237D01*
X0321778Y0125179D01*
X0321704Y0125124D01*
X0321627Y0125073D01*
X0321548Y0125025D01*
X0321466Y0124981D01*
X0321383Y0124939D01*
X0321299Y0124902D01*
X0321213Y0124868D01*
X0321125Y0124838D01*
X0321037Y0124812D01*
X0320947Y0124789D01*
X0320856Y0124771D01*
X0320765Y0124756D01*
X0320673Y0124745D01*
X0320581Y0124738D01*
X0320488Y0124735D01*
X0320396Y0124736D01*
X0320303Y0124741D01*
X0320211Y0124750D01*
X0320119Y0124763D01*
X0320028Y0124779D01*
X0319938Y0124800D01*
X0319849Y0124824D01*
X0319761Y0124853D01*
X0319674Y0124885D01*
X0319589Y0124920D01*
X0319505Y0124960D01*
X0319423Y0125002D01*
X0319343Y0125049D01*
X0319265Y0125098D01*
X0319189Y0125151D01*
X0319115Y0125207D01*
X0319044Y0125267D01*
X0318976Y0125329D01*
X0318910Y0125394D01*
X0318847Y0125462D01*
X0318787Y0125532D01*
X0318730Y0125605D01*
X0318676Y0125680D01*
X0318626Y0125758D01*
X0318579Y0125838D01*
X0318535Y0125919D01*
X0318495Y0126003D01*
X0318458Y0126088D01*
X0318425Y0126174D01*
X0318396Y0126262D01*
X0318371Y0126351D01*
X0318349Y0126441D01*
X0318332Y0126532D01*
X0318318Y0126623D01*
X0318308Y0126715D01*
X0318302Y0126807D01*
X0318300Y0126900D01*
X0350100Y0125200D02*
X0350102Y0125341D01*
X0350108Y0125482D01*
X0350118Y0125622D01*
X0350132Y0125762D01*
X0350150Y0125902D01*
X0350171Y0126041D01*
X0350197Y0126180D01*
X0350226Y0126318D01*
X0350260Y0126454D01*
X0350297Y0126590D01*
X0350338Y0126725D01*
X0350383Y0126859D01*
X0350432Y0126991D01*
X0350484Y0127122D01*
X0350540Y0127251D01*
X0350600Y0127378D01*
X0350663Y0127504D01*
X0350729Y0127628D01*
X0350800Y0127751D01*
X0350873Y0127871D01*
X0350950Y0127989D01*
X0351030Y0128105D01*
X0351114Y0128218D01*
X0351200Y0128329D01*
X0351290Y0128438D01*
X0351383Y0128544D01*
X0351478Y0128647D01*
X0351577Y0128748D01*
X0351678Y0128846D01*
X0351782Y0128941D01*
X0351889Y0129033D01*
X0351998Y0129122D01*
X0352110Y0129207D01*
X0352224Y0129290D01*
X0352340Y0129370D01*
X0352459Y0129446D01*
X0352580Y0129518D01*
X0352702Y0129588D01*
X0352827Y0129653D01*
X0352953Y0129716D01*
X0353081Y0129774D01*
X0353211Y0129829D01*
X0353342Y0129881D01*
X0353475Y0129928D01*
X0353609Y0129972D01*
X0353744Y0130013D01*
X0353880Y0130049D01*
X0354017Y0130081D01*
X0354155Y0130110D01*
X0354293Y0130135D01*
X0354433Y0130155D01*
X0354573Y0130172D01*
X0354713Y0130185D01*
X0354854Y0130194D01*
X0354994Y0130199D01*
X0355135Y0130200D01*
X0355276Y0130197D01*
X0355417Y0130190D01*
X0355557Y0130179D01*
X0355697Y0130164D01*
X0355837Y0130145D01*
X0355976Y0130123D01*
X0356114Y0130096D01*
X0356252Y0130066D01*
X0356388Y0130031D01*
X0356524Y0129993D01*
X0356658Y0129951D01*
X0356792Y0129905D01*
X0356924Y0129856D01*
X0357054Y0129802D01*
X0357183Y0129745D01*
X0357310Y0129685D01*
X0357436Y0129621D01*
X0357559Y0129553D01*
X0357681Y0129482D01*
X0357801Y0129408D01*
X0357918Y0129330D01*
X0358033Y0129249D01*
X0358146Y0129165D01*
X0358257Y0129078D01*
X0358365Y0128987D01*
X0358470Y0128894D01*
X0358573Y0128797D01*
X0358673Y0128698D01*
X0358770Y0128596D01*
X0358864Y0128491D01*
X0358955Y0128384D01*
X0359043Y0128274D01*
X0359128Y0128162D01*
X0359210Y0128047D01*
X0359289Y0127930D01*
X0359364Y0127811D01*
X0359436Y0127690D01*
X0359504Y0127567D01*
X0359569Y0127442D01*
X0359631Y0127315D01*
X0359688Y0127186D01*
X0359743Y0127056D01*
X0359793Y0126925D01*
X0359840Y0126792D01*
X0359883Y0126658D01*
X0359922Y0126522D01*
X0359957Y0126386D01*
X0359989Y0126249D01*
X0360016Y0126111D01*
X0360040Y0125972D01*
X0360060Y0125832D01*
X0360076Y0125692D01*
X0360088Y0125552D01*
X0360096Y0125411D01*
X0360100Y0125270D01*
X0360100Y0125130D01*
X0360096Y0124989D01*
X0360088Y0124848D01*
X0360076Y0124708D01*
X0360060Y0124568D01*
X0360040Y0124428D01*
X0360016Y0124289D01*
X0359989Y0124151D01*
X0359957Y0124014D01*
X0359922Y0123878D01*
X0359883Y0123742D01*
X0359840Y0123608D01*
X0359793Y0123475D01*
X0359743Y0123344D01*
X0359688Y0123214D01*
X0359631Y0123085D01*
X0359569Y0122958D01*
X0359504Y0122833D01*
X0359436Y0122710D01*
X0359364Y0122589D01*
X0359289Y0122470D01*
X0359210Y0122353D01*
X0359128Y0122238D01*
X0359043Y0122126D01*
X0358955Y0122016D01*
X0358864Y0121909D01*
X0358770Y0121804D01*
X0358673Y0121702D01*
X0358573Y0121603D01*
X0358470Y0121506D01*
X0358365Y0121413D01*
X0358257Y0121322D01*
X0358146Y0121235D01*
X0358033Y0121151D01*
X0357918Y0121070D01*
X0357801Y0120992D01*
X0357681Y0120918D01*
X0357559Y0120847D01*
X0357436Y0120779D01*
X0357310Y0120715D01*
X0357183Y0120655D01*
X0357054Y0120598D01*
X0356924Y0120544D01*
X0356792Y0120495D01*
X0356658Y0120449D01*
X0356524Y0120407D01*
X0356388Y0120369D01*
X0356252Y0120334D01*
X0356114Y0120304D01*
X0355976Y0120277D01*
X0355837Y0120255D01*
X0355697Y0120236D01*
X0355557Y0120221D01*
X0355417Y0120210D01*
X0355276Y0120203D01*
X0355135Y0120200D01*
X0354994Y0120201D01*
X0354854Y0120206D01*
X0354713Y0120215D01*
X0354573Y0120228D01*
X0354433Y0120245D01*
X0354293Y0120265D01*
X0354155Y0120290D01*
X0354017Y0120319D01*
X0353880Y0120351D01*
X0353744Y0120387D01*
X0353609Y0120428D01*
X0353475Y0120472D01*
X0353342Y0120519D01*
X0353211Y0120571D01*
X0353081Y0120626D01*
X0352953Y0120684D01*
X0352827Y0120747D01*
X0352702Y0120812D01*
X0352580Y0120882D01*
X0352459Y0120954D01*
X0352340Y0121030D01*
X0352224Y0121110D01*
X0352110Y0121193D01*
X0351998Y0121278D01*
X0351889Y0121367D01*
X0351782Y0121459D01*
X0351678Y0121554D01*
X0351577Y0121652D01*
X0351478Y0121753D01*
X0351383Y0121856D01*
X0351290Y0121962D01*
X0351200Y0122071D01*
X0351114Y0122182D01*
X0351030Y0122295D01*
X0350950Y0122411D01*
X0350873Y0122529D01*
X0350800Y0122649D01*
X0350729Y0122772D01*
X0350663Y0122896D01*
X0350600Y0123022D01*
X0350540Y0123149D01*
X0350484Y0123278D01*
X0350432Y0123409D01*
X0350383Y0123541D01*
X0350338Y0123675D01*
X0350297Y0123810D01*
X0350260Y0123946D01*
X0350226Y0124082D01*
X0350197Y0124220D01*
X0350171Y0124359D01*
X0350150Y0124498D01*
X0350132Y0124638D01*
X0350118Y0124778D01*
X0350108Y0124918D01*
X0350102Y0125059D01*
X0350100Y0125200D01*
X0351907Y0103798D02*
X0351909Y0103908D01*
X0351915Y0104018D01*
X0351925Y0104128D01*
X0351939Y0104237D01*
X0351957Y0104346D01*
X0351978Y0104454D01*
X0352004Y0104561D01*
X0352033Y0104667D01*
X0352067Y0104772D01*
X0352104Y0104876D01*
X0352145Y0104978D01*
X0352189Y0105079D01*
X0352237Y0105178D01*
X0352289Y0105276D01*
X0352344Y0105371D01*
X0352402Y0105464D01*
X0352464Y0105555D01*
X0352529Y0105644D01*
X0352597Y0105731D01*
X0352669Y0105815D01*
X0352743Y0105896D01*
X0352820Y0105975D01*
X0352900Y0106051D01*
X0352983Y0106123D01*
X0353068Y0106193D01*
X0353156Y0106260D01*
X0353246Y0106323D01*
X0353338Y0106383D01*
X0353432Y0106440D01*
X0353529Y0106494D01*
X0353627Y0106543D01*
X0353727Y0106590D01*
X0353829Y0106632D01*
X0353932Y0106671D01*
X0354036Y0106706D01*
X0354142Y0106738D01*
X0354248Y0106765D01*
X0354356Y0106789D01*
X0354464Y0106809D01*
X0354573Y0106825D01*
X0354683Y0106837D01*
X0354793Y0106845D01*
X0354903Y0106849D01*
X0355013Y0106849D01*
X0355123Y0106845D01*
X0355233Y0106837D01*
X0355343Y0106825D01*
X0355452Y0106809D01*
X0355560Y0106789D01*
X0355668Y0106765D01*
X0355774Y0106738D01*
X0355880Y0106706D01*
X0355984Y0106671D01*
X0356087Y0106632D01*
X0356189Y0106590D01*
X0356289Y0106543D01*
X0356387Y0106494D01*
X0356483Y0106440D01*
X0356578Y0106383D01*
X0356670Y0106323D01*
X0356760Y0106260D01*
X0356848Y0106193D01*
X0356933Y0106123D01*
X0357016Y0106051D01*
X0357096Y0105975D01*
X0357173Y0105896D01*
X0357247Y0105815D01*
X0357319Y0105731D01*
X0357387Y0105644D01*
X0357452Y0105555D01*
X0357514Y0105464D01*
X0357572Y0105371D01*
X0357627Y0105276D01*
X0357679Y0105178D01*
X0357727Y0105079D01*
X0357771Y0104978D01*
X0357812Y0104876D01*
X0357849Y0104772D01*
X0357883Y0104667D01*
X0357912Y0104561D01*
X0357938Y0104454D01*
X0357959Y0104346D01*
X0357977Y0104237D01*
X0357991Y0104128D01*
X0358001Y0104018D01*
X0358007Y0103908D01*
X0358009Y0103798D01*
X0358007Y0103688D01*
X0358001Y0103578D01*
X0357991Y0103468D01*
X0357977Y0103359D01*
X0357959Y0103250D01*
X0357938Y0103142D01*
X0357912Y0103035D01*
X0357883Y0102929D01*
X0357849Y0102824D01*
X0357812Y0102720D01*
X0357771Y0102618D01*
X0357727Y0102517D01*
X0357679Y0102418D01*
X0357627Y0102320D01*
X0357572Y0102225D01*
X0357514Y0102132D01*
X0357452Y0102041D01*
X0357387Y0101952D01*
X0357319Y0101865D01*
X0357247Y0101781D01*
X0357173Y0101700D01*
X0357096Y0101621D01*
X0357016Y0101545D01*
X0356933Y0101473D01*
X0356848Y0101403D01*
X0356760Y0101336D01*
X0356670Y0101273D01*
X0356578Y0101213D01*
X0356484Y0101156D01*
X0356387Y0101102D01*
X0356289Y0101053D01*
X0356189Y0101006D01*
X0356087Y0100964D01*
X0355984Y0100925D01*
X0355880Y0100890D01*
X0355774Y0100858D01*
X0355668Y0100831D01*
X0355560Y0100807D01*
X0355452Y0100787D01*
X0355343Y0100771D01*
X0355233Y0100759D01*
X0355123Y0100751D01*
X0355013Y0100747D01*
X0354903Y0100747D01*
X0354793Y0100751D01*
X0354683Y0100759D01*
X0354573Y0100771D01*
X0354464Y0100787D01*
X0354356Y0100807D01*
X0354248Y0100831D01*
X0354142Y0100858D01*
X0354036Y0100890D01*
X0353932Y0100925D01*
X0353829Y0100964D01*
X0353727Y0101006D01*
X0353627Y0101053D01*
X0353529Y0101102D01*
X0353432Y0101156D01*
X0353338Y0101213D01*
X0353246Y0101273D01*
X0353156Y0101336D01*
X0353068Y0101403D01*
X0352983Y0101473D01*
X0352900Y0101545D01*
X0352820Y0101621D01*
X0352743Y0101700D01*
X0352669Y0101781D01*
X0352597Y0101865D01*
X0352529Y0101952D01*
X0352464Y0102041D01*
X0352402Y0102132D01*
X0352344Y0102225D01*
X0352289Y0102320D01*
X0352237Y0102418D01*
X0352189Y0102517D01*
X0352145Y0102618D01*
X0352104Y0102720D01*
X0352067Y0102824D01*
X0352033Y0102929D01*
X0352004Y0103035D01*
X0351978Y0103142D01*
X0351957Y0103250D01*
X0351939Y0103359D01*
X0351925Y0103468D01*
X0351915Y0103578D01*
X0351909Y0103688D01*
X0351907Y0103798D01*
X0351907Y0066002D02*
X0351909Y0066112D01*
X0351915Y0066222D01*
X0351925Y0066332D01*
X0351939Y0066441D01*
X0351957Y0066550D01*
X0351978Y0066658D01*
X0352004Y0066765D01*
X0352033Y0066871D01*
X0352067Y0066976D01*
X0352104Y0067080D01*
X0352145Y0067182D01*
X0352189Y0067283D01*
X0352237Y0067382D01*
X0352289Y0067480D01*
X0352344Y0067575D01*
X0352402Y0067668D01*
X0352464Y0067759D01*
X0352529Y0067848D01*
X0352597Y0067935D01*
X0352669Y0068019D01*
X0352743Y0068100D01*
X0352820Y0068179D01*
X0352900Y0068255D01*
X0352983Y0068327D01*
X0353068Y0068397D01*
X0353156Y0068464D01*
X0353246Y0068527D01*
X0353338Y0068587D01*
X0353432Y0068644D01*
X0353529Y0068698D01*
X0353627Y0068747D01*
X0353727Y0068794D01*
X0353829Y0068836D01*
X0353932Y0068875D01*
X0354036Y0068910D01*
X0354142Y0068942D01*
X0354248Y0068969D01*
X0354356Y0068993D01*
X0354464Y0069013D01*
X0354573Y0069029D01*
X0354683Y0069041D01*
X0354793Y0069049D01*
X0354903Y0069053D01*
X0355013Y0069053D01*
X0355123Y0069049D01*
X0355233Y0069041D01*
X0355343Y0069029D01*
X0355452Y0069013D01*
X0355560Y0068993D01*
X0355668Y0068969D01*
X0355774Y0068942D01*
X0355880Y0068910D01*
X0355984Y0068875D01*
X0356087Y0068836D01*
X0356189Y0068794D01*
X0356289Y0068747D01*
X0356387Y0068698D01*
X0356483Y0068644D01*
X0356578Y0068587D01*
X0356670Y0068527D01*
X0356760Y0068464D01*
X0356848Y0068397D01*
X0356933Y0068327D01*
X0357016Y0068255D01*
X0357096Y0068179D01*
X0357173Y0068100D01*
X0357247Y0068019D01*
X0357319Y0067935D01*
X0357387Y0067848D01*
X0357452Y0067759D01*
X0357514Y0067668D01*
X0357572Y0067575D01*
X0357627Y0067480D01*
X0357679Y0067382D01*
X0357727Y0067283D01*
X0357771Y0067182D01*
X0357812Y0067080D01*
X0357849Y0066976D01*
X0357883Y0066871D01*
X0357912Y0066765D01*
X0357938Y0066658D01*
X0357959Y0066550D01*
X0357977Y0066441D01*
X0357991Y0066332D01*
X0358001Y0066222D01*
X0358007Y0066112D01*
X0358009Y0066002D01*
X0358007Y0065892D01*
X0358001Y0065782D01*
X0357991Y0065672D01*
X0357977Y0065563D01*
X0357959Y0065454D01*
X0357938Y0065346D01*
X0357912Y0065239D01*
X0357883Y0065133D01*
X0357849Y0065028D01*
X0357812Y0064924D01*
X0357771Y0064822D01*
X0357727Y0064721D01*
X0357679Y0064622D01*
X0357627Y0064524D01*
X0357572Y0064429D01*
X0357514Y0064336D01*
X0357452Y0064245D01*
X0357387Y0064156D01*
X0357319Y0064069D01*
X0357247Y0063985D01*
X0357173Y0063904D01*
X0357096Y0063825D01*
X0357016Y0063749D01*
X0356933Y0063677D01*
X0356848Y0063607D01*
X0356760Y0063540D01*
X0356670Y0063477D01*
X0356578Y0063417D01*
X0356484Y0063360D01*
X0356387Y0063306D01*
X0356289Y0063257D01*
X0356189Y0063210D01*
X0356087Y0063168D01*
X0355984Y0063129D01*
X0355880Y0063094D01*
X0355774Y0063062D01*
X0355668Y0063035D01*
X0355560Y0063011D01*
X0355452Y0062991D01*
X0355343Y0062975D01*
X0355233Y0062963D01*
X0355123Y0062955D01*
X0355013Y0062951D01*
X0354903Y0062951D01*
X0354793Y0062955D01*
X0354683Y0062963D01*
X0354573Y0062975D01*
X0354464Y0062991D01*
X0354356Y0063011D01*
X0354248Y0063035D01*
X0354142Y0063062D01*
X0354036Y0063094D01*
X0353932Y0063129D01*
X0353829Y0063168D01*
X0353727Y0063210D01*
X0353627Y0063257D01*
X0353529Y0063306D01*
X0353432Y0063360D01*
X0353338Y0063417D01*
X0353246Y0063477D01*
X0353156Y0063540D01*
X0353068Y0063607D01*
X0352983Y0063677D01*
X0352900Y0063749D01*
X0352820Y0063825D01*
X0352743Y0063904D01*
X0352669Y0063985D01*
X0352597Y0064069D01*
X0352529Y0064156D01*
X0352464Y0064245D01*
X0352402Y0064336D01*
X0352344Y0064429D01*
X0352289Y0064524D01*
X0352237Y0064622D01*
X0352189Y0064721D01*
X0352145Y0064822D01*
X0352104Y0064924D01*
X0352067Y0065028D01*
X0352033Y0065133D01*
X0352004Y0065239D01*
X0351978Y0065346D01*
X0351957Y0065454D01*
X0351939Y0065563D01*
X0351925Y0065672D01*
X0351915Y0065782D01*
X0351909Y0065892D01*
X0351907Y0066002D01*
X0352700Y0012200D02*
X0352702Y0012341D01*
X0352708Y0012482D01*
X0352718Y0012622D01*
X0352732Y0012762D01*
X0352750Y0012902D01*
X0352771Y0013041D01*
X0352797Y0013180D01*
X0352826Y0013318D01*
X0352860Y0013454D01*
X0352897Y0013590D01*
X0352938Y0013725D01*
X0352983Y0013859D01*
X0353032Y0013991D01*
X0353084Y0014122D01*
X0353140Y0014251D01*
X0353200Y0014378D01*
X0353263Y0014504D01*
X0353329Y0014628D01*
X0353400Y0014751D01*
X0353473Y0014871D01*
X0353550Y0014989D01*
X0353630Y0015105D01*
X0353714Y0015218D01*
X0353800Y0015329D01*
X0353890Y0015438D01*
X0353983Y0015544D01*
X0354078Y0015647D01*
X0354177Y0015748D01*
X0354278Y0015846D01*
X0354382Y0015941D01*
X0354489Y0016033D01*
X0354598Y0016122D01*
X0354710Y0016207D01*
X0354824Y0016290D01*
X0354940Y0016370D01*
X0355059Y0016446D01*
X0355180Y0016518D01*
X0355302Y0016588D01*
X0355427Y0016653D01*
X0355553Y0016716D01*
X0355681Y0016774D01*
X0355811Y0016829D01*
X0355942Y0016881D01*
X0356075Y0016928D01*
X0356209Y0016972D01*
X0356344Y0017013D01*
X0356480Y0017049D01*
X0356617Y0017081D01*
X0356755Y0017110D01*
X0356893Y0017135D01*
X0357033Y0017155D01*
X0357173Y0017172D01*
X0357313Y0017185D01*
X0357454Y0017194D01*
X0357594Y0017199D01*
X0357735Y0017200D01*
X0357876Y0017197D01*
X0358017Y0017190D01*
X0358157Y0017179D01*
X0358297Y0017164D01*
X0358437Y0017145D01*
X0358576Y0017123D01*
X0358714Y0017096D01*
X0358852Y0017066D01*
X0358988Y0017031D01*
X0359124Y0016993D01*
X0359258Y0016951D01*
X0359392Y0016905D01*
X0359524Y0016856D01*
X0359654Y0016802D01*
X0359783Y0016745D01*
X0359910Y0016685D01*
X0360036Y0016621D01*
X0360159Y0016553D01*
X0360281Y0016482D01*
X0360401Y0016408D01*
X0360518Y0016330D01*
X0360633Y0016249D01*
X0360746Y0016165D01*
X0360857Y0016078D01*
X0360965Y0015987D01*
X0361070Y0015894D01*
X0361173Y0015797D01*
X0361273Y0015698D01*
X0361370Y0015596D01*
X0361464Y0015491D01*
X0361555Y0015384D01*
X0361643Y0015274D01*
X0361728Y0015162D01*
X0361810Y0015047D01*
X0361889Y0014930D01*
X0361964Y0014811D01*
X0362036Y0014690D01*
X0362104Y0014567D01*
X0362169Y0014442D01*
X0362231Y0014315D01*
X0362288Y0014186D01*
X0362343Y0014056D01*
X0362393Y0013925D01*
X0362440Y0013792D01*
X0362483Y0013658D01*
X0362522Y0013522D01*
X0362557Y0013386D01*
X0362589Y0013249D01*
X0362616Y0013111D01*
X0362640Y0012972D01*
X0362660Y0012832D01*
X0362676Y0012692D01*
X0362688Y0012552D01*
X0362696Y0012411D01*
X0362700Y0012270D01*
X0362700Y0012130D01*
X0362696Y0011989D01*
X0362688Y0011848D01*
X0362676Y0011708D01*
X0362660Y0011568D01*
X0362640Y0011428D01*
X0362616Y0011289D01*
X0362589Y0011151D01*
X0362557Y0011014D01*
X0362522Y0010878D01*
X0362483Y0010742D01*
X0362440Y0010608D01*
X0362393Y0010475D01*
X0362343Y0010344D01*
X0362288Y0010214D01*
X0362231Y0010085D01*
X0362169Y0009958D01*
X0362104Y0009833D01*
X0362036Y0009710D01*
X0361964Y0009589D01*
X0361889Y0009470D01*
X0361810Y0009353D01*
X0361728Y0009238D01*
X0361643Y0009126D01*
X0361555Y0009016D01*
X0361464Y0008909D01*
X0361370Y0008804D01*
X0361273Y0008702D01*
X0361173Y0008603D01*
X0361070Y0008506D01*
X0360965Y0008413D01*
X0360857Y0008322D01*
X0360746Y0008235D01*
X0360633Y0008151D01*
X0360518Y0008070D01*
X0360401Y0007992D01*
X0360281Y0007918D01*
X0360159Y0007847D01*
X0360036Y0007779D01*
X0359910Y0007715D01*
X0359783Y0007655D01*
X0359654Y0007598D01*
X0359524Y0007544D01*
X0359392Y0007495D01*
X0359258Y0007449D01*
X0359124Y0007407D01*
X0358988Y0007369D01*
X0358852Y0007334D01*
X0358714Y0007304D01*
X0358576Y0007277D01*
X0358437Y0007255D01*
X0358297Y0007236D01*
X0358157Y0007221D01*
X0358017Y0007210D01*
X0357876Y0007203D01*
X0357735Y0007200D01*
X0357594Y0007201D01*
X0357454Y0007206D01*
X0357313Y0007215D01*
X0357173Y0007228D01*
X0357033Y0007245D01*
X0356893Y0007265D01*
X0356755Y0007290D01*
X0356617Y0007319D01*
X0356480Y0007351D01*
X0356344Y0007387D01*
X0356209Y0007428D01*
X0356075Y0007472D01*
X0355942Y0007519D01*
X0355811Y0007571D01*
X0355681Y0007626D01*
X0355553Y0007684D01*
X0355427Y0007747D01*
X0355302Y0007812D01*
X0355180Y0007882D01*
X0355059Y0007954D01*
X0354940Y0008030D01*
X0354824Y0008110D01*
X0354710Y0008193D01*
X0354598Y0008278D01*
X0354489Y0008367D01*
X0354382Y0008459D01*
X0354278Y0008554D01*
X0354177Y0008652D01*
X0354078Y0008753D01*
X0353983Y0008856D01*
X0353890Y0008962D01*
X0353800Y0009071D01*
X0353714Y0009182D01*
X0353630Y0009295D01*
X0353550Y0009411D01*
X0353473Y0009529D01*
X0353400Y0009649D01*
X0353329Y0009772D01*
X0353263Y0009896D01*
X0353200Y0010022D01*
X0353140Y0010149D01*
X0353084Y0010278D01*
X0353032Y0010409D01*
X0352983Y0010541D01*
X0352938Y0010675D01*
X0352897Y0010810D01*
X0352860Y0010946D01*
X0352826Y0011082D01*
X0352797Y0011220D01*
X0352771Y0011359D01*
X0352750Y0011498D01*
X0352732Y0011638D01*
X0352718Y0011778D01*
X0352708Y0011918D01*
X0352702Y0012059D01*
X0352700Y0012200D01*
D11*
X0164700Y0104450D03*
X0164700Y0110950D03*
X0106900Y0164150D03*
X0106900Y0170650D03*
X0096500Y0172750D03*
X0096500Y0166250D03*
X0099900Y0030750D03*
X0099900Y0024250D03*
D12*
X0049550Y0056700D03*
X0043050Y0056700D03*
X0076450Y0146000D03*
X0082950Y0146000D03*
D13*
X0087500Y0159950D03*
X0087500Y0166650D03*
X0105700Y0138050D03*
X0105700Y0131350D03*
X0226800Y0110350D03*
X0226800Y0103650D03*
X0312000Y0128850D03*
X0312000Y0135550D03*
D14*
X0092900Y0134300D03*
X0084300Y0134300D03*
D15*
X0112900Y0130157D03*
X0112900Y0123443D03*
X0049700Y0085857D03*
X0049700Y0079143D03*
X0213300Y0113543D03*
X0213300Y0120257D03*
X0254500Y0140043D03*
X0254500Y0146757D03*
X0328700Y0133457D03*
X0328700Y0126743D03*
D16*
X0105506Y0147376D03*
X0105506Y0148950D03*
X0105506Y0150525D03*
X0105506Y0152100D03*
X0105506Y0153675D03*
X0105506Y0155250D03*
X0105506Y0156824D03*
X0093694Y0156824D03*
X0093694Y0155250D03*
X0093694Y0153675D03*
X0093694Y0152100D03*
X0093694Y0150525D03*
X0093694Y0148950D03*
X0093694Y0147376D03*
D17*
X0099600Y0152100D03*
D18*
X0104750Y0084050D03*
X0107250Y0084050D03*
X0109750Y0084050D03*
X0112250Y0084050D03*
X0114750Y0084050D03*
X0117250Y0084050D03*
X0119750Y0084050D03*
X0122250Y0084050D03*
X0122250Y0062750D03*
X0119750Y0062750D03*
X0117250Y0062750D03*
X0114750Y0062750D03*
X0112250Y0062750D03*
X0109750Y0062750D03*
X0107250Y0062750D03*
X0104750Y0062750D03*
D19*
X0119100Y0051350D03*
X0119100Y0044450D03*
X0109800Y0047150D03*
X0109800Y0040250D03*
X0107300Y0109450D03*
X0107300Y0116350D03*
X0034700Y0125050D03*
X0034700Y0131950D03*
X0234900Y0121750D03*
X0234900Y0114850D03*
D20*
X0098218Y0209900D03*
X0095659Y0209900D03*
X0093100Y0209900D03*
X0090541Y0209900D03*
X0087982Y0209900D03*
D21*
X0088376Y0220451D03*
X0097824Y0220451D03*
D22*
X0105305Y0209900D03*
X0080895Y0209900D03*
D23*
X0078139Y0220451D03*
X0108061Y0220451D03*
D24*
X0106957Y0197900D03*
X0100243Y0197900D03*
X0048657Y0128900D03*
X0041943Y0128900D03*
X0064943Y0104100D03*
X0071657Y0104100D03*
X0288976Y0041739D03*
X0295691Y0041739D03*
D25*
X0147378Y0075416D02*
X0144622Y0075416D01*
X0144622Y0078172D01*
X0147378Y0078172D01*
X0147378Y0075416D01*
X0147378Y0076596D02*
X0144622Y0076596D01*
X0144622Y0077776D02*
X0147378Y0077776D01*
X0147378Y0082322D02*
X0144622Y0082322D01*
X0144622Y0085078D01*
X0147378Y0085078D01*
X0147378Y0082322D01*
X0147378Y0083502D02*
X0144622Y0083502D01*
X0144622Y0084682D02*
X0147378Y0084682D01*
X0143984Y0091222D02*
X0143984Y0093978D01*
X0143984Y0091222D02*
X0141228Y0091222D01*
X0141228Y0093978D01*
X0143984Y0093978D01*
X0143984Y0092402D02*
X0141228Y0092402D01*
X0141228Y0093582D02*
X0143984Y0093582D01*
X0137078Y0093978D02*
X0137078Y0091222D01*
X0134322Y0091222D01*
X0134322Y0093978D01*
X0137078Y0093978D01*
X0137078Y0092402D02*
X0134322Y0092402D01*
X0134322Y0093582D02*
X0137078Y0093582D01*
X0119875Y0108522D02*
X0119875Y0111278D01*
X0122631Y0111278D01*
X0122631Y0108522D01*
X0119875Y0108522D01*
X0119875Y0109702D02*
X0122631Y0109702D01*
X0122631Y0110882D02*
X0119875Y0110882D01*
X0112969Y0111278D02*
X0112969Y0108522D01*
X0112969Y0111278D02*
X0115725Y0111278D01*
X0115725Y0108522D01*
X0112969Y0108522D01*
X0112969Y0109702D02*
X0115725Y0109702D01*
X0115725Y0110882D02*
X0112969Y0110882D01*
X0081975Y0170922D02*
X0081975Y0173678D01*
X0084731Y0173678D01*
X0084731Y0170922D01*
X0081975Y0170922D01*
X0081975Y0172102D02*
X0084731Y0172102D01*
X0084731Y0173282D02*
X0081975Y0173282D01*
X0075069Y0173678D02*
X0075069Y0170922D01*
X0075069Y0173678D02*
X0077825Y0173678D01*
X0077825Y0170922D01*
X0075069Y0170922D01*
X0075069Y0172102D02*
X0077825Y0172102D01*
X0077825Y0173282D02*
X0075069Y0173282D01*
D26*
X0075828Y0132853D03*
X0075828Y0130884D03*
X0075828Y0128916D03*
X0075828Y0126947D03*
X0066772Y0126947D03*
X0066772Y0128916D03*
X0066772Y0130884D03*
X0066772Y0132853D03*
D27*
X0071300Y0129900D03*
D28*
X0183950Y0129900D03*
X0187700Y0129900D03*
X0191450Y0129900D03*
X0191450Y0139900D03*
X0187700Y0139900D03*
X0183950Y0139900D03*
D29*
X0286344Y0139053D03*
X0286344Y0137084D03*
X0286344Y0135116D03*
X0286344Y0133147D03*
X0291856Y0133147D03*
X0291856Y0135116D03*
X0291856Y0137084D03*
X0291856Y0139053D03*
D30*
X0289100Y0136100D03*
D31*
X0151004Y0164430D02*
X0149020Y0164430D01*
X0151004Y0164430D02*
X0151004Y0163864D01*
X0149020Y0163864D01*
X0149020Y0164430D01*
X0149020Y0164241D02*
X0151004Y0164241D01*
X0151004Y0166399D02*
X0149020Y0166399D01*
X0151004Y0166399D02*
X0151004Y0165833D01*
X0149020Y0165833D01*
X0149020Y0166399D01*
X0149020Y0166210D02*
X0151004Y0166210D01*
X0151004Y0168367D02*
X0149020Y0168367D01*
X0151004Y0168367D02*
X0151004Y0167801D01*
X0149020Y0167801D01*
X0149020Y0168367D01*
X0149020Y0168178D02*
X0151004Y0168178D01*
X0151004Y0170336D02*
X0149020Y0170336D01*
X0151004Y0170336D02*
X0151004Y0169770D01*
X0149020Y0169770D01*
X0149020Y0170336D01*
X0149020Y0170147D02*
X0151004Y0170147D01*
X0147170Y0171620D02*
X0147170Y0173604D01*
X0147736Y0173604D01*
X0147736Y0171620D01*
X0147170Y0171620D01*
X0147170Y0171997D02*
X0147736Y0171997D01*
X0147736Y0172374D02*
X0147170Y0172374D01*
X0147170Y0172751D02*
X0147736Y0172751D01*
X0147736Y0173128D02*
X0147170Y0173128D01*
X0147170Y0173505D02*
X0147736Y0173505D01*
X0145201Y0173604D02*
X0145201Y0171620D01*
X0145201Y0173604D02*
X0145767Y0173604D01*
X0145767Y0171620D01*
X0145201Y0171620D01*
X0145201Y0171997D02*
X0145767Y0171997D01*
X0145767Y0172374D02*
X0145201Y0172374D01*
X0145201Y0172751D02*
X0145767Y0172751D01*
X0145767Y0173128D02*
X0145201Y0173128D01*
X0145201Y0173505D02*
X0145767Y0173505D01*
X0143233Y0173604D02*
X0143233Y0171620D01*
X0143233Y0173604D02*
X0143799Y0173604D01*
X0143799Y0171620D01*
X0143233Y0171620D01*
X0143233Y0171997D02*
X0143799Y0171997D01*
X0143799Y0172374D02*
X0143233Y0172374D01*
X0143233Y0172751D02*
X0143799Y0172751D01*
X0143799Y0173128D02*
X0143233Y0173128D01*
X0143233Y0173505D02*
X0143799Y0173505D01*
X0141264Y0173604D02*
X0141264Y0171620D01*
X0141264Y0173604D02*
X0141830Y0173604D01*
X0141830Y0171620D01*
X0141264Y0171620D01*
X0141264Y0171997D02*
X0141830Y0171997D01*
X0141830Y0172374D02*
X0141264Y0172374D01*
X0141264Y0172751D02*
X0141830Y0172751D01*
X0141830Y0173128D02*
X0141264Y0173128D01*
X0141264Y0173505D02*
X0141830Y0173505D01*
X0139980Y0169770D02*
X0137996Y0169770D01*
X0137996Y0170336D01*
X0139980Y0170336D01*
X0139980Y0169770D01*
X0139980Y0170147D02*
X0137996Y0170147D01*
X0137996Y0167801D02*
X0139980Y0167801D01*
X0137996Y0167801D02*
X0137996Y0168367D01*
X0139980Y0168367D01*
X0139980Y0167801D01*
X0139980Y0168178D02*
X0137996Y0168178D01*
X0137996Y0165833D02*
X0139980Y0165833D01*
X0137996Y0165833D02*
X0137996Y0166399D01*
X0139980Y0166399D01*
X0139980Y0165833D01*
X0139980Y0166210D02*
X0137996Y0166210D01*
X0137996Y0163864D02*
X0139980Y0163864D01*
X0137996Y0163864D02*
X0137996Y0164430D01*
X0139980Y0164430D01*
X0139980Y0163864D01*
X0139980Y0164241D02*
X0137996Y0164241D01*
X0141830Y0162580D02*
X0141830Y0160596D01*
X0141264Y0160596D01*
X0141264Y0162580D01*
X0141830Y0162580D01*
X0141830Y0160973D02*
X0141264Y0160973D01*
X0141264Y0161350D02*
X0141830Y0161350D01*
X0141830Y0161727D02*
X0141264Y0161727D01*
X0141264Y0162104D02*
X0141830Y0162104D01*
X0141830Y0162481D02*
X0141264Y0162481D01*
X0143799Y0162580D02*
X0143799Y0160596D01*
X0143233Y0160596D01*
X0143233Y0162580D01*
X0143799Y0162580D01*
X0143799Y0160973D02*
X0143233Y0160973D01*
X0143233Y0161350D02*
X0143799Y0161350D01*
X0143799Y0161727D02*
X0143233Y0161727D01*
X0143233Y0162104D02*
X0143799Y0162104D01*
X0143799Y0162481D02*
X0143233Y0162481D01*
X0145767Y0162580D02*
X0145767Y0160596D01*
X0145201Y0160596D01*
X0145201Y0162580D01*
X0145767Y0162580D01*
X0145767Y0160973D02*
X0145201Y0160973D01*
X0145201Y0161350D02*
X0145767Y0161350D01*
X0145767Y0161727D02*
X0145201Y0161727D01*
X0145201Y0162104D02*
X0145767Y0162104D01*
X0145767Y0162481D02*
X0145201Y0162481D01*
X0147736Y0162580D02*
X0147736Y0160596D01*
X0147170Y0160596D01*
X0147170Y0162580D01*
X0147736Y0162580D01*
X0147736Y0160973D02*
X0147170Y0160973D01*
X0147170Y0161350D02*
X0147736Y0161350D01*
X0147736Y0161727D02*
X0147170Y0161727D01*
X0147170Y0162104D02*
X0147736Y0162104D01*
X0147736Y0162481D02*
X0147170Y0162481D01*
D32*
X0147477Y0164123D02*
X0141523Y0164123D01*
X0141523Y0170077D01*
X0147477Y0170077D01*
X0147477Y0164123D01*
X0147477Y0164783D02*
X0141523Y0164783D01*
X0141523Y0165443D02*
X0147477Y0165443D01*
X0147477Y0166103D02*
X0141523Y0166103D01*
X0141523Y0166763D02*
X0147477Y0166763D01*
X0147477Y0167423D02*
X0141523Y0167423D01*
X0141523Y0168083D02*
X0147477Y0168083D01*
X0147477Y0168743D02*
X0141523Y0168743D01*
X0141523Y0169403D02*
X0147477Y0169403D01*
X0147477Y0170063D02*
X0141523Y0170063D01*
D33*
X0141560Y0152700D03*
X0149440Y0152700D03*
X0154760Y0152900D03*
X0162640Y0152900D03*
X0057840Y0111900D03*
X0049960Y0111900D03*
X0328760Y0117900D03*
X0336640Y0117900D03*
D34*
X0292450Y0126600D03*
X0285750Y0126600D03*
X0262750Y0099900D03*
X0256050Y0099900D03*
X0162450Y0162900D03*
X0155750Y0162900D03*
X0133650Y0158700D03*
X0126950Y0158700D03*
D35*
X0130437Y0168100D03*
X0122563Y0168100D03*
D36*
X0120100Y0152437D03*
X0120100Y0144563D03*
X0246500Y0108237D03*
X0246500Y0100363D03*
X0302600Y0128163D03*
X0302600Y0136037D03*
D37*
X0302600Y0142200D03*
X0297600Y0142200D03*
D38*
X0242032Y0165652D03*
X0240064Y0165652D03*
X0238095Y0165652D03*
X0236127Y0165652D03*
X0234158Y0165652D03*
X0232190Y0165652D03*
X0230221Y0165652D03*
X0228253Y0165652D03*
X0226284Y0165652D03*
X0224316Y0165652D03*
X0222347Y0165652D03*
X0220379Y0165652D03*
X0218410Y0165652D03*
X0216442Y0165652D03*
X0214473Y0165652D03*
X0212505Y0165652D03*
X0210536Y0165652D03*
X0208568Y0165652D03*
X0206599Y0165652D03*
D39*
X0075100Y0164950D03*
X0075100Y0158850D03*
D40*
X0233741Y0154100D03*
X0238859Y0152131D03*
X0238859Y0156069D03*
X0237141Y0148169D03*
X0237141Y0144231D03*
X0242259Y0146200D03*
D41*
X0245225Y0150225D03*
X0246800Y0150225D03*
X0248375Y0150225D03*
X0248375Y0151800D03*
X0248375Y0153375D03*
X0246800Y0153375D03*
X0245225Y0153375D03*
X0245225Y0151800D03*
X0246800Y0151800D03*
X0236675Y0108675D03*
X0236675Y0107100D03*
X0236675Y0105525D03*
X0235100Y0105525D03*
X0233525Y0105525D03*
X0233525Y0107100D03*
X0233525Y0108675D03*
X0235100Y0108675D03*
X0235100Y0107100D03*
D42*
X0234950Y0138300D03*
X0241850Y0138300D03*
X0145350Y0181900D03*
X0138450Y0181900D03*
D43*
X0065440Y0081700D03*
X0061700Y0081700D03*
X0057960Y0081700D03*
X0057960Y0071700D03*
X0061700Y0071700D03*
X0065440Y0071700D03*
D44*
X0058240Y0093563D03*
X0050760Y0093563D03*
X0054500Y0101437D03*
D45*
X0052691Y0030300D03*
X0038709Y0030300D03*
D46*
X0065763Y0089960D03*
X0073637Y0093700D03*
X0065763Y0097440D03*
D47*
X0169017Y0095577D03*
X0176891Y0095577D03*
X0184765Y0095577D03*
X0192639Y0095577D03*
X0208387Y0095577D03*
X0216261Y0095577D03*
X0224135Y0095577D03*
X0224135Y0031010D03*
X0216261Y0031010D03*
X0208387Y0031010D03*
X0200513Y0031010D03*
X0192639Y0031010D03*
X0184765Y0031010D03*
X0176891Y0031010D03*
X0169017Y0031010D03*
D48*
X0160749Y0042428D03*
X0160749Y0050302D03*
X0160749Y0058176D03*
X0160749Y0066050D03*
X0160749Y0073924D03*
X0160749Y0081798D03*
D49*
X0146700Y0019600D03*
X0136700Y0019600D03*
D50*
X0310610Y0086943D03*
X0310610Y0092143D03*
D51*
X0301705Y0082783D03*
X0299736Y0082783D03*
X0297768Y0082783D03*
X0295799Y0082783D03*
X0293831Y0082783D03*
X0291862Y0082783D03*
X0289894Y0082783D03*
X0287925Y0082783D03*
X0285957Y0082783D03*
X0283988Y0082783D03*
X0282020Y0082783D03*
X0280051Y0082783D03*
X0278083Y0082783D03*
X0276114Y0082783D03*
X0274146Y0082783D03*
X0272177Y0082783D03*
X0272177Y0047783D03*
X0274146Y0047783D03*
X0276114Y0047783D03*
X0278083Y0047783D03*
X0280051Y0047783D03*
X0282020Y0047783D03*
X0283988Y0047783D03*
X0285957Y0047783D03*
X0287925Y0047783D03*
X0289894Y0047783D03*
X0291862Y0047783D03*
X0293831Y0047783D03*
X0295799Y0047783D03*
X0297768Y0047783D03*
X0299736Y0047783D03*
X0301705Y0047783D03*
D52*
X0304441Y0050519D03*
X0304441Y0052487D03*
X0304441Y0054456D03*
X0304441Y0056424D03*
X0304441Y0058393D03*
X0304441Y0060361D03*
X0304441Y0062330D03*
X0304441Y0064298D03*
X0304441Y0066267D03*
X0304441Y0068235D03*
X0304441Y0070204D03*
X0304441Y0072172D03*
X0304441Y0074141D03*
X0304441Y0076109D03*
X0304441Y0078078D03*
X0304441Y0080046D03*
X0269441Y0080046D03*
X0269441Y0078078D03*
X0269441Y0076109D03*
X0269441Y0074141D03*
X0269441Y0072172D03*
X0269441Y0070204D03*
X0269441Y0068235D03*
X0269441Y0066267D03*
X0269441Y0064298D03*
X0269441Y0062330D03*
X0269441Y0060361D03*
X0269441Y0058393D03*
X0269441Y0056424D03*
X0269441Y0054456D03*
X0269441Y0052487D03*
X0269441Y0050519D03*
D53*
X0272585Y0050926D02*
X0277697Y0050926D01*
X0277697Y0056039D01*
X0272585Y0056039D01*
X0272585Y0050926D01*
X0272585Y0050959D02*
X0277697Y0050959D01*
X0277697Y0051057D02*
X0272585Y0051057D01*
X0272585Y0051156D02*
X0277697Y0051156D01*
X0277697Y0051254D02*
X0272585Y0051254D01*
X0272585Y0051353D02*
X0277697Y0051353D01*
X0277697Y0051451D02*
X0272585Y0051451D01*
X0272585Y0051550D02*
X0277697Y0051550D01*
X0277697Y0051648D02*
X0272585Y0051648D01*
X0272585Y0051747D02*
X0277697Y0051747D01*
X0277697Y0051845D02*
X0272585Y0051845D01*
X0272585Y0051944D02*
X0277697Y0051944D01*
X0277697Y0052042D02*
X0272585Y0052042D01*
X0272585Y0052141D02*
X0277697Y0052141D01*
X0277697Y0052239D02*
X0272585Y0052239D01*
X0272585Y0052338D02*
X0277697Y0052338D01*
X0277697Y0052436D02*
X0272585Y0052436D01*
X0272585Y0052535D02*
X0277697Y0052535D01*
X0277697Y0052633D02*
X0272585Y0052633D01*
X0272585Y0052732D02*
X0277697Y0052732D01*
X0277697Y0052830D02*
X0272585Y0052830D01*
X0272585Y0052929D02*
X0277697Y0052929D01*
X0277697Y0053027D02*
X0272585Y0053027D01*
X0272585Y0053126D02*
X0277697Y0053126D01*
X0277697Y0053224D02*
X0272585Y0053224D01*
X0272585Y0053323D02*
X0277697Y0053323D01*
X0277697Y0053421D02*
X0272585Y0053421D01*
X0272585Y0053520D02*
X0277697Y0053520D01*
X0277697Y0053618D02*
X0272585Y0053618D01*
X0272585Y0053717D02*
X0277697Y0053717D01*
X0277697Y0053815D02*
X0272585Y0053815D01*
X0272585Y0053914D02*
X0277697Y0053914D01*
X0277697Y0054012D02*
X0272585Y0054012D01*
X0272585Y0054111D02*
X0277697Y0054111D01*
X0277697Y0054210D02*
X0272585Y0054210D01*
X0272585Y0054308D02*
X0277697Y0054308D01*
X0277697Y0054407D02*
X0272585Y0054407D01*
X0272585Y0054505D02*
X0277697Y0054505D01*
X0277697Y0054604D02*
X0272585Y0054604D01*
X0272585Y0054702D02*
X0277697Y0054702D01*
X0277697Y0054801D02*
X0272585Y0054801D01*
X0272585Y0054899D02*
X0277697Y0054899D01*
X0277697Y0054998D02*
X0272585Y0054998D01*
X0272585Y0055096D02*
X0277697Y0055096D01*
X0277697Y0055195D02*
X0272585Y0055195D01*
X0272585Y0055293D02*
X0277697Y0055293D01*
X0277697Y0055392D02*
X0272585Y0055392D01*
X0272585Y0055490D02*
X0277697Y0055490D01*
X0277697Y0055589D02*
X0272585Y0055589D01*
X0272585Y0055687D02*
X0277697Y0055687D01*
X0277697Y0055786D02*
X0272585Y0055786D01*
X0272585Y0055884D02*
X0277697Y0055884D01*
X0277697Y0055983D02*
X0272585Y0055983D01*
X0272585Y0056826D02*
X0277697Y0056826D01*
X0277697Y0061939D01*
X0272585Y0061939D01*
X0272585Y0056826D01*
X0272585Y0056869D02*
X0277697Y0056869D01*
X0277697Y0056968D02*
X0272585Y0056968D01*
X0272585Y0057066D02*
X0277697Y0057066D01*
X0277697Y0057165D02*
X0272585Y0057165D01*
X0272585Y0057263D02*
X0277697Y0057263D01*
X0277697Y0057362D02*
X0272585Y0057362D01*
X0272585Y0057460D02*
X0277697Y0057460D01*
X0277697Y0057559D02*
X0272585Y0057559D01*
X0272585Y0057657D02*
X0277697Y0057657D01*
X0277697Y0057756D02*
X0272585Y0057756D01*
X0272585Y0057854D02*
X0277697Y0057854D01*
X0277697Y0057953D02*
X0272585Y0057953D01*
X0272585Y0058051D02*
X0277697Y0058051D01*
X0277697Y0058150D02*
X0272585Y0058150D01*
X0272585Y0058248D02*
X0277697Y0058248D01*
X0277697Y0058347D02*
X0272585Y0058347D01*
X0272585Y0058445D02*
X0277697Y0058445D01*
X0277697Y0058544D02*
X0272585Y0058544D01*
X0272585Y0058643D02*
X0277697Y0058643D01*
X0277697Y0058741D02*
X0272585Y0058741D01*
X0272585Y0058840D02*
X0277697Y0058840D01*
X0277697Y0058938D02*
X0272585Y0058938D01*
X0272585Y0059037D02*
X0277697Y0059037D01*
X0277697Y0059135D02*
X0272585Y0059135D01*
X0272585Y0059234D02*
X0277697Y0059234D01*
X0277697Y0059332D02*
X0272585Y0059332D01*
X0272585Y0059431D02*
X0277697Y0059431D01*
X0277697Y0059529D02*
X0272585Y0059529D01*
X0272585Y0059628D02*
X0277697Y0059628D01*
X0277697Y0059726D02*
X0272585Y0059726D01*
X0272585Y0059825D02*
X0277697Y0059825D01*
X0277697Y0059923D02*
X0272585Y0059923D01*
X0272585Y0060022D02*
X0277697Y0060022D01*
X0277697Y0060120D02*
X0272585Y0060120D01*
X0272585Y0060219D02*
X0277697Y0060219D01*
X0277697Y0060317D02*
X0272585Y0060317D01*
X0272585Y0060416D02*
X0277697Y0060416D01*
X0277697Y0060514D02*
X0272585Y0060514D01*
X0272585Y0060613D02*
X0277697Y0060613D01*
X0277697Y0060711D02*
X0272585Y0060711D01*
X0272585Y0060810D02*
X0277697Y0060810D01*
X0277697Y0060908D02*
X0272585Y0060908D01*
X0272585Y0061007D02*
X0277697Y0061007D01*
X0277697Y0061105D02*
X0272585Y0061105D01*
X0272585Y0061204D02*
X0277697Y0061204D01*
X0277697Y0061302D02*
X0272585Y0061302D01*
X0272585Y0061401D02*
X0277697Y0061401D01*
X0277697Y0061499D02*
X0272585Y0061499D01*
X0272585Y0061598D02*
X0277697Y0061598D01*
X0277697Y0061696D02*
X0272585Y0061696D01*
X0272585Y0061795D02*
X0277697Y0061795D01*
X0277697Y0061893D02*
X0272585Y0061893D01*
X0272585Y0062726D02*
X0277697Y0062726D01*
X0277697Y0067839D01*
X0272585Y0067839D01*
X0272585Y0062726D01*
X0272585Y0062780D02*
X0277697Y0062780D01*
X0277697Y0062879D02*
X0272585Y0062879D01*
X0272585Y0062977D02*
X0277697Y0062977D01*
X0277697Y0063076D02*
X0272585Y0063076D01*
X0272585Y0063174D02*
X0277697Y0063174D01*
X0277697Y0063273D02*
X0272585Y0063273D01*
X0272585Y0063371D02*
X0277697Y0063371D01*
X0277697Y0063470D02*
X0272585Y0063470D01*
X0272585Y0063568D02*
X0277697Y0063568D01*
X0277697Y0063667D02*
X0272585Y0063667D01*
X0272585Y0063765D02*
X0277697Y0063765D01*
X0277697Y0063864D02*
X0272585Y0063864D01*
X0272585Y0063962D02*
X0277697Y0063962D01*
X0277697Y0064061D02*
X0272585Y0064061D01*
X0272585Y0064159D02*
X0277697Y0064159D01*
X0277697Y0064258D02*
X0272585Y0064258D01*
X0272585Y0064356D02*
X0277697Y0064356D01*
X0277697Y0064455D02*
X0272585Y0064455D01*
X0272585Y0064553D02*
X0277697Y0064553D01*
X0277697Y0064652D02*
X0272585Y0064652D01*
X0272585Y0064750D02*
X0277697Y0064750D01*
X0277697Y0064849D02*
X0272585Y0064849D01*
X0272585Y0064947D02*
X0277697Y0064947D01*
X0277697Y0065046D02*
X0272585Y0065046D01*
X0272585Y0065144D02*
X0277697Y0065144D01*
X0277697Y0065243D02*
X0272585Y0065243D01*
X0272585Y0065341D02*
X0277697Y0065341D01*
X0277697Y0065440D02*
X0272585Y0065440D01*
X0272585Y0065538D02*
X0277697Y0065538D01*
X0277697Y0065637D02*
X0272585Y0065637D01*
X0272585Y0065735D02*
X0277697Y0065735D01*
X0277697Y0065834D02*
X0272585Y0065834D01*
X0272585Y0065932D02*
X0277697Y0065932D01*
X0277697Y0066031D02*
X0272585Y0066031D01*
X0272585Y0066129D02*
X0277697Y0066129D01*
X0277697Y0066228D02*
X0272585Y0066228D01*
X0272585Y0066326D02*
X0277697Y0066326D01*
X0277697Y0066425D02*
X0272585Y0066425D01*
X0272585Y0066523D02*
X0277697Y0066523D01*
X0277697Y0066622D02*
X0272585Y0066622D01*
X0272585Y0066720D02*
X0277697Y0066720D01*
X0277697Y0066819D02*
X0272585Y0066819D01*
X0272585Y0066917D02*
X0277697Y0066917D01*
X0277697Y0067016D02*
X0272585Y0067016D01*
X0272585Y0067114D02*
X0277697Y0067114D01*
X0277697Y0067213D02*
X0272585Y0067213D01*
X0272585Y0067312D02*
X0277697Y0067312D01*
X0277697Y0067410D02*
X0272585Y0067410D01*
X0272585Y0067509D02*
X0277697Y0067509D01*
X0277697Y0067607D02*
X0272585Y0067607D01*
X0272585Y0067706D02*
X0277697Y0067706D01*
X0277697Y0067804D02*
X0272585Y0067804D01*
X0272585Y0068626D02*
X0277697Y0068626D01*
X0277697Y0073739D01*
X0272585Y0073739D01*
X0272585Y0068626D01*
X0272585Y0068691D02*
X0277697Y0068691D01*
X0277697Y0068789D02*
X0272585Y0068789D01*
X0272585Y0068888D02*
X0277697Y0068888D01*
X0277697Y0068986D02*
X0272585Y0068986D01*
X0272585Y0069085D02*
X0277697Y0069085D01*
X0277697Y0069183D02*
X0272585Y0069183D01*
X0272585Y0069282D02*
X0277697Y0069282D01*
X0277697Y0069380D02*
X0272585Y0069380D01*
X0272585Y0069479D02*
X0277697Y0069479D01*
X0277697Y0069577D02*
X0272585Y0069577D01*
X0272585Y0069676D02*
X0277697Y0069676D01*
X0277697Y0069774D02*
X0272585Y0069774D01*
X0272585Y0069873D02*
X0277697Y0069873D01*
X0277697Y0069971D02*
X0272585Y0069971D01*
X0272585Y0070070D02*
X0277697Y0070070D01*
X0277697Y0070168D02*
X0272585Y0070168D01*
X0272585Y0070267D02*
X0277697Y0070267D01*
X0277697Y0070365D02*
X0272585Y0070365D01*
X0272585Y0070464D02*
X0277697Y0070464D01*
X0277697Y0070562D02*
X0272585Y0070562D01*
X0272585Y0070661D02*
X0277697Y0070661D01*
X0277697Y0070759D02*
X0272585Y0070759D01*
X0272585Y0070858D02*
X0277697Y0070858D01*
X0277697Y0070956D02*
X0272585Y0070956D01*
X0272585Y0071055D02*
X0277697Y0071055D01*
X0277697Y0071153D02*
X0272585Y0071153D01*
X0272585Y0071252D02*
X0277697Y0071252D01*
X0277697Y0071350D02*
X0272585Y0071350D01*
X0272585Y0071449D02*
X0277697Y0071449D01*
X0277697Y0071548D02*
X0272585Y0071548D01*
X0272585Y0071646D02*
X0277697Y0071646D01*
X0277697Y0071745D02*
X0272585Y0071745D01*
X0272585Y0071843D02*
X0277697Y0071843D01*
X0277697Y0071942D02*
X0272585Y0071942D01*
X0272585Y0072040D02*
X0277697Y0072040D01*
X0277697Y0072139D02*
X0272585Y0072139D01*
X0272585Y0072237D02*
X0277697Y0072237D01*
X0277697Y0072336D02*
X0272585Y0072336D01*
X0272585Y0072434D02*
X0277697Y0072434D01*
X0277697Y0072533D02*
X0272585Y0072533D01*
X0272585Y0072631D02*
X0277697Y0072631D01*
X0277697Y0072730D02*
X0272585Y0072730D01*
X0272585Y0072828D02*
X0277697Y0072828D01*
X0277697Y0072927D02*
X0272585Y0072927D01*
X0272585Y0073025D02*
X0277697Y0073025D01*
X0277697Y0073124D02*
X0272585Y0073124D01*
X0272585Y0073222D02*
X0277697Y0073222D01*
X0277697Y0073321D02*
X0272585Y0073321D01*
X0272585Y0073419D02*
X0277697Y0073419D01*
X0277697Y0073518D02*
X0272585Y0073518D01*
X0272585Y0073616D02*
X0277697Y0073616D01*
X0277697Y0073715D02*
X0272585Y0073715D01*
X0272585Y0074526D02*
X0277697Y0074526D01*
X0277697Y0079639D01*
X0272585Y0079639D01*
X0272585Y0074526D01*
X0272585Y0074601D02*
X0277697Y0074601D01*
X0277697Y0074700D02*
X0272585Y0074700D01*
X0272585Y0074798D02*
X0277697Y0074798D01*
X0277697Y0074897D02*
X0272585Y0074897D01*
X0272585Y0074995D02*
X0277697Y0074995D01*
X0277697Y0075094D02*
X0272585Y0075094D01*
X0272585Y0075192D02*
X0277697Y0075192D01*
X0277697Y0075291D02*
X0272585Y0075291D01*
X0272585Y0075389D02*
X0277697Y0075389D01*
X0277697Y0075488D02*
X0272585Y0075488D01*
X0272585Y0075586D02*
X0277697Y0075586D01*
X0277697Y0075685D02*
X0272585Y0075685D01*
X0272585Y0075783D02*
X0277697Y0075783D01*
X0277697Y0075882D02*
X0272585Y0075882D01*
X0272585Y0075981D02*
X0277697Y0075981D01*
X0277697Y0076079D02*
X0272585Y0076079D01*
X0272585Y0076178D02*
X0277697Y0076178D01*
X0277697Y0076276D02*
X0272585Y0076276D01*
X0272585Y0076375D02*
X0277697Y0076375D01*
X0277697Y0076473D02*
X0272585Y0076473D01*
X0272585Y0076572D02*
X0277697Y0076572D01*
X0277697Y0076670D02*
X0272585Y0076670D01*
X0272585Y0076769D02*
X0277697Y0076769D01*
X0277697Y0076867D02*
X0272585Y0076867D01*
X0272585Y0076966D02*
X0277697Y0076966D01*
X0277697Y0077064D02*
X0272585Y0077064D01*
X0272585Y0077163D02*
X0277697Y0077163D01*
X0277697Y0077261D02*
X0272585Y0077261D01*
X0272585Y0077360D02*
X0277697Y0077360D01*
X0277697Y0077458D02*
X0272585Y0077458D01*
X0272585Y0077557D02*
X0277697Y0077557D01*
X0277697Y0077655D02*
X0272585Y0077655D01*
X0272585Y0077754D02*
X0277697Y0077754D01*
X0277697Y0077852D02*
X0272585Y0077852D01*
X0272585Y0077951D02*
X0277697Y0077951D01*
X0277697Y0078049D02*
X0272585Y0078049D01*
X0272585Y0078148D02*
X0277697Y0078148D01*
X0277697Y0078246D02*
X0272585Y0078246D01*
X0272585Y0078345D02*
X0277697Y0078345D01*
X0277697Y0078443D02*
X0272585Y0078443D01*
X0272585Y0078542D02*
X0277697Y0078542D01*
X0277697Y0078640D02*
X0272585Y0078640D01*
X0272585Y0078739D02*
X0277697Y0078739D01*
X0277697Y0078837D02*
X0272585Y0078837D01*
X0272585Y0078936D02*
X0277697Y0078936D01*
X0277697Y0079034D02*
X0272585Y0079034D01*
X0272585Y0079133D02*
X0277697Y0079133D01*
X0277697Y0079231D02*
X0272585Y0079231D01*
X0272585Y0079330D02*
X0277697Y0079330D01*
X0277697Y0079428D02*
X0272585Y0079428D01*
X0272585Y0079527D02*
X0277697Y0079527D01*
X0277697Y0079625D02*
X0272585Y0079625D01*
X0278485Y0079625D02*
X0283597Y0079625D01*
X0283597Y0079639D02*
X0283597Y0074526D01*
X0278485Y0074526D01*
X0278485Y0079639D01*
X0283597Y0079639D01*
X0283597Y0079527D02*
X0278485Y0079527D01*
X0278485Y0079428D02*
X0283597Y0079428D01*
X0283597Y0079330D02*
X0278485Y0079330D01*
X0278485Y0079231D02*
X0283597Y0079231D01*
X0283597Y0079133D02*
X0278485Y0079133D01*
X0278485Y0079034D02*
X0283597Y0079034D01*
X0283597Y0078936D02*
X0278485Y0078936D01*
X0278485Y0078837D02*
X0283597Y0078837D01*
X0283597Y0078739D02*
X0278485Y0078739D01*
X0278485Y0078640D02*
X0283597Y0078640D01*
X0283597Y0078542D02*
X0278485Y0078542D01*
X0278485Y0078443D02*
X0283597Y0078443D01*
X0283597Y0078345D02*
X0278485Y0078345D01*
X0278485Y0078246D02*
X0283597Y0078246D01*
X0283597Y0078148D02*
X0278485Y0078148D01*
X0278485Y0078049D02*
X0283597Y0078049D01*
X0283597Y0077951D02*
X0278485Y0077951D01*
X0278485Y0077852D02*
X0283597Y0077852D01*
X0283597Y0077754D02*
X0278485Y0077754D01*
X0278485Y0077655D02*
X0283597Y0077655D01*
X0283597Y0077557D02*
X0278485Y0077557D01*
X0278485Y0077458D02*
X0283597Y0077458D01*
X0283597Y0077360D02*
X0278485Y0077360D01*
X0278485Y0077261D02*
X0283597Y0077261D01*
X0283597Y0077163D02*
X0278485Y0077163D01*
X0278485Y0077064D02*
X0283597Y0077064D01*
X0283597Y0076966D02*
X0278485Y0076966D01*
X0278485Y0076867D02*
X0283597Y0076867D01*
X0283597Y0076769D02*
X0278485Y0076769D01*
X0278485Y0076670D02*
X0283597Y0076670D01*
X0283597Y0076572D02*
X0278485Y0076572D01*
X0278485Y0076473D02*
X0283597Y0076473D01*
X0283597Y0076375D02*
X0278485Y0076375D01*
X0278485Y0076276D02*
X0283597Y0076276D01*
X0283597Y0076178D02*
X0278485Y0076178D01*
X0278485Y0076079D02*
X0283597Y0076079D01*
X0283597Y0075981D02*
X0278485Y0075981D01*
X0278485Y0075882D02*
X0283597Y0075882D01*
X0283597Y0075783D02*
X0278485Y0075783D01*
X0278485Y0075685D02*
X0283597Y0075685D01*
X0283597Y0075586D02*
X0278485Y0075586D01*
X0278485Y0075488D02*
X0283597Y0075488D01*
X0283597Y0075389D02*
X0278485Y0075389D01*
X0278485Y0075291D02*
X0283597Y0075291D01*
X0283597Y0075192D02*
X0278485Y0075192D01*
X0278485Y0075094D02*
X0283597Y0075094D01*
X0283597Y0074995D02*
X0278485Y0074995D01*
X0278485Y0074897D02*
X0283597Y0074897D01*
X0283597Y0074798D02*
X0278485Y0074798D01*
X0278485Y0074700D02*
X0283597Y0074700D01*
X0283597Y0074601D02*
X0278485Y0074601D01*
X0278485Y0073739D02*
X0278485Y0068626D01*
X0283597Y0068626D01*
X0283597Y0073739D01*
X0278485Y0073739D01*
X0278485Y0073715D02*
X0283597Y0073715D01*
X0283597Y0073616D02*
X0278485Y0073616D01*
X0278485Y0073518D02*
X0283597Y0073518D01*
X0283597Y0073419D02*
X0278485Y0073419D01*
X0278485Y0073321D02*
X0283597Y0073321D01*
X0283597Y0073222D02*
X0278485Y0073222D01*
X0278485Y0073124D02*
X0283597Y0073124D01*
X0283597Y0073025D02*
X0278485Y0073025D01*
X0278485Y0072927D02*
X0283597Y0072927D01*
X0283597Y0072828D02*
X0278485Y0072828D01*
X0278485Y0072730D02*
X0283597Y0072730D01*
X0283597Y0072631D02*
X0278485Y0072631D01*
X0278485Y0072533D02*
X0283597Y0072533D01*
X0283597Y0072434D02*
X0278485Y0072434D01*
X0278485Y0072336D02*
X0283597Y0072336D01*
X0283597Y0072237D02*
X0278485Y0072237D01*
X0278485Y0072139D02*
X0283597Y0072139D01*
X0283597Y0072040D02*
X0278485Y0072040D01*
X0278485Y0071942D02*
X0283597Y0071942D01*
X0283597Y0071843D02*
X0278485Y0071843D01*
X0278485Y0071745D02*
X0283597Y0071745D01*
X0283597Y0071646D02*
X0278485Y0071646D01*
X0278485Y0071548D02*
X0283597Y0071548D01*
X0283597Y0071449D02*
X0278485Y0071449D01*
X0278485Y0071350D02*
X0283597Y0071350D01*
X0283597Y0071252D02*
X0278485Y0071252D01*
X0278485Y0071153D02*
X0283597Y0071153D01*
X0283597Y0071055D02*
X0278485Y0071055D01*
X0278485Y0070956D02*
X0283597Y0070956D01*
X0283597Y0070858D02*
X0278485Y0070858D01*
X0278485Y0070759D02*
X0283597Y0070759D01*
X0283597Y0070661D02*
X0278485Y0070661D01*
X0278485Y0070562D02*
X0283597Y0070562D01*
X0283597Y0070464D02*
X0278485Y0070464D01*
X0278485Y0070365D02*
X0283597Y0070365D01*
X0283597Y0070267D02*
X0278485Y0070267D01*
X0278485Y0070168D02*
X0283597Y0070168D01*
X0283597Y0070070D02*
X0278485Y0070070D01*
X0278485Y0069971D02*
X0283597Y0069971D01*
X0283597Y0069873D02*
X0278485Y0069873D01*
X0278485Y0069774D02*
X0283597Y0069774D01*
X0283597Y0069676D02*
X0278485Y0069676D01*
X0278485Y0069577D02*
X0283597Y0069577D01*
X0283597Y0069479D02*
X0278485Y0069479D01*
X0278485Y0069380D02*
X0283597Y0069380D01*
X0283597Y0069282D02*
X0278485Y0069282D01*
X0278485Y0069183D02*
X0283597Y0069183D01*
X0283597Y0069085D02*
X0278485Y0069085D01*
X0278485Y0068986D02*
X0283597Y0068986D01*
X0283597Y0068888D02*
X0278485Y0068888D01*
X0278485Y0068789D02*
X0283597Y0068789D01*
X0283597Y0068691D02*
X0278485Y0068691D01*
X0278485Y0067839D02*
X0278485Y0062726D01*
X0283597Y0062726D01*
X0283597Y0067839D01*
X0278485Y0067839D01*
X0278485Y0067804D02*
X0283597Y0067804D01*
X0283597Y0067706D02*
X0278485Y0067706D01*
X0278485Y0067607D02*
X0283597Y0067607D01*
X0283597Y0067509D02*
X0278485Y0067509D01*
X0278485Y0067410D02*
X0283597Y0067410D01*
X0283597Y0067312D02*
X0278485Y0067312D01*
X0278485Y0067213D02*
X0283597Y0067213D01*
X0283597Y0067114D02*
X0278485Y0067114D01*
X0278485Y0067016D02*
X0283597Y0067016D01*
X0283597Y0066917D02*
X0278485Y0066917D01*
X0278485Y0066819D02*
X0283597Y0066819D01*
X0283597Y0066720D02*
X0278485Y0066720D01*
X0278485Y0066622D02*
X0283597Y0066622D01*
X0283597Y0066523D02*
X0278485Y0066523D01*
X0278485Y0066425D02*
X0283597Y0066425D01*
X0283597Y0066326D02*
X0278485Y0066326D01*
X0278485Y0066228D02*
X0283597Y0066228D01*
X0283597Y0066129D02*
X0278485Y0066129D01*
X0278485Y0066031D02*
X0283597Y0066031D01*
X0283597Y0065932D02*
X0278485Y0065932D01*
X0278485Y0065834D02*
X0283597Y0065834D01*
X0283597Y0065735D02*
X0278485Y0065735D01*
X0278485Y0065637D02*
X0283597Y0065637D01*
X0283597Y0065538D02*
X0278485Y0065538D01*
X0278485Y0065440D02*
X0283597Y0065440D01*
X0283597Y0065341D02*
X0278485Y0065341D01*
X0278485Y0065243D02*
X0283597Y0065243D01*
X0283597Y0065144D02*
X0278485Y0065144D01*
X0278485Y0065046D02*
X0283597Y0065046D01*
X0283597Y0064947D02*
X0278485Y0064947D01*
X0278485Y0064849D02*
X0283597Y0064849D01*
X0283597Y0064750D02*
X0278485Y0064750D01*
X0278485Y0064652D02*
X0283597Y0064652D01*
X0283597Y0064553D02*
X0278485Y0064553D01*
X0278485Y0064455D02*
X0283597Y0064455D01*
X0283597Y0064356D02*
X0278485Y0064356D01*
X0278485Y0064258D02*
X0283597Y0064258D01*
X0283597Y0064159D02*
X0278485Y0064159D01*
X0278485Y0064061D02*
X0283597Y0064061D01*
X0283597Y0063962D02*
X0278485Y0063962D01*
X0278485Y0063864D02*
X0283597Y0063864D01*
X0283597Y0063765D02*
X0278485Y0063765D01*
X0278485Y0063667D02*
X0283597Y0063667D01*
X0283597Y0063568D02*
X0278485Y0063568D01*
X0278485Y0063470D02*
X0283597Y0063470D01*
X0283597Y0063371D02*
X0278485Y0063371D01*
X0278485Y0063273D02*
X0283597Y0063273D01*
X0283597Y0063174D02*
X0278485Y0063174D01*
X0278485Y0063076D02*
X0283597Y0063076D01*
X0283597Y0062977D02*
X0278485Y0062977D01*
X0278485Y0062879D02*
X0283597Y0062879D01*
X0283597Y0062780D02*
X0278485Y0062780D01*
X0278485Y0061939D02*
X0278485Y0056826D01*
X0283597Y0056826D01*
X0283597Y0061939D01*
X0278485Y0061939D01*
X0278485Y0061893D02*
X0283597Y0061893D01*
X0283597Y0061795D02*
X0278485Y0061795D01*
X0278485Y0061696D02*
X0283597Y0061696D01*
X0283597Y0061598D02*
X0278485Y0061598D01*
X0278485Y0061499D02*
X0283597Y0061499D01*
X0283597Y0061401D02*
X0278485Y0061401D01*
X0278485Y0061302D02*
X0283597Y0061302D01*
X0283597Y0061204D02*
X0278485Y0061204D01*
X0278485Y0061105D02*
X0283597Y0061105D01*
X0283597Y0061007D02*
X0278485Y0061007D01*
X0278485Y0060908D02*
X0283597Y0060908D01*
X0283597Y0060810D02*
X0278485Y0060810D01*
X0278485Y0060711D02*
X0283597Y0060711D01*
X0283597Y0060613D02*
X0278485Y0060613D01*
X0278485Y0060514D02*
X0283597Y0060514D01*
X0283597Y0060416D02*
X0278485Y0060416D01*
X0278485Y0060317D02*
X0283597Y0060317D01*
X0283597Y0060219D02*
X0278485Y0060219D01*
X0278485Y0060120D02*
X0283597Y0060120D01*
X0283597Y0060022D02*
X0278485Y0060022D01*
X0278485Y0059923D02*
X0283597Y0059923D01*
X0283597Y0059825D02*
X0278485Y0059825D01*
X0278485Y0059726D02*
X0283597Y0059726D01*
X0283597Y0059628D02*
X0278485Y0059628D01*
X0278485Y0059529D02*
X0283597Y0059529D01*
X0283597Y0059431D02*
X0278485Y0059431D01*
X0278485Y0059332D02*
X0283597Y0059332D01*
X0283597Y0059234D02*
X0278485Y0059234D01*
X0278485Y0059135D02*
X0283597Y0059135D01*
X0283597Y0059037D02*
X0278485Y0059037D01*
X0278485Y0058938D02*
X0283597Y0058938D01*
X0283597Y0058840D02*
X0278485Y0058840D01*
X0278485Y0058741D02*
X0283597Y0058741D01*
X0283597Y0058643D02*
X0278485Y0058643D01*
X0278485Y0058544D02*
X0283597Y0058544D01*
X0283597Y0058445D02*
X0278485Y0058445D01*
X0278485Y0058347D02*
X0283597Y0058347D01*
X0283597Y0058248D02*
X0278485Y0058248D01*
X0278485Y0058150D02*
X0283597Y0058150D01*
X0283597Y0058051D02*
X0278485Y0058051D01*
X0278485Y0057953D02*
X0283597Y0057953D01*
X0283597Y0057854D02*
X0278485Y0057854D01*
X0278485Y0057756D02*
X0283597Y0057756D01*
X0283597Y0057657D02*
X0278485Y0057657D01*
X0278485Y0057559D02*
X0283597Y0057559D01*
X0283597Y0057460D02*
X0278485Y0057460D01*
X0278485Y0057362D02*
X0283597Y0057362D01*
X0283597Y0057263D02*
X0278485Y0057263D01*
X0278485Y0057165D02*
X0283597Y0057165D01*
X0283597Y0057066D02*
X0278485Y0057066D01*
X0278485Y0056968D02*
X0283597Y0056968D01*
X0283597Y0056869D02*
X0278485Y0056869D01*
X0278485Y0056039D02*
X0278485Y0050926D01*
X0283597Y0050926D01*
X0283597Y0056039D01*
X0278485Y0056039D01*
X0278485Y0055983D02*
X0283597Y0055983D01*
X0283597Y0055884D02*
X0278485Y0055884D01*
X0278485Y0055786D02*
X0283597Y0055786D01*
X0283597Y0055687D02*
X0278485Y0055687D01*
X0278485Y0055589D02*
X0283597Y0055589D01*
X0283597Y0055490D02*
X0278485Y0055490D01*
X0278485Y0055392D02*
X0283597Y0055392D01*
X0283597Y0055293D02*
X0278485Y0055293D01*
X0278485Y0055195D02*
X0283597Y0055195D01*
X0283597Y0055096D02*
X0278485Y0055096D01*
X0278485Y0054998D02*
X0283597Y0054998D01*
X0283597Y0054899D02*
X0278485Y0054899D01*
X0278485Y0054801D02*
X0283597Y0054801D01*
X0283597Y0054702D02*
X0278485Y0054702D01*
X0278485Y0054604D02*
X0283597Y0054604D01*
X0283597Y0054505D02*
X0278485Y0054505D01*
X0278485Y0054407D02*
X0283597Y0054407D01*
X0283597Y0054308D02*
X0278485Y0054308D01*
X0278485Y0054210D02*
X0283597Y0054210D01*
X0283597Y0054111D02*
X0278485Y0054111D01*
X0278485Y0054012D02*
X0283597Y0054012D01*
X0283597Y0053914D02*
X0278485Y0053914D01*
X0278485Y0053815D02*
X0283597Y0053815D01*
X0283597Y0053717D02*
X0278485Y0053717D01*
X0278485Y0053618D02*
X0283597Y0053618D01*
X0283597Y0053520D02*
X0278485Y0053520D01*
X0278485Y0053421D02*
X0283597Y0053421D01*
X0283597Y0053323D02*
X0278485Y0053323D01*
X0278485Y0053224D02*
X0283597Y0053224D01*
X0283597Y0053126D02*
X0278485Y0053126D01*
X0278485Y0053027D02*
X0283597Y0053027D01*
X0283597Y0052929D02*
X0278485Y0052929D01*
X0278485Y0052830D02*
X0283597Y0052830D01*
X0283597Y0052732D02*
X0278485Y0052732D01*
X0278485Y0052633D02*
X0283597Y0052633D01*
X0283597Y0052535D02*
X0278485Y0052535D01*
X0278485Y0052436D02*
X0283597Y0052436D01*
X0283597Y0052338D02*
X0278485Y0052338D01*
X0278485Y0052239D02*
X0283597Y0052239D01*
X0283597Y0052141D02*
X0278485Y0052141D01*
X0278485Y0052042D02*
X0283597Y0052042D01*
X0283597Y0051944D02*
X0278485Y0051944D01*
X0278485Y0051845D02*
X0283597Y0051845D01*
X0283597Y0051747D02*
X0278485Y0051747D01*
X0278485Y0051648D02*
X0283597Y0051648D01*
X0283597Y0051550D02*
X0278485Y0051550D01*
X0278485Y0051451D02*
X0283597Y0051451D01*
X0283597Y0051353D02*
X0278485Y0051353D01*
X0278485Y0051254D02*
X0283597Y0051254D01*
X0283597Y0051156D02*
X0278485Y0051156D01*
X0278485Y0051057D02*
X0283597Y0051057D01*
X0283597Y0050959D02*
X0278485Y0050959D01*
X0284385Y0050959D02*
X0289497Y0050959D01*
X0289497Y0050926D02*
X0289497Y0056039D01*
X0284385Y0056039D01*
X0284385Y0050926D01*
X0289497Y0050926D01*
X0289497Y0051057D02*
X0284385Y0051057D01*
X0284385Y0051156D02*
X0289497Y0051156D01*
X0289497Y0051254D02*
X0284385Y0051254D01*
X0284385Y0051353D02*
X0289497Y0051353D01*
X0289497Y0051451D02*
X0284385Y0051451D01*
X0284385Y0051550D02*
X0289497Y0051550D01*
X0289497Y0051648D02*
X0284385Y0051648D01*
X0284385Y0051747D02*
X0289497Y0051747D01*
X0289497Y0051845D02*
X0284385Y0051845D01*
X0284385Y0051944D02*
X0289497Y0051944D01*
X0289497Y0052042D02*
X0284385Y0052042D01*
X0284385Y0052141D02*
X0289497Y0052141D01*
X0289497Y0052239D02*
X0284385Y0052239D01*
X0284385Y0052338D02*
X0289497Y0052338D01*
X0289497Y0052436D02*
X0284385Y0052436D01*
X0284385Y0052535D02*
X0289497Y0052535D01*
X0289497Y0052633D02*
X0284385Y0052633D01*
X0284385Y0052732D02*
X0289497Y0052732D01*
X0289497Y0052830D02*
X0284385Y0052830D01*
X0284385Y0052929D02*
X0289497Y0052929D01*
X0289497Y0053027D02*
X0284385Y0053027D01*
X0284385Y0053126D02*
X0289497Y0053126D01*
X0289497Y0053224D02*
X0284385Y0053224D01*
X0284385Y0053323D02*
X0289497Y0053323D01*
X0289497Y0053421D02*
X0284385Y0053421D01*
X0284385Y0053520D02*
X0289497Y0053520D01*
X0289497Y0053618D02*
X0284385Y0053618D01*
X0284385Y0053717D02*
X0289497Y0053717D01*
X0289497Y0053815D02*
X0284385Y0053815D01*
X0284385Y0053914D02*
X0289497Y0053914D01*
X0289497Y0054012D02*
X0284385Y0054012D01*
X0284385Y0054111D02*
X0289497Y0054111D01*
X0289497Y0054210D02*
X0284385Y0054210D01*
X0284385Y0054308D02*
X0289497Y0054308D01*
X0289497Y0054407D02*
X0284385Y0054407D01*
X0284385Y0054505D02*
X0289497Y0054505D01*
X0289497Y0054604D02*
X0284385Y0054604D01*
X0284385Y0054702D02*
X0289497Y0054702D01*
X0289497Y0054801D02*
X0284385Y0054801D01*
X0284385Y0054899D02*
X0289497Y0054899D01*
X0289497Y0054998D02*
X0284385Y0054998D01*
X0284385Y0055096D02*
X0289497Y0055096D01*
X0289497Y0055195D02*
X0284385Y0055195D01*
X0284385Y0055293D02*
X0289497Y0055293D01*
X0289497Y0055392D02*
X0284385Y0055392D01*
X0284385Y0055490D02*
X0289497Y0055490D01*
X0289497Y0055589D02*
X0284385Y0055589D01*
X0284385Y0055687D02*
X0289497Y0055687D01*
X0289497Y0055786D02*
X0284385Y0055786D01*
X0284385Y0055884D02*
X0289497Y0055884D01*
X0289497Y0055983D02*
X0284385Y0055983D01*
X0284385Y0056826D02*
X0289497Y0056826D01*
X0289497Y0061939D01*
X0284385Y0061939D01*
X0284385Y0056826D01*
X0284385Y0056869D02*
X0289497Y0056869D01*
X0289497Y0056968D02*
X0284385Y0056968D01*
X0284385Y0057066D02*
X0289497Y0057066D01*
X0289497Y0057165D02*
X0284385Y0057165D01*
X0284385Y0057263D02*
X0289497Y0057263D01*
X0289497Y0057362D02*
X0284385Y0057362D01*
X0284385Y0057460D02*
X0289497Y0057460D01*
X0289497Y0057559D02*
X0284385Y0057559D01*
X0284385Y0057657D02*
X0289497Y0057657D01*
X0289497Y0057756D02*
X0284385Y0057756D01*
X0284385Y0057854D02*
X0289497Y0057854D01*
X0289497Y0057953D02*
X0284385Y0057953D01*
X0284385Y0058051D02*
X0289497Y0058051D01*
X0289497Y0058150D02*
X0284385Y0058150D01*
X0284385Y0058248D02*
X0289497Y0058248D01*
X0289497Y0058347D02*
X0284385Y0058347D01*
X0284385Y0058445D02*
X0289497Y0058445D01*
X0289497Y0058544D02*
X0284385Y0058544D01*
X0284385Y0058643D02*
X0289497Y0058643D01*
X0289497Y0058741D02*
X0284385Y0058741D01*
X0284385Y0058840D02*
X0289497Y0058840D01*
X0289497Y0058938D02*
X0284385Y0058938D01*
X0284385Y0059037D02*
X0289497Y0059037D01*
X0289497Y0059135D02*
X0284385Y0059135D01*
X0284385Y0059234D02*
X0289497Y0059234D01*
X0289497Y0059332D02*
X0284385Y0059332D01*
X0284385Y0059431D02*
X0289497Y0059431D01*
X0289497Y0059529D02*
X0284385Y0059529D01*
X0284385Y0059628D02*
X0289497Y0059628D01*
X0289497Y0059726D02*
X0284385Y0059726D01*
X0284385Y0059825D02*
X0289497Y0059825D01*
X0289497Y0059923D02*
X0284385Y0059923D01*
X0284385Y0060022D02*
X0289497Y0060022D01*
X0289497Y0060120D02*
X0284385Y0060120D01*
X0284385Y0060219D02*
X0289497Y0060219D01*
X0289497Y0060317D02*
X0284385Y0060317D01*
X0284385Y0060416D02*
X0289497Y0060416D01*
X0289497Y0060514D02*
X0284385Y0060514D01*
X0284385Y0060613D02*
X0289497Y0060613D01*
X0289497Y0060711D02*
X0284385Y0060711D01*
X0284385Y0060810D02*
X0289497Y0060810D01*
X0289497Y0060908D02*
X0284385Y0060908D01*
X0284385Y0061007D02*
X0289497Y0061007D01*
X0289497Y0061105D02*
X0284385Y0061105D01*
X0284385Y0061204D02*
X0289497Y0061204D01*
X0289497Y0061302D02*
X0284385Y0061302D01*
X0284385Y0061401D02*
X0289497Y0061401D01*
X0289497Y0061499D02*
X0284385Y0061499D01*
X0284385Y0061598D02*
X0289497Y0061598D01*
X0289497Y0061696D02*
X0284385Y0061696D01*
X0284385Y0061795D02*
X0289497Y0061795D01*
X0289497Y0061893D02*
X0284385Y0061893D01*
X0284385Y0062726D02*
X0289497Y0062726D01*
X0289497Y0067839D01*
X0284385Y0067839D01*
X0284385Y0062726D01*
X0284385Y0062780D02*
X0289497Y0062780D01*
X0289497Y0062879D02*
X0284385Y0062879D01*
X0284385Y0062977D02*
X0289497Y0062977D01*
X0289497Y0063076D02*
X0284385Y0063076D01*
X0284385Y0063174D02*
X0289497Y0063174D01*
X0289497Y0063273D02*
X0284385Y0063273D01*
X0284385Y0063371D02*
X0289497Y0063371D01*
X0289497Y0063470D02*
X0284385Y0063470D01*
X0284385Y0063568D02*
X0289497Y0063568D01*
X0289497Y0063667D02*
X0284385Y0063667D01*
X0284385Y0063765D02*
X0289497Y0063765D01*
X0289497Y0063864D02*
X0284385Y0063864D01*
X0284385Y0063962D02*
X0289497Y0063962D01*
X0289497Y0064061D02*
X0284385Y0064061D01*
X0284385Y0064159D02*
X0289497Y0064159D01*
X0289497Y0064258D02*
X0284385Y0064258D01*
X0284385Y0064356D02*
X0289497Y0064356D01*
X0289497Y0064455D02*
X0284385Y0064455D01*
X0284385Y0064553D02*
X0289497Y0064553D01*
X0289497Y0064652D02*
X0284385Y0064652D01*
X0284385Y0064750D02*
X0289497Y0064750D01*
X0289497Y0064849D02*
X0284385Y0064849D01*
X0284385Y0064947D02*
X0289497Y0064947D01*
X0289497Y0065046D02*
X0284385Y0065046D01*
X0284385Y0065144D02*
X0289497Y0065144D01*
X0289497Y0065243D02*
X0284385Y0065243D01*
X0284385Y0065341D02*
X0289497Y0065341D01*
X0289497Y0065440D02*
X0284385Y0065440D01*
X0284385Y0065538D02*
X0289497Y0065538D01*
X0289497Y0065637D02*
X0284385Y0065637D01*
X0284385Y0065735D02*
X0289497Y0065735D01*
X0289497Y0065834D02*
X0284385Y0065834D01*
X0284385Y0065932D02*
X0289497Y0065932D01*
X0289497Y0066031D02*
X0284385Y0066031D01*
X0284385Y0066129D02*
X0289497Y0066129D01*
X0289497Y0066228D02*
X0284385Y0066228D01*
X0284385Y0066326D02*
X0289497Y0066326D01*
X0289497Y0066425D02*
X0284385Y0066425D01*
X0284385Y0066523D02*
X0289497Y0066523D01*
X0289497Y0066622D02*
X0284385Y0066622D01*
X0284385Y0066720D02*
X0289497Y0066720D01*
X0289497Y0066819D02*
X0284385Y0066819D01*
X0284385Y0066917D02*
X0289497Y0066917D01*
X0289497Y0067016D02*
X0284385Y0067016D01*
X0284385Y0067114D02*
X0289497Y0067114D01*
X0289497Y0067213D02*
X0284385Y0067213D01*
X0284385Y0067312D02*
X0289497Y0067312D01*
X0289497Y0067410D02*
X0284385Y0067410D01*
X0284385Y0067509D02*
X0289497Y0067509D01*
X0289497Y0067607D02*
X0284385Y0067607D01*
X0284385Y0067706D02*
X0289497Y0067706D01*
X0289497Y0067804D02*
X0284385Y0067804D01*
X0284385Y0068626D02*
X0289497Y0068626D01*
X0289497Y0073739D01*
X0284385Y0073739D01*
X0284385Y0068626D01*
X0284385Y0068691D02*
X0289497Y0068691D01*
X0289497Y0068789D02*
X0284385Y0068789D01*
X0284385Y0068888D02*
X0289497Y0068888D01*
X0289497Y0068986D02*
X0284385Y0068986D01*
X0284385Y0069085D02*
X0289497Y0069085D01*
X0289497Y0069183D02*
X0284385Y0069183D01*
X0284385Y0069282D02*
X0289497Y0069282D01*
X0289497Y0069380D02*
X0284385Y0069380D01*
X0284385Y0069479D02*
X0289497Y0069479D01*
X0289497Y0069577D02*
X0284385Y0069577D01*
X0284385Y0069676D02*
X0289497Y0069676D01*
X0289497Y0069774D02*
X0284385Y0069774D01*
X0284385Y0069873D02*
X0289497Y0069873D01*
X0289497Y0069971D02*
X0284385Y0069971D01*
X0284385Y0070070D02*
X0289497Y0070070D01*
X0289497Y0070168D02*
X0284385Y0070168D01*
X0284385Y0070267D02*
X0289497Y0070267D01*
X0289497Y0070365D02*
X0284385Y0070365D01*
X0284385Y0070464D02*
X0289497Y0070464D01*
X0289497Y0070562D02*
X0284385Y0070562D01*
X0284385Y0070661D02*
X0289497Y0070661D01*
X0289497Y0070759D02*
X0284385Y0070759D01*
X0284385Y0070858D02*
X0289497Y0070858D01*
X0289497Y0070956D02*
X0284385Y0070956D01*
X0284385Y0071055D02*
X0289497Y0071055D01*
X0289497Y0071153D02*
X0284385Y0071153D01*
X0284385Y0071252D02*
X0289497Y0071252D01*
X0289497Y0071350D02*
X0284385Y0071350D01*
X0284385Y0071449D02*
X0289497Y0071449D01*
X0289497Y0071548D02*
X0284385Y0071548D01*
X0284385Y0071646D02*
X0289497Y0071646D01*
X0289497Y0071745D02*
X0284385Y0071745D01*
X0284385Y0071843D02*
X0289497Y0071843D01*
X0289497Y0071942D02*
X0284385Y0071942D01*
X0284385Y0072040D02*
X0289497Y0072040D01*
X0289497Y0072139D02*
X0284385Y0072139D01*
X0284385Y0072237D02*
X0289497Y0072237D01*
X0289497Y0072336D02*
X0284385Y0072336D01*
X0284385Y0072434D02*
X0289497Y0072434D01*
X0289497Y0072533D02*
X0284385Y0072533D01*
X0284385Y0072631D02*
X0289497Y0072631D01*
X0289497Y0072730D02*
X0284385Y0072730D01*
X0284385Y0072828D02*
X0289497Y0072828D01*
X0289497Y0072927D02*
X0284385Y0072927D01*
X0284385Y0073025D02*
X0289497Y0073025D01*
X0289497Y0073124D02*
X0284385Y0073124D01*
X0284385Y0073222D02*
X0289497Y0073222D01*
X0289497Y0073321D02*
X0284385Y0073321D01*
X0284385Y0073419D02*
X0289497Y0073419D01*
X0289497Y0073518D02*
X0284385Y0073518D01*
X0284385Y0073616D02*
X0289497Y0073616D01*
X0289497Y0073715D02*
X0284385Y0073715D01*
X0284385Y0074526D02*
X0289497Y0074526D01*
X0289497Y0079639D01*
X0284385Y0079639D01*
X0284385Y0074526D01*
X0284385Y0074601D02*
X0289497Y0074601D01*
X0289497Y0074700D02*
X0284385Y0074700D01*
X0284385Y0074798D02*
X0289497Y0074798D01*
X0289497Y0074897D02*
X0284385Y0074897D01*
X0284385Y0074995D02*
X0289497Y0074995D01*
X0289497Y0075094D02*
X0284385Y0075094D01*
X0284385Y0075192D02*
X0289497Y0075192D01*
X0289497Y0075291D02*
X0284385Y0075291D01*
X0284385Y0075389D02*
X0289497Y0075389D01*
X0289497Y0075488D02*
X0284385Y0075488D01*
X0284385Y0075586D02*
X0289497Y0075586D01*
X0289497Y0075685D02*
X0284385Y0075685D01*
X0284385Y0075783D02*
X0289497Y0075783D01*
X0289497Y0075882D02*
X0284385Y0075882D01*
X0284385Y0075981D02*
X0289497Y0075981D01*
X0289497Y0076079D02*
X0284385Y0076079D01*
X0284385Y0076178D02*
X0289497Y0076178D01*
X0289497Y0076276D02*
X0284385Y0076276D01*
X0284385Y0076375D02*
X0289497Y0076375D01*
X0289497Y0076473D02*
X0284385Y0076473D01*
X0284385Y0076572D02*
X0289497Y0076572D01*
X0289497Y0076670D02*
X0284385Y0076670D01*
X0284385Y0076769D02*
X0289497Y0076769D01*
X0289497Y0076867D02*
X0284385Y0076867D01*
X0284385Y0076966D02*
X0289497Y0076966D01*
X0289497Y0077064D02*
X0284385Y0077064D01*
X0284385Y0077163D02*
X0289497Y0077163D01*
X0289497Y0077261D02*
X0284385Y0077261D01*
X0284385Y0077360D02*
X0289497Y0077360D01*
X0289497Y0077458D02*
X0284385Y0077458D01*
X0284385Y0077557D02*
X0289497Y0077557D01*
X0289497Y0077655D02*
X0284385Y0077655D01*
X0284385Y0077754D02*
X0289497Y0077754D01*
X0289497Y0077852D02*
X0284385Y0077852D01*
X0284385Y0077951D02*
X0289497Y0077951D01*
X0289497Y0078049D02*
X0284385Y0078049D01*
X0284385Y0078148D02*
X0289497Y0078148D01*
X0289497Y0078246D02*
X0284385Y0078246D01*
X0284385Y0078345D02*
X0289497Y0078345D01*
X0289497Y0078443D02*
X0284385Y0078443D01*
X0284385Y0078542D02*
X0289497Y0078542D01*
X0289497Y0078640D02*
X0284385Y0078640D01*
X0284385Y0078739D02*
X0289497Y0078739D01*
X0289497Y0078837D02*
X0284385Y0078837D01*
X0284385Y0078936D02*
X0289497Y0078936D01*
X0289497Y0079034D02*
X0284385Y0079034D01*
X0284385Y0079133D02*
X0289497Y0079133D01*
X0289497Y0079231D02*
X0284385Y0079231D01*
X0284385Y0079330D02*
X0289497Y0079330D01*
X0289497Y0079428D02*
X0284385Y0079428D01*
X0284385Y0079527D02*
X0289497Y0079527D01*
X0289497Y0079625D02*
X0284385Y0079625D01*
X0290285Y0079625D02*
X0295397Y0079625D01*
X0295397Y0079639D02*
X0295397Y0074526D01*
X0290285Y0074526D01*
X0290285Y0079639D01*
X0295397Y0079639D01*
X0295397Y0079527D02*
X0290285Y0079527D01*
X0290285Y0079428D02*
X0295397Y0079428D01*
X0295397Y0079330D02*
X0290285Y0079330D01*
X0290285Y0079231D02*
X0295397Y0079231D01*
X0295397Y0079133D02*
X0290285Y0079133D01*
X0290285Y0079034D02*
X0295397Y0079034D01*
X0295397Y0078936D02*
X0290285Y0078936D01*
X0290285Y0078837D02*
X0295397Y0078837D01*
X0295397Y0078739D02*
X0290285Y0078739D01*
X0290285Y0078640D02*
X0295397Y0078640D01*
X0295397Y0078542D02*
X0290285Y0078542D01*
X0290285Y0078443D02*
X0295397Y0078443D01*
X0295397Y0078345D02*
X0290285Y0078345D01*
X0290285Y0078246D02*
X0295397Y0078246D01*
X0295397Y0078148D02*
X0290285Y0078148D01*
X0290285Y0078049D02*
X0295397Y0078049D01*
X0295397Y0077951D02*
X0290285Y0077951D01*
X0290285Y0077852D02*
X0295397Y0077852D01*
X0295397Y0077754D02*
X0290285Y0077754D01*
X0290285Y0077655D02*
X0295397Y0077655D01*
X0295397Y0077557D02*
X0290285Y0077557D01*
X0290285Y0077458D02*
X0295397Y0077458D01*
X0295397Y0077360D02*
X0290285Y0077360D01*
X0290285Y0077261D02*
X0295397Y0077261D01*
X0295397Y0077163D02*
X0290285Y0077163D01*
X0290285Y0077064D02*
X0295397Y0077064D01*
X0295397Y0076966D02*
X0290285Y0076966D01*
X0290285Y0076867D02*
X0295397Y0076867D01*
X0295397Y0076769D02*
X0290285Y0076769D01*
X0290285Y0076670D02*
X0295397Y0076670D01*
X0295397Y0076572D02*
X0290285Y0076572D01*
X0290285Y0076473D02*
X0295397Y0076473D01*
X0295397Y0076375D02*
X0290285Y0076375D01*
X0290285Y0076276D02*
X0295397Y0076276D01*
X0295397Y0076178D02*
X0290285Y0076178D01*
X0290285Y0076079D02*
X0295397Y0076079D01*
X0295397Y0075981D02*
X0290285Y0075981D01*
X0290285Y0075882D02*
X0295397Y0075882D01*
X0295397Y0075783D02*
X0290285Y0075783D01*
X0290285Y0075685D02*
X0295397Y0075685D01*
X0295397Y0075586D02*
X0290285Y0075586D01*
X0290285Y0075488D02*
X0295397Y0075488D01*
X0295397Y0075389D02*
X0290285Y0075389D01*
X0290285Y0075291D02*
X0295397Y0075291D01*
X0295397Y0075192D02*
X0290285Y0075192D01*
X0290285Y0075094D02*
X0295397Y0075094D01*
X0295397Y0074995D02*
X0290285Y0074995D01*
X0290285Y0074897D02*
X0295397Y0074897D01*
X0295397Y0074798D02*
X0290285Y0074798D01*
X0290285Y0074700D02*
X0295397Y0074700D01*
X0295397Y0074601D02*
X0290285Y0074601D01*
X0290285Y0073739D02*
X0290285Y0068626D01*
X0295397Y0068626D01*
X0295397Y0073739D01*
X0290285Y0073739D01*
X0290285Y0073715D02*
X0295397Y0073715D01*
X0295397Y0073616D02*
X0290285Y0073616D01*
X0290285Y0073518D02*
X0295397Y0073518D01*
X0295397Y0073419D02*
X0290285Y0073419D01*
X0290285Y0073321D02*
X0295397Y0073321D01*
X0295397Y0073222D02*
X0290285Y0073222D01*
X0290285Y0073124D02*
X0295397Y0073124D01*
X0295397Y0073025D02*
X0290285Y0073025D01*
X0290285Y0072927D02*
X0295397Y0072927D01*
X0295397Y0072828D02*
X0290285Y0072828D01*
X0290285Y0072730D02*
X0295397Y0072730D01*
X0295397Y0072631D02*
X0290285Y0072631D01*
X0290285Y0072533D02*
X0295397Y0072533D01*
X0295397Y0072434D02*
X0290285Y0072434D01*
X0290285Y0072336D02*
X0295397Y0072336D01*
X0295397Y0072237D02*
X0290285Y0072237D01*
X0290285Y0072139D02*
X0295397Y0072139D01*
X0295397Y0072040D02*
X0290285Y0072040D01*
X0290285Y0071942D02*
X0295397Y0071942D01*
X0295397Y0071843D02*
X0290285Y0071843D01*
X0290285Y0071745D02*
X0295397Y0071745D01*
X0295397Y0071646D02*
X0290285Y0071646D01*
X0290285Y0071548D02*
X0295397Y0071548D01*
X0295397Y0071449D02*
X0290285Y0071449D01*
X0290285Y0071350D02*
X0295397Y0071350D01*
X0295397Y0071252D02*
X0290285Y0071252D01*
X0290285Y0071153D02*
X0295397Y0071153D01*
X0295397Y0071055D02*
X0290285Y0071055D01*
X0290285Y0070956D02*
X0295397Y0070956D01*
X0295397Y0070858D02*
X0290285Y0070858D01*
X0290285Y0070759D02*
X0295397Y0070759D01*
X0295397Y0070661D02*
X0290285Y0070661D01*
X0290285Y0070562D02*
X0295397Y0070562D01*
X0295397Y0070464D02*
X0290285Y0070464D01*
X0290285Y0070365D02*
X0295397Y0070365D01*
X0295397Y0070267D02*
X0290285Y0070267D01*
X0290285Y0070168D02*
X0295397Y0070168D01*
X0295397Y0070070D02*
X0290285Y0070070D01*
X0290285Y0069971D02*
X0295397Y0069971D01*
X0295397Y0069873D02*
X0290285Y0069873D01*
X0290285Y0069774D02*
X0295397Y0069774D01*
X0295397Y0069676D02*
X0290285Y0069676D01*
X0290285Y0069577D02*
X0295397Y0069577D01*
X0295397Y0069479D02*
X0290285Y0069479D01*
X0290285Y0069380D02*
X0295397Y0069380D01*
X0295397Y0069282D02*
X0290285Y0069282D01*
X0290285Y0069183D02*
X0295397Y0069183D01*
X0295397Y0069085D02*
X0290285Y0069085D01*
X0290285Y0068986D02*
X0295397Y0068986D01*
X0295397Y0068888D02*
X0290285Y0068888D01*
X0290285Y0068789D02*
X0295397Y0068789D01*
X0295397Y0068691D02*
X0290285Y0068691D01*
X0290285Y0067839D02*
X0290285Y0062726D01*
X0295397Y0062726D01*
X0295397Y0067839D01*
X0290285Y0067839D01*
X0290285Y0067804D02*
X0295397Y0067804D01*
X0295397Y0067706D02*
X0290285Y0067706D01*
X0290285Y0067607D02*
X0295397Y0067607D01*
X0295397Y0067509D02*
X0290285Y0067509D01*
X0290285Y0067410D02*
X0295397Y0067410D01*
X0295397Y0067312D02*
X0290285Y0067312D01*
X0290285Y0067213D02*
X0295397Y0067213D01*
X0295397Y0067114D02*
X0290285Y0067114D01*
X0290285Y0067016D02*
X0295397Y0067016D01*
X0295397Y0066917D02*
X0290285Y0066917D01*
X0290285Y0066819D02*
X0295397Y0066819D01*
X0295397Y0066720D02*
X0290285Y0066720D01*
X0290285Y0066622D02*
X0295397Y0066622D01*
X0295397Y0066523D02*
X0290285Y0066523D01*
X0290285Y0066425D02*
X0295397Y0066425D01*
X0295397Y0066326D02*
X0290285Y0066326D01*
X0290285Y0066228D02*
X0295397Y0066228D01*
X0295397Y0066129D02*
X0290285Y0066129D01*
X0290285Y0066031D02*
X0295397Y0066031D01*
X0295397Y0065932D02*
X0290285Y0065932D01*
X0290285Y0065834D02*
X0295397Y0065834D01*
X0295397Y0065735D02*
X0290285Y0065735D01*
X0290285Y0065637D02*
X0295397Y0065637D01*
X0295397Y0065538D02*
X0290285Y0065538D01*
X0290285Y0065440D02*
X0295397Y0065440D01*
X0295397Y0065341D02*
X0290285Y0065341D01*
X0290285Y0065243D02*
X0295397Y0065243D01*
X0295397Y0065144D02*
X0290285Y0065144D01*
X0290285Y0065046D02*
X0295397Y0065046D01*
X0295397Y0064947D02*
X0290285Y0064947D01*
X0290285Y0064849D02*
X0295397Y0064849D01*
X0295397Y0064750D02*
X0290285Y0064750D01*
X0290285Y0064652D02*
X0295397Y0064652D01*
X0295397Y0064553D02*
X0290285Y0064553D01*
X0290285Y0064455D02*
X0295397Y0064455D01*
X0295397Y0064356D02*
X0290285Y0064356D01*
X0290285Y0064258D02*
X0295397Y0064258D01*
X0295397Y0064159D02*
X0290285Y0064159D01*
X0290285Y0064061D02*
X0295397Y0064061D01*
X0295397Y0063962D02*
X0290285Y0063962D01*
X0290285Y0063864D02*
X0295397Y0063864D01*
X0295397Y0063765D02*
X0290285Y0063765D01*
X0290285Y0063667D02*
X0295397Y0063667D01*
X0295397Y0063568D02*
X0290285Y0063568D01*
X0290285Y0063470D02*
X0295397Y0063470D01*
X0295397Y0063371D02*
X0290285Y0063371D01*
X0290285Y0063273D02*
X0295397Y0063273D01*
X0295397Y0063174D02*
X0290285Y0063174D01*
X0290285Y0063076D02*
X0295397Y0063076D01*
X0295397Y0062977D02*
X0290285Y0062977D01*
X0290285Y0062879D02*
X0295397Y0062879D01*
X0295397Y0062780D02*
X0290285Y0062780D01*
X0290285Y0061939D02*
X0290285Y0056826D01*
X0295397Y0056826D01*
X0295397Y0061939D01*
X0290285Y0061939D01*
X0290285Y0061893D02*
X0295397Y0061893D01*
X0295397Y0061795D02*
X0290285Y0061795D01*
X0290285Y0061696D02*
X0295397Y0061696D01*
X0295397Y0061598D02*
X0290285Y0061598D01*
X0290285Y0061499D02*
X0295397Y0061499D01*
X0295397Y0061401D02*
X0290285Y0061401D01*
X0290285Y0061302D02*
X0295397Y0061302D01*
X0295397Y0061204D02*
X0290285Y0061204D01*
X0290285Y0061105D02*
X0295397Y0061105D01*
X0295397Y0061007D02*
X0290285Y0061007D01*
X0290285Y0060908D02*
X0295397Y0060908D01*
X0295397Y0060810D02*
X0290285Y0060810D01*
X0290285Y0060711D02*
X0295397Y0060711D01*
X0295397Y0060613D02*
X0290285Y0060613D01*
X0290285Y0060514D02*
X0295397Y0060514D01*
X0295397Y0060416D02*
X0290285Y0060416D01*
X0290285Y0060317D02*
X0295397Y0060317D01*
X0295397Y0060219D02*
X0290285Y0060219D01*
X0290285Y0060120D02*
X0295397Y0060120D01*
X0295397Y0060022D02*
X0290285Y0060022D01*
X0290285Y0059923D02*
X0295397Y0059923D01*
X0295397Y0059825D02*
X0290285Y0059825D01*
X0290285Y0059726D02*
X0295397Y0059726D01*
X0295397Y0059628D02*
X0290285Y0059628D01*
X0290285Y0059529D02*
X0295397Y0059529D01*
X0295397Y0059431D02*
X0290285Y0059431D01*
X0290285Y0059332D02*
X0295397Y0059332D01*
X0295397Y0059234D02*
X0290285Y0059234D01*
X0290285Y0059135D02*
X0295397Y0059135D01*
X0295397Y0059037D02*
X0290285Y0059037D01*
X0290285Y0058938D02*
X0295397Y0058938D01*
X0295397Y0058840D02*
X0290285Y0058840D01*
X0290285Y0058741D02*
X0295397Y0058741D01*
X0295397Y0058643D02*
X0290285Y0058643D01*
X0290285Y0058544D02*
X0295397Y0058544D01*
X0295397Y0058445D02*
X0290285Y0058445D01*
X0290285Y0058347D02*
X0295397Y0058347D01*
X0295397Y0058248D02*
X0290285Y0058248D01*
X0290285Y0058150D02*
X0295397Y0058150D01*
X0295397Y0058051D02*
X0290285Y0058051D01*
X0290285Y0057953D02*
X0295397Y0057953D01*
X0295397Y0057854D02*
X0290285Y0057854D01*
X0290285Y0057756D02*
X0295397Y0057756D01*
X0295397Y0057657D02*
X0290285Y0057657D01*
X0290285Y0057559D02*
X0295397Y0057559D01*
X0295397Y0057460D02*
X0290285Y0057460D01*
X0290285Y0057362D02*
X0295397Y0057362D01*
X0295397Y0057263D02*
X0290285Y0057263D01*
X0290285Y0057165D02*
X0295397Y0057165D01*
X0295397Y0057066D02*
X0290285Y0057066D01*
X0290285Y0056968D02*
X0295397Y0056968D01*
X0295397Y0056869D02*
X0290285Y0056869D01*
X0290285Y0056039D02*
X0290285Y0050926D01*
X0295397Y0050926D01*
X0295397Y0056039D01*
X0290285Y0056039D01*
X0290285Y0055983D02*
X0295397Y0055983D01*
X0295397Y0055884D02*
X0290285Y0055884D01*
X0290285Y0055786D02*
X0295397Y0055786D01*
X0295397Y0055687D02*
X0290285Y0055687D01*
X0290285Y0055589D02*
X0295397Y0055589D01*
X0295397Y0055490D02*
X0290285Y0055490D01*
X0290285Y0055392D02*
X0295397Y0055392D01*
X0295397Y0055293D02*
X0290285Y0055293D01*
X0290285Y0055195D02*
X0295397Y0055195D01*
X0295397Y0055096D02*
X0290285Y0055096D01*
X0290285Y0054998D02*
X0295397Y0054998D01*
X0295397Y0054899D02*
X0290285Y0054899D01*
X0290285Y0054801D02*
X0295397Y0054801D01*
X0295397Y0054702D02*
X0290285Y0054702D01*
X0290285Y0054604D02*
X0295397Y0054604D01*
X0295397Y0054505D02*
X0290285Y0054505D01*
X0290285Y0054407D02*
X0295397Y0054407D01*
X0295397Y0054308D02*
X0290285Y0054308D01*
X0290285Y0054210D02*
X0295397Y0054210D01*
X0295397Y0054111D02*
X0290285Y0054111D01*
X0290285Y0054012D02*
X0295397Y0054012D01*
X0295397Y0053914D02*
X0290285Y0053914D01*
X0290285Y0053815D02*
X0295397Y0053815D01*
X0295397Y0053717D02*
X0290285Y0053717D01*
X0290285Y0053618D02*
X0295397Y0053618D01*
X0295397Y0053520D02*
X0290285Y0053520D01*
X0290285Y0053421D02*
X0295397Y0053421D01*
X0295397Y0053323D02*
X0290285Y0053323D01*
X0290285Y0053224D02*
X0295397Y0053224D01*
X0295397Y0053126D02*
X0290285Y0053126D01*
X0290285Y0053027D02*
X0295397Y0053027D01*
X0295397Y0052929D02*
X0290285Y0052929D01*
X0290285Y0052830D02*
X0295397Y0052830D01*
X0295397Y0052732D02*
X0290285Y0052732D01*
X0290285Y0052633D02*
X0295397Y0052633D01*
X0295397Y0052535D02*
X0290285Y0052535D01*
X0290285Y0052436D02*
X0295397Y0052436D01*
X0295397Y0052338D02*
X0290285Y0052338D01*
X0290285Y0052239D02*
X0295397Y0052239D01*
X0295397Y0052141D02*
X0290285Y0052141D01*
X0290285Y0052042D02*
X0295397Y0052042D01*
X0295397Y0051944D02*
X0290285Y0051944D01*
X0290285Y0051845D02*
X0295397Y0051845D01*
X0295397Y0051747D02*
X0290285Y0051747D01*
X0290285Y0051648D02*
X0295397Y0051648D01*
X0295397Y0051550D02*
X0290285Y0051550D01*
X0290285Y0051451D02*
X0295397Y0051451D01*
X0295397Y0051353D02*
X0290285Y0051353D01*
X0290285Y0051254D02*
X0295397Y0051254D01*
X0295397Y0051156D02*
X0290285Y0051156D01*
X0290285Y0051057D02*
X0295397Y0051057D01*
X0295397Y0050959D02*
X0290285Y0050959D01*
X0296185Y0050959D02*
X0301297Y0050959D01*
X0301297Y0050926D02*
X0301297Y0056039D01*
X0296185Y0056039D01*
X0296185Y0050926D01*
X0301297Y0050926D01*
X0301297Y0051057D02*
X0296185Y0051057D01*
X0296185Y0051156D02*
X0301297Y0051156D01*
X0301297Y0051254D02*
X0296185Y0051254D01*
X0296185Y0051353D02*
X0301297Y0051353D01*
X0301297Y0051451D02*
X0296185Y0051451D01*
X0296185Y0051550D02*
X0301297Y0051550D01*
X0301297Y0051648D02*
X0296185Y0051648D01*
X0296185Y0051747D02*
X0301297Y0051747D01*
X0301297Y0051845D02*
X0296185Y0051845D01*
X0296185Y0051944D02*
X0301297Y0051944D01*
X0301297Y0052042D02*
X0296185Y0052042D01*
X0296185Y0052141D02*
X0301297Y0052141D01*
X0301297Y0052239D02*
X0296185Y0052239D01*
X0296185Y0052338D02*
X0301297Y0052338D01*
X0301297Y0052436D02*
X0296185Y0052436D01*
X0296185Y0052535D02*
X0301297Y0052535D01*
X0301297Y0052633D02*
X0296185Y0052633D01*
X0296185Y0052732D02*
X0301297Y0052732D01*
X0301297Y0052830D02*
X0296185Y0052830D01*
X0296185Y0052929D02*
X0301297Y0052929D01*
X0301297Y0053027D02*
X0296185Y0053027D01*
X0296185Y0053126D02*
X0301297Y0053126D01*
X0301297Y0053224D02*
X0296185Y0053224D01*
X0296185Y0053323D02*
X0301297Y0053323D01*
X0301297Y0053421D02*
X0296185Y0053421D01*
X0296185Y0053520D02*
X0301297Y0053520D01*
X0301297Y0053618D02*
X0296185Y0053618D01*
X0296185Y0053717D02*
X0301297Y0053717D01*
X0301297Y0053815D02*
X0296185Y0053815D01*
X0296185Y0053914D02*
X0301297Y0053914D01*
X0301297Y0054012D02*
X0296185Y0054012D01*
X0296185Y0054111D02*
X0301297Y0054111D01*
X0301297Y0054210D02*
X0296185Y0054210D01*
X0296185Y0054308D02*
X0301297Y0054308D01*
X0301297Y0054407D02*
X0296185Y0054407D01*
X0296185Y0054505D02*
X0301297Y0054505D01*
X0301297Y0054604D02*
X0296185Y0054604D01*
X0296185Y0054702D02*
X0301297Y0054702D01*
X0301297Y0054801D02*
X0296185Y0054801D01*
X0296185Y0054899D02*
X0301297Y0054899D01*
X0301297Y0054998D02*
X0296185Y0054998D01*
X0296185Y0055096D02*
X0301297Y0055096D01*
X0301297Y0055195D02*
X0296185Y0055195D01*
X0296185Y0055293D02*
X0301297Y0055293D01*
X0301297Y0055392D02*
X0296185Y0055392D01*
X0296185Y0055490D02*
X0301297Y0055490D01*
X0301297Y0055589D02*
X0296185Y0055589D01*
X0296185Y0055687D02*
X0301297Y0055687D01*
X0301297Y0055786D02*
X0296185Y0055786D01*
X0296185Y0055884D02*
X0301297Y0055884D01*
X0301297Y0055983D02*
X0296185Y0055983D01*
X0296185Y0056826D02*
X0301297Y0056826D01*
X0301297Y0061939D01*
X0296185Y0061939D01*
X0296185Y0056826D01*
X0296185Y0056869D02*
X0301297Y0056869D01*
X0301297Y0056968D02*
X0296185Y0056968D01*
X0296185Y0057066D02*
X0301297Y0057066D01*
X0301297Y0057165D02*
X0296185Y0057165D01*
X0296185Y0057263D02*
X0301297Y0057263D01*
X0301297Y0057362D02*
X0296185Y0057362D01*
X0296185Y0057460D02*
X0301297Y0057460D01*
X0301297Y0057559D02*
X0296185Y0057559D01*
X0296185Y0057657D02*
X0301297Y0057657D01*
X0301297Y0057756D02*
X0296185Y0057756D01*
X0296185Y0057854D02*
X0301297Y0057854D01*
X0301297Y0057953D02*
X0296185Y0057953D01*
X0296185Y0058051D02*
X0301297Y0058051D01*
X0301297Y0058150D02*
X0296185Y0058150D01*
X0296185Y0058248D02*
X0301297Y0058248D01*
X0301297Y0058347D02*
X0296185Y0058347D01*
X0296185Y0058445D02*
X0301297Y0058445D01*
X0301297Y0058544D02*
X0296185Y0058544D01*
X0296185Y0058643D02*
X0301297Y0058643D01*
X0301297Y0058741D02*
X0296185Y0058741D01*
X0296185Y0058840D02*
X0301297Y0058840D01*
X0301297Y0058938D02*
X0296185Y0058938D01*
X0296185Y0059037D02*
X0301297Y0059037D01*
X0301297Y0059135D02*
X0296185Y0059135D01*
X0296185Y0059234D02*
X0301297Y0059234D01*
X0301297Y0059332D02*
X0296185Y0059332D01*
X0296185Y0059431D02*
X0301297Y0059431D01*
X0301297Y0059529D02*
X0296185Y0059529D01*
X0296185Y0059628D02*
X0301297Y0059628D01*
X0301297Y0059726D02*
X0296185Y0059726D01*
X0296185Y0059825D02*
X0301297Y0059825D01*
X0301297Y0059923D02*
X0296185Y0059923D01*
X0296185Y0060022D02*
X0301297Y0060022D01*
X0301297Y0060120D02*
X0296185Y0060120D01*
X0296185Y0060219D02*
X0301297Y0060219D01*
X0301297Y0060317D02*
X0296185Y0060317D01*
X0296185Y0060416D02*
X0301297Y0060416D01*
X0301297Y0060514D02*
X0296185Y0060514D01*
X0296185Y0060613D02*
X0301297Y0060613D01*
X0301297Y0060711D02*
X0296185Y0060711D01*
X0296185Y0060810D02*
X0301297Y0060810D01*
X0301297Y0060908D02*
X0296185Y0060908D01*
X0296185Y0061007D02*
X0301297Y0061007D01*
X0301297Y0061105D02*
X0296185Y0061105D01*
X0296185Y0061204D02*
X0301297Y0061204D01*
X0301297Y0061302D02*
X0296185Y0061302D01*
X0296185Y0061401D02*
X0301297Y0061401D01*
X0301297Y0061499D02*
X0296185Y0061499D01*
X0296185Y0061598D02*
X0301297Y0061598D01*
X0301297Y0061696D02*
X0296185Y0061696D01*
X0296185Y0061795D02*
X0301297Y0061795D01*
X0301297Y0061893D02*
X0296185Y0061893D01*
X0296185Y0062726D02*
X0301297Y0062726D01*
X0301297Y0067839D01*
X0296185Y0067839D01*
X0296185Y0062726D01*
X0296185Y0062780D02*
X0301297Y0062780D01*
X0301297Y0062879D02*
X0296185Y0062879D01*
X0296185Y0062977D02*
X0301297Y0062977D01*
X0301297Y0063076D02*
X0296185Y0063076D01*
X0296185Y0063174D02*
X0301297Y0063174D01*
X0301297Y0063273D02*
X0296185Y0063273D01*
X0296185Y0063371D02*
X0301297Y0063371D01*
X0301297Y0063470D02*
X0296185Y0063470D01*
X0296185Y0063568D02*
X0301297Y0063568D01*
X0301297Y0063667D02*
X0296185Y0063667D01*
X0296185Y0063765D02*
X0301297Y0063765D01*
X0301297Y0063864D02*
X0296185Y0063864D01*
X0296185Y0063962D02*
X0301297Y0063962D01*
X0301297Y0064061D02*
X0296185Y0064061D01*
X0296185Y0064159D02*
X0301297Y0064159D01*
X0301297Y0064258D02*
X0296185Y0064258D01*
X0296185Y0064356D02*
X0301297Y0064356D01*
X0301297Y0064455D02*
X0296185Y0064455D01*
X0296185Y0064553D02*
X0301297Y0064553D01*
X0301297Y0064652D02*
X0296185Y0064652D01*
X0296185Y0064750D02*
X0301297Y0064750D01*
X0301297Y0064849D02*
X0296185Y0064849D01*
X0296185Y0064947D02*
X0301297Y0064947D01*
X0301297Y0065046D02*
X0296185Y0065046D01*
X0296185Y0065144D02*
X0301297Y0065144D01*
X0301297Y0065243D02*
X0296185Y0065243D01*
X0296185Y0065341D02*
X0301297Y0065341D01*
X0301297Y0065440D02*
X0296185Y0065440D01*
X0296185Y0065538D02*
X0301297Y0065538D01*
X0301297Y0065637D02*
X0296185Y0065637D01*
X0296185Y0065735D02*
X0301297Y0065735D01*
X0301297Y0065834D02*
X0296185Y0065834D01*
X0296185Y0065932D02*
X0301297Y0065932D01*
X0301297Y0066031D02*
X0296185Y0066031D01*
X0296185Y0066129D02*
X0301297Y0066129D01*
X0301297Y0066228D02*
X0296185Y0066228D01*
X0296185Y0066326D02*
X0301297Y0066326D01*
X0301297Y0066425D02*
X0296185Y0066425D01*
X0296185Y0066523D02*
X0301297Y0066523D01*
X0301297Y0066622D02*
X0296185Y0066622D01*
X0296185Y0066720D02*
X0301297Y0066720D01*
X0301297Y0066819D02*
X0296185Y0066819D01*
X0296185Y0066917D02*
X0301297Y0066917D01*
X0301297Y0067016D02*
X0296185Y0067016D01*
X0296185Y0067114D02*
X0301297Y0067114D01*
X0301297Y0067213D02*
X0296185Y0067213D01*
X0296185Y0067312D02*
X0301297Y0067312D01*
X0301297Y0067410D02*
X0296185Y0067410D01*
X0296185Y0067509D02*
X0301297Y0067509D01*
X0301297Y0067607D02*
X0296185Y0067607D01*
X0296185Y0067706D02*
X0301297Y0067706D01*
X0301297Y0067804D02*
X0296185Y0067804D01*
X0296185Y0068626D02*
X0301297Y0068626D01*
X0301297Y0073739D01*
X0296185Y0073739D01*
X0296185Y0068626D01*
X0296185Y0068691D02*
X0301297Y0068691D01*
X0301297Y0068789D02*
X0296185Y0068789D01*
X0296185Y0068888D02*
X0301297Y0068888D01*
X0301297Y0068986D02*
X0296185Y0068986D01*
X0296185Y0069085D02*
X0301297Y0069085D01*
X0301297Y0069183D02*
X0296185Y0069183D01*
X0296185Y0069282D02*
X0301297Y0069282D01*
X0301297Y0069380D02*
X0296185Y0069380D01*
X0296185Y0069479D02*
X0301297Y0069479D01*
X0301297Y0069577D02*
X0296185Y0069577D01*
X0296185Y0069676D02*
X0301297Y0069676D01*
X0301297Y0069774D02*
X0296185Y0069774D01*
X0296185Y0069873D02*
X0301297Y0069873D01*
X0301297Y0069971D02*
X0296185Y0069971D01*
X0296185Y0070070D02*
X0301297Y0070070D01*
X0301297Y0070168D02*
X0296185Y0070168D01*
X0296185Y0070267D02*
X0301297Y0070267D01*
X0301297Y0070365D02*
X0296185Y0070365D01*
X0296185Y0070464D02*
X0301297Y0070464D01*
X0301297Y0070562D02*
X0296185Y0070562D01*
X0296185Y0070661D02*
X0301297Y0070661D01*
X0301297Y0070759D02*
X0296185Y0070759D01*
X0296185Y0070858D02*
X0301297Y0070858D01*
X0301297Y0070956D02*
X0296185Y0070956D01*
X0296185Y0071055D02*
X0301297Y0071055D01*
X0301297Y0071153D02*
X0296185Y0071153D01*
X0296185Y0071252D02*
X0301297Y0071252D01*
X0301297Y0071350D02*
X0296185Y0071350D01*
X0296185Y0071449D02*
X0301297Y0071449D01*
X0301297Y0071548D02*
X0296185Y0071548D01*
X0296185Y0071646D02*
X0301297Y0071646D01*
X0301297Y0071745D02*
X0296185Y0071745D01*
X0296185Y0071843D02*
X0301297Y0071843D01*
X0301297Y0071942D02*
X0296185Y0071942D01*
X0296185Y0072040D02*
X0301297Y0072040D01*
X0301297Y0072139D02*
X0296185Y0072139D01*
X0296185Y0072237D02*
X0301297Y0072237D01*
X0301297Y0072336D02*
X0296185Y0072336D01*
X0296185Y0072434D02*
X0301297Y0072434D01*
X0301297Y0072533D02*
X0296185Y0072533D01*
X0296185Y0072631D02*
X0301297Y0072631D01*
X0301297Y0072730D02*
X0296185Y0072730D01*
X0296185Y0072828D02*
X0301297Y0072828D01*
X0301297Y0072927D02*
X0296185Y0072927D01*
X0296185Y0073025D02*
X0301297Y0073025D01*
X0301297Y0073124D02*
X0296185Y0073124D01*
X0296185Y0073222D02*
X0301297Y0073222D01*
X0301297Y0073321D02*
X0296185Y0073321D01*
X0296185Y0073419D02*
X0301297Y0073419D01*
X0301297Y0073518D02*
X0296185Y0073518D01*
X0296185Y0073616D02*
X0301297Y0073616D01*
X0301297Y0073715D02*
X0296185Y0073715D01*
X0296185Y0074526D02*
X0301297Y0074526D01*
X0301297Y0079639D01*
X0296185Y0079639D01*
X0296185Y0074526D01*
X0296185Y0074601D02*
X0301297Y0074601D01*
X0301297Y0074700D02*
X0296185Y0074700D01*
X0296185Y0074798D02*
X0301297Y0074798D01*
X0301297Y0074897D02*
X0296185Y0074897D01*
X0296185Y0074995D02*
X0301297Y0074995D01*
X0301297Y0075094D02*
X0296185Y0075094D01*
X0296185Y0075192D02*
X0301297Y0075192D01*
X0301297Y0075291D02*
X0296185Y0075291D01*
X0296185Y0075389D02*
X0301297Y0075389D01*
X0301297Y0075488D02*
X0296185Y0075488D01*
X0296185Y0075586D02*
X0301297Y0075586D01*
X0301297Y0075685D02*
X0296185Y0075685D01*
X0296185Y0075783D02*
X0301297Y0075783D01*
X0301297Y0075882D02*
X0296185Y0075882D01*
X0296185Y0075981D02*
X0301297Y0075981D01*
X0301297Y0076079D02*
X0296185Y0076079D01*
X0296185Y0076178D02*
X0301297Y0076178D01*
X0301297Y0076276D02*
X0296185Y0076276D01*
X0296185Y0076375D02*
X0301297Y0076375D01*
X0301297Y0076473D02*
X0296185Y0076473D01*
X0296185Y0076572D02*
X0301297Y0076572D01*
X0301297Y0076670D02*
X0296185Y0076670D01*
X0296185Y0076769D02*
X0301297Y0076769D01*
X0301297Y0076867D02*
X0296185Y0076867D01*
X0296185Y0076966D02*
X0301297Y0076966D01*
X0301297Y0077064D02*
X0296185Y0077064D01*
X0296185Y0077163D02*
X0301297Y0077163D01*
X0301297Y0077261D02*
X0296185Y0077261D01*
X0296185Y0077360D02*
X0301297Y0077360D01*
X0301297Y0077458D02*
X0296185Y0077458D01*
X0296185Y0077557D02*
X0301297Y0077557D01*
X0301297Y0077655D02*
X0296185Y0077655D01*
X0296185Y0077754D02*
X0301297Y0077754D01*
X0301297Y0077852D02*
X0296185Y0077852D01*
X0296185Y0077951D02*
X0301297Y0077951D01*
X0301297Y0078049D02*
X0296185Y0078049D01*
X0296185Y0078148D02*
X0301297Y0078148D01*
X0301297Y0078246D02*
X0296185Y0078246D01*
X0296185Y0078345D02*
X0301297Y0078345D01*
X0301297Y0078443D02*
X0296185Y0078443D01*
X0296185Y0078542D02*
X0301297Y0078542D01*
X0301297Y0078640D02*
X0296185Y0078640D01*
X0296185Y0078739D02*
X0301297Y0078739D01*
X0301297Y0078837D02*
X0296185Y0078837D01*
X0296185Y0078936D02*
X0301297Y0078936D01*
X0301297Y0079034D02*
X0296185Y0079034D01*
X0296185Y0079133D02*
X0301297Y0079133D01*
X0301297Y0079231D02*
X0296185Y0079231D01*
X0296185Y0079330D02*
X0301297Y0079330D01*
X0301297Y0079428D02*
X0296185Y0079428D01*
X0296185Y0079527D02*
X0301297Y0079527D01*
X0301297Y0079625D02*
X0296185Y0079625D01*
D54*
X0307428Y0043194D03*
X0313128Y0043194D03*
D55*
X0316900Y0035300D03*
X0320900Y0035300D03*
D56*
X0282700Y0036250D03*
X0282700Y0042350D03*
D57*
X0276900Y0042700D03*
X0276900Y0038700D03*
X0268500Y0039100D03*
X0268500Y0043100D03*
X0263900Y0056300D03*
X0263900Y0060300D03*
X0264100Y0071900D03*
X0264100Y0075900D03*
X0267500Y0087300D03*
X0271500Y0087300D03*
X0276500Y0087500D03*
X0280500Y0087500D03*
X0280500Y0092300D03*
X0276500Y0092300D03*
X0285700Y0091900D03*
X0290700Y0092100D03*
X0290700Y0088100D03*
X0285700Y0087900D03*
X0305500Y0086300D03*
X0305500Y0090300D03*
X0301100Y0042700D03*
X0301100Y0038700D03*
X0325300Y0027100D03*
X0325300Y0023100D03*
X0160700Y0026900D03*
X0156700Y0026900D03*
D58*
X0040183Y0072527D03*
X0040183Y0075676D03*
X0040183Y0078826D03*
X0040183Y0081976D03*
X0040183Y0085125D03*
X0040183Y0088275D03*
X0040183Y0091424D03*
X0040183Y0094574D03*
X0040183Y0097724D03*
X0040183Y0100873D03*
X0007900Y0100873D03*
X0007900Y0097724D03*
X0007900Y0094574D03*
X0007900Y0091424D03*
X0007900Y0088275D03*
X0007900Y0085125D03*
X0007900Y0081976D03*
X0007900Y0078826D03*
X0007900Y0075676D03*
X0007900Y0072527D03*
X0338817Y0073876D03*
X0338817Y0070727D03*
X0338817Y0077026D03*
X0338817Y0080176D03*
X0338817Y0083325D03*
X0338817Y0086475D03*
X0338817Y0089624D03*
X0338817Y0092774D03*
X0338817Y0095924D03*
X0338817Y0099073D03*
X0371100Y0099073D03*
X0371100Y0095924D03*
X0371100Y0092774D03*
X0371100Y0089624D03*
X0371100Y0086475D03*
X0371100Y0083325D03*
X0371100Y0080176D03*
X0371100Y0077026D03*
X0371100Y0073876D03*
X0371100Y0070727D03*
D59*
X0292606Y0195100D03*
X0288669Y0195100D03*
X0284731Y0195100D03*
X0280794Y0195100D03*
X0144006Y0064700D03*
X0140069Y0064700D03*
X0136131Y0064700D03*
X0132194Y0064700D03*
X0071806Y0021700D03*
X0067869Y0021700D03*
X0063931Y0021700D03*
X0059994Y0021700D03*
D60*
X0054876Y0011759D03*
X0076924Y0011759D03*
X0127076Y0054759D03*
X0149124Y0054759D03*
X0275676Y0185159D03*
X0297724Y0185159D03*
D61*
X0139700Y0042640D03*
X0139700Y0034760D03*
X0128900Y0034760D03*
X0128900Y0042640D03*
D62*
X0156820Y0020446D03*
X0163780Y0020446D03*
X0163780Y0011754D03*
X0156820Y0011754D03*
X0331420Y0013754D03*
X0338380Y0013754D03*
X0338380Y0022446D03*
X0331420Y0022446D03*
D63*
X0334900Y0022446D03*
X0334900Y0013754D03*
X0160300Y0011754D03*
X0160300Y0020446D03*
D64*
X0173100Y0009700D03*
X0177200Y0009700D03*
X0335000Y0030500D03*
X0339100Y0030500D03*
X0344700Y0018500D03*
X0348800Y0018500D03*
D65*
X0345100Y0024300D03*
X0345100Y0030000D03*
X0173100Y0020800D03*
X0173100Y0015100D03*
D66*
X0153400Y0035500D03*
X0149300Y0035500D03*
X0128700Y0025700D03*
X0124600Y0025700D03*
M02*
